<svg width="99" height="63" viewBox="0 0 99 63" fill="none" xmlns="http://www.w3.org/2000/svg">
<path d="M98.0037 28.3521C98.5116 28.7524 98.5116 29.5224 98.0037 29.9228L68.7976 52.944C68.1417 53.461 67.1786 52.9938 67.1786 52.1586L67.1786 6.11618C67.1786 5.28102 68.1417 4.81383 68.7976 5.33082L98.0037 28.3521Z" fill="url(#paint0_linear_157_15)"/>
<rect x="8.48535" y="16.3936" width="59.4" height="25.4875" fill="url(#paint1_linear_157_15)"/>
<path d="M0 24.8793C0 20.1927 3.79918 16.3936 8.48571 16.3936V16.3936V46.5152H0V24.8793Z" fill="url(#paint2_linear_157_15)"/>
<path d="M27.1798 26.6719C27.1401 26.2997 26.9725 26.0099 26.677 25.8026C26.3844 25.5952 26.0037 25.4915 25.535 25.4915C25.2054 25.4915 24.9227 25.5412 24.6869 25.6406C24.4511 25.7401 24.2707 25.875 24.1457 26.0455C24.0207 26.2159 23.9568 26.4105 23.954 26.6293C23.954 26.8111 23.9952 26.9687 24.0776 27.1023C24.1628 27.2358 24.2778 27.3494 24.4227 27.4432C24.5676 27.5341 24.7281 27.6108 24.9043 27.6733C25.0804 27.7358 25.258 27.7884 25.4369 27.831L26.2551 28.0355C26.5847 28.1122 26.9014 28.2159 27.2054 28.3466C27.5122 28.4773 27.7864 28.642 28.0278 28.8409C28.2722 29.0398 28.4653 29.2798 28.6074 29.5611C28.7494 29.8423 28.8205 30.1719 28.8205 30.5497C28.8205 31.0611 28.6898 31.5114 28.4284 31.9006C28.1671 32.2869 27.7892 32.5895 27.2949 32.8082C26.8034 33.0241 26.2082 33.1321 25.5094 33.1321C24.8304 33.1321 24.2409 33.027 23.7409 32.8168C23.2438 32.6065 22.8546 32.2997 22.5733 31.8963C22.2949 31.4929 22.1443 31.0014 22.1216 30.4219H23.677C23.6997 30.7259 23.7935 30.9787 23.9582 31.1804C24.123 31.3821 24.3375 31.5327 24.6017 31.6321C24.8688 31.7315 25.1671 31.7812 25.4966 31.7812C25.8403 31.7812 26.1415 31.7301 26.4 31.6278C26.6614 31.5227 26.8659 31.3778 27.0136 31.1932C27.1614 31.0057 27.2367 30.7869 27.2395 30.5369C27.2367 30.3097 27.1699 30.1222 27.0392 29.9744C26.9085 29.8239 26.7253 29.6989 26.4895 29.5994C26.2565 29.4972 25.9838 29.4062 25.6713 29.3267L24.6784 29.071C23.9597 28.8864 23.3915 28.6065 22.9739 28.2315C22.5591 27.8537 22.3517 27.3523 22.3517 26.7273C22.3517 26.2131 22.4909 25.7628 22.7693 25.3764C23.0506 24.9901 23.4327 24.6903 23.9156 24.4773C24.3986 24.2614 24.9455 24.1534 25.5563 24.1534C26.1756 24.1534 26.7182 24.2614 27.1841 24.4773C27.6528 24.6903 28.0207 24.9872 28.2878 25.3679C28.5548 25.7457 28.6926 26.1804 28.7011 26.6719H27.1798ZM33.0702 26.4545V27.6477H29.3074V26.4545H33.0702ZM30.2364 24.8864H31.779V31.0312C31.779 31.2386 31.8102 31.3977 31.8727 31.5085C31.9381 31.6165 32.0233 31.6903 32.1284 31.7301C32.2335 31.7699 32.35 31.7898 32.4779 31.7898C32.5745 31.7898 32.6625 31.7827 32.7421 31.7685C32.8245 31.7543 32.887 31.7415 32.9296 31.7301L33.1895 32.9361C33.1071 32.9645 32.9892 32.9957 32.8358 33.0298C32.6852 33.0639 32.5006 33.0838 32.2818 33.0895C31.8955 33.1009 31.5475 33.0426 31.2378 32.9148C30.9281 32.7841 30.6824 32.5824 30.5006 32.3097C30.3216 32.0369 30.2335 31.696 30.2364 31.2869V24.8864ZM36.8277 33.1278C36.1715 33.1278 35.6047 32.9915 35.1275 32.7188C34.653 32.4432 34.288 32.054 34.0323 31.5511C33.7766 31.0455 33.6488 30.4503 33.6488 29.7656C33.6488 29.0923 33.7766 28.5014 34.0323 27.9929C34.2908 27.4815 34.6516 27.0838 35.1147 26.7997C35.5777 26.5128 36.1218 26.3693 36.7468 26.3693C37.1502 26.3693 37.5309 26.4347 37.8888 26.5653C38.2496 26.6932 38.5678 26.892 38.8434 27.1619C39.1218 27.4318 39.3405 27.7756 39.4996 28.1932C39.6587 28.608 39.7382 29.1023 39.7382 29.6761V30.1491H34.3732V29.1094H38.2596C38.2567 28.8139 38.1928 28.5511 38.0678 28.321C37.9428 28.0881 37.7681 27.9048 37.5436 27.7713C37.3221 27.6378 37.0635 27.571 36.7681 27.571C36.4527 27.571 36.1757 27.6477 35.9371 27.8011C35.6985 27.9517 35.5124 28.1506 35.3789 28.3977C35.2482 28.642 35.1814 28.9105 35.1786 29.2031V30.1108C35.1786 30.4915 35.2482 30.8182 35.3874 31.0909C35.5266 31.3608 35.7212 31.5682 35.9712 31.7131C36.2212 31.8551 36.5138 31.9261 36.849 31.9261C37.0735 31.9261 37.2766 31.8949 37.4584 31.8324C37.6402 31.767 37.7979 31.6719 37.9314 31.5469C38.065 31.4219 38.1658 31.267 38.234 31.0824L39.6743 31.2443C39.5834 31.625 39.4101 31.9574 39.1544 32.2415C38.9016 32.5227 38.5777 32.7415 38.1828 32.8977C37.788 33.0511 37.3363 33.1278 36.8277 33.1278ZM40.6833 35.4545V26.4545H42.2003V27.5369H42.2898C42.3694 27.3778 42.4816 27.2088 42.6265 27.0298C42.7714 26.848 42.9674 26.6932 43.2145 26.5653C43.4617 26.4347 43.777 26.3693 44.1606 26.3693C44.6662 26.3693 45.1222 26.4986 45.5285 26.7571C45.9376 27.0128 46.2614 27.392 46.5001 27.8949C46.7415 28.3949 46.8623 29.0085 46.8623 29.7358C46.8623 30.4545 46.7444 31.0653 46.5086 31.5682C46.2728 32.071 45.9518 32.4545 45.5455 32.7188C45.1393 32.983 44.679 33.1151 44.1648 33.1151C43.7898 33.1151 43.4787 33.0526 43.2316 32.9276C42.9844 32.8026 42.7856 32.652 42.635 32.4759C42.4873 32.2969 42.3722 32.1278 42.2898 31.9688H42.2259V35.4545H40.6833ZM42.1961 29.7273C42.1961 30.1506 42.2557 30.5213 42.3751 30.8395C42.4972 31.1577 42.6719 31.4062 42.8992 31.5852C43.1293 31.7614 43.4077 31.8494 43.7344 31.8494C44.0753 31.8494 44.3608 31.7585 44.591 31.5767C44.8211 31.392 44.9944 31.1406 45.1108 30.8224C45.2302 30.5014 45.2898 30.1364 45.2898 29.7273C45.2898 29.321 45.2316 28.9602 45.1151 28.6449C44.9986 28.3295 44.8253 28.0824 44.5952 27.9034C44.3651 27.7244 44.0782 27.6349 43.7344 27.6349C43.4049 27.6349 43.1251 27.7216 42.8949 27.8949C42.6648 28.0682 42.4901 28.3111 42.3708 28.6236C42.2543 28.9361 42.1961 29.304 42.1961 29.7273ZM53.9725 24.2727V33H52.3916V25.8111H52.3404L50.2992 27.1151V25.6662L52.4683 24.2727H53.9725Z" fill="white"/>
<path d="M0 44.8818C0 43.225 1.34315 41.8818 3 41.8818H11.3143V62.7353H3C1.34315 62.7353 0 61.3921 0 59.7353V44.8818Z" fill="url(#paint3_linear_157_15)" fill-opacity="0.97"/>
<defs>
<linearGradient id="paint0_linear_157_15" x1="-7.61538" y1="28.5582" x2="103.694" y2="42.5493" gradientUnits="userSpaceOnUse">
<stop stop-color="#6A5AB2"/>
<stop offset="1" stop-color="#4930C2"/>
</linearGradient>
<linearGradient id="paint1_linear_157_15" x1="-13.7078" y1="28.5582" x2="68.5383" y2="28.5582" gradientUnits="userSpaceOnUse">
<stop stop-color="#6A5AB2"/>
<stop offset="1" stop-color="#533DBD"/>
</linearGradient>
<linearGradient id="paint2_linear_157_15" x1="-22.0846" y1="27.7697" x2="24.3701" y2="27.0342" gradientUnits="userSpaceOnUse">
<stop stop-color="#6A5AB2"/>
<stop offset="1" stop-color="#6452B5"/>
</linearGradient>
<linearGradient id="paint3_linear_157_15" x1="5.65714" y1="41.8818" x2="5.65714" y2="62.7353" gradientUnits="userSpaceOnUse">
<stop offset="0.15" stop-color="#BEBDBD"/>
<stop offset="0.625" stop-color="#D9D9D9"/>
</linearGradient>
</defs>
</svg>
