<svg width="99" height="63" viewBox="0 0 99 63" fill="none" xmlns="http://www.w3.org/2000/svg">
<path d="M98.0037 28.1777C98.5116 28.5781 98.5116 29.3481 98.0037 29.7485L68.7976 52.7697C68.1417 53.2867 67.1786 52.8195 67.1786 51.9843L67.1786 5.94186C67.1786 5.10671 68.1417 4.63951 68.7976 5.15651L98.0037 28.1777Z" fill="url(#paint0_linear_157_34)"/>
<rect x="8.48535" y="16.2192" width="59.4" height="25.4875" fill="url(#paint1_linear_157_34)"/>
<path d="M0 24.7049C0 20.0184 3.79918 16.2192 8.48571 16.2192V16.2192V46.3409H0V24.7049Z" fill="url(#paint2_linear_157_34)"/>
<path d="M26.0666 26.4976C26.0268 26.1254 25.8592 25.8356 25.5637 25.6282C25.2711 25.4209 24.8904 25.3172 24.4217 25.3172C24.0921 25.3172 23.8095 25.3669 23.5737 25.4663C23.3379 25.5657 23.1575 25.7007 23.0325 25.8711C22.9075 26.0416 22.8435 26.2362 22.8407 26.4549C22.8407 26.6368 22.8819 26.7944 22.9643 26.928C23.0495 27.0615 23.1646 27.1751 23.3095 27.2689C23.4543 27.3598 23.6149 27.4365 23.791 27.499C23.9671 27.5615 24.1447 27.614 24.3237 27.6566L25.1418 27.8612C25.4714 27.9379 25.7881 28.0416 26.0921 28.1723C26.3989 28.303 26.6731 28.4677 26.9146 28.6666C27.1589 28.8655 27.3521 29.1055 27.4941 29.3868C27.6362 29.668 27.7072 29.9976 27.7072 30.3754C27.7072 30.8868 27.5765 31.337 27.3151 31.7263C27.0538 32.1126 26.6759 32.4152 26.1816 32.6339C25.6901 32.8498 25.095 32.9578 24.3961 32.9578C23.7171 32.9578 23.1276 32.8527 22.6276 32.6424C22.1305 32.4322 21.7413 32.1254 21.46 31.722C21.1816 31.3186 21.031 30.8271 21.0083 30.2476H22.5637C22.5864 30.5515 22.6802 30.8044 22.845 31.0061C23.0097 31.2078 23.2242 31.3584 23.4884 31.4578C23.7555 31.5572 24.0538 31.6069 24.3833 31.6069C24.7271 31.6069 25.0282 31.5558 25.2867 31.4535C25.5481 31.3484 25.7526 31.2035 25.9004 31.0189C26.0481 30.8314 26.1234 30.6126 26.1262 30.3626C26.1234 30.1353 26.0566 29.9478 25.9259 29.8001C25.7953 29.6495 25.612 29.5245 25.3762 29.4251C25.1433 29.3228 24.8705 29.2319 24.558 29.1524L23.5651 28.8967C22.8464 28.712 22.2782 28.4322 21.8606 28.0572C21.4458 27.6794 21.2384 27.178 21.2384 26.553C21.2384 26.0388 21.3776 25.5885 21.656 25.2021C21.9373 24.8157 22.3194 24.516 22.8024 24.303C23.2853 24.087 23.8322 23.9791 24.443 23.9791C25.0623 23.9791 25.6049 24.087 26.0708 24.303C26.5396 24.516 26.9075 24.8129 27.1745 25.1936C27.4416 25.5714 27.5793 26.0061 27.5879 26.4976H26.0666ZM31.9569 26.2802V27.4734H28.1941V26.2802H31.9569ZM29.1231 24.712H30.6657V30.8569C30.6657 31.0643 30.697 31.2234 30.7595 31.3342C30.8248 31.4422 30.91 31.516 31.0152 31.5558C31.1203 31.5956 31.2367 31.6155 31.3646 31.6155C31.4612 31.6155 31.5492 31.6084 31.6288 31.5941C31.7112 31.5799 31.7737 31.5672 31.8163 31.5558L32.0762 32.7618C31.9938 32.7902 31.8759 32.8214 31.7225 32.8555C31.572 32.8896 31.3873 32.9095 31.1686 32.9152C30.7822 32.9265 30.4342 32.8683 30.1245 32.7405C29.8149 32.6098 29.5691 32.4081 29.3873 32.1353C29.2083 31.8626 29.1203 31.5217 29.1231 31.1126V24.712ZM35.7145 32.9535C35.0582 32.9535 34.4914 32.8172 34.0142 32.5444C33.5397 32.2689 33.1747 31.8797 32.919 31.3768C32.6633 30.8711 32.5355 30.276 32.5355 29.5913C32.5355 28.918 32.6633 28.3271 32.919 27.8186C33.1775 27.3072 33.5383 26.9095 34.0014 26.6254C34.4645 26.3385 35.0085 26.195 35.6335 26.195C36.0369 26.195 36.4176 26.2603 36.7755 26.391C37.1363 26.5189 37.4545 26.7177 37.7301 26.9876C38.0085 27.2575 38.2272 27.6013 38.3863 28.0189C38.5454 28.4336 38.625 28.928 38.625 29.5018V29.9748H33.2599V28.9351H37.1463C37.1434 28.6396 37.0795 28.3768 36.9545 28.1467C36.8295 27.9138 36.6548 27.7305 36.4304 27.597C36.2088 27.4635 35.9503 27.3967 35.6548 27.3967C35.3395 27.3967 35.0625 27.4734 34.8238 27.6268C34.5852 27.7774 34.3991 27.9763 34.2656 28.2234C34.1349 28.4677 34.0681 28.7362 34.0653 29.0288V29.9365C34.0653 30.3172 34.1349 30.6439 34.2741 30.9166C34.4133 31.1865 34.6079 31.3939 34.8579 31.5388C35.1079 31.6808 35.4005 31.7518 35.7358 31.7518C35.9602 31.7518 36.1633 31.7206 36.3451 31.6581C36.527 31.5927 36.6846 31.4976 36.8181 31.3726C36.9517 31.2476 37.0525 31.0927 37.1207 30.9081L38.561 31.07C38.4701 31.4507 38.2968 31.7831 38.0412 32.0672C37.7883 32.3484 37.4645 32.5672 37.0696 32.7234C36.6747 32.8768 36.223 32.9535 35.7145 32.9535ZM39.57 35.2802V26.2802H41.0871V27.3626H41.1765C41.2561 27.2035 41.3683 27.0345 41.5132 26.8555C41.6581 26.6737 41.8541 26.5189 42.1013 26.391C42.3484 26.2603 42.6638 26.195 43.0473 26.195C43.553 26.195 44.0089 26.3243 44.4152 26.5828C44.8243 26.8385 45.1481 27.2177 45.3868 27.7206C45.6282 28.2206 45.749 28.8342 45.749 29.5615C45.749 30.2802 45.6311 30.891 45.3953 31.3939C45.1595 31.8967 44.8385 32.2802 44.4322 32.5444C44.026 32.8086 43.5657 32.9407 43.0515 32.9407C42.6765 32.9407 42.3655 32.8782 42.1183 32.7532C41.8711 32.6282 41.6723 32.4777 41.5217 32.3015C41.374 32.1226 41.2589 31.9535 41.1765 31.7944H41.1126V35.2802H39.57ZM41.0828 29.553C41.0828 29.9763 41.1425 30.347 41.2618 30.6652C41.3839 30.9834 41.5586 31.2319 41.7859 31.4109C42.016 31.587 42.2944 31.6751 42.6211 31.6751C42.9621 31.6751 43.2476 31.5842 43.4777 31.4024C43.7078 31.2177 43.8811 30.9663 43.9976 30.6481C44.1169 30.3271 44.1765 29.962 44.1765 29.553C44.1765 29.1467 44.1183 28.7859 44.0018 28.4706C43.8854 28.1552 43.7121 27.9081 43.4819 27.7291C43.2518 27.5501 42.9649 27.4606 42.6211 27.4606C42.2916 27.4606 42.0118 27.5473 41.7817 27.7206C41.5515 27.8939 41.3768 28.1368 41.2575 28.4493C41.141 28.7618 41.0828 29.1297 41.0828 29.553ZM49.1519 31.2064V29.9493L52.855 24.0984H53.9033V25.8882H53.2641L50.7712 29.8385V29.9066H55.9402V31.2064H49.1519ZM53.3152 32.8257V30.8228L53.3323 30.2603V24.0984H54.8237V32.8257H53.3152Z" fill="white"/>
<path d="M0 44.7075C0 43.0507 1.34315 41.7075 3 41.7075H11.3143V62.5609H3C1.34315 62.5609 0 61.2178 0 59.5609V44.7075Z" fill="url(#paint3_linear_157_34)" fill-opacity="0.97"/>
<defs>
<linearGradient id="paint0_linear_157_34" x1="-7.61538" y1="28.3838" x2="103.694" y2="42.375" gradientUnits="userSpaceOnUse">
<stop stop-color="#FB2D99"/>
<stop offset="1" stop-color="#EF198A"/>
</linearGradient>
<linearGradient id="paint1_linear_157_34" x1="-13.7078" y1="28.3838" x2="68.5383" y2="28.3838" gradientUnits="userSpaceOnUse">
<stop stop-color="#EB62A8"/>
<stop offset="1" stop-color="#F3208F"/>
</linearGradient>
<linearGradient id="paint2_linear_157_34" x1="-22.0846" y1="27.5954" x2="24.3701" y2="26.8598" gradientUnits="userSpaceOnUse">
<stop stop-color="#FA69B2"/>
<stop offset="0.624" stop-color="#ED50A1"/>
</linearGradient>
<linearGradient id="paint3_linear_157_34" x1="5.65714" y1="41.7075" x2="5.65714" y2="62.5609" gradientUnits="userSpaceOnUse">
<stop offset="0.15" stop-color="#BEBDBD"/>
<stop offset="0.625" stop-color="#D9D9D9"/>
</linearGradient>
</defs>
</svg>
