<svg width="99" height="63" viewBox="0 0 99 63" fill="none" xmlns="http://www.w3.org/2000/svg">
<path d="M98.0037 28.1777C98.5116 28.5781 98.5116 29.3481 98.0037 29.7485L68.7976 52.7697C68.1417 53.2867 67.1786 52.8195 67.1786 51.9843L67.1786 5.94186C67.1786 5.10671 68.1417 4.63951 68.7976 5.15651L98.0037 28.1777Z" fill="url(#paint0_linear_157_18)"/>
<rect x="8.48535" y="16.2192" width="59.4" height="25.4875" fill="url(#paint1_linear_157_18)"/>
<path d="M0 24.7049C0 20.0184 3.79918 16.2192 8.48571 16.2192V16.2192V46.3409H0V24.7049Z" fill="url(#paint2_linear_157_18)"/>
<path d="M26.3361 26.4976C26.2963 26.1254 26.1287 25.8356 25.8332 25.6282C25.5406 25.4209 25.16 25.3172 24.6912 25.3172C24.3617 25.3172 24.079 25.3669 23.8432 25.4663C23.6074 25.5657 23.427 25.7007 23.302 25.8711C23.177 26.0416 23.1131 26.2362 23.1102 26.4549C23.1102 26.6368 23.1514 26.7944 23.2338 26.928C23.319 27.0615 23.4341 27.1751 23.579 27.2689C23.7239 27.3598 23.8844 27.4365 24.0605 27.499C24.2367 27.5615 24.4142 27.614 24.5932 27.6566L25.4114 27.8612C25.7409 27.9379 26.0577 28.0416 26.3617 28.1723C26.6685 28.303 26.9426 28.4677 27.1841 28.6666C27.4284 28.8655 27.6216 29.1055 27.7636 29.3868C27.9057 29.668 27.9767 29.9976 27.9767 30.3754C27.9767 30.8868 27.846 31.337 27.5847 31.7263C27.3233 32.1126 26.9455 32.4152 26.4511 32.6339C25.9597 32.8498 25.3645 32.9578 24.6656 32.9578C23.9867 32.9578 23.3972 32.8527 22.8972 32.6424C22.4 32.4322 22.0108 32.1254 21.7296 31.722C21.4511 31.3186 21.3006 30.8271 21.2778 30.2476H22.8332C22.856 30.5515 22.9497 30.8044 23.1145 31.0061C23.2793 31.2078 23.4938 31.3584 23.758 31.4578C24.025 31.5572 24.3233 31.6069 24.6528 31.6069C24.9966 31.6069 25.2977 31.5558 25.5563 31.4535C25.8176 31.3484 26.0222 31.2035 26.1699 31.0189C26.3176 30.8314 26.3929 30.6126 26.3957 30.3626C26.3929 30.1353 26.3261 29.9478 26.1955 29.8001C26.0648 29.6495 25.8815 29.5245 25.6457 29.4251C25.4128 29.3228 25.1401 29.2319 24.8276 29.1524L23.8347 28.8967C23.1159 28.712 22.5477 28.4322 22.1301 28.0572C21.7153 27.6794 21.508 27.178 21.508 26.553C21.508 26.0388 21.6472 25.5885 21.9256 25.2021C22.2068 24.8157 22.5889 24.516 23.0719 24.303C23.5548 24.087 24.1017 23.9791 24.7125 23.9791C25.3318 23.9791 25.8744 24.087 26.3403 24.303C26.8091 24.516 27.177 24.8129 27.444 25.1936C27.7111 25.5714 27.8489 26.0061 27.8574 26.4976H26.3361ZM32.2264 26.2802V27.4734H28.4637V26.2802H32.2264ZM29.3926 24.712H30.9352V30.8569C30.9352 31.0643 30.9665 31.2234 31.029 31.3342C31.0943 31.4422 31.1796 31.516 31.2847 31.5558C31.3898 31.5956 31.5063 31.6155 31.6341 31.6155C31.7307 31.6155 31.8188 31.6084 31.8983 31.5941C31.9807 31.5799 32.0432 31.5672 32.0858 31.5558L32.3458 32.7618C32.2634 32.7902 32.1455 32.8214 31.9921 32.8555C31.8415 32.8896 31.6568 32.9095 31.4381 32.9152C31.0517 32.9265 30.7037 32.8683 30.3941 32.7405C30.0844 32.6098 29.8387 32.4081 29.6568 32.1353C29.4779 31.8626 29.3898 31.5217 29.3926 31.1126V24.712ZM35.984 32.9535C35.3277 32.9535 34.761 32.8172 34.2837 32.5444C33.8093 32.2689 33.4442 31.8797 33.1885 31.3768C32.9328 30.8711 32.805 30.276 32.805 29.5913C32.805 28.918 32.9328 28.3271 33.1885 27.8186C33.4471 27.3072 33.8078 26.9095 34.2709 26.6254C34.734 26.3385 35.278 26.195 35.903 26.195C36.3064 26.195 36.6871 26.2603 37.0451 26.391C37.4059 26.5189 37.724 26.7177 37.9996 26.9876C38.278 27.2575 38.4968 27.6013 38.6559 28.0189C38.815 28.4336 38.8945 28.928 38.8945 29.5018V29.9748H33.5294V28.9351H37.4158C37.413 28.6396 37.349 28.3768 37.224 28.1467C37.099 27.9138 36.9243 27.7305 36.6999 27.597C36.4783 27.4635 36.2198 27.3967 35.9243 27.3967C35.609 27.3967 35.332 27.4734 35.0934 27.6268C34.8547 27.7774 34.6686 27.9763 34.5351 28.2234C34.4044 28.4677 34.3377 28.7362 34.3348 29.0288V29.9365C34.3348 30.3172 34.4044 30.6439 34.5436 30.9166C34.6828 31.1865 34.8775 31.3939 35.1275 31.5388C35.3775 31.6808 35.6701 31.7518 36.0053 31.7518C36.2297 31.7518 36.4328 31.7206 36.6147 31.6581C36.7965 31.5927 36.9542 31.4976 37.0877 31.3726C37.2212 31.2476 37.3221 31.0927 37.3902 30.9081L38.8306 31.07C38.7397 31.4507 38.5664 31.7831 38.3107 32.0672C38.0578 32.3484 37.734 32.5672 37.3391 32.7234C36.9442 32.8768 36.4925 32.9535 35.984 32.9535ZM39.8395 35.2802V26.2802H41.3566V27.3626H41.4461C41.5256 27.2035 41.6378 27.0345 41.7827 26.8555C41.9276 26.6737 42.1236 26.5189 42.3708 26.391C42.6179 26.2603 42.9333 26.195 43.3168 26.195C43.8225 26.195 44.2785 26.3243 44.6847 26.5828C45.0938 26.8385 45.4177 27.2177 45.6563 27.7206C45.8978 28.2206 46.0185 28.8342 46.0185 29.5615C46.0185 30.2802 45.9006 30.891 45.6648 31.3939C45.429 31.8967 45.108 32.2802 44.7018 32.5444C44.2955 32.8086 43.8353 32.9407 43.3211 32.9407C42.9461 32.9407 42.635 32.8782 42.3878 32.7532C42.1407 32.6282 41.9418 32.4777 41.7912 32.3015C41.6435 32.1226 41.5285 31.9535 41.4461 31.7944H41.3822V35.2802H39.8395ZM41.3523 29.553C41.3523 29.9763 41.412 30.347 41.5313 30.6652C41.6535 30.9834 41.8282 31.2319 42.0554 31.4109C42.2856 31.587 42.564 31.6751 42.8907 31.6751C43.2316 31.6751 43.5171 31.5842 43.7472 31.4024C43.9773 31.2177 44.1506 30.9663 44.2671 30.6481C44.3864 30.3271 44.4461 29.962 44.4461 29.553C44.4461 29.1467 44.3878 28.7859 44.2714 28.4706C44.1549 28.1552 43.9816 27.9081 43.7515 27.7291C43.5214 27.5501 43.2344 27.4606 42.8907 27.4606C42.5611 27.4606 42.2813 27.5473 42.0512 27.7206C41.8211 27.8939 41.6464 28.1368 41.527 28.4493C41.4106 28.7618 41.3523 29.1297 41.3523 29.553ZM49.5791 32.8257V31.6836L52.6089 28.7135C52.8987 28.4209 53.1401 28.1609 53.3333 27.9336C53.5265 27.7064 53.6714 27.4862 53.768 27.2731C53.8646 27.0601 53.9129 26.8328 53.9129 26.5913C53.9129 26.3157 53.8504 26.0799 53.7254 25.8839C53.6004 25.6851 53.4285 25.5316 53.2097 25.4237C52.991 25.3157 52.7424 25.2618 52.464 25.2618C52.1771 25.2618 51.9256 25.3214 51.7097 25.4407C51.4938 25.5572 51.3262 25.7234 51.2069 25.9393C51.0904 26.1552 51.0322 26.4123 51.0322 26.7106H49.5279C49.5279 26.1566 49.6543 25.6751 49.9072 25.266C50.16 24.8569 50.508 24.5402 50.9512 24.3157C51.3972 24.0913 51.9086 23.9791 52.4853 23.9791C53.0705 23.9791 53.5847 24.0885 54.0279 24.3072C54.4711 24.526 54.8149 24.8257 55.0592 25.2064C55.3063 25.587 55.4299 26.0217 55.4299 26.5103C55.4299 26.837 55.3674 27.1581 55.2424 27.4734C55.1174 27.7888 54.8972 28.1382 54.5819 28.5217C54.2694 28.9052 53.8305 29.3697 53.2651 29.9152L51.7609 31.445V31.5047H55.562V32.8257H49.5791Z" fill="white"/>
<path d="M0 44.7075C0 43.0507 1.34315 41.7075 3 41.7075H11.3143V62.5609H3C1.34315 62.5609 0 61.2178 0 59.5609V44.7075Z" fill="url(#paint3_linear_157_18)" fill-opacity="0.97"/>
<defs>
<linearGradient id="paint0_linear_157_18" x1="-7.61538" y1="28.3838" x2="103.694" y2="42.375" gradientUnits="userSpaceOnUse">
<stop stop-color="#FF651D"/>
<stop offset="1" stop-color="#F44727"/>
</linearGradient>
<linearGradient id="paint1_linear_157_18" x1="-13.7078" y1="28.3838" x2="68.5383" y2="28.3838" gradientUnits="userSpaceOnUse">
<stop stop-color="#FF8516"/>
<stop offset="1" stop-color="#F85124"/>
</linearGradient>
<linearGradient id="paint2_linear_157_18" x1="-22.0846" y1="27.5954" x2="24.3701" y2="26.8598" gradientUnits="userSpaceOnUse">
<stop stop-color="#FE8615"/>
<stop offset="1" stop-color="#FD771A"/>
</linearGradient>
<linearGradient id="paint3_linear_157_18" x1="5.65714" y1="41.7075" x2="5.65714" y2="62.5609" gradientUnits="userSpaceOnUse">
<stop offset="0.15" stop-color="#BEBDBD"/>
<stop offset="0.625" stop-color="#D9D9D9"/>
</linearGradient>
</defs>
</svg>
