<svg width="99" height="63" viewBox="0 0 99 63" fill="none" xmlns="http://www.w3.org/2000/svg">
<path d="M98.0037 28.1777C98.5116 28.5781 98.5116 29.3481 98.0037 29.7485L68.7976 52.7697C68.1417 53.2867 67.1786 52.8195 67.1786 51.9843L67.1786 5.94186C67.1786 5.10671 68.1417 4.63951 68.7976 5.15651L98.0037 28.1777Z" fill="url(#paint0_linear_157_26)"/>
<rect x="8.48535" y="16.2192" width="59.4" height="25.4875" fill="url(#paint1_linear_157_26)"/>
<path d="M0 24.7049C0 20.0184 3.79918 16.2192 8.48571 16.2192V16.2192V46.3409H0V24.7049Z" fill="url(#paint2_linear_157_26)"/>
<path d="M26.1544 26.4976C26.1147 26.1254 25.9471 25.8356 25.6516 25.6282C25.359 25.4209 24.9783 25.3172 24.5096 25.3172C24.18 25.3172 23.8973 25.3669 23.6616 25.4663C23.4258 25.5657 23.2454 25.7007 23.1204 25.8711C22.9954 26.0416 22.9314 26.2362 22.9286 26.4549C22.9286 26.6368 22.9698 26.7944 23.0522 26.928C23.1374 27.0615 23.2525 27.1751 23.3973 27.2689C23.5422 27.3598 23.7027 27.4365 23.8789 27.499C24.055 27.5615 24.2326 27.614 24.4116 27.6566L25.2297 27.8612C25.5593 27.9379 25.876 28.0416 26.18 28.1723C26.4868 28.303 26.761 28.4677 27.0025 28.6666C27.2468 28.8655 27.44 29.1055 27.582 29.3868C27.7241 29.668 27.7951 29.9976 27.7951 30.3754C27.7951 30.8868 27.6644 31.337 27.403 31.7263C27.1417 32.1126 26.7638 32.4152 26.2695 32.6339C25.778 32.8498 25.1829 32.9578 24.484 32.9578C23.805 32.9578 23.2155 32.8527 22.7155 32.6424C22.2184 32.4322 21.8292 32.1254 21.5479 31.722C21.2695 31.3186 21.1189 30.8271 21.0962 30.2476H22.6516C22.6743 30.5515 22.7681 30.8044 22.9329 31.0061C23.0976 31.2078 23.3121 31.3584 23.5763 31.4578C23.8434 31.5572 24.1417 31.6069 24.4712 31.6069C24.815 31.6069 25.1161 31.5558 25.3746 31.4535C25.636 31.3484 25.8405 31.2035 25.9883 31.0189C26.136 30.8314 26.2113 30.6126 26.2141 30.3626C26.2113 30.1353 26.1445 29.9478 26.0138 29.8001C25.8831 29.6495 25.6999 29.5245 25.4641 29.4251C25.2312 29.3228 24.9584 29.2319 24.6459 29.1524L23.653 28.8967C22.9343 28.712 22.3661 28.4322 21.9485 28.0572C21.5337 27.6794 21.3263 27.178 21.3263 26.553C21.3263 26.0388 21.4655 25.5885 21.7439 25.2021C22.0252 24.8157 22.4073 24.516 22.8902 24.303C23.3732 24.087 23.9201 23.9791 24.5309 23.9791C25.1502 23.9791 25.6928 24.087 26.1587 24.303C26.6275 24.516 26.9954 24.8129 27.2624 25.1936C27.5294 25.5714 27.6672 26.0061 27.6758 26.4976H26.1544ZM32.0448 26.2802V27.4734H28.282V26.2802H32.0448ZM29.211 24.712H30.7536V30.8569C30.7536 31.0643 30.7849 31.2234 30.8474 31.3342C30.9127 31.4422 30.9979 31.516 31.103 31.5558C31.2082 31.5956 31.3246 31.6155 31.4525 31.6155C31.5491 31.6155 31.6371 31.6084 31.7167 31.5941C31.7991 31.5799 31.8616 31.5672 31.9042 31.5558L32.1641 32.7618C32.0817 32.7902 31.9638 32.8214 31.8104 32.8555C31.6599 32.8896 31.4752 32.9095 31.2565 32.9152C30.8701 32.9265 30.5221 32.8683 30.2124 32.7405C29.9028 32.6098 29.657 32.4081 29.4752 32.1353C29.2962 31.8626 29.2082 31.5217 29.211 31.1126V24.712ZM35.8023 32.9535C35.1461 32.9535 34.5793 32.8172 34.1021 32.5444C33.6276 32.2689 33.2626 31.8797 33.0069 31.3768C32.7512 30.8711 32.6234 30.276 32.6234 29.5913C32.6234 28.918 32.7512 28.3271 33.0069 27.8186C33.2654 27.3072 33.6262 26.9095 34.0893 26.6254C34.5523 26.3385 35.0964 26.195 35.7214 26.195C36.1248 26.195 36.5055 26.2603 36.8634 26.391C37.2242 26.5189 37.5424 26.7177 37.818 26.9876C38.0964 27.2575 38.3151 27.6013 38.4742 28.0189C38.6333 28.4336 38.7129 28.928 38.7129 29.5018V29.9748H33.3478V28.9351H37.2342C37.2313 28.6396 37.1674 28.3768 37.0424 28.1467C36.9174 27.9138 36.7427 27.7305 36.5183 27.597C36.2967 27.4635 36.0381 27.3967 35.7427 27.3967C35.4273 27.3967 35.1504 27.4734 34.9117 27.6268C34.6731 27.7774 34.487 27.9763 34.3535 28.2234C34.2228 28.4677 34.156 28.7362 34.1532 29.0288V29.9365C34.1532 30.3172 34.2228 30.6439 34.362 30.9166C34.5012 31.1865 34.6958 31.3939 34.9458 31.5388C35.1958 31.6808 35.4884 31.7518 35.8237 31.7518C36.0481 31.7518 36.2512 31.7206 36.433 31.6581C36.6148 31.5927 36.7725 31.4976 36.906 31.3726C37.0396 31.2476 37.1404 31.0927 37.2086 30.9081L38.6489 31.07C38.558 31.4507 38.3847 31.7831 38.1291 32.0672C37.8762 32.3484 37.5523 32.5672 37.1575 32.7234C36.7626 32.8768 36.3109 32.9535 35.8023 32.9535ZM39.6579 35.2802V26.2802H41.1749V27.3626H41.2644C41.344 27.2035 41.4562 27.0345 41.6011 26.8555C41.746 26.6737 41.942 26.5189 42.1891 26.391C42.4363 26.2603 42.7516 26.195 43.1352 26.195C43.6409 26.195 44.0968 26.3243 44.5031 26.5828C44.9122 26.8385 45.236 27.2177 45.4747 27.7206C45.7161 28.2206 45.8369 28.8342 45.8369 29.5615C45.8369 30.2802 45.719 30.891 45.4832 31.3939C45.2474 31.8967 44.9264 32.2802 44.5201 32.5444C44.1139 32.8086 43.6536 32.9407 43.1394 32.9407C42.7644 32.9407 42.4534 32.8782 42.2062 32.7532C41.959 32.6282 41.7602 32.4777 41.6096 32.3015C41.4619 32.1226 41.3468 31.9535 41.2644 31.7944H41.2005V35.2802H39.6579ZM41.1707 29.553C41.1707 29.9763 41.2303 30.347 41.3497 30.6652C41.4718 30.9834 41.6465 31.2319 41.8738 31.4109C42.1039 31.587 42.3823 31.6751 42.709 31.6751C43.0499 31.6751 43.3355 31.5842 43.5656 31.4024C43.7957 31.2177 43.969 30.9663 44.0855 30.6481C44.2048 30.3271 44.2644 29.962 44.2644 29.553C44.2644 29.1467 44.2062 28.7859 44.0897 28.4706C43.9732 28.1552 43.7999 27.9081 43.5698 27.7291C43.3397 27.5501 43.0528 27.4606 42.709 27.4606C42.3795 27.4606 42.0997 27.5473 41.8695 27.7206C41.6394 27.8939 41.4647 28.1368 41.3454 28.4493C41.2289 28.7618 41.1707 29.1297 41.1707 29.553ZM52.5295 32.945C51.9159 32.945 51.3704 32.8399 50.8932 32.6297C50.4187 32.4194 50.0437 32.1268 49.7682 31.7518C49.4926 31.3768 49.3463 30.9436 49.3292 30.4521H50.9315C50.9457 30.6879 51.0238 30.8939 51.1659 31.07C51.3079 31.2433 51.4968 31.3782 51.7326 31.4748C51.9684 31.5714 52.2326 31.6197 52.5253 31.6197C52.8378 31.6197 53.1147 31.5657 53.3562 31.4578C53.5977 31.347 53.7866 31.1936 53.923 30.9976C54.0593 30.8015 54.1261 30.5757 54.1233 30.32C54.1261 30.0558 54.0579 29.8228 53.9187 29.6211C53.7795 29.4194 53.5778 29.2618 53.3136 29.1481C53.0522 29.0345 52.7369 28.9777 52.3676 28.9777H51.5963V27.7589H52.3676C52.6716 27.7589 52.9372 27.7064 53.1645 27.6013C53.3946 27.4961 53.575 27.3484 53.7057 27.1581C53.8363 26.9649 53.9003 26.7419 53.8974 26.489C53.9003 26.2419 53.8449 26.0274 53.7312 25.8456C53.6204 25.6609 53.4628 25.5174 53.2582 25.4152C53.0565 25.3129 52.8193 25.2618 52.5466 25.2618C52.2795 25.2618 52.0324 25.3101 51.8051 25.4066C51.5778 25.5032 51.3946 25.641 51.2554 25.82C51.1162 25.9961 51.0423 26.2064 51.0338 26.4507H49.5125C49.5238 25.962 49.6645 25.5331 49.9343 25.1638C50.2071 24.7916 50.5707 24.5018 51.0253 24.2944C51.4798 24.0842 51.9897 23.9791 52.5551 23.9791C53.1375 23.9791 53.6432 24.0885 54.0721 24.3072C54.504 24.5231 54.8378 24.8143 55.0736 25.1808C55.3093 25.5473 55.4272 25.9521 55.4272 26.3953C55.4301 26.8868 55.2852 27.2987 54.9926 27.6311C54.7028 27.9635 54.3221 28.1808 53.8505 28.2831V28.3513C54.4642 28.4365 54.9343 28.6638 55.2611 29.0331C55.5906 29.3995 55.754 29.8555 55.7511 30.401C55.7511 30.8896 55.6119 31.3271 55.3335 31.7135C55.0579 32.097 54.6772 32.3981 54.1915 32.6169C53.7085 32.8356 53.1545 32.945 52.5295 32.945Z" fill="white"/>
<path d="M0 44.7075C0 43.0507 1.34315 41.7075 3 41.7075H11.3143V62.5609H3C1.34315 62.5609 0 61.2178 0 59.5609V44.7075Z" fill="url(#paint3_linear_157_26)" fill-opacity="0.97"/>
<defs>
<linearGradient id="paint0_linear_157_26" x1="-7.61538" y1="28.3838" x2="103.694" y2="42.375" gradientUnits="userSpaceOnUse">
<stop stop-color="#4689FE"/>
<stop offset="1" stop-color="#416FF7"/>
</linearGradient>
<linearGradient id="paint1_linear_157_26" x1="-13.7078" y1="28.3838" x2="68.5383" y2="28.3838" gradientUnits="userSpaceOnUse">
<stop stop-color="#48CFFD"/>
<stop offset="1" stop-color="#4378FA"/>
</linearGradient>
<linearGradient id="paint2_linear_157_26" x1="-22.0846" y1="27.5954" x2="24.3701" y2="26.8598" gradientUnits="userSpaceOnUse">
<stop stop-color="#4CDFFB"/>
<stop offset="0.594094" stop-color="#47B8FC"/>
</linearGradient>
<linearGradient id="paint3_linear_157_26" x1="5.65714" y1="41.7075" x2="5.65714" y2="62.5609" gradientUnits="userSpaceOnUse">
<stop offset="0.15" stop-color="#BEBDBD"/>
<stop offset="0.625" stop-color="#D9D9D9"/>
</linearGradient>
</defs>
</svg>
