<?xml version="1.0" encoding="UTF-8"?> <svg xmlns="http://www.w3.org/2000/svg" width="125" height="58" viewBox="0 0 125 58" fill="none"><mask id="mask0_11079_9804" style="mask-type:luminance" maskUnits="userSpaceOnUse" x="0" y="0" width="125" height="58"><path d="M125 0H0V57.1428H125V0Z" fill="white"></path></mask><g mask="url(#mask0_11079_9804)"><path d="M78.5714 28.3928C78.5573 32.6983 76.8407 36.8234 73.7963 39.8677C70.7518 42.9121 66.6268 44.6287 62.3214 44.6428H56.0714V37.5H62.3214C64.7368 37.5 67.0532 36.5405 68.7611 34.8325C70.4691 33.1247 71.4286 30.8082 71.4286 28.3928C71.4286 25.9775 70.4691 23.6611 68.7611 21.9531C67.0532 20.2453 64.7368 19.2858 62.3214 19.2858H56.0714V12.1428H62.3214C66.6268 12.1569 70.7518 13.8736 73.7963 16.9179C76.8407 19.9624 78.5573 24.0874 78.5714 28.3928ZM43.9286 12.1428V25.3572H32.6786L28.5714 32.5H51.0714V12.1428H43.9286ZM125 22.3214C125 28.2414 122.648 33.919 118.462 38.1051C114.276 42.2911 108.599 44.6428 102.679 44.6428V56.7858H83.3928V47.3214C80.7391 50.3334 77.4672 52.7381 73.8001 54.3713C70.1331 56.0045 66.1569 56.828 62.1428 56.7858H43.9286V44.6428H29.6428L22.5 56.7858H0L33.0358 0H62.3214C66.3235 0.0338567 70.2757 0.891669 73.9317 2.51996C77.5877 4.14826 80.8691 6.51215 83.5714 9.46428V0H102.857C108.749 0.0377618 114.386 2.40728 118.536 6.59029C122.685 10.7733 125.009 16.4294 125 22.3214ZM62.3214 49.6428C66.356 49.6528 70.3104 48.5168 73.7245 46.3671C77.1387 44.2175 79.8722 41.1425 81.6072 37.5H90.7142V49.6428H95.7142V37.5H102.857C104.851 37.5023 106.826 37.1113 108.669 36.3494C110.511 35.5874 112.185 34.4694 113.595 33.0595C115.005 31.6497 116.123 29.9753 116.885 28.1328C117.647 26.2902 118.038 24.3154 118.036 22.3214C117.998 18.2765 116.362 14.4106 113.485 11.5672C110.608 8.72367 106.724 7.13325 102.679 7.14286H90.5358V25.3572H83.3928C82.627 20.3083 80.0832 15.6991 76.22 12.3597C72.3567 9.02023 67.4279 7.1702 62.3214 7.14286H37.3214L12.5 49.6428H18.3928L25.5358 37.5H51.0714V49.6428H62.3214ZM102.679 12.1428H95.5358V19.2858H102.679C103.078 19.2833 103.474 19.3603 103.843 19.5119C104.212 19.6637 104.548 19.8872 104.83 20.1696C105.113 20.452 105.336 20.7875 105.488 21.1569C105.64 21.5263 105.717 21.9221 105.714 22.3214C105.692 23.1194 105.365 23.8786 104.8 24.4431C104.236 25.0076 103.477 25.3346 102.679 25.3572H95.5358V32.5H102.679C105.378 32.5 107.967 31.4277 109.876 29.5187C111.785 27.61 112.857 25.0209 112.857 22.3214C112.829 19.6306 111.748 17.0578 109.845 15.155C107.942 13.2521 105.369 12.1707 102.679 12.1428Z" fill="#00084D"></path><path d="M112.678 53.2142C112.678 53.7794 112.511 54.3318 112.197 54.8016C111.883 55.2715 111.437 55.6377 110.915 55.8539C110.392 56.0703 109.818 56.1267 109.264 56.0166C108.71 55.9063 108.2 55.6341 107.801 55.2346C107.401 54.8351 107.129 54.3259 107.019 53.7716C106.909 53.2175 106.965 52.6429 107.182 52.121C107.398 51.5988 107.764 51.1527 108.234 50.8387C108.704 50.5248 109.256 50.3572 109.821 50.3572C110.198 50.3523 110.571 50.423 110.92 50.5648C111.269 50.7067 111.586 50.917 111.852 51.1833C112.119 51.4495 112.329 51.7664 112.471 52.1153C112.613 52.4641 112.683 52.8377 112.678 53.2142ZM113.393 53.2142C113.393 52.508 113.183 51.8175 112.791 51.2301C112.398 50.6428 111.841 50.1851 111.188 49.9147C110.535 49.6444 109.817 49.5737 109.124 49.7115C108.432 49.8493 107.795 50.1895 107.296 50.6889C106.796 51.1884 106.456 51.8248 106.318 52.5176C106.181 53.2103 106.251 53.9285 106.522 54.581C106.792 55.2336 107.25 55.7914 107.837 56.1838C108.424 56.5763 109.115 56.7858 109.821 56.7858C110.768 56.7858 111.677 56.4095 112.347 55.7397C113.016 55.0699 113.393 54.1615 113.393 53.2142Z" fill="#00084D"></path><path d="M110 51.6072C110.189 51.6072 110.371 51.6825 110.505 51.8164C110.639 51.9504 110.714 52.132 110.714 52.3215C110.714 52.5109 110.639 52.6927 110.505 52.8266C110.371 52.9605 110.189 53.0358 110 53.0358H109.286V51.6072H110ZM110.893 51.4286C110.649 51.2046 110.331 51.0776 110 51.0715H108.571V55.3572H109.107V53.7501H109.821L110.714 55.3572H111.428L110.357 53.5715C110.536 53.5715 110.714 53.3929 110.893 53.2143C111.035 53.0048 111.098 52.7518 111.071 52.5001C111.148 52.3232 111.172 52.1281 111.14 51.938C111.108 51.7479 111.023 51.571 110.893 51.4286Z" fill="#00084D"></path></g></svg> 