<?xml version="1.0" encoding="UTF-8"?> <svg xmlns="http://www.w3.org/2000/svg" width="175" height="27" viewBox="0 0 175 27" fill="none"><g clip-path="url(#clip0_11079_9812)"><path d="M55.6282 5.87156H59.4457V20.6682H55.6282V18.9217C54.4841 20.3627 52.8765 21.0822 50.8042 21.0822C48.831 21.0822 47.139 20.3277 45.7292 18.818C44.3184 17.3093 43.6135 15.4591 43.6135 13.2698C43.6135 11.0793 44.3184 9.23036 45.7292 7.72173C47.1401 6.21312 48.8323 5.4576 50.8042 5.4576C52.8752 5.4576 54.4841 6.17812 55.6282 7.61795V5.87156ZM48.586 16.2739C49.3548 17.0534 50.3324 17.4433 51.5164 17.4433C52.7002 17.4433 53.6815 17.0534 54.46 16.2739C55.2395 15.4941 55.6294 14.4936 55.6294 13.2698C55.6294 12.046 55.2395 11.0455 54.46 10.2659C53.6802 9.48742 52.6991 9.0976 51.5164 9.0976C50.3324 9.0976 49.356 9.48742 48.586 10.2659C47.8173 11.0455 47.4323 12.0472 47.4323 13.2698C47.4323 14.4936 47.816 15.4954 48.586 16.2739Z" fill="#00084D"></path><path d="M70.6348 9.54171H67.2903V15.6969C67.2903 16.2099 67.4183 16.584 67.6753 16.8217C67.9313 17.0583 68.3066 17.191 68.8002 17.2211C69.2939 17.2501 69.9045 17.2466 70.6348 17.2067V20.6693C68.0109 20.965 66.1608 20.7189 65.0866 19.9294C64.0113 19.1401 63.4742 17.7306 63.4742 15.6981V9.54293H60.8999V5.87396H63.4742V2.88327L67.2916 1.72947V5.87276H70.6359L70.6348 9.54171Z" fill="#00084D"></path><path d="M83.3676 5.87156H87.185V20.6682H83.3676V18.9217C82.2234 20.3627 80.6159 21.0822 78.5436 21.0822C76.5705 21.0822 74.8783 20.3277 73.4686 18.818C72.059 17.3093 71.353 15.4591 71.353 13.2698C71.353 11.0793 72.0577 9.23036 73.4686 7.72173C74.8794 6.21312 76.5716 5.4576 78.5436 5.4576C80.6147 5.4576 82.2234 6.17812 83.3676 7.61795V5.87156ZM76.3242 16.2739C77.093 17.0534 78.0706 17.4433 79.2544 17.4433C80.4384 17.4433 81.4197 17.0534 82.1993 16.2739C82.9777 15.4941 83.3676 14.4936 83.3676 13.2698C83.3676 12.046 82.9777 11.0455 82.1993 10.2659C81.4197 9.48742 80.4384 9.0976 79.2544 9.0976C78.0706 9.0976 77.0942 9.48742 76.3242 10.2659C75.5555 11.0455 75.1705 12.0472 75.1705 13.2698C75.1705 14.4924 75.5555 15.4954 76.3242 16.2739Z" fill="#00084D"></path><path d="M96.3443 21.0833C94.1151 21.0833 92.2553 20.3339 90.766 18.8336C89.2767 17.3347 88.532 15.4797 88.532 13.271C88.532 11.0624 89.2767 9.20743 90.766 7.70725C92.2553 6.20829 94.1151 5.4576 96.3443 5.4576C97.7841 5.4576 99.096 5.80278 100.28 6.49312C101.464 7.18346 102.361 8.11036 102.973 9.27502L99.6886 11.1988C99.3928 10.5869 98.9427 10.1041 98.3417 9.74812C97.7394 9.39329 97.0636 9.21587 96.3141 9.21587C95.17 9.21587 94.2226 9.59605 93.473 10.3552C92.7224 11.1155 92.3483 12.0859 92.3483 13.271C92.3483 14.4345 92.7224 15.3976 93.473 16.1567C94.2226 16.9159 95.17 17.296 96.3141 17.296C97.0828 17.296 97.7684 17.1234 98.3705 16.7783C98.9728 16.4332 99.4218 15.9552 99.7176 15.3433L103.032 17.2369C102.381 18.4003 101.464 19.3333 100.28 20.0333C99.096 20.7322 97.7841 21.0833 96.3443 21.0833Z" fill="#00084D"></path><path d="M111.292 21.0833C109.062 21.0833 107.203 20.3339 105.713 18.8336C104.224 17.3347 103.479 15.4797 103.479 13.271C103.479 11.0624 104.224 9.20743 105.713 7.70725C107.203 6.20829 109.062 5.4576 111.292 5.4576C112.731 5.4576 114.043 5.80278 115.227 6.49312C116.411 7.18346 117.308 8.11036 117.92 9.27502L114.636 11.1988C114.34 10.5869 113.89 10.1041 113.289 9.74812C112.687 9.39329 112.011 9.21587 111.261 9.21587C110.117 9.21587 109.17 9.59605 108.42 10.3552C107.671 11.1155 107.296 12.0859 107.296 13.271C107.296 14.4345 107.67 15.3976 108.42 16.1567C109.17 16.9159 110.117 17.296 111.261 17.296C112.03 17.296 112.716 17.1234 113.318 16.7783C113.92 16.4332 114.369 15.9552 114.665 15.3433L117.979 17.2369C117.328 18.4003 116.411 19.3333 115.227 20.0333C114.044 20.7322 112.731 21.0833 111.292 21.0833Z" fill="#00084D"></path><path d="M130.492 5.87156H134.309V20.6682H130.492V18.9217C129.349 20.3627 127.74 21.0822 125.669 21.0822C123.696 21.0822 122.004 20.3277 120.594 18.818C119.183 17.3093 118.479 15.4591 118.479 13.2698C118.479 11.0793 119.183 9.23036 120.594 7.72173C122.005 6.21312 123.697 5.4576 125.669 5.4576C127.74 5.4576 129.349 6.17812 130.492 7.61795V5.87156ZM123.45 16.2739C124.219 17.0534 125.196 17.4433 126.379 17.4433C127.563 17.4433 128.544 17.0534 129.324 16.2739C130.102 15.4941 130.492 14.4936 130.492 13.2698C130.492 12.046 130.102 11.0455 129.324 10.2659C128.545 9.48742 127.563 9.0976 126.379 9.0976C125.195 9.0976 124.219 9.48742 123.45 10.2659C122.681 11.0455 122.296 12.0472 122.296 13.2698C122.296 14.4924 122.68 15.4954 123.45 16.2739Z" fill="#00084D"></path><path d="M152.36 5.4576C154.057 5.4576 155.412 6.01036 156.428 7.11466C157.445 8.22019 157.953 9.69983 157.953 11.5536V20.6682H154.135V11.8204C154.135 10.9321 153.918 10.2417 153.485 9.74932C153.05 9.2569 152.437 9.00949 151.649 9.00949C150.78 9.00949 150.105 9.29553 149.623 9.8676C149.137 10.4409 148.897 11.2688 148.897 12.3526V20.6682H145.08V11.8204C145.08 10.9321 144.864 10.2417 144.429 9.74932C143.996 9.2569 143.384 9.00949 142.595 9.00949C141.745 9.00949 141.071 9.29553 140.567 9.8676C140.065 10.4409 139.813 11.2688 139.813 12.3526V20.6682H135.996V5.87278H139.813V7.44053C140.7 6.11897 142.071 5.4576 143.926 5.4576C145.74 5.4576 147.083 6.16725 147.951 7.58897C148.936 6.16846 150.407 5.4576 152.36 5.4576Z" fill="#00084D"></path><path d="M171.182 5.87156H175V20.6682H171.182V18.9217C170.037 20.3627 168.429 21.0822 166.359 21.0822C164.385 21.0822 162.693 20.3277 161.283 18.818C159.871 17.3093 159.167 15.4591 159.167 13.2698C159.167 11.0793 159.871 9.23036 161.283 7.72173C162.693 6.21312 164.383 5.4576 166.359 5.4576C168.429 5.4576 170.037 6.17812 171.182 7.61795V5.87156ZM164.139 16.2739C164.908 17.0534 165.885 17.4433 167.068 17.4433C168.253 17.4433 169.233 17.0534 170.012 16.2739C170.792 15.4941 171.184 14.4936 171.184 13.2698C171.184 12.046 170.793 11.0455 170.012 10.2659C169.235 9.48742 168.253 9.0976 167.068 9.0976C165.885 9.0976 164.908 9.48742 164.139 10.2659C163.371 11.0455 162.983 12.0472 162.983 13.2698C162.983 14.4936 163.371 15.4954 164.139 16.2739Z" fill="#00084D"></path><mask id="mask0_11079_9812" style="mask-type:luminance" maskUnits="userSpaceOnUse" x="0" y="0" width="26" height="27"><path d="M7.78569 18.6211C6.39656 17.2428 5.70139 15.4615 5.70139 13.2758C5.70139 11.0902 6.39656 9.30877 7.78569 7.9305C9.17483 6.55342 10.9031 5.86428 12.9705 5.86428C15.0367 5.86428 16.765 6.55342 18.1553 7.9305C19.5444 9.30877 20.2397 11.0902 20.2397 13.2758C20.2397 15.4615 19.5444 17.2428 18.1541 18.62C16.765 19.9983 15.0367 20.6861 12.9693 20.6861C10.9031 20.6874 9.17483 19.9983 7.78569 18.6211ZM3.77639 4.04669C1.25879 6.54135 0 9.61774 0 13.2758C0 16.934 1.25879 20.0103 3.77639 22.505C6.29397 24.9996 9.35827 26.2464 12.9693 26.2464C16.5791 26.2464 19.6447 24.9996 22.1623 22.505C24.6799 20.0103 25.9399 16.934 25.9399 13.2758C25.9399 9.61774 24.6799 6.54135 22.1623 4.04669C19.6447 1.55325 16.5791 0.305321 12.9693 0.305321C9.35949 0.305321 6.29397 1.55325 3.77639 4.04669Z" fill="white"></path></mask><g mask="url(#mask0_11079_9812)"><path d="M10.0476 -12.3309L38.5774 10.3527L15.8938 38.8826L-12.6372 16.199L10.0476 -12.3309Z" fill="#00084D"></path></g><mask id="mask1_11079_9812" style="mask-type:luminance" maskUnits="userSpaceOnUse" x="25" y="0" width="7" height="26"><path d="M31.1427 0.804962H25.4414V25.7478H31.1427V0.804962Z" fill="white"></path></mask><g mask="url(#mask1_11079_9812)"><path d="M27.6499 -1.97332L43.2937 10.465L28.934 28.525L13.2915 16.0867L27.6499 -1.97332Z" fill="#00084D"></path></g></g><defs><clipPath id="clip0_11079_9812"><rect width="175" height="26.5741" fill="white"></rect></clipPath></defs></svg> 