<?xml version="1.0" encoding="UTF-8"?> <svg xmlns="http://www.w3.org/2000/svg" width="175" height="21" viewBox="0 0 175 21" fill="none"><g clip-path="url(#clip0_11079_9832)"><mask id="mask0_11079_9832" style="mask-type:luminance" maskUnits="userSpaceOnUse" x="0" y="0" width="175" height="21"><path d="M175 0H0V20.5431H175V0Z" fill="white"></path></mask><g mask="url(#mask0_11079_9832)"><path d="M18.0723 4.12026C17.7939 4.36355 17.5286 4.59586 17.2462 4.84259C17.1843 4.77799 17.1272 4.72712 17.0812 4.66802C14.9286 1.92918 12.1101 0.674192 8.66331 1.22952C5.16364 1.7931 2.82068 3.91406 1.65435 7.2213C0.0474701 11.778 2.21861 16.787 6.53753 18.7079C10.1829 20.3292 14.4853 19.2241 16.9623 16.0296C17.0448 15.9231 17.1293 15.8185 17.2331 15.6887C17.5232 15.9423 17.7946 16.1808 18.0805 16.4316C17.2407 17.5849 16.2242 18.5093 15.007 19.2049C9.12034 22.5698 1.787 19.3059 0.264653 12.578C-0.83157 7.73127 1.55744 2.89756 6.01107 0.874191C10.3183 -1.08252 15.3637 0.351167 18.0723 4.12026Z" fill="#00084D"></path><path d="M72.1713 19.8928H71.0586V0.430236C71.1301 0.419927 71.2064 0.398621 71.282 0.398621C73.458 0.408243 75.6346 0.391748 77.8091 0.448793C78.5198 0.467349 79.2559 0.590374 79.9281 0.819243C81.6667 1.41031 82.7831 2.59245 83.0302 4.46599C83.2676 6.26118 82.903 7.86257 81.4066 9.04193C80.5343 9.72856 79.5281 10.1443 78.4188 10.2268C77.313 10.3093 76.2023 10.3361 75.093 10.3608C74.1322 10.3821 73.1707 10.365 72.172 10.365V19.8935L72.1713 19.8928ZM72.1775 9.26602C72.2758 9.27494 72.3535 9.28798 72.4311 9.28798C74.0229 9.2866 75.6153 9.31002 77.2064 9.26805C77.8518 9.25087 78.5102 9.1526 79.1336 8.98351C80.9741 8.48387 81.9138 7.26669 81.9608 5.41858C82.0053 3.69485 81.1157 2.36701 79.4587 1.87491C78.6683 1.64055 77.8229 1.51959 76.9968 1.48591C75.4758 1.42405 73.9514 1.46529 72.4277 1.46392C72.35 1.46392 72.2731 1.47423 72.1768 1.48041V9.26602H72.1775Z" fill="#00084D"></path><path d="M139.991 19.6509C139.644 19.8007 139.321 19.9409 138.956 20.099C136.335 14.0419 133.717 7.99588 131.07 1.88039C128.444 7.98006 125.844 14.02 123.229 20.0942C122.878 19.9437 122.547 19.8028 122.199 19.6543C122.253 19.5162 122.294 19.3994 122.343 19.286C124.995 13.1251 127.648 6.96563 130.292 0.801343C130.407 0.531926 130.548 0.465946 130.837 0.427458C131.51 0.338111 131.786 0.628146 132.042 1.22746C134.611 7.23711 137.219 13.231 139.815 19.2289C139.872 19.3629 139.927 19.4977 139.992 19.6516L139.991 19.6509Z" fill="#00084D"></path><path d="M35.5673 20.0949C35.214 19.9437 34.8903 19.8055 34.5288 19.6509C34.5817 19.5258 34.6285 19.4145 34.6766 19.3038C37.3371 13.1217 39.9982 6.94019 42.6518 0.754601C42.7522 0.520924 42.8676 0.432264 43.1281 0.437074C44.0223 0.452195 44.0209 0.441198 44.3838 1.28038C46.9797 7.27903 49.5756 13.2777 52.1715 19.2763C52.2203 19.3897 52.2656 19.5045 52.3261 19.6522C51.9736 19.8035 51.6443 19.9444 51.2924 20.0956C48.6663 14.0289 46.0553 7.99449 43.4085 1.88038C40.7728 8.00343 38.1728 14.0426 35.5673 20.0949Z" fill="#00084D"></path><path d="M161.51 1.69211V0.53265C161.583 0.522341 161.659 0.502409 161.734 0.503096C163.234 0.520966 164.741 0.450863 166.232 0.578698C170.362 0.932654 173.862 4.07219 174.763 8.12648C176.005 13.7128 172.236 19.1671 166.552 19.9355C165.436 20.0867 164.29 20.0172 163.157 20.0407C162.62 20.0516 162.083 20.0427 161.521 20.0427V18.855C161.646 18.855 161.777 18.8564 161.908 18.855C163.213 18.8427 164.522 18.886 165.823 18.8056C169.563 18.5754 172.724 15.864 173.58 12.2138C174.746 7.23371 171.238 2.27012 166.142 1.76427C164.871 1.63781 163.58 1.71066 162.297 1.69348C162.046 1.69004 161.795 1.69348 161.51 1.69348V1.69211Z" fill="#00084D"></path><path d="M102.395 0.544373H103.469V19.9967H102.395V0.544373Z" fill="#00084D"></path><path d="M159.992 20.0001H158.909V0.560181H159.992V20.0008V20.0001Z" fill="#00084D"></path><path d="M83.3383 19.532C83.0061 19.7327 82.7055 19.9135 82.3733 20.1142C80.7716 17.4145 79.1805 14.7314 77.5681 12.0124C77.8822 11.8193 78.1873 11.6317 78.529 11.422C80.1317 14.1245 81.7236 16.8083 83.3391 19.532H83.3383Z" fill="#00084D"></path><path d="M47.3187 13.4963V14.5898H39.5317V13.4963H47.3187Z" fill="#00084D"></path><path d="M134.986 14.5891H127.207V13.4846H134.986V14.5891Z" fill="#00084D"></path></g></g><defs><clipPath id="clip0_11079_9832"><rect width="175" height="20.5787" fill="white"></rect></clipPath></defs></svg> 