<?xml version="1.0" encoding="UTF-8"?> <svg xmlns="http://www.w3.org/2000/svg" width="175" height="29" viewBox="0 0 175 29" fill="none"><g clip-path="url(#clip0_11079_9847)"><path fill-rule="evenodd" clip-rule="evenodd" d="M50.551 16.1631H52.1474C51.4822 19.0897 49.0212 21.0186 45.6955 21.0186C41.7711 21.0186 38.6449 18.092 38.6449 14.3006C38.6449 10.4428 41.7711 7.58267 45.6955 7.58267C49.0212 7.58267 51.4822 9.51159 52.1474 12.4382H50.551C50.0189 10.3098 48.223 8.97947 45.762 8.97947C42.7023 8.97947 40.3078 11.241 40.3078 14.3006C40.3078 17.3603 42.7023 19.6218 45.762 19.6218C48.1565 19.6218 49.9524 18.225 50.551 16.1631ZM68.9756 14.3006C68.9756 18.0255 65.9824 21.0186 62.2576 21.0186C58.5328 21.0186 55.5396 18.0255 55.5396 14.3006C55.5396 10.5758 58.5328 7.58267 62.2576 7.58267C65.9824 7.58267 68.9756 10.5758 68.9756 14.3006ZM67.4458 14.3006C67.4458 11.374 65.1843 8.97947 62.2576 8.97947C59.331 8.97947 57.0695 11.374 57.0695 14.3006C57.0695 17.2273 59.331 19.6218 62.2576 19.6218C65.1843 19.6218 67.4458 17.2273 67.4458 14.3006ZM84.9391 7.58267V21.0186H83.6753L75.494 10.3763V21.0186H74.0307V7.58267H75.228L83.4758 18.358V7.58267H84.9391ZM92.3887 9.04599V13.9681H99.2397V15.4314H92.3887V21.0851H90.7924V7.58267H100.038V9.04599H92.3887ZM114.405 19.5553V21.0186H105.16V7.58267H106.756V19.6218H114.405V19.5553ZM128.706 15.1653C128.706 18.6906 126.378 21.0851 122.786 21.0851C119.261 21.0851 116.866 18.6906 116.866 15.1653V7.58267H118.462V15.1653C118.462 17.7594 120.192 19.6218 122.786 19.6218C125.38 19.6218 127.043 17.7594 127.043 15.1653V7.58267H128.639V15.1653H128.706ZM136.155 9.04599V13.6355H143.073V15.0988H136.155V19.6218H143.871V21.0851H134.626V7.58267H143.871V9.04599H136.155ZM158.97 7.58267V21.0186H157.706L149.525 10.3763V21.0186H148.061V7.58267H149.259L157.507 18.358V7.58267H158.97ZM175 9.04599H170.277V21.0851H168.814V9.04599H164.092V7.58267H175V9.04599ZM20.4864 15.0988C21.2181 15.0323 21.9498 15.0323 22.6814 14.9658V14.4337C21.9498 14.3672 21.2181 14.3672 20.4864 14.3006L18.2915 14.2341C17.0277 14.1676 15.6974 14.1676 14.4336 14.1676C14.4336 12.9038 14.4336 11.5735 14.3671 10.3098L14.3006 8.11478C14.2341 7.38312 14.2341 6.65146 14.1675 5.9198H13.5689C13.5024 6.65146 13.5024 7.38312 13.4359 8.11478L13.3694 10.3098C13.3694 10.9084 13.3694 11.507 13.3694 12.1057C13.1033 11.5735 12.9038 10.9749 12.6377 10.4428L11.7065 8.44736C11.3739 7.78221 11.1079 7.11706 10.7753 6.45192L10.2432 6.65146C10.5092 7.38312 10.7088 8.04827 10.9748 8.71342L11.773 10.7754C11.9726 11.374 12.2386 11.9061 12.4382 12.5047C11.9726 12.1057 11.5735 11.6401 11.1079 11.241L9.51152 9.71113C8.9794 9.24553 8.44729 8.71341 7.84865 8.24781L7.38305 8.71342C7.84865 9.24553 8.38077 9.77765 8.84637 10.3763L10.3762 11.9726C10.7753 12.4382 11.2409 12.8373 11.64 13.3029C11.1079 13.1034 10.5092 12.8373 9.91061 12.6378L7.84865 11.8396C7.18351 11.5735 6.45185 11.3075 5.7867 11.1079L5.52064 11.7066C6.18579 12.0391 6.85093 12.3052 7.51608 12.6378L9.51152 13.569C10.0436 13.835 10.6423 14.0346 11.1744 14.3006C10.5758 14.3006 9.97712 14.3006 9.37849 14.3006L7.18351 14.3672C6.45185 14.4337 5.72019 14.4337 4.98853 14.5002V15.0988C5.72019 15.1653 6.45185 15.1653 7.18351 15.2318L9.37849 15.2984C10.7088 15.3649 11.9726 15.3649 13.2363 15.3649C13.2363 16.6287 13.2363 17.9589 13.3029 19.2227L13.3694 21.4177C13.4359 22.1494 13.4359 22.881 13.5024 23.6127H14.0345C14.101 22.881 14.101 22.1494 14.1675 21.4177L14.2341 19.2227C14.2341 18.6241 14.2341 17.959 14.3006 17.3603C14.5666 17.959 14.7662 18.4911 15.0322 19.0897L15.9634 21.0851C16.296 21.7503 16.5621 22.4154 16.8946 23.0806L17.4268 22.881C17.2272 22.1494 16.9612 21.4842 16.6951 20.8191L16.03 18.6241C15.8304 18.0255 15.5644 17.4933 15.3648 16.8947C15.8304 17.3603 16.2295 17.7594 16.6951 18.1585L18.2915 19.6883C18.8236 20.1539 19.3557 20.686 19.9543 21.1517L20.3534 20.7526C19.8878 20.2204 19.3557 19.6883 18.8901 19.0897L17.3602 17.4933C16.9612 17.0277 16.4956 16.5621 16.0965 16.1631C16.6951 16.3626 17.2272 16.6287 17.8258 16.8282L19.8878 17.6264C20.5529 17.8924 21.2846 18.1585 21.9498 18.358L22.1493 17.8259C21.4842 17.4933 20.819 17.1608 20.1539 16.8947L18.1584 15.9635C17.5598 15.6975 17.0277 15.4314 16.429 15.2318C17.0277 15.2318 17.6928 15.2318 18.2915 15.1653C18.2915 15.1653 20.4864 15.0988 20.4864 15.0988Z" fill="#00084D"></path><path fill-rule="evenodd" clip-rule="evenodd" d="M14.3006 28.6013C6.3854 28.6013 0 22.2159 0 14.3006C0 6.3854 6.3854 0 14.3006 0C22.2159 0 28.6013 6.3854 28.6013 14.3006C28.6013 22.2159 22.2159 28.6013 14.3006 28.6013ZM14.3006 1.33029C7.18358 1.33029 1.33029 7.18358 1.33029 14.3006C1.33029 21.4177 7.18358 27.271 14.3006 27.271C21.4177 27.271 27.271 21.4177 27.271 14.3006C27.271 7.18358 21.4177 1.33029 14.3006 1.33029Z" fill="#00084D"></path></g><defs><clipPath id="clip0_11079_9847"><rect width="175" height="28.6013" fill="white"></rect></clipPath></defs></svg> 