<?xml version="1.0" encoding="UTF-8"?> <svg xmlns="http://www.w3.org/2000/svg" width="150" height="49" viewBox="0 0 150 49" fill="none"><g clip-path="url(#clip0_11079_9851)"><path d="M45.4581 25.2792C44.9032 25.5422 44.3253 25.7539 43.7319 25.9115C43.0631 26.0896 42.3035 26.2532 41.4749 26.4021C40.613 26.5499 39.7399 26.6229 38.8655 26.6201C37.0425 26.6376 35.2291 26.3553 33.4977 25.7843C31.9153 25.2717 30.4667 24.4139 29.2564 23.273C28.0452 22.1092 27.0962 20.7005 26.4725 19.1408C25.7735 17.3732 25.4327 15.4844 25.4695 13.584C25.4349 11.6792 25.7795 9.78651 26.4834 8.0162C27.113 6.45088 28.0767 5.04188 29.3073 3.88765C30.565 2.73438 32.0507 1.85781 33.6684 1.31455C35.4682 0.711418 37.3563 0.414135 39.2544 0.435053C40.7312 0.422579 42.2039 0.588536 43.641 0.929318C44.8573 1.21909 46.0445 1.61931 47.1881 2.12501C46.9592 2.56322 46.7987 3.03384 46.712 3.52058C46.5884 4.1057 46.4939 4.61087 46.4175 4.9743L46.1995 5.04698C45.8859 4.68731 45.5417 4.35535 45.171 4.05481C44.6919 3.66273 44.18 3.31255 43.641 3.00815C43.0144 2.64483 42.3487 2.35344 41.6566 2.13953C40.8716 1.9044 40.0557 1.78802 39.2362 1.79428C37.8638 1.77915 36.5002 2.01565 35.213 2.49206C33.9864 2.95272 32.8805 3.6859 31.9785 4.63631C31.0096 5.6946 30.2774 6.94716 29.8306 8.31059C29.281 10.0131 29.0195 11.7953 29.0566 13.584C29.0198 15.3725 29.2814 17.1547 29.8306 18.8574C30.2766 20.215 31.0077 21.4615 31.9749 22.5135C32.8748 23.4662 33.9814 24.1997 35.2094 24.6576C36.4959 25.1371 37.8598 25.3749 39.2325 25.3592C40.057 25.3655 40.8782 25.2542 41.6712 25.0283C42.3778 24.8237 43.0659 24.56 43.7282 24.2397C44.3177 23.9536 44.8839 23.6218 45.4217 23.2476C45.9232 22.8842 46.3413 22.5825 46.6828 22.3099L46.8355 22.4589L46.5048 24.6394C46.1848 24.8967 45.833 25.1117 45.4581 25.2792Z" fill="#00084D"></path><path d="M48.0023 11.974C48.4976 10.7418 49.2583 9.63371 50.2301 8.72856C51.2154 7.81849 52.382 7.12735 53.6535 6.70062C56.4973 5.77501 59.5613 5.77501 62.4049 6.70062C63.6711 7.13288 64.8315 7.82766 65.8104 8.73946C66.7848 9.64035 67.5491 10.7446 68.0491 11.974C68.5981 13.3614 68.8686 14.8433 68.8449 16.3351C68.8686 17.8271 68.5981 19.3089 68.0491 20.6963C67.5547 21.9331 66.7909 23.0442 65.8134 23.9488C64.8358 24.8533 63.669 25.5289 62.3977 25.9261C59.5444 26.7886 56.4997 26.7886 53.6463 25.9261C52.381 25.5329 51.2187 24.8643 50.2427 23.9682C49.2669 23.0721 48.5016 21.9707 48.0023 20.7436C47.4533 19.3561 47.1827 17.8743 47.2063 16.3824C47.1765 14.8747 47.4472 13.3761 48.0023 11.974ZM65.4105 12.2102C65.064 11.1303 64.4874 10.1384 63.7206 9.30278C63.012 8.55262 62.142 7.97348 61.1766 7.60919C60.1627 7.23871 59.0905 7.05405 58.0112 7.06405C56.9426 7.05528 55.8812 7.23998 54.8784 7.60919C53.9133 7.97428 53.0436 8.5533 52.3344 9.30278C51.5701 10.1403 50.9938 11.1316 50.6444 12.2102C50.2137 13.548 50.0087 14.9482 50.0374 16.3533C50.0091 17.7596 50.2142 19.1608 50.6444 20.5C50.9958 21.5713 51.572 22.5551 52.3344 23.3857C53.0415 24.1375 53.9119 24.717 54.8784 25.0793C55.8805 25.4515 56.9422 25.6375 58.0112 25.6281C59.0908 25.6386 60.1634 25.4526 61.1766 25.0793C62.1436 24.7178 63.014 24.1382 63.7206 23.3857C64.4856 22.5571 65.062 21.5726 65.4105 20.5C65.8441 19.1615 66.0504 17.76 66.0212 16.3533C66.0472 14.9511 65.8383 13.5544 65.4033 12.2211L65.4105 12.2102Z" fill="#00084D"></path><path d="M79.297 10.8582C80.0602 9.61531 80.8441 8.25366 81.6484 6.77328C82.3495 6.96234 83.0882 6.96234 83.7891 6.77328C82.6915 8.30212 81.6122 9.79338 80.5509 11.2471C79.4897 12.7008 78.4697 14.2126 77.4908 15.7828C78.5859 17.6507 79.6884 19.48 80.798 21.2706C81.9077 23.061 83.0404 24.8431 84.1961 26.6165C83.9263 26.5792 83.6544 26.5597 83.382 26.5585H81.7684C81.4973 26.5595 81.2265 26.5789 80.958 26.6165C80.1875 25.2101 79.4207 23.7854 78.6611 22.3245C77.869 20.8242 76.9954 19.3683 76.0444 17.9633C75.0752 19.417 74.1607 20.8707 73.3005 22.3245C72.4537 23.7782 71.6251 25.2101 70.8147 26.6165C70.6291 26.5796 70.4405 26.5601 70.2513 26.5585H69.2409C69.0518 26.5601 68.8632 26.5796 68.6777 26.6165C69.8334 25.0224 70.96 23.405 72.0576 21.7647C73.1551 20.1245 74.2527 18.4575 75.3502 16.764C74.352 15.0679 73.3465 13.4022 72.3337 11.7668C71.3211 10.1314 70.2852 8.46687 69.2265 6.77328L70.0079 6.87141C70.2661 6.90103 70.5257 6.9156 70.7855 6.91502C71.0466 6.9154 71.3075 6.90083 71.5669 6.87141L72.3447 6.77328C72.977 8.06347 73.6676 9.3391 74.398 10.6002C75.1286 11.8613 75.939 13.2242 76.8258 14.6888C77.7088 13.3804 78.5302 12.0975 79.297 10.8582Z" fill="#00084D"></path><path d="M19.7708 48.1899C19.499 48.1486 19.2244 48.1279 18.9494 48.1281H17.3104C17.0366 48.1281 16.7633 48.1486 16.4928 48.1899C16.3473 47.7053 16.1498 47.1322 15.9003 46.4708C15.6532 45.8021 15.3769 45.1007 15.079 44.3629L14.1668 42.1388C13.8578 41.3864 13.5671 40.685 13.3018 39.9872C12.6403 39.9582 11.968 39.9582 11.2956 39.9582C10.6233 39.9582 9.93277 39.9582 9.24952 39.9582C8.56627 39.9582 7.97752 39.9582 7.35968 39.9582C6.74185 39.9582 6.10949 39.98 5.47347 40.0018C4.81203 41.6118 4.20874 43.1454 3.65633 44.6028C3.10392 46.0601 2.71504 47.2595 2.44611 48.2081C2.06735 48.164 1.68624 48.1433 1.30493 48.1463C0.921214 48.1432 0.537671 48.1638 0.156494 48.2081C1.82828 44.5979 3.46007 41.006 5.0519 37.4324C6.64372 33.8586 8.24403 30.2243 9.85281 26.5294H10.4379C10.9358 27.7251 11.4701 29.0225 12.0516 30.4144C12.6331 31.8064 13.2182 33.2201 13.8142 34.6449C14.4103 36.0694 15.0098 37.4796 15.6314 38.8897C16.2528 40.2997 16.7907 41.5972 17.3176 42.8038C17.8447 44.0104 18.3207 45.0935 18.7423 46.0383C19.1639 46.9832 19.5055 47.6956 19.7708 48.1899ZM6.05133 38.5589C6.58921 38.5589 7.14163 38.5589 7.72311 38.5845C8.3046 38.6099 8.86065 38.6171 9.39853 38.6171H11.1321L12.8693 38.5663L9.4276 30.7015L6.05133 38.5589Z" fill="#00084D"></path><path d="M32.5419 33.7179C32.5452 32.8552 32.504 31.9926 32.4183 31.134C32.5965 31.1667 32.7818 31.1921 32.9308 31.2175C33.0919 31.2425 33.2548 31.2546 33.4177 31.2539C33.6647 31.2495 33.9094 31.209 34.1447 31.134C34.0975 31.7046 34.0465 32.3806 33.9993 33.1692C33.9521 33.9578 33.9084 34.801 33.8794 35.7132C33.8502 36.6254 33.8102 37.5304 33.7776 38.4935C33.7448 39.4565 33.7194 40.3615 33.705 41.2556C33.7059 42.252 33.5376 43.2413 33.2071 44.1811C32.9161 44.9957 32.4552 45.7389 31.8551 46.3617C31.249 46.9758 30.5107 47.4432 29.6962 47.7282C28.753 48.0515 27.7604 48.2078 26.7634 48.1897C24.3259 48.1897 22.5548 47.6386 21.4501 46.5361C20.3453 45.4338 19.7928 43.6868 19.7928 41.2954C19.7928 40.5322 19.8146 39.8418 19.8546 39.2603C19.8946 38.6788 19.9164 38.0646 19.9164 37.4432C19.9164 36.0815 19.8994 34.87 19.8655 33.8089C19.8316 32.7477 19.7989 31.8536 19.7673 31.1267C19.9636 31.1595 20.1744 31.1849 20.4033 31.2103C20.6133 31.2342 20.8244 31.2463 21.0358 31.2467C21.2108 31.2475 21.3858 31.2353 21.5591 31.2103C21.7298 31.1849 21.9225 31.1595 22.0825 31.1267C22.0497 31.4902 22.0171 31.9517 21.9879 32.526C21.9589 33.1002 21.9225 33.7579 21.8898 34.4885C21.8571 35.2189 21.8316 36.0113 21.8171 36.8507C21.8026 37.6903 21.7916 38.5733 21.7916 39.4856C21.7916 40.0345 21.7916 40.6122 21.8171 41.201C21.8309 41.7822 21.888 42.3618 21.9879 42.9346C22.08 43.4871 22.2386 44.0265 22.4604 44.541C22.6758 45.0475 22.9952 45.5032 23.398 45.8783C23.8409 46.285 24.3648 46.5933 24.9354 46.7833C25.6748 47.0199 26.4489 47.1306 27.225 47.1104C27.9946 47.1342 28.7611 47.0018 29.4782 46.7215C30.0462 46.4914 30.558 46.1418 30.9791 45.6967C31.3707 45.2728 31.68 44.7799 31.8914 44.2429C32.113 43.6811 32.275 43.0977 32.3747 42.5021C32.4702 41.9006 32.5273 41.2936 32.5455 40.6849C32.5601 40.084 32.5673 39.5317 32.5673 39.0276C32.565 36.7406 32.5565 34.9706 32.5419 33.7179Z" fill="#00084D"></path><path d="M40.4501 32.7185H39.1236C38.6585 32.7185 38.1932 32.7477 37.7317 32.7731C37.2701 32.7985 36.8231 32.8239 36.3907 32.8529C35.9582 32.8821 35.5729 32.9329 35.2349 32.9765C35.31 32.7239 35.3515 32.4624 35.3585 32.1988C35.3451 31.9431 35.3038 31.6896 35.2349 31.4429C36.3058 31.4768 37.3538 31.5047 38.3786 31.5265C39.3999 31.5556 40.4501 31.5664 41.5186 31.5664C42.5871 31.5664 43.6411 31.5664 44.666 31.5265C45.6908 31.4865 46.7339 31.4756 47.806 31.4429C47.7364 31.6979 47.6961 31.96 47.686 32.2243C47.6929 32.4792 47.7332 32.7321 47.806 32.9765C47.4679 32.9329 47.0792 32.8893 46.6503 32.8529C46.2214 32.8167 45.7744 32.7913 45.3128 32.7731C44.8513 32.7549 44.3861 32.7331 43.9246 32.7185H42.5907C42.5422 34.3903 42.5193 36.0718 42.5217 37.7629V41.9533C42.5217 43.0254 42.5399 44.0829 42.5799 45.1188C42.6199 46.1546 42.6671 47.1831 42.7143 48.1897C42.3508 48.1571 41.9401 48.1389 41.5186 48.1389C41.0971 48.1389 40.701 48.1571 40.3265 48.1897C40.3775 47.1831 40.4211 46.1618 40.4611 45.1188C40.501 44.0757 40.5228 43.0254 40.5228 41.9533V37.7775C40.5228 36.0814 40.4986 34.3952 40.4501 32.7185Z" fill="#00084D"></path><path d="M47.9295 35.8478C48.3478 34.8099 48.988 33.876 49.8048 33.1111C50.637 32.3449 51.6216 31.7628 52.6941 31.4029C55.0931 30.6179 57.6799 30.6179 60.0789 31.4029C61.1507 31.762 62.1342 32.3442 62.9645 33.1111C63.7826 33.8757 64.4238 34.8096 64.8435 35.8478C65.7302 38.2295 65.7302 40.8508 64.8435 43.2327C64.4277 44.2763 63.7842 45.2139 62.9599 45.9772C62.1356 46.7404 61.1513 47.3102 60.0789 47.6447C57.6709 48.3715 55.102 48.3715 52.6941 47.6447C51.6205 47.3111 50.6353 46.7414 49.8109 45.9774C48.9863 45.2132 48.3435 44.274 47.9295 43.229C47.0388 40.8479 47.0388 38.2252 47.9295 35.844V35.8478ZM62.6084 36.044C62.3155 35.1388 61.8294 34.3079 61.1838 33.609C60.5894 32.9749 59.8569 32.4863 59.0431 32.1807C58.188 31.8664 57.283 31.71 56.372 31.7192C55.4705 31.7114 54.5752 31.8678 53.7298 32.1807C52.9145 32.4852 52.1806 32.9739 51.5856 33.609C50.9401 34.3079 50.4539 35.1388 50.1609 36.044C49.4777 38.326 49.4777 40.7581 50.1609 43.04C50.4535 43.9443 50.9396 44.774 51.5856 45.4714C52.1816 46.1052 52.9152 46.5938 53.7298 46.8996C54.5752 47.2127 55.4705 47.369 56.372 47.3611C57.283 47.3703 58.188 47.2139 59.0431 46.8996C59.8562 46.5929 60.5884 46.1043 61.1838 45.4714C61.8296 44.774 62.3157 43.9443 62.6084 43.04C63.2916 40.7581 63.2916 38.326 62.6084 36.044Z" fill="#00084D"></path><path d="M72.4028 37.8611C73.5513 40.0417 74.7506 42.2744 76.0009 44.5592C76.1607 44.2503 76.397 43.8104 76.7059 43.2326C77.0148 42.6547 77.371 41.9933 77.7962 41.2447C78.2214 40.496 78.6357 39.6928 79.1009 38.8206C79.566 37.9483 80.0313 37.0725 80.5146 36.1785C80.998 35.2844 81.4668 34.4049 81.9392 33.5436L83.2549 31.134H83.5748C83.7492 32.6943 83.9139 34.2014 84.0689 35.6551C84.2241 37.1089 84.3767 38.5432 84.5268 39.9581C84.6892 41.3658 84.8516 42.7553 85.0139 44.1267C85.1738 45.4968 85.3773 46.8597 85.5517 48.2043C85.3621 48.1714 85.17 48.1543 84.9775 48.1535H83.8364C83.6439 48.1543 83.4518 48.1714 83.2621 48.2043C83.0828 46.0407 82.9024 43.9461 82.7206 41.9207C82.5389 39.8951 82.3209 37.8236 82.0664 35.706H82.0156C80.8962 37.7557 79.7963 39.791 78.7156 41.8117C77.635 43.8322 76.6041 45.9414 75.6228 48.1389H75.4048C74.4356 46.0964 73.4156 44.0467 72.3448 41.9897C71.2738 39.9326 70.2053 37.8332 69.1392 35.6914H69.092C68.9793 36.6982 68.8521 37.7921 68.7285 38.9624C68.605 40.1325 68.4632 41.3028 68.3652 42.4513C68.267 43.5997 68.1507 44.6754 68.0671 45.6894C67.9835 46.7033 67.9509 47.5357 67.9509 48.1861C67.6675 48.1515 67.3823 48.1346 67.0967 48.1353C66.8113 48.1345 66.526 48.1514 66.2427 48.1861C66.4535 46.8729 66.6728 45.4847 66.9005 44.0213C67.1282 42.5579 67.3475 41.0872 67.5584 39.6092C67.7691 38.1289 67.9642 36.6751 68.1435 35.2481C68.3227 33.821 68.4778 32.4521 68.6086 31.1413H69.023C70.1327 33.4454 71.2592 35.6854 72.4028 37.8611Z" fill="#00084D"></path><path d="M87.0418 35.8477C87.4603 34.8099 88.1003 33.8758 88.9171 33.1111C89.7484 32.3436 90.7333 31.7615 91.8064 31.4029C94.2041 30.6179 96.7898 30.6179 99.1876 31.4029C100.267 31.7604 101.257 32.3427 102.095 33.1111C102.912 33.8758 103.552 34.8099 103.97 35.8477C104.856 38.2283 104.856 40.8482 103.97 43.2289C103.556 44.2733 102.913 45.2118 102.088 45.9753C101.264 46.7388 100.279 47.3079 99.2058 47.641C96.799 48.3679 94.2312 48.3679 91.8246 47.641C90.748 47.3103 89.7594 46.7421 88.9318 45.9785C88.104 45.215 87.4582 44.2753 87.0418 43.2289C86.1453 40.849 86.1453 38.224 87.0418 35.844V35.8477ZM101.724 36.0439C101.426 35.1396 100.938 34.3093 100.292 33.6089C99.6997 32.9746 98.9683 32.4857 98.1555 32.1807C97.3016 31.8665 96.3978 31.7102 95.4879 31.7192C94.5864 31.711 93.6911 31.8674 92.8458 32.1807C92.0298 32.486 91.295 32.9747 90.6979 33.6089C90.0548 34.3099 89.5691 35.14 89.2732 36.0439C88.5901 38.326 88.5901 40.7581 89.2732 43.04C89.5691 43.9428 90.0548 44.7718 90.6979 45.4713C91.296 46.1045 92.0305 46.5929 92.8458 46.8996C93.6911 47.2129 94.5864 47.3693 95.4879 47.3611C96.3978 47.3701 97.3016 47.2138 98.1555 46.8996C98.969 46.5938 99.7014 46.1052 100.296 45.4713C100.941 44.7724 101.43 43.9433 101.728 43.04C102.406 40.7572 102.406 38.3267 101.728 36.0439H101.724Z" fill="#00084D"></path><path d="M109.502 32.7185H108.179C107.714 32.7185 107.248 32.7477 106.787 32.7731C106.325 32.7985 105.878 32.8239 105.446 32.8529C105.013 32.8821 104.632 32.9329 104.29 32.9765C104.365 32.7239 104.407 32.4624 104.414 32.1988C104.4 31.9431 104.359 31.6896 104.29 31.4429C105.361 31.4768 106.409 31.5047 107.434 31.5265C108.455 31.5556 109.502 31.5664 110.574 31.5664C111.646 31.5664 112.696 31.5664 113.721 31.5265C114.746 31.4865 115.789 31.4756 116.865 31.4429C116.793 31.6978 116.751 31.9599 116.738 32.2243C116.747 32.4795 116.79 32.7324 116.865 32.9765C116.523 32.9329 116.138 32.8893 115.705 32.8529C115.273 32.8167 114.829 32.7913 114.364 32.7731C113.899 32.7549 113.438 32.7331 112.976 32.7185H111.649C111.599 34.3903 111.573 36.0718 111.573 37.7629V41.9533C111.573 43.0254 111.595 44.0829 111.635 45.1188C111.675 46.1546 111.722 47.1831 111.769 48.1897C111.406 48.1571 110.999 48.1389 110.574 48.1389C110.149 48.1389 109.756 48.1571 109.382 48.1897C109.429 47.1831 109.473 46.1618 109.516 45.1188C109.56 44.0757 109.578 43.0254 109.578 41.9533V37.7775C109.578 36.0814 109.552 34.3952 109.502 32.7185Z" fill="#00084D"></path><path d="M119.067 34.6085C119.026 33.5762 118.981 32.5235 118.933 31.4501C119.147 31.4829 119.351 31.5119 119.543 31.5337C119.737 31.5617 119.933 31.575 120.129 31.5737C120.324 31.5747 120.52 31.5614 120.714 31.5337C120.906 31.5119 121.11 31.4829 121.324 31.4501C121.273 32.5235 121.229 33.5762 121.19 34.6085C121.146 35.6369 121.128 36.6908 121.128 37.7629V41.9533C121.128 43.0254 121.146 44.0831 121.19 45.1187C121.233 46.1546 121.273 47.1831 121.324 48.1897C120.961 48.1571 120.546 48.1389 120.129 48.1389C119.711 48.1389 119.307 48.1571 118.933 48.1897C118.984 47.1831 119.027 46.1618 119.067 45.1187C119.107 44.0757 119.129 43.0254 119.129 41.9533V37.7775C119.129 36.6872 119.107 35.6369 119.067 34.6085Z" fill="#00084D"></path><path d="M128.753 44.73C128.22 43.3828 127.648 41.9618 127.037 40.4669C126.427 38.9719 125.8 37.4443 125.158 35.884C124.519 34.3261 123.906 32.8482 123.319 31.4501C123.545 31.4829 123.766 31.5119 123.977 31.5337C124.381 31.5871 124.791 31.5871 125.195 31.5337C125.409 31.5119 125.627 31.4829 125.853 31.4501C126.216 32.5404 126.608 33.6308 127.037 34.8228C127.466 36.0149 127.92 37.2033 128.4 38.4171C128.88 39.631 129.37 40.8703 129.876 42.1242C130.381 43.3779 130.89 44.6172 131.409 45.8493C131.7 45.1842 132.02 44.4428 132.362 43.6215C132.703 42.8001 133.048 41.9497 133.397 41.0775C133.746 40.2053 134.091 39.2931 134.429 38.3736C134.767 37.454 135.102 36.5746 135.422 35.7314C135.741 34.8882 136.025 34.096 136.283 33.3654C136.541 32.635 136.763 32.0026 136.941 31.4647C137.236 31.5393 137.538 31.5808 137.842 31.5883C138.146 31.5812 138.448 31.5399 138.743 31.4647C137.479 34.2899 136.261 37.0931 135.091 39.8744C133.921 42.656 132.799 45.4325 131.726 48.2043C131.459 48.1707 131.191 48.1536 130.922 48.1535C130.654 48.1501 130.385 48.1672 130.119 48.2043C129.746 47.24 129.291 46.0819 128.753 44.73Z" fill="#00084D"></path><path d="M140.876 34.5685C140.836 33.529 140.79 32.4896 140.742 31.4501C141.469 31.4842 142.196 31.5119 142.922 31.5337C143.65 31.5629 144.376 31.5737 145.103 31.5737C145.831 31.5737 146.557 31.5737 147.283 31.5337C148.011 31.4937 148.738 31.4829 149.464 31.4501C149.374 31.9304 149.374 32.4236 149.464 32.9039C148.949 32.8749 148.472 32.8421 148.043 32.8094L146.676 32.7112C146.197 32.6786 145.671 32.6496 145.107 32.6278C144.543 32.606 143.857 32.5878 143.057 32.5878C143.057 33.1075 143.021 33.6017 142.996 34.0742C142.969 34.5467 142.96 35.0808 142.96 35.6842C142.96 36.2875 142.96 36.9343 142.96 37.534C142.96 38.1336 142.96 38.5917 142.96 38.9006C143.686 38.9006 144.318 38.9006 144.885 38.8751C145.453 38.8496 145.975 38.8387 146.444 38.8133C146.914 38.7879 147.353 38.7661 147.746 38.7406C148.138 38.7151 148.524 38.6897 148.879 38.6571C148.831 38.9049 148.807 39.1568 148.807 39.4093C148.807 39.6533 148.832 39.8968 148.879 40.1361C148.458 40.0889 147.967 40.0489 147.425 40.0162C146.885 39.9835 146.299 39.9654 145.739 39.9544C145.179 39.9436 144.649 39.9544 144.154 39.9326H142.974C142.974 40.0781 142.974 40.2343 142.974 40.4051C142.974 40.576 142.974 40.794 142.974 41.0521V43.4651C142.974 44.3883 142.974 45.1551 142.974 45.7549C142.974 46.3544 142.992 46.8124 143.01 47.1176H144.675C145.292 47.1176 145.899 47.1176 146.492 47.085C147.085 47.0522 147.647 47.0268 148.175 46.9832C148.638 46.9535 149.097 46.8928 149.551 46.8015C149.519 46.9204 149.499 47.0421 149.49 47.1649C149.49 47.3031 149.49 47.4303 149.49 47.5283C149.485 47.7426 149.508 47.9568 149.563 48.1643C148.836 48.1304 148.108 48.1135 147.382 48.1135H142.96C142.232 48.1135 141.493 48.1304 140.742 48.1643C140.793 47.125 140.838 46.0904 140.876 45.0607C140.917 44.0249 140.939 42.9782 140.939 41.9025V37.7411C140.939 36.6654 140.917 35.5969 140.876 34.5685Z" fill="#00084D"></path></g><defs><clipPath id="clip0_11079_9851"><rect width="150" height="48.6111" fill="white"></rect></clipPath></defs></svg> 