<?xml version="1.0" encoding="UTF-8"?> <svg xmlns="http://www.w3.org/2000/svg" width="175" height="36" viewBox="0 0 175 36" fill="none"><g clip-path="url(#clip0_11079_9865)"><path d="M43.5584 2.67855C42.5414 2.67855 41.7231 3.49676 41.7231 4.51373V26.915C41.7231 27.9319 42.5421 28.7502 43.5584 28.7502H57.6436C57.91 28.7502 58.124 28.5362 58.124 28.27V25.6999C58.124 25.4337 57.91 25.2196 57.6436 25.2196H45.6658V17.0275H56.4359C56.7022 17.0275 56.9162 16.8134 56.9162 16.5472V14.119C56.9162 13.8527 56.7022 13.6387 56.4359 13.6387H45.6658V6.12566H57.643C57.9093 6.12566 58.1234 5.91168 58.1234 5.64534V3.15821C58.1234 2.89187 57.9093 2.67789 57.643 2.67789H43.5584V2.67855Z" fill="#00084D"></path><path d="M91.1078 9.20511C87.7561 9.20511 85.675 10.3592 84.2818 12.2786V10.2738C84.2818 10.0074 84.0678 9.79343 83.8014 9.79343H80.9009C80.6345 9.79343 80.4207 10.0074 80.4207 10.2738V34.7296C80.4207 34.996 80.6345 35.2098 80.9009 35.2098H83.8511C84.1175 35.2098 84.3314 34.996 84.3314 34.7296V26.3631C85.624 28.2243 87.719 29.326 91.1072 29.326C96.8055 29.326 100.353 24.8161 100.353 19.2596C100.353 13.703 96.8791 9.20511 91.1078 9.20511ZM90.2803 12.4402C94.38 12.4402 96.3967 15.4931 96.3967 19.2596C96.3967 23.0253 94.38 26.0789 90.2803 26.0789C86.1806 26.0789 84.1639 23.026 84.1639 19.2596C84.1639 15.4938 86.1806 12.4402 90.2803 12.4402Z" fill="#00084D"></path><path d="M148.337 9.79343H151.254C151.52 9.79343 151.734 10.0074 151.734 10.2738V28.2699C151.734 28.5362 151.52 28.7502 151.254 28.7502H148.337C148.07 28.7502 147.856 28.5362 147.856 28.2699V10.2738C147.856 10.0074 148.07 9.79343 148.337 9.79343Z" fill="#00084D"></path><path d="M148.295 2.66934H151.296C151.562 2.66934 151.776 2.88334 151.776 3.14968V6.15025C151.776 6.41659 151.562 6.63058 151.296 6.63058H148.295C148.029 6.63058 147.815 6.41659 147.815 6.15025V3.14968C147.815 2.88334 148.029 2.66934 148.295 2.66934Z" fill="#00084D"></path><path d="M132.992 29.3261C136.344 29.3261 138.425 28.1719 139.818 26.2526V28.2693C139.818 28.5357 140.032 28.7498 140.299 28.7498H143.199C143.465 28.7498 143.679 28.5357 143.679 28.2693V3.15902C143.679 2.89268 143.465 2.67868 143.199 2.67868H140.249C139.983 2.67868 139.768 2.89268 139.768 3.15902V12.2747C138.381 10.4607 136.381 9.20522 132.993 9.20522C127.294 9.20522 123.747 13.715 123.747 19.2716C123.747 24.8283 127.22 29.3261 132.992 29.3261ZM133.82 26.0911C129.72 26.0911 127.703 23.0381 127.703 19.2716C127.703 15.5058 129.72 12.4523 133.82 12.4523C137.919 12.4523 139.936 15.5052 139.936 19.2716C139.936 23.0375 137.919 26.0911 133.82 26.0911Z" fill="#00084D"></path><path d="M164.312 9.21713C158.541 9.21713 155.066 13.7157 155.066 19.2716C155.066 24.8275 158.541 29.3261 164.312 29.3261C167.664 29.3261 169.745 28.1719 171.139 26.2526V28.2693C171.139 28.5357 171.352 28.7498 171.62 28.7498H174.52C174.786 28.7498 175 28.5357 175 28.2693V19.2716V10.2739C175 10.0075 174.786 9.79353 174.52 9.79353H171.62C171.354 9.79353 171.139 10.0075 171.139 10.2739V12.2906C169.745 10.3713 167.664 9.21713 164.312 9.21713ZM165.14 12.4523C169.239 12.4523 171.257 15.5052 171.257 19.2716C171.257 23.0375 169.239 26.0911 165.14 26.0911C161.04 26.0911 159.024 23.0381 159.024 19.2716C159.024 15.5058 161.04 12.4523 165.14 12.4523Z" fill="#00084D"></path><path d="M61.2294 9.79343C60.8147 9.79343 60.7405 10.1207 60.9286 10.3798L67.1021 18.8336L60.3263 28.1625C60.1382 28.4216 60.2124 28.7496 60.6273 28.7496H63.9696C64.2598 28.7496 64.4102 28.6509 64.5063 28.5085L69.1233 21.695L73.932 28.5085C74.0308 28.6489 74.1791 28.7496 74.4686 28.7496H77.939C78.3536 28.7496 78.4286 28.4216 78.2397 28.1625L71.4251 18.8336L77.5593 10.3798C77.7474 10.1207 77.6732 9.79343 77.2586 9.79343H73.9817C73.6915 9.79343 73.5411 9.8928 73.445 10.0346L69.3938 15.9887L65.2085 10.0346C65.1098 9.89412 64.9614 9.79343 64.6719 9.79343H61.2294Z" fill="#00084D"></path><path d="M112.059 9.20511C106.255 9.20511 102.762 13.3784 102.762 19.2656C102.762 25.7589 106.891 29.326 112.059 29.326C118.305 29.326 120.766 25.6529 120.904 25.5152C121.062 25.3569 121.019 25.062 120.886 24.9322L119.081 23.1626C118.947 23.032 118.694 23.0122 118.519 23.1883C118.388 23.3215 116.19 26.0988 112.59 26.0988C108.763 26.0988 106.879 23.7542 106.626 20.3003H120.886C121.328 20.3003 121.352 19.9076 121.353 19.6491C121.383 12.6377 117.308 9.20511 112.059 9.20511ZM112.072 12.2567C115.582 12.2567 117.052 14.3675 117.363 17.3741H106.765C107.181 14.4265 108.729 12.2567 112.072 12.2567Z" fill="#00084D"></path><path fill-rule="evenodd" clip-rule="evenodd" d="M6.52522 0H24.9474C28.5621 0 31.4726 2.91048 31.4726 6.52522V24.9474C31.4726 28.5621 28.5621 31.4726 24.9474 31.4726H6.52522C2.91048 31.4726 0 28.5621 0 24.9474V6.52522C0 2.91048 2.91048 0 6.52522 0ZM8.8009 5.63482C8.5074 5.63482 8.32321 5.70239 8.16819 5.85743L5.02318 9.00244C4.96488 9.06074 4.93174 9.14025 4.93174 9.2224C4.93174 9.39465 5.07088 9.53377 5.24315 9.53377H18.8765L10.495 17.9155C10.33 18.0804 10.2339 18.1763 10.2339 18.5011V20.7066C10.2339 20.8404 10.2949 20.9558 10.3817 21.0431C10.4691 21.1306 10.5844 21.1909 10.7182 21.1909H12.9238C13.2478 21.1909 13.3438 21.0948 13.5088 20.9298L21.8904 12.5483V26.1818C21.8904 26.3534 22.0296 26.4931 22.2018 26.4931C22.2846 26.4931 22.3634 26.46 22.4217 26.4017L25.5667 23.2567C25.7218 23.1016 25.7893 22.9167 25.7893 22.6239V7.73701C25.7893 6.57627 24.8485 5.63549 23.6879 5.63549L8.8009 5.63482ZM9.15535 21.8031H6.13027C5.87718 21.8031 5.67311 22.0064 5.67378 22.2595V25.3039C5.67378 25.557 5.87718 25.7603 6.13027 25.7603H9.15535C9.40844 25.7603 9.61183 25.557 9.61183 25.3039V22.2595C9.61183 22.0064 9.40844 21.8031 9.15535 21.8031Z" fill="#00084D"></path></g><defs><clipPath id="clip0_11079_9865"><rect width="175" height="35.3241" fill="white"></rect></clipPath></defs></svg> 