<?xml version="1.0" encoding="UTF-8"?> <svg xmlns="http://www.w3.org/2000/svg" width="125" height="49" viewBox="0 0 125 49" fill="none"><g clip-path="url(#clip0_11079_9875)"><path fill-rule="evenodd" clip-rule="evenodd" d="M0.000953029 5.00623L0 4.94618V0.135647H4.80006V35.4191L4.80228 35.5289V40.2897H0V35.4792L0.000953029 35.4188V5.00623ZM48.8125 25.6664C48.9358 32.9644 53.4512 38.8007 58.8984 38.7029C64.3446 38.605 68.6589 32.6098 68.5356 25.3119C68.4118 18.0131 63.8963 12.1767 58.4492 12.2756C53.003 12.3734 48.6883 18.3685 48.8125 25.6664ZM88.5593 16.8427C88.6847 17.1207 88.3871 16.4272 88.3871 16.4272L88.5593 16.8427ZM91.831 47.0558C92.0508 46.6791 92.3574 46.1028 92.7221 45.3823L91.831 47.0558ZM92.1131 14.3249C92.1712 14.4869 92.2383 14.6559 92.3135 14.8341L93.9302 18.8159L92.1131 14.3249ZM71.999 34.3679C74.966 37.0773 77.6376 38.4777 81.0536 38.4777C84.5502 38.5043 87.659 36.7838 87.659 33.4727C87.659 30.7093 85.2237 29.0929 80.8726 27.2421C77.1853 25.6369 74.4412 24.5115 73.0069 22.188C73.1823 23.1976 73.2737 24.2404 73.2737 25.3079C73.2737 34.27 66.8123 41.5366 58.8412 41.5366C50.8701 41.5366 44.4086 34.27 44.4086 25.3079C44.4086 19.9045 46.7572 15.1184 50.3682 12.1689H40.6013V35.4191L40.6022 35.5118V40.2897H36.2641V35.6675C36.2672 35.5862 36.2682 35.5036 36.2682 35.4191V12.1685H32.4434V9.24241H36.3241C36.8255 3.33907 40.4605 0 45.4932 0C48.7566 0 50.5483 0.342453 51.583 0.824046V4.8261C51.5671 5.12472 51.5671 5.30675 51.5671 5.30675C51.522 5.30167 51.4149 5.29976 51.4149 5.29976C49.8443 3.84196 48.2954 2.75741 44.6764 2.76154C41.7939 2.76154 39.8872 5.11741 40.553 9.24241H56.789C57.4677 9.13404 58.1539 9.07955 58.8412 9.07945C64.6235 9.07945 69.6123 12.903 71.9154 18.4255C71.8937 18.1192 71.8836 17.7993 71.8836 17.465C71.8836 11.7031 77.4277 9.25258 83.1865 9.26497C83.4066 9.26369 83.6223 9.26497 83.8345 9.27005C85.8612 9.23733 88.749 9.90222 90.512 10.3692L93.9302 18.8159L98.815 30.8017L99.3884 32.7267L100.027 30.8017L106.205 15.4167C107.344 11.1809 111.856 9.34725 116.838 9.35741C119.315 9.34629 121.145 9.64649 123.339 10.4229V15.0758C120.638 13.1009 118.703 11.9531 115.638 11.9531C112.944 11.9531 109.706 13.153 109.706 17.1417C109.654 20.1392 111.442 20.6869 116.687 23.3058C120.999 25.189 124.977 27.2678 125 32.0825C125 40.1098 117.139 41.5 113.312 41.5124C109.896 41.5124 106.765 40.6639 105.023 39.206V33.9069L105.303 34.1402C108.411 37.0593 111.157 38.5716 114.705 38.5716C118.203 38.5984 121.31 36.8769 121.31 33.5654C121.31 30.8023 118.875 29.186 114.524 27.3352C110.365 25.5244 107.637 24.3243 106.522 21.3249C104.825 25.4854 96.937 44.8124 95.0802 48.9434H90.8265L92.7516 45.3277C93.8181 43.2152 95.3692 39.9008 96.7473 36.7301L88.5593 16.8427C88.4032 16.4925 88.2487 16.1417 88.0958 15.79C87.4675 14.3497 86.8829 13.0196 85.1147 12.3495C84.1675 12.0287 83.1591 11.8604 81.9866 11.8604C79.2927 11.8604 75.8469 13.0602 75.8469 17.049C75.7948 20.0465 77.7892 20.5942 83.0359 23.2118C87.3473 25.0963 91.3246 27.1751 91.3481 31.9898C91.3481 40.0171 83.4856 41.4063 79.6594 41.4197C76.622 41.4197 73.8087 40.7484 71.999 39.5749V34.3679ZM13.7581 9.54198L13.8116 13.0538L13.8083 13.2902L13.8551 13.2889C13.9112 13.1425 13.9866 13.0183 14.0578 12.9256C15.8208 11.0239 18.0435 9.1344 23.3256 9.1344C28.3816 9.1344 31.6543 13.456 31.7855 16.1766L31.7906 35.4191V40.2897H27.4579V34.5524L27.4569 18.1709C27.4569 14.7792 24.498 12.3267 20.8759 12.3267C17.865 12.3267 14.0008 15.0523 13.8725 17.8113V35.4242L13.8744 35.5535V40.2938H9.53943V13.5856L9.54071 9.54166L13.7581 9.54198Z" fill="#00084D"></path></g><defs><clipPath id="clip0_11079_9875"><rect width="125" height="48.9583" fill="white"></rect></clipPath></defs></svg> 