<?xml version="1.0" encoding="UTF-8"?> <svg xmlns="http://www.w3.org/2000/svg" width="150" height="39" viewBox="0 0 150 39" fill="none"><g clip-path="url(#clip0_11079_10166)"><mask id="mask0_11079_10166" style="mask-type:luminance" maskUnits="userSpaceOnUse" x="0" y="0" width="150" height="39"><path d="M150 0H0V38.0769H150V0Z" fill="white"></path></mask><g mask="url(#mask0_11079_10166)"><path fill-rule="evenodd" clip-rule="evenodd" d="M0.931404 10.5423C2.05845 10.5423 2.84383 10.7807 3.33153 11.2679C3.87727 11.8131 4.12158 12.7136 4.12158 14.1873V32.5945C4.12158 35.1417 3.58708 36.2778 0.432469 36.2778H0V37.4074H14.177V36.2834L13.7492 36.2778C10.6246 36.2404 10.0975 35.1108 10.0975 32.5945V14.1863C10.0975 12.7173 10.3409 11.8205 10.8867 11.2763C11.379 10.7816 12.1785 10.5413 13.3289 10.5413H14.1761V9.39587H0V10.5413H0.931404V10.5423Z" fill="#00084D"></path><path fill-rule="evenodd" clip-rule="evenodd" d="M46.2733 28.0172C46.2733 28.0172 46.0272 26.868 45.9914 26.2246V17.8173C45.9364 12.9146 46.6057 10.474 42.3145 10.4927V9.39117H52.1857V10.4927C47.7664 10.4749 48.3226 12.9155 48.2972 17.8173V37.4485L46.8922 37.4336L25.5765 15.1504C25.5765 15.1504 25.8162 16.2978 25.8517 16.942V30.7093C25.731 35.7317 26.3535 36.3386 29.5923 36.2797V37.427H19.302V36.2797C22.5455 36.2834 23.183 35.8523 23.1792 30.2998V30.6317V17.0636L23.153 14.9101C23.2738 12.1226 22.2431 10.5058 19.0969 10.532V9.42952H28.571L46.2733 28.0172Z" fill="#00084D"></path><path fill-rule="evenodd" clip-rule="evenodd" d="M82.0058 8.85632H80.9181L80.8674 9.22852C80.7935 9.78394 80.5743 10.7144 79.9408 10.7144C79.7601 10.7144 79.3097 10.6292 78.8024 10.3974C76.5989 9.44355 73.7439 8.85632 71.3401 8.85632C66.6624 8.85632 62.4193 10.5301 59.3881 13.5711C56.6043 16.3651 55.0812 20.1681 55.1028 24.2778C55.1224 28.2146 56.6716 31.4527 59.8431 34.1823C63.0378 36.9127 66.6174 38.0769 71.8193 38.0769C76.1524 38.0769 78.6331 37.4551 82.4401 35.4138L83.1066 35.0529V27.7077C83.1066 24.5771 83.4905 24.0899 86.0405 23.987L86.4551 23.9711V22.8799H73.9974V23.9711L74.4124 23.987C77.2524 24.0974 77.7885 24.6061 77.7885 27.1944V34.0009C75.6816 35.3895 74.1501 35.9169 72.2189 35.9169C69.3612 35.9169 66.8178 34.8135 64.8651 32.8647C62.5781 30.5784 61.4624 27.2486 61.4624 23.4858C61.4624 19.4322 62.5428 15.9742 64.7685 13.7525C66.5408 11.9823 68.8939 10.9996 71.5785 10.9996C73.977 10.9996 76.7628 12.0272 78.6732 13.5411C80.2274 14.8119 81.0332 16.0416 81.6416 18.0735L81.7343 18.3812H82.7978L82.0058 8.85632Z" fill="#00084D"></path><path fill-rule="evenodd" clip-rule="evenodd" d="M136.569 37.3316C137.262 37.2269 137.997 37.2428 138.549 36.736C140.889 37.0951 143.261 36.5172 145.101 35.2296C146.07 34.4488 146.943 33.5426 147.65 32.5524C148.271 31.6809 148.762 30.8683 149.079 29.8921C149.316 29.2899 149.503 28.6634 149.644 28.02C150.312 24.9866 149.961 21.5941 148.972 18.7093C148.792 18.1735 148.585 17.6546 148.36 17.1599C147.126 14.6127 145.447 11.8645 142.862 10.2533C141.405 9.3463 140.065 7.94272 139.242 6.48961C138.794 6.08749 138.365 5.55449 137.787 5.45819C137.945 5.71907 138.119 5.97434 138.162 6.27918L138.129 6.32222C137.515 6.33999 137.033 6.01549 136.613 5.62276L137.077 5.20292C136.902 5.11407 136.701 5.08042 136.507 5.03553C134.739 4.83449 133.285 5.64988 131.715 6.04261L131.691 6.12957C132.655 6.55784 132.856 7.61822 133.417 8.33545C133.555 8.16899 133.792 8.29057 133.985 8.27561C134.265 8.29149 134.528 8.49349 134.8 8.42242C134.808 8.18865 134.677 8.00257 134.634 7.79311C134.8 7.71457 135.001 7.78376 135.187 7.79311C135.694 8.08953 136.507 7.74072 136.824 8.42242C136.245 8.45888 135.702 8.58045 135.159 8.7123C135.195 8.93111 135.414 9.10503 135.396 9.32476C134.932 9.13215 134.44 9.01061 133.924 8.9498L133.898 9.02742C134.555 9.79699 135.457 10.2533 136.377 10.5236C137.701 10.8293 138.865 10.2 140.143 10.4188C143.281 11.8542 145.961 15.1373 147.126 18.253C147.183 18.4026 147.238 18.5541 147.29 18.7084C148.267 21.5539 148.452 25.0511 147.473 28.0191C146.953 29.2534 146.38 30.4185 145.462 31.4219C145.115 31.8492 144.731 32.2298 144.313 32.5515C142.998 33.5745 141.377 34.0261 139.705 33.5679C139.6 33.4959 139.39 33.4781 139.425 33.2958C139.483 33.0517 139.537 32.8049 139.585 32.5515C139.862 31.1292 139.99 29.633 139.916 28.1369C139.914 28.0733 139.912 28.0088 139.91 27.9452C139.817 25.773 139.384 23.8205 138.585 21.942C138.072 20.8638 137.464 19.6884 136.697 18.6336C135.782 17.3759 134.647 16.2893 133.188 15.747C132.294 15.5104 131.19 15.4655 130.517 16.2089C130.034 16.6306 129.834 17.1982 129.903 17.821C129.15 18.2979 128.303 18.555 127.38 18.6336C127.155 18.6532 126.924 18.7365 126.689 18.7336C126.466 18.7439 126.249 18.7346 126.035 18.7084C124.926 18.5719 123.804 17.9734 122.951 17.2908C122.933 16.8354 122.907 16.4071 122.889 15.9256C122.4 15.6721 121.995 15.1906 121.962 14.6211L122.005 14.5781C122.287 14.6651 122.53 14.8044 122.784 14.9531C122.67 14.2705 122.538 13.5972 122.198 13.0015C121.882 12.8697 121.567 12.765 121.27 12.607C120.928 12.3816 120.708 11.9683 120.658 11.5933C120.964 11.8906 121.497 11.7859 121.734 12.1001C121.321 10.8836 121.315 9.49215 120.639 8.38034C120.297 7.55838 119.403 7.18157 118.79 6.57842C118.553 6.28853 118.458 5.88645 118.029 5.84157C117.678 5.75461 117.652 5.36188 117.591 5.10661C117.809 5.13276 117.993 5.28145 118.176 5.31607C117.669 3.97045 117.221 2.47245 115.847 1.61497L115.611 1.76459C115.077 1.84313 114.507 1.87867 113.973 1.89643C114.21 1.54671 114.629 1.39709 114.962 1.23813C114.577 0.95012 114.26 0.880924 113.777 0.802378C113.497 1.08104 112.991 1.22223 112.632 1.30078L112.587 1.26525C112.577 0.95012 112.506 0.565801 112.981 0.486316C112.525 0.267506 111.77 0.356339 111.305 0.486316C111.175 0.827624 110.799 1.13434 110.826 1.53829C110.555 1.81789 110.363 2.19472 110.081 2.39577C110.072 1.72157 110.36 1.10067 110.482 0.532135C110.088 0.680816 109.688 0.891208 109.301 1.07449C108.68 0.715412 108.025 0.357274 107.36 0.0851637C107.3 0.058981 107.167 0.0337336 107.193 0.146879C107.763 0.557385 107.542 1.32883 107.603 1.91326L107.243 1.61684C107.068 1.1708 106.563 0.847262 106.476 0.357274C105.88 0.471354 105.498 0.628451 104.946 0.865028L104.87 0.908977C105.282 0.908977 105.632 1.23158 105.833 1.55699C105.211 1.59066 104.659 1.3466 104.046 1.28395C103.985 1.2241 103.932 1.1521 103.835 1.16145C103.529 1.27553 103.265 1.49341 102.995 1.7038C102.391 2.29945 101.777 2.95589 101.488 3.74417C101.691 3.77783 101.944 3.76942 102.093 3.89192C101.761 4.09295 101.472 4.43518 101.148 4.62688C101.033 5.08226 101.051 5.6003 101.024 6.0978C100.77 6.48399 100.429 6.82342 100.263 7.25449C99.7192 9.01061 99.5796 10.964 99.6585 12.9585C99.4823 13.1259 99.2539 13.2316 99.0892 13.3625L99.1069 15.1466H99.15C99.2289 14.7717 99.6762 14.5622 99.9477 14.3079H100.036C99.9916 14.71 99.9393 15.113 99.9308 15.5244L99.4235 15.9443C98.9143 16.3913 99.3439 17.0645 99.3008 17.6256C99.3366 17.7724 99.3608 17.9921 99.4666 18.0276C99.5285 17.8088 99.72 17.6518 99.8439 17.4582C100.062 17.4068 100.255 17.23 100.456 17.2057C100.342 17.6433 100.195 18.0716 100.018 18.4915C99.9335 18.5466 99.8354 18.6205 99.7512 18.7103C99.6612 18.8066 99.5893 18.9141 99.5704 19.0338C99.9666 21.1069 100.586 23.1548 101.295 25.1063C100.815 25.9207 100.541 26.8792 100.14 27.7198C100.082 27.8367 100.031 27.9574 99.9831 28.0789C99.5808 29.0963 99.4581 30.2343 98.9573 31.2115C98.7543 31.0731 98.535 30.9655 98.3096 30.8702C97.3623 30.555 96.2669 30.7561 95.5762 31.4836C94.9619 31.3695 94.3312 31.4742 93.8493 31.7987C93.5035 32.0559 93.2369 32.3691 93.0835 32.7338C92.9785 32.9881 92.9308 33.2649 92.9466 33.567C92.5535 33.8372 92.3431 34.2561 92.2119 34.6778C92.0285 35.6223 92.3608 36.606 92.9035 37.3335H136.569V37.3316Z" fill="white"></path><path fill-rule="evenodd" clip-rule="evenodd" d="M130.77 17.6546C130.761 17.8818 130.595 18.1371 130.744 18.3287C130.955 18.0922 131.305 18.1006 131.585 17.9968C132.364 17.9267 133.109 18.1707 133.836 18.3474C133.653 18.0576 133.53 17.7359 133.329 17.4722C132.924 17.3675 132.312 17.6471 132.243 17.0524C131.997 16.8419 131.61 16.9925 131.358 17.0075C131.112 17.1842 130.91 17.4011 130.77 17.6546Z" fill="white"></path><path fill-rule="evenodd" clip-rule="evenodd" d="M103.996 10.099C103.992 10.0953 103.987 10.0916 103.983 10.0906C103.983 10.0906 103.983 10.0953 103.985 10.099H103.996Z" fill="white"></path><path fill-rule="evenodd" clip-rule="evenodd" d="M107.181 17.8771L107.707 17.3703C107.752 17.3703 107.785 17.3796 107.812 17.4152L107.768 18.3858C108.022 18.6224 108.337 18.701 108.669 18.7187C108.696 18.456 108.898 18.2726 109.012 18.0445C109.108 17.8612 109.047 17.5891 109.239 17.4573L109.299 17.519C109.362 17.807 109.345 18.1315 109.494 18.3849C109.512 18.5242 109.537 18.7 109.554 18.8225C109.939 18.8412 110.289 18.7346 110.587 18.5953C110.569 18.2633 110.685 17.9912 110.735 17.6845C110.815 17.5788 110.639 17.3871 110.859 17.3965C110.981 17.6583 111.2 17.9295 111.323 18.2091C111.83 17.6929 112.041 17.0196 112.164 16.3202C112.016 16.1173 111.787 16.1173 111.611 15.9873C110.123 15.5057 108.212 15.4085 106.775 16.1528C106.682 16.7494 106.805 17.4058 107.181 17.8771Z" fill="white"></path><path fill-rule="evenodd" clip-rule="evenodd" d="M93.2593 34.2992C93.2062 34.9743 93.2593 35.6064 93.3016 36.2713C93.4428 36.4901 93.6974 36.7444 93.9489 36.7622L93.9951 36.3152C94.0989 35.6924 93.7666 35.0323 94.1174 34.5077C94.3628 34.5862 94.6059 34.7087 94.8186 34.8228C94.9212 34.2449 94.7743 33.5717 94.2224 33.2219L93.2593 34.2992Z" fill="white"></path><path fill-rule="evenodd" clip-rule="evenodd" d="M95.4215 33.3556C95.08 34.3786 94.8253 35.6429 95.2392 36.7192C95.4738 36.563 95.72 36.4134 95.9288 36.1945C95.8865 35.3707 95.7723 34.4918 96.2619 33.8092C96.6904 33.941 96.9815 34.3524 97.1461 34.7555C97.4365 34.3861 97.5327 33.8793 97.4184 33.3884C97.4365 33.005 96.9965 33.0929 96.7869 32.9339C96.858 32.6104 96.8477 32.2354 97.1904 32.0521L96.1392 32.1569C95.8688 32.5402 95.5711 32.918 95.4215 33.3556Z" fill="white"></path><path fill-rule="evenodd" clip-rule="evenodd" d="M97.5857 36.3769C97.6307 36.4574 97.5857 36.5957 97.6738 36.6135C97.8057 35.8795 98.4011 35.4026 98.7261 34.7555C98.8822 34.5367 98.873 34.23 99.1276 34.0636C99.4703 34.0636 99.7153 34.3095 100.049 34.3356C100.153 34.4142 99.9945 34.4834 99.9868 34.5704C99.9176 35.1669 99.6892 35.6607 99.7334 36.2722H99.793C100.258 35.7841 100.573 35.253 100.915 34.6929L100.975 34.1954C101.053 33.5997 100.405 33.2154 99.9849 32.9704L100.361 32.4889L99.8361 32.3046C99.2222 32.3664 98.6699 32.6197 98.2411 33.1022C97.7084 34.0813 97.6215 35.1875 97.5857 36.3769Z" fill="white"></path><path fill-rule="evenodd" clip-rule="evenodd" d="M99.9431 31.1834C100.144 31.2452 100.328 31.0787 100.528 31.1666C101.335 31.4631 102.177 31.7698 102.78 32.4439L103.499 34.2721L103.859 33.1443L103.622 32.5309C103.42 32.0933 102.868 32.1288 102.491 32.1111C102.335 31.9362 102.5 31.7342 102.554 31.5687C102.736 30.9478 101.974 30.9815 101.668 30.7299C101.687 30.3531 101.23 30.484 100.975 30.4485L100.889 30.3438C100.837 30.2652 100.706 30.2652 100.635 30.326C100.616 30.3007 100.582 30.283 100.601 30.2381L100.406 30.283C100.136 30.5196 99.9516 30.8253 99.9431 31.1834Z" fill="white"></path><path fill-rule="evenodd" clip-rule="evenodd" d="M100.45 29.1721C100.477 29.2852 100.547 29.3993 100.634 29.4685C101.029 29.3638 101.404 29.0935 101.86 29.2581C102.448 29.7743 103.06 30.3166 103.772 30.5981L104.024 30.5532C104.183 30.6074 104.357 30.6149 104.462 30.7898C104.56 31.0264 104.315 31.1666 104.235 31.3583C104.63 31.6472 104.472 32.1644 104.718 32.5132L105.349 31.6734C105.201 31.305 105.357 30.6757 104.779 30.6411C104.587 30.5439 104.455 30.3512 104.464 30.1324C104.088 29.7911 103.624 29.6434 103.245 29.2936C102.939 29.0477 102.756 28.6709 102.361 28.5839C102.09 28.4362 101.794 28.3567 101.478 28.2875C100.889 28.2005 100.837 28.899 100.45 29.1721Z" fill="white"></path><path fill-rule="evenodd" clip-rule="evenodd" d="M101.291 27.4478L101.397 27.6142C101.834 27.5871 102.23 27.3954 102.66 27.4038C102.948 27.5796 103.325 27.5712 103.622 27.7189C103.858 28.0425 104.113 28.41 104.462 28.6297C105.173 28.7335 105.566 29.4956 105.811 30.0548V29.7836C105.916 29.4086 105.802 28.9701 105.662 28.6297C105.487 28.4539 105.233 28.3389 105.049 28.1818C105.014 28.0687 105.04 28.0154 105.075 27.9106C104.803 27.6217 104.401 27.4637 104.068 27.2374C103.604 26.5632 102.71 26.7474 102 26.5632L101.291 27.4478Z" fill="white"></path><path fill-rule="evenodd" clip-rule="evenodd" d="M101.277 21.0274C101.355 21.2995 101.45 21.6408 101.501 21.9288C101.746 21.3865 102.23 21.1434 102.659 20.6964C102.413 20.529 102.108 20.4505 101.836 20.3981V20.3822C101.644 20.5739 101.346 20.7665 101.277 21.0274Z" fill="white"></path><path fill-rule="evenodd" clip-rule="evenodd" d="M102.868 23.9066L103.262 23.5045C103.657 23.1024 103.981 22.6377 104.042 22.1215C103.762 21.955 103.394 22.0682 103.123 22.1645C103.025 22.7349 102.878 23.295 102.868 23.9066Z" fill="white"></path><path fill-rule="evenodd" clip-rule="evenodd" d="M103.156 25.1409C103.762 25.1764 104.348 25.2971 104.839 24.9586L105.328 23.382C105.172 23.3727 105.013 23.3034 104.865 23.3558C104.542 24.074 103.892 24.7818 103.156 25.1409Z" fill="white"></path><path fill-rule="evenodd" clip-rule="evenodd" d="M103.334 19.5575C103.728 20.1363 104.385 20.7834 105.06 20.9658C104.981 20.2317 104.351 19.723 104.027 19.0937L104.008 18.8833C103.755 18.6374 103.448 18.4728 103.185 18.34C103.143 18.7617 103.256 19.1648 103.334 19.5575Z" fill="white"></path><path fill-rule="evenodd" clip-rule="evenodd" d="M105.47 25.2111C105.935 25.2914 106.434 25.2111 106.862 25.0783C107.485 24.9314 107.827 24.2479 108.037 23.7149H107.257L106.416 24.5368C106.085 24.7126 105.767 24.9763 105.47 25.2111Z" fill="white"></path><path fill-rule="evenodd" clip-rule="evenodd" d="M105.376 18.7617C105.508 19.4443 105.795 20.0652 106.191 20.6525L106.296 19.348L105.376 18.7617Z" fill="white"></path><path fill-rule="evenodd" clip-rule="evenodd" d="M108.248 22.1655C108.3 21.7278 108.118 21.221 108.067 20.775C107.803 20.5991 107.434 20.6169 107.164 20.443C107.181 21.134 107.723 21.7194 108.248 22.1655Z" fill="white"></path><path fill-rule="evenodd" clip-rule="evenodd" d="M107.45 26.6127C108.002 26.4369 108.536 26.2443 109.043 25.9638C109.367 25.5019 109.858 25.0792 109.927 24.5378C109.525 24.6509 109.174 24.5209 108.799 24.7052C108.572 25.1157 108.43 25.5804 107.993 25.8768C107.924 26.1732 107.599 26.3762 107.45 26.6127Z" fill="white"></path><path fill-rule="evenodd" clip-rule="evenodd" d="M108.308 27.689L108.965 28.5455C109.316 28.6596 109.754 28.6241 110.06 28.423L109.823 27.6441C109.36 27.8208 108.808 27.7666 108.308 27.689Z" fill="white"></path><path fill-rule="evenodd" clip-rule="evenodd" d="M109.404 21.4912L109.658 22.647C110.27 22.1477 110.394 21.4211 110.379 20.6516C110.028 21.0536 109.823 21.2996 109.404 21.4912Z" fill="white"></path><path fill-rule="evenodd" clip-rule="evenodd" d="M111.129 23.5316C111.138 23.6971 111.182 23.8552 111.279 23.987C111.961 24.2311 112.031 25.0623 112.663 25.3775C113.074 25.5608 113.545 25.3326 113.906 25.1671C113.634 24.8613 113.326 24.649 113.065 24.3264C112.881 24.2479 112.696 24.1338 112.706 23.9066L111.129 23.5316Z" fill="white"></path><path fill-rule="evenodd" clip-rule="evenodd" d="M111.672 27.6619C111.97 28.0032 112.373 28.1781 112.793 28.2735C112.724 28.1771 112.838 28.2735 112.855 28.2127L112.328 27.0597C112.066 27.0662 111.795 27.1195 111.55 27.1027C111.566 27.2935 111.611 27.4852 111.672 27.6619Z" fill="white"></path><path fill-rule="evenodd" clip-rule="evenodd" d="M112.601 22.2702C112.355 21.7016 112.252 21.0106 112.183 20.3813C111.92 20.6955 111.648 20.8974 111.403 21.2201C111.289 21.8681 112.215 22.027 112.601 22.2702Z" fill="white"></path><path fill-rule="evenodd" clip-rule="evenodd" d="M113.67 21.6764C113.985 22.0869 114.677 21.9466 115.064 21.8241C114.879 21.509 114.285 21.3257 114.18 20.9844C114.119 20.3813 113.998 19.795 113.804 19.2433C113.497 19.9867 113.127 20.8713 113.67 21.6764Z" fill="white"></path><path fill-rule="evenodd" clip-rule="evenodd" d="M114.221 23.5316C115.098 24.1713 115.956 24.9137 117.182 24.6425C117.27 24.5808 117.419 24.5892 117.437 24.4761C117.076 24.2479 116.692 24.0731 116.324 23.8645L115.904 23.2511H115.711C115.238 23.4091 114.728 23.469 114.221 23.5316Z" fill="white"></path><path fill-rule="evenodd" clip-rule="evenodd" d="M114.24 30.6289H114.299C114.826 30.2091 115.448 30.0688 116.07 29.893C116.237 29.9538 116.131 30.138 116.28 30.2091C116.658 30.051 117.113 30.0866 117.498 29.9547C117.963 29.9734 118.341 29.9818 118.716 30.1829C119.013 30.5756 119.574 30.5336 119.961 30.7944L119.899 30.1829C119.085 29.2281 117.814 29.158 116.642 29.1767L116.614 29.0533C116.334 29.0533 116.02 29.115 115.757 29.2384C115.381 29.2543 115.021 29.4395 114.661 29.5526C114.493 29.8855 114.362 30.2867 114.24 30.6289Z" fill="white"></path><path fill-rule="evenodd" clip-rule="evenodd" d="M114.943 19.8735C115.284 20.3205 115.791 20.6609 116.37 20.5477C116.073 20.2588 115.731 19.9511 115.713 19.5406C115.801 18.7617 114.943 18.7009 114.522 18.2969C114.661 18.8234 114.645 19.4088 114.943 19.8735Z" fill="white"></path><path fill-rule="evenodd" clip-rule="evenodd" d="M114.854 32.1784H114.956C115.421 31.8876 116.096 32.1073 116.552 31.8006C116.805 31.6687 116.822 32.0194 116.999 32.1157C117.428 32.3785 117.48 33.1649 118.085 32.9825C118.811 33.3585 118.628 34.244 118.654 34.8911L119.329 34.4712C119.267 34.1299 119.459 33.7166 119.24 33.4201C119.075 33.0452 118.62 33.0096 118.401 32.703C118.664 32.256 118.068 32.0475 117.945 31.723L117.98 31.6781L118.907 31.8006C119.225 31.9932 119.337 32.3439 119.434 32.6674C120.161 32.7899 120.336 33.6118 120.591 34.1374C120.74 33.7783 120.801 33.393 120.95 33.0443C120.959 32.7544 120.573 32.7544 120.381 32.6244C120.327 32.1784 120.127 31.7566 119.733 31.4864C118.927 31.2853 118.218 30.8384 117.333 30.8384L116.597 31.0665C116.193 31.1628 115.765 31.0404 115.458 31.319C115.001 31.3536 114.966 31.8539 114.854 32.1784Z" fill="white"></path><path fill-rule="evenodd" clip-rule="evenodd" d="M115.316 28.5717L115.484 28.6503C115.842 28.4829 116.202 28.2912 116.579 28.151C117.165 27.9845 117.621 28.6503 118.112 28.2304C118.296 28.0986 118.452 28.2912 118.593 28.3969C118.804 28.7821 119.295 28.756 119.662 28.8607C119.479 28.3623 119.252 27.6787 118.611 27.5983C118.358 27.4852 118.059 27.4964 117.814 27.3459C117.14 26.6024 116.702 27.9574 115.965 27.6254C115.703 27.9162 115.379 28.1865 115.316 28.5717Z" fill="white"></path><path fill-rule="evenodd" clip-rule="evenodd" d="M115.484 32.8339C115.764 33.0686 116.052 33.4725 116.489 33.4192C117.035 33.6736 116.806 34.3898 117.104 34.7667L117.418 34.4862L117.392 34.4693L117.437 34.4254L117.456 34.4516C117.543 34.1879 117.419 33.7241 117.27 33.4183C117.069 33.2799 116.832 33.4277 116.64 33.2958C116.614 33.0162 116.439 32.876 116.237 32.7011C116.097 32.5963 115.912 32.7366 115.755 32.7273L115.484 32.8339Z" fill="white"></path><path fill-rule="evenodd" clip-rule="evenodd" d="M116.579 22.1654C116.868 22.6479 117.428 22.9453 117.875 23.2773C118.242 23.4446 118.724 23.4867 119.119 23.3998C118.743 23.094 118.4 22.7443 118.086 22.3749C117.963 22.2 117.936 21.9821 117.77 21.8241C117.357 21.9036 116.894 21.8952 116.579 22.1654Z" fill="white"></path><path fill-rule="evenodd" clip-rule="evenodd" d="M117.062 19.0338C117.466 19.5313 118.088 19.3312 118.657 19.348V19.2882L117.781 18.5513C117.535 18.6308 117.274 18.8487 117.062 19.0338Z" fill="white"></path><path fill-rule="evenodd" clip-rule="evenodd" d="M100.935 10.7807L101.442 12.3563C101.433 11.4633 101.845 10.7199 101.758 9.8101L102.135 9.24902L101.336 9.49402C101.127 9.89614 100.953 10.3001 100.935 10.7807Z" fill="white"></path><path fill-rule="evenodd" clip-rule="evenodd" d="M101.277 8.05025L101.968 7.64721V6.62329C101.678 6.7991 101.519 7.09645 101.294 7.33302L101.277 8.05025Z" fill="white"></path><path fill-rule="evenodd" clip-rule="evenodd" d="M115.486 9.64365C115.318 9.86246 115.065 9.91484 114.856 9.95876C115.223 9.28457 115.399 8.34669 115.108 7.58553C115.302 7.51634 115.513 7.48265 115.696 7.37607L115.678 7.35922L116.161 6.93749C116.8 6.49988 116.554 5.66953 116.791 5.04861C116.476 4.55772 116.381 3.96299 115.924 3.55061L115.951 3.53472C115.59 3.07933 114.943 3.13076 114.45 2.90353C113.803 2.68472 113.304 3.13076 112.839 3.42999C112.638 3.46365 112.761 3.72641 112.541 3.71799C112.419 4.04246 112.269 4.39219 112.182 4.75034C111.315 4.62692 110.378 4.72507 109.686 5.21415C109.317 4.94388 108.87 4.89061 108.441 4.76811C108.126 4.7073 107.767 4.82142 107.54 4.64469C107.208 4.26969 107.136 3.58615 106.566 3.49077C106.365 3.42064 106.322 3.20276 106.322 3.0092C105.945 2.94842 105.611 2.77449 105.243 2.69407C104.684 2.43973 104.238 2.84369 103.816 3.11393C103.633 3.19341 103.422 3.21866 103.248 3.32526C102.933 3.81431 102.634 4.31365 102.433 4.85507C102.494 5.30111 102.686 5.69572 102.916 6.07161C103.117 6.64107 103.747 7.08711 104.281 7.3153C104.028 8.18119 104.028 9.21446 104.281 10.0897C104.281 10.0897 104.266 10.1 104.266 10.0981C104.266 10.1 104.238 10.1224 104.238 10.1224C104.154 10.1224 104.065 10.1393 103.996 10.0981H103.985C104.108 10.9341 104.501 11.6653 105.138 12.2928C105.366 12.3732 105.314 12.6434 105.411 12.8192C105.471 12.8968 105.48 13.0633 105.454 13.1334C104.089 13.0895 102.87 13.4308 101.775 14.0516C101.495 14.1919 101.618 14.5781 101.592 14.8484C102.363 14.3415 103.195 13.9647 104.114 13.7992C104.508 13.773 104.955 13.6767 105.332 13.7814L105.376 14.5342C104.334 15.0765 103.195 15.3916 102.301 16.2846C102.319 16.5549 102.267 16.871 102.346 17.0991L103.143 16.4502C103.913 15.8657 104.719 15.3655 105.604 15.0419C105.841 15.3225 106.087 15.6198 106.403 15.7937C106.936 15.4524 107.515 15.2 108.128 15.0419C108.453 14.8493 108.968 15.0241 109.178 14.6398L109.328 13.8431C109.301 13.8254 109.285 13.7917 109.24 13.8011C108.829 13.5645 108.558 13.154 108.592 12.6715C108.453 12.7407 108.296 12.7856 108.128 12.794C107.988 12.7585 107.858 12.7248 107.796 12.5836C107.786 12.4078 107.698 12.146 107.873 12.015C108.443 11.6644 109.179 11.6466 109.898 11.7008C110.432 11.77 111.204 11.7429 111.386 12.375C111.362 12.5583 111.378 12.7594 111.194 12.8819C111.002 12.9866 110.784 12.8725 110.607 12.7949C110.468 13.2232 110.231 13.7057 109.748 13.8441L109.811 14.3528C109.871 14.5809 109.889 14.9559 110.249 14.8773C111.081 15.0784 111.816 15.5076 112.543 15.9714C112.789 15.7255 112.981 15.445 113.156 15.1925C114.452 15.6291 115.574 16.6007 116.643 17.5021L116.688 16.7671C115.671 15.8657 114.54 15.2271 113.366 14.7277C113.411 14.4911 113.464 14.263 113.471 14.0105C114.865 14.0881 116.186 14.5173 117.335 15.1925L117.316 14.5622C116.108 13.9151 114.785 13.486 113.339 13.4682C113.287 13.3878 113.27 13.2755 113.279 13.1961C113.98 13.082 114.478 12.3563 114.647 11.7251C115.005 11.3146 115.523 10.8677 115.4 10.2561C115.416 10.2066 115.434 10.1523 115.452 10.1C115.499 9.94569 115.538 9.7858 115.486 9.64365Z" fill="white"></path><path fill-rule="evenodd" clip-rule="evenodd" d="M116.705 11.8926L117.422 11.6644L117.5 11.2623C117.703 10.676 117.274 10.2384 117.062 9.77368L116.705 11.8926Z" fill="white"></path><path fill-rule="evenodd" clip-rule="evenodd" d="M118.516 14.6669C118.857 15.0419 119.19 15.6469 119.796 15.4618C119.751 15.2093 119.611 14.9998 119.524 14.7717C119.365 14.5865 119.313 14.0619 118.998 14.2471C118.761 14.0891 118.701 13.8254 118.55 13.6159C118.482 13.9394 118.525 14.3425 118.516 14.6669Z" fill="white"></path><path fill-rule="evenodd" clip-rule="evenodd" d="M118.639 17.2291C118.771 17.4142 118.807 17.6508 118.936 17.8163C119.173 17.9725 119.524 17.9482 119.812 17.921C120.075 17.8602 120.241 18.1483 120.486 17.9809C120.181 17.7892 119.998 17.4385 119.707 17.186C119.365 16.9149 118.999 17.1515 118.639 17.2291Z" fill="white"></path><path fill-rule="evenodd" clip-rule="evenodd" d="M119.104 21.2996C119.707 21.6586 120.477 22.0093 121.282 21.8868C121.369 21.8419 121.519 21.8513 121.536 21.7456C121.037 21.5698 120.513 21.0714 119.989 20.9667C119.699 20.5206 119.323 21.0808 118.955 21.0452C118.963 21.1509 119.068 21.2304 119.104 21.2996Z" fill="white"></path><path fill-rule="evenodd" clip-rule="evenodd" d="M120.924 29.0262L121.056 29.3076C121.188 30.2184 121.765 31.0572 121.449 32.0549C121.712 32.2382 121.792 32.544 121.958 32.789H122.002C122.203 32.0288 122.063 31.2405 121.958 30.4784C122.036 29.7873 121.335 29.3843 120.924 29.0262Z" fill="white"></path><path fill-rule="evenodd" clip-rule="evenodd" d="M121.075 20.0652C121.531 20.4159 122.258 20.4505 122.782 20.2756C122.45 20.0923 122.083 19.8913 121.81 19.6454L121.075 20.0652Z" fill="white"></path><path fill-rule="evenodd" clip-rule="evenodd" d="M123.237 22.7526C123.192 23.1211 123.438 23.4269 123.701 23.6101C123.797 23.3913 123.954 23.208 123.971 22.963C123.894 22.5862 123.683 22.2458 123.341 21.9924C123.28 22.2365 123.21 22.4712 123.237 22.7526Z" fill="white"></path><path fill-rule="evenodd" clip-rule="evenodd" d="M123.263 26.7418C123.202 27.1523 123.657 27.2065 123.85 27.4337C124.008 27.6254 123.745 27.7573 123.745 27.9406C124.077 28.3689 124.27 28.8597 124.27 29.4292C124.402 28.8962 124.603 28.3866 124.675 27.8359C124.639 27.4515 124.027 27.53 124.123 27.1018C124.297 26.6642 124.087 26.235 123.973 25.8422C123.937 25.7796 123.859 25.6571 123.79 25.6926C123.63 26.0517 123.237 26.3042 123.263 26.7418Z" fill="white"></path><path fill-rule="evenodd" clip-rule="evenodd" d="M124.464 24.6593L124.918 25.543C125.121 25.5187 125.25 25.3242 125.408 25.1858C125.532 24.8174 125.207 24.5808 125.111 24.2834C125.031 24.073 125.111 23.7934 124.962 23.6092C124.848 23.54 124.715 23.426 124.584 23.4596L124.464 24.6593Z" fill="white"></path><path fill-rule="evenodd" clip-rule="evenodd" d="M125.05 22.3328C125.409 22.5507 125.82 22.8658 126.012 23.2502C126.32 24.1432 126.81 24.9483 127.169 25.8142C127.301 26.4182 127.406 26.9569 127.572 27.5525C127.634 27.7077 127.598 28.0144 127.845 27.9892C127.914 27.3244 128.046 26.6857 128.055 25.9937C127.836 25.7057 127.545 25.5832 127.275 25.4065V25.3466C127.31 25.197 127.433 25.0222 127.617 25.0502C127.695 24.9604 127.932 24.8744 127.828 24.7173C127.372 24.2629 127.398 23.4783 126.67 23.3371C126.417 23.2324 126.355 22.9706 126.33 22.7256C125.988 22.4385 125.478 22.3394 125.05 22.3328Z" fill="white"></path><path fill-rule="evenodd" clip-rule="evenodd" d="M125.469 27.0756C125.917 27.4851 125.76 28.0808 125.723 28.6325C125.654 28.9654 126.075 28.7728 126.207 28.9476C126.477 29.3506 126.32 29.9369 126.222 30.3746C126.46 30.0146 126.732 29.6994 126.915 29.3067C126.905 29.1571 127.097 29.0879 127.091 28.9046C127.168 28.6503 126.872 28.7644 126.749 28.7363C126.645 28.7101 126.53 28.64 126.564 28.5006C126.792 28.0621 126.583 27.5375 126.495 27.1008C126.39 26.7408 126.54 26.2611 126.372 25.946C126.092 26.3313 125.26 26.4191 125.469 27.0756Z" fill="white"></path><path fill-rule="evenodd" clip-rule="evenodd" d="M126.284 20.861C127.065 21.6493 127.634 22.4403 128.474 23.2025C128.493 22.863 128.448 22.546 128.43 22.2131C128.306 21.9784 128.079 21.8026 127.886 21.6278C127.266 21.566 126.941 20.7301 126.284 20.861Z" fill="white"></path><path fill-rule="evenodd" clip-rule="evenodd" d="M128.326 25.0324C128.344 25.111 128.379 25.1802 128.413 25.2597C128.755 25.8207 129.078 26.3968 129.316 27.0008C129.246 26.3547 129.685 25.5477 129.105 25.0502C129.027 24.8398 128.764 24.9099 128.597 24.9268L128.326 25.0324Z" fill="white"></path><path fill-rule="evenodd" clip-rule="evenodd" d="M130.428 31.4256C130.675 31.5369 130.989 31.3358 131.226 31.1974C131.445 31.1441 131.629 31.2666 131.796 31.3807C131.865 31.5201 131.796 31.651 131.82 31.7828C132.347 31.9315 132.863 32.1241 133.328 32.4299L133.475 32.2821C133.511 31.9053 133.214 31.636 132.933 31.4256C132.75 31.3181 132.477 31.3807 132.347 31.2133C132.435 31.0749 132.435 30.8646 132.425 30.7065C132.135 30.7065 131.952 30.6186 131.715 30.4784C131.568 30.4354 131.435 30.3129 131.312 30.4784C130.875 30.7767 130.849 31.2133 130.428 31.4256Z" fill="white"></path><path fill-rule="evenodd" clip-rule="evenodd" d="M131.042 20.4122C131.26 20.3523 131.49 20.2887 131.673 20.1325C132.258 19.5986 133.109 19.9568 133.791 19.9483C133.661 19.7118 133.476 19.477 133.31 19.2742C133.065 19.1778 132.837 19.0637 132.557 19.0637C131.961 18.715 131.559 19.3003 131.102 19.5883C130.981 19.8268 130.92 20.1756 131.042 20.4122Z" fill="white"></path><path fill-rule="evenodd" clip-rule="evenodd" d="M131.059 22.2131C131.059 22.1888 131.059 22.1608 131.085 22.1533C131.164 22.2234 131.076 22.3889 131.208 22.4235C131.436 22.3113 131.646 22.1533 131.856 22.0055C132.444 22.0055 132.794 21.437 133.37 21.437C134.334 21.6109 135.29 21.8036 136.13 22.2758C136.07 21.7072 135.579 21.1911 135.081 20.9358C134.799 20.8395 134.58 20.99 134.379 21.1462C133.791 21.5155 134.099 20.6132 133.687 20.5945C133.152 20.7628 132.6 20.9451 132.006 20.8937C131.655 21.0237 131.408 21.3463 131.015 21.3126C130.998 21.6016 130.953 21.9522 131.059 22.2131Z" fill="white"></path><path fill-rule="evenodd" clip-rule="evenodd" d="M131.463 24.1665C131.645 24.3582 131.952 24.3227 132.216 24.3582L132.977 24.0618C132.987 23.9215 132.75 23.8851 132.802 23.7298C133.012 23.4933 133.302 23.6588 133.564 23.5615C133.933 23.5101 134.31 23.1426 134.675 23.4138C134.667 23.4568 134.694 23.5195 134.66 23.5615C134.544 23.8337 134.738 23.9992 134.948 24.1039C135.377 24.1843 135.78 24.578 136.21 24.4012C136.167 24.0431 136.07 23.7112 135.981 23.3689C135.623 23.3072 135.369 23.0098 135.036 22.8864C134.886 23.0267 134.694 23.1323 134.51 23.1146C133.835 22.9575 133.029 22.5376 132.347 22.9668C132.1 23.2632 131.662 23.1763 131.33 23.3063C131.349 23.6064 131.382 23.8944 131.463 24.1665Z" fill="white"></path><path fill-rule="evenodd" clip-rule="evenodd" d="M131.751 29.3675C131.698 29.5162 131.55 29.7621 131.82 29.8313C132.382 29.85 133.1 29.5611 133.538 29.9977C133.686 30.1127 133.616 30.3474 133.608 30.497L134.342 31.1105C134.413 30.742 134.543 30.4092 134.553 30.0146C134.493 29.735 134.351 29.4629 134.107 29.2796C133.625 29.2796 133.344 28.7157 132.827 28.7877C132.557 28.725 132.321 28.9654 132.048 28.9654C131.925 29.0879 131.856 29.2375 131.751 29.3675Z" fill="white"></path><path fill-rule="evenodd" clip-rule="evenodd" d="M131.962 25.2428C132.075 25.4775 132.208 25.8637 132.426 25.8899C132.943 25.6627 133.695 25.5215 134.275 25.7674C134.468 25.802 134.468 26.0208 134.425 26.162C134.721 26.3369 135.082 26.4753 135.396 26.6688L135.309 26.1442C135.29 25.5748 134.572 25.5215 134.528 24.9604C133.941 24.7687 133.285 24.708 132.663 24.8566C132.46 25.0408 132.172 25.0147 131.926 25.068C131.91 25.1372 131.952 25.1802 131.962 25.2428Z" fill="white"></path><path fill-rule="evenodd" clip-rule="evenodd" d="M132.111 28.078C132.453 27.9817 132.67 27.6048 133.039 27.5712C133.599 27.5805 134.099 27.8059 134.448 28.2884C134.661 28.4277 134.616 28.7877 134.886 28.7877C134.808 28.3576 134.948 27.9639 134.931 27.5263C134.561 26.9147 133.654 27.386 133.311 26.6688L132.663 26.7118C132.199 26.8259 132.323 27.3692 132.259 27.7367C132.207 27.8507 132.102 27.9377 132.111 28.078Z" fill="white"></path><path fill-rule="evenodd" clip-rule="evenodd" d="M135.324 31.9053C135.597 32.4477 136.193 32.86 136.253 33.4819C136.394 33.3145 136.49 33.1228 136.587 32.9395C136.577 32.7637 136.375 32.7637 136.295 32.6244C136.217 32.3972 136.34 32.1961 136.375 31.9932C136.262 31.6688 135.99 31.363 135.683 31.1713L135.324 31.9053Z" fill="white"></path><path fill-rule="evenodd" clip-rule="evenodd" d="M136.404 30.5233L137.034 31.3808C137.305 30.9516 137.305 30.3223 137.2 29.8042C137.14 29.7079 137.025 29.5508 136.868 29.621C136.63 29.8669 136.596 30.2418 136.404 30.5233Z" fill="white"></path><path fill-rule="evenodd" clip-rule="evenodd" d="M133.836 6.56908C134.064 6.68316 134.283 6.78789 134.553 6.80473C134.739 6.70935 134.976 6.63923 135.203 6.7C135.527 6.91039 135.921 6.65604 136.296 6.67381C135.965 6.35962 135.586 6.167 135.203 5.98373C134.711 6.0875 134.319 6.43631 133.836 6.56908Z" fill="white"></path><path fill-rule="evenodd" clip-rule="evenodd" d="M137.263 7.39197C137.725 7.435 138.058 7.8455 138.373 8.18962C138.768 8.24946 139.066 8.52904 139.302 8.81893L139.153 8.3542C139.048 7.88943 138.759 7.53035 138.462 7.16473C138.042 7.19093 137.629 7.22554 137.263 7.39197Z" fill="white"></path><path fill-rule="evenodd" clip-rule="evenodd" d="M104.569 3.55154L104.823 3.57772C105.507 3.91903 106.611 4.09391 106.671 5.0823C105.981 5.35441 105.315 5.72284 104.764 6.28107C104.343 5.85187 103.493 6.08845 103.353 5.33664C103.485 4.62784 103.738 3.73669 104.569 3.55154Z" fill="#00084D"></path><path fill-rule="evenodd" clip-rule="evenodd" d="M105.228 7.98951C106.024 7.92032 106.795 8.03159 107.62 7.96332C107.821 8.05028 108.031 8.22609 108.127 8.42713C108.101 9.37155 107.812 10.2739 107.768 11.2445C107.409 11.3951 107.058 11.6915 106.971 12.0852C106.646 12.1805 106.357 12.375 106.042 12.5219C105.901 12.2254 105.927 11.7785 106.175 11.5344C106.515 11.0519 107.401 11.166 107.329 10.4048C107.557 10.0364 107.338 9.5642 107.347 9.17893C107.259 8.89093 107.172 9.27524 107.032 9.26589C106.752 9.32574 106.463 9.34443 106.218 9.20605C106.033 9.01155 105.806 8.85539 105.753 8.59263C105.508 8.47013 105.22 8.27751 105.097 8.02316L105.228 7.98951Z" fill="#00084D"></path><path fill-rule="evenodd" clip-rule="evenodd" d="M106.191 13.6954C106.566 13.7469 106.961 13.5813 107.285 13.7646C107.215 13.8871 107.031 13.9395 106.883 13.975L106.296 14.2471C106.077 14.1929 106.2 13.8432 106.191 13.6954Z" fill="#00084D"></path><path fill-rule="evenodd" clip-rule="evenodd" d="M107.724 6.38671C108.1 6.26425 108.504 6.01175 108.906 6.13425C108.617 6.42321 108.39 6.79909 108.172 7.1479L106.972 7.12263C107.101 6.80844 107.433 6.54571 107.724 6.38671Z" fill="#00084D"></path><path fill-rule="evenodd" clip-rule="evenodd" d="M111.238 6.09871C111.735 6.01175 111.709 6.65883 112.165 6.68594C112.245 6.79067 112.358 6.88606 112.314 7.04317C112.051 7.1479 111.666 7.09648 111.367 7.16567C110.973 6.94686 111.228 6.26425 110.605 6.30817C110.571 6.25675 110.5 6.15109 110.588 6.11556C110.782 6.04729 111.033 6.07256 111.238 6.09871Z" fill="#00084D"></path><path fill-rule="evenodd" clip-rule="evenodd" d="M110.922 8.44491C111.14 8.13725 111.475 8.11295 111.789 8.05029L114.058 8.09425C114.155 8.18122 113.971 8.25975 113.971 8.36541C113.831 8.49633 113.628 8.53187 113.506 8.65529C113.209 8.66464 113.233 9.01248 113.024 9.1621C112.699 9.48564 112.227 9.33791 111.85 9.2846C111.718 9.18829 111.57 9.05645 111.508 8.90775L111.403 9.01249C111.535 9.50341 111.5 10.0467 111.595 10.5442L112.138 10.9042C112.148 11.7093 113.094 11.4905 113.506 11.9374C113.41 12.2254 113.216 12.4704 113.008 12.7164C112.675 12.3919 112.297 12.1806 111.895 12.0422C111.86 11.569 111.343 11.2904 111.053 11.0529C110.975 10.1954 110.957 9.32014 110.818 8.48883L110.922 8.44491Z" fill="#00084D"></path><path fill-rule="evenodd" clip-rule="evenodd" d="M111.745 13.8432H112.797L112.665 14.3949L111.613 13.9479C111.589 13.8609 111.683 13.8347 111.745 13.8432Z" fill="#00084D"></path><path fill-rule="evenodd" clip-rule="evenodd" d="M113.637 3.92936L114.417 3.68341C114.864 3.89286 115.285 4.15655 115.695 4.45297C116.02 5.04959 115.966 5.85282 115.818 6.51766C115.581 6.78136 115.065 6.51766 114.873 6.93751H114.837C114.547 6.11559 113.725 5.38155 112.962 5.00374C113.085 4.58486 113.217 4.17432 113.637 3.92936Z" fill="#00084D"></path><path fill-rule="evenodd" clip-rule="evenodd" d="M131.908 37.2699H136.582C137.274 37.1652 138.01 37.182 138.561 36.6733C140.901 37.0333 143.274 36.4555 145.114 35.1697C146.085 34.3861 146.957 33.481 147.662 32.4926C148.283 31.6211 148.775 30.8066 149.092 29.8313C149.328 29.2282 149.515 28.6026 149.656 27.9583C150.324 24.9258 149.974 21.5343 148.987 18.6467C148.804 18.1109 148.599 17.5947 148.373 17.0991C147.139 14.552 145.462 11.8047 142.875 10.1926C141.417 9.28458 140.078 7.88008 139.255 6.42881C138.807 6.02488 138.378 5.49188 137.8 5.39554C137.958 5.65831 138.132 5.91173 138.177 6.2175L138.142 6.26146C137.53 6.27923 137.046 5.95565 136.626 5.56012L137.091 5.14119C136.915 5.05423 136.714 5.01777 136.521 4.97569C134.751 4.77465 133.298 5.58723 131.73 5.98185L131.704 6.06881C132.666 6.49708 132.868 7.55562 133.43 8.27469C133.57 8.10731 133.807 8.22981 133.999 8.21204C134.278 8.22981 134.541 8.43085 134.812 8.36073C134.821 8.12508 134.691 7.94181 134.646 7.73235C134.812 7.65192 135.015 7.723 135.199 7.73235C135.706 8.02877 136.521 7.67812 136.837 8.36073C136.258 8.39719 135.715 8.51781 135.173 8.64965C135.207 8.86846 135.426 9.04427 135.409 9.26308C134.944 9.06858 134.455 8.94888 133.937 8.88623L133.913 8.96385C134.57 9.73438 135.47 10.1898 136.39 10.4619C137.713 10.7677 138.878 10.1383 140.155 10.3572C143.294 11.7925 145.973 15.0756 147.139 18.1913C147.196 18.3409 147.251 18.4924 147.303 18.6448C148.28 21.4903 148.464 24.9903 147.486 27.9565C146.966 29.1927 146.393 30.3559 145.475 31.3611C145.128 31.7866 144.743 32.1672 144.325 32.4907C143.01 33.5137 141.389 33.9635 139.719 33.5043C139.615 33.4361 139.403 33.4174 139.437 33.2341C139.496 32.991 139.55 32.7422 139.598 32.4907C139.876 31.0665 140.003 29.5704 139.93 28.0762C139.926 28.0116 139.925 27.9471 139.922 27.8835C139.83 25.7122 139.397 23.7588 138.598 21.8812C138.086 20.803 137.477 19.6276 136.71 18.5719C135.796 17.3133 134.66 16.2258 133.201 15.6834C132.307 15.4468 131.203 15.4038 130.53 16.1482C130.046 16.568 129.846 17.1365 129.915 17.7574C129.162 18.2362 128.315 18.4943 127.393 18.5719C127.167 18.5915 126.935 18.6729 126.702 18.672C126.478 18.6822 126.26 18.672 126.05 18.6448C124.937 18.5083 123.816 17.9127 122.963 17.2272C122.945 16.7747 122.918 16.3436 122.901 15.8639C122.412 15.6095 122.009 15.127 121.974 14.5594L122.018 14.5155C122.298 14.6024 122.544 14.7427 122.796 14.8923C122.682 14.2097 122.552 13.5355 122.21 12.9408C121.895 12.8089 121.578 12.7052 121.281 12.5462C120.939 12.319 120.72 11.9075 120.67 11.5307C120.975 11.8299 121.509 11.7242 121.746 12.0393C121.335 10.8228 121.326 9.43138 120.651 8.31958C120.309 7.49669 119.415 7.12081 118.802 6.51581C118.565 6.22777 118.47 5.82569 118.04 5.78081C117.69 5.69385 117.663 5.29923 117.602 5.04677C117.821 5.072 118.005 5.22162 118.19 5.25623C117.681 3.90781 117.234 2.41262 115.859 1.55514L115.622 1.70288C115.089 1.7833 114.519 1.81697 113.984 1.83473C114.221 1.48408 114.641 1.33633 114.975 1.17737C114.588 0.889358 114.271 0.819227 113.788 0.739746C113.509 1.02121 113.003 1.1596 112.644 1.23815L112.601 1.20448C112.591 0.890292 112.518 0.503165 112.992 0.425554C112.537 0.206744 111.783 0.293707 111.318 0.425554C111.186 0.766862 110.813 1.07263 110.837 1.47472C110.568 1.75618 110.375 2.13116 110.093 2.33314C110.085 1.65894 110.371 1.0371 110.495 0.469504C110.1 0.617246 109.7 0.826708 109.315 1.01185C108.693 0.652781 108.037 0.293707 107.373 0.0234662C107.311 -0.00365137 107.179 -0.0298338 107.205 0.0833119C107.774 0.49475 107.554 1.26433 107.615 1.85157L107.256 1.55514C107.081 1.10817 106.574 0.784627 106.488 0.293707C105.892 0.407788 105.511 0.565819 104.958 0.802396L104.882 0.845412C105.293 0.845412 105.643 1.16895 105.845 1.49249C105.223 1.52802 104.671 1.2821 104.059 1.22225C103.997 1.16053 103.946 1.0904 103.847 1.09975C103.54 1.21383 103.279 1.43265 103.007 1.64304C102.403 2.23682 101.789 2.89513 101.501 3.68153C101.703 3.71707 101.956 3.70865 102.105 3.83115C101.774 4.03219 101.484 4.3735 101.159 4.56612C101.046 5.0215 101.063 5.53769 101.036 6.03704C100.783 6.42135 100.441 6.76265 100.274 7.19092C99.7315 8.94985 99.5911 10.9013 99.6703 12.8968C99.4945 13.0623 99.2661 13.1699 99.1015 13.2998L99.1192 15.085H99.1622C99.2426 14.7081 99.6892 14.4987 99.9599 14.2452H100.048C100.005 14.6473 99.9515 15.0494 99.943 15.4618L99.4345 15.8817C98.928 16.3277 99.3569 17 99.3119 17.5601C99.3484 17.7097 99.373 17.9285 99.4803 17.9641C99.5403 17.7453 99.7334 17.5872 99.8549 17.3955C100.074 17.3413 100.266 17.1674 100.467 17.1412C100.356 17.5779 100.206 18.0071 100.029 18.427C99.9457 18.4821 99.8465 18.5579 99.7622 18.6458C99.6734 18.7421 99.6022 18.8524 99.5853 18.9712C99.9784 21.0452 100.598 23.0921 101.309 25.0437C100.826 25.8562 100.553 26.8157 100.151 27.6563C100.095 27.7741 100.043 27.8928 99.9945 28.0153C99.5919 29.0337 99.4692 30.1698 98.9684 31.1488C98.7672 31.0077 98.5492 30.9029 98.3215 30.8066C97.3734 30.4924 96.2792 30.6935 95.5884 31.4191C94.9742 31.305 94.3434 31.4097 93.8603 31.7333C93.5157 31.9932 93.248 32.3055 93.0953 32.6712C92.9926 32.9246 92.943 33.2004 92.9595 33.5025C92.5645 33.7737 92.3542 34.1935 92.2238 34.6133C92.0395 35.5597 92.3719 36.5424 92.9149 37.269L131.908 37.2699Z" fill="white"></path><path fill-rule="evenodd" clip-rule="evenodd" d="M148.987 18.6477C148.804 18.1119 148.599 17.5957 148.373 17.1001C147.139 14.5529 145.462 11.8056 142.875 10.1935C141.417 9.28555 140.078 7.88105 139.255 6.42978C138.807 6.02581 138.378 5.49281 137.8 5.39651C137.958 5.65928 138.132 5.91266 138.177 6.21843L138.142 6.26239C137.53 6.28016 137.046 5.95662 136.626 5.56108L137.091 5.14216C136.915 5.0552 136.714 5.01874 136.521 4.97666C134.751 4.77558 133.298 5.5882 131.73 5.98281L131.704 6.06978C132.666 6.49805 132.868 7.55655 133.43 8.27562C133.57 8.10828 133.807 8.23074 133.999 8.21297C134.278 8.23074 134.541 8.43181 134.812 8.36166C134.821 8.12601 134.691 7.94274 134.646 7.73328C134.812 7.65285 135.015 7.72393 135.199 7.73328C135.706 8.0297 136.521 7.67905 136.837 8.36166C136.258 8.39812 135.715 8.51878 135.173 8.65062C135.207 8.86943 135.426 9.0452 135.409 9.26405C134.944 9.06955 134.455 8.94985 133.937 8.8872L133.913 8.96482C134.57 9.73532 135.47 10.1907 136.39 10.4628C137.713 10.7686 138.878 10.1393 140.155 10.3581C143.294 11.7934 145.973 15.0765 147.139 18.1923C147.196 18.3419 147.251 18.4934 147.303 18.6458C148.28 21.4912 148.464 24.9913 147.486 27.9574C146.966 29.1936 146.393 30.3569 145.475 31.362C145.128 31.7875 144.743 32.1681 144.325 32.4917C143.01 33.5146 141.389 33.9644 139.719 33.5053C139.615 33.437 139.403 33.4183 139.437 33.235C139.496 32.9919 139.55 32.7432 139.598 32.4917C139.876 31.0675 140.003 29.5714 139.93 28.0771C139.926 28.0126 139.925 27.948 139.922 27.8845C139.83 25.7132 139.397 23.7598 138.598 21.8821C138.086 20.804 137.477 19.6285 136.71 18.5729C135.796 17.3142 134.66 16.2267 133.201 15.6844C132.307 15.4478 131.203 15.4048 130.53 16.1491C130.046 16.5689 129.846 17.1375 129.915 17.7584C129.162 18.2372 128.315 18.4952 127.393 18.5729C127.167 18.5925 126.935 18.6738 126.702 18.6729C126.478 18.6832 126.26 18.6729 126.05 18.6458C124.937 18.5092 123.816 17.9136 122.963 17.2282C122.945 16.7756 122.918 16.3445 122.901 15.8648C122.412 15.6105 122.009 15.128 121.974 14.5604L122.018 14.5164C122.298 14.6034 122.544 14.7437 122.796 14.8933C122.682 14.2107 122.552 13.5365 122.21 12.9417C121.895 12.8099 121.578 12.7061 121.281 12.5471C120.939 12.3199 120.72 11.9085 120.67 11.5316C120.975 11.8309 121.509 11.7252 121.746 12.0403C121.335 10.8237 121.326 9.43235 120.651 8.32051C120.309 7.49766 119.415 7.12174 118.802 6.51674C118.565 6.22874 118.47 5.82662 118.04 5.78174C117.69 5.69478 117.663 5.3002 117.602 5.0477C117.821 5.07297 118.005 5.22258 118.19 5.25716C117.681 3.90878 117.234 2.41356 115.859 1.55609L115.622 1.70383C115.089 1.78425 114.519 1.81791 113.984 1.83568C114.221 1.48502 114.641 1.33728 114.975 1.17831C114.588 0.890303 114.271 0.820172 113.788 0.740692C113.509 1.02215 113.003 1.16055 112.644 1.23909L112.601 1.20543C112.591 0.891242 112.518 0.504115 112.992 0.426499C112.537 0.20769 111.783 0.294653 111.318 0.426499C111.186 0.767807 110.813 1.07358 110.837 1.47567C110.568 1.75713 110.375 2.1321 110.093 2.33408C110.085 1.65988 110.371 1.03805 110.495 0.470449C110.1 0.618196 109.7 0.827653 109.315 1.0128C108.693 0.653726 108.037 0.294653 107.373 0.0244124C107.311 -0.00270525 107.179 -0.0288878 107.205 0.0842578C107.774 0.495696 107.554 1.26528 107.615 1.85251L107.256 1.55609C107.081 1.10911 106.574 0.785576 106.488 0.294653C105.892 0.408734 105.511 0.566765 104.958 0.803342L104.882 0.846357C105.293 0.846357 105.643 1.1699 105.845 1.49344C105.223 1.52897 104.671 1.28304 104.059 1.2232C103.997 1.16148 103.946 1.09135 103.847 1.1007C103.54 1.21478 103.279 1.43359 103.007 1.64399C102.403 2.23777 101.789 2.89607 101.501 3.68248C101.703 3.71801 101.956 3.7096 102.105 3.8321C101.774 4.03312 101.484 4.37443 101.159 4.56708C101.046 5.02247 101.063 5.53862 101.036 6.03797C100.783 6.42228 100.441 6.76358 100.274 7.19185C99.7315 8.95078 99.5911 10.9023 99.6703 12.8978C99.4945 13.0633 99.2661 13.1708 99.1015 13.3008L99.1192 15.0859H99.1622C99.2426 14.709 99.6892 14.4996 99.9599 14.2462H100.048C100.005 14.6483 99.9515 15.0504 99.943 15.4627L99.4345 15.8826C98.928 16.3286 99.3569 17.001 99.3119 17.5611C99.3484 17.7107 99.373 17.9295 99.4803 17.965C99.5403 17.7462 99.7334 17.5882 99.8549 17.3965C100.074 17.3423 100.266 17.1684 100.467 17.1422C100.356 17.5789 100.206 18.008 100.029 18.4279C99.9457 18.4831 99.8465 18.5588 99.7622 18.6467C99.6734 18.743 99.6022 18.8534 99.5853 18.9721C99.9784 21.0462 100.598 23.093 101.309 25.0446C100.826 25.8572 100.553 26.8166 100.151 27.6572C100.095 27.775 100.043 27.8938 99.9945 28.0163C99.5919 29.0346 99.4692 30.1707 98.9684 31.1498C98.7672 31.0086 98.5492 30.9039 98.3215 30.8075C97.3734 30.4934 96.2792 30.6944 95.5884 31.42C94.9742 31.306 94.3434 31.4107 93.8603 31.7342C93.5157 31.9942 93.248 32.3065 93.0953 32.6721C92.9926 32.9255 92.943 33.2014 92.9595 33.5034C92.5645 33.7746 92.3542 34.1944 92.2238 34.6143C92.0395 35.5606 92.3719 36.5434 92.9149 37.27H108.395C108.167 36.9997 107.957 36.6229 107.798 36.2993C107.466 35.799 107.694 35.0912 107.658 34.5133C107.973 33.8774 108.294 33.2379 108.654 32.616C108.727 32.4907 108.8 32.3682 108.875 32.2467L109.585 31.9755C109.962 31.9755 110.278 31.7043 110.637 31.7997C111.119 32.2822 111.119 31.319 111.584 31.2751C112.67 31.1348 113.747 31.2395 114.36 32.1587C114.36 32.2812 114.554 32.2812 114.509 32.3953C114.369 32.4374 114.237 32.3504 114.089 32.3504C113.423 32.1849 112.643 31.7632 111.986 32.14C111.961 32.2972 111.928 32.457 111.896 32.6141C111.863 32.7815 111.833 32.9452 111.819 33.1023C112.248 33.2247 112.607 33.5315 112.931 33.8634C113.15 33.4352 113.615 33.2425 114.026 33.1023C114.386 33.1808 114.78 33.1902 115.078 33.4174C115.631 33.9261 115.358 34.792 115.307 35.439C115.805 35.7186 116.357 35.8776 116.865 36.1479C116.628 36.3601 116.314 36.4461 116.025 36.5518L115.184 36.3844C115.088 36.3152 114.92 36.3152 114.886 36.1927C114.606 36.4892 114.264 36.8837 114.089 37.2681H126.09C125.931 36.909 125.748 36.6294 125.529 36.2975C125.283 35.7719 125.381 35.0538 125.354 34.4937L126.475 32.7871C127.088 32.7787 127.781 32.5505 128.446 32.6646C128.48 32.6497 128.511 32.6329 128.542 32.6132C128.818 32.4224 128.903 31.9792 129.313 32.0344C130.048 31.8343 130.61 32.1672 131.162 32.4991C131.143 32.5431 131.126 32.5814 131.106 32.6132C130.875 32.9826 130.442 32.5702 130.127 32.6815C129.995 32.8217 130.189 32.9872 130.214 33.1462C130.328 33.3024 130.1 33.2846 130.022 33.3117C129.839 33.3379 129.637 33.294 129.496 33.1462C129.461 33.1013 129.488 33.0499 129.418 33.0415C129.259 33.3024 129.032 33.5399 128.971 33.8372C129.171 34.0308 129.443 34.2225 129.54 34.4684C129.741 34.7574 129.382 34.9752 129.313 35.2296C129.286 35.281 129.206 35.281 129.181 35.2296C128.995 35.1249 128.839 34.8612 128.637 34.9304C128.461 35.7102 128.698 36.4892 128.593 37.2681C128.935 37.3485 129.337 37.2503 129.705 37.2681L129.855 35.6223C130.011 34.5554 130.644 33.6624 131.388 32.847C132.192 32.2981 132.711 33.3828 133.305 33.7587C133.402 33.7765 133.368 33.8812 133.41 33.942C133.401 34.1178 133.218 34.187 133.095 34.2403C132.726 34.3702 132.455 33.9682 132.228 33.7316C132.01 33.9682 131.912 34.2824 131.658 34.4675L131.745 34.4927C132.036 34.7826 132.315 35.0884 132.378 35.4737C132.343 35.8224 132.168 36.1637 131.851 36.3405C131.616 35.9365 131.423 35.4905 131.266 35.079C131.275 35.0977 131.256 35.1052 131.239 35.1239C130.756 35.2539 130.628 35.7962 130.547 36.2348C130.573 36.664 130.25 36.8389 130.336 37.2672H136.583C137.275 37.1624 138.011 37.1792 138.562 36.6705C140.902 37.0306 143.275 36.4527 145.115 35.1669C146.085 34.3833 146.958 33.4782 147.663 32.4898C148.284 31.6183 148.776 30.8038 149.093 29.8285C149.329 29.2254 149.516 28.5998 149.657 27.9555C150.324 24.9259 149.974 21.5343 148.987 18.6477Z" fill="#00084D"></path><path fill-rule="evenodd" clip-rule="evenodd" d="M108.786 34.8901C109.128 34.6713 109.68 34.618 109.758 34.1112C109.619 34.0055 109.495 33.8737 109.337 33.8391L108.978 33.9438C109.004 33.7334 109.119 33.4978 109.19 33.2705L110.345 32.8947C110.186 33.4192 110.126 34.0757 110.073 34.6797C110.178 35.5727 110.31 36.5265 110.765 37.2699H109.521C109.381 36.448 108.521 35.8514 108.786 34.8901Z" fill="#00084D"></path><path fill-rule="evenodd" clip-rule="evenodd" d="M111.476 33.8391H111.545L112.385 34.6012L112.508 34.575C112.439 35.468 112.394 36.3432 112.385 37.2699H111.475C111.29 36.404 110.984 35.4932 111.02 34.5581C111.177 34.3215 111.282 34.0233 111.476 33.8391Z" fill="#00084D"></path><path fill-rule="evenodd" clip-rule="evenodd" d="M113.35 34.6807C113.517 34.4628 113.586 34.0934 113.918 34.0513C114.155 34.0579 114.374 34.0934 114.551 34.2608C114.857 34.6451 114.558 35.137 114.446 35.5213C114.323 36.1076 114.111 36.7191 113.919 37.2709H113.035L113.35 34.6807Z" fill="#00084D"></path><path fill-rule="evenodd" clip-rule="evenodd" d="M126.639 34.4085C126.832 34.6545 126.893 34.9865 127.182 35.2053C127.437 34.8555 127.497 34.3122 127.375 33.8662L127.121 33.6118C127.446 33.5342 127.787 33.5071 128.111 33.4464C127.971 33.9102 127.706 34.33 127.752 34.8723C127.76 35.6607 127.891 36.4489 127.962 37.2699H126.999C126.649 36.4994 126.297 35.7654 126.324 34.8723C126.429 34.7143 126.499 34.5301 126.639 34.4085Z" fill="#00084D"></path><path fill-rule="evenodd" clip-rule="evenodd" d="M130.783 17.5948C130.774 17.822 130.608 18.0744 130.756 18.2689C130.968 18.0324 131.318 18.0408 131.598 17.9361C132.378 17.865 133.122 18.1109 133.849 18.2867C133.665 17.9968 133.543 17.6733 133.341 17.4115C132.937 17.3058 132.324 17.5863 132.255 16.9898C132.01 16.7803 131.625 16.9299 131.37 16.9468C131.124 17.1216 130.923 17.3404 130.783 17.5948Z" fill="white"></path><path fill-rule="evenodd" clip-rule="evenodd" d="M104.008 10.0374C104.005 10.0355 104.001 10.0317 103.995 10.028C103.995 10.0317 103.997 10.0336 103.997 10.0374H104.008Z" fill="white"></path><path fill-rule="evenodd" clip-rule="evenodd" d="M107.194 17.8173L107.72 17.3104C107.765 17.3104 107.8 17.3189 107.825 17.3525L107.782 18.3241C108.035 18.5606 108.349 18.6383 108.682 18.657C108.709 18.3951 108.911 18.21 109.025 17.9828C109.121 17.7995 109.06 17.5283 109.252 17.3983L109.314 17.4582C109.374 17.7481 109.357 18.0716 109.507 18.3241C109.525 18.4643 109.549 18.6383 109.566 18.7617C109.953 18.7794 110.303 18.6747 110.6 18.5335C110.583 18.2016 110.698 17.9304 110.748 17.6256C110.829 17.5199 110.652 17.3263 110.871 17.3357C110.994 17.5984 111.213 17.8687 111.336 18.1501C111.843 17.634 112.056 16.9607 112.176 16.2594C112.028 16.0593 111.8 16.0593 111.623 15.9275C110.135 15.4468 108.226 15.3505 106.79 16.0939C106.693 16.6867 106.816 17.3432 107.194 17.8173Z" fill="white"></path><path fill-rule="evenodd" clip-rule="evenodd" d="M93.2703 34.2393C93.2172 34.9135 93.2703 35.5456 93.3134 36.2115C93.4538 36.4303 93.7095 36.6846 93.963 36.7005L94.0061 36.2535C94.1107 35.6326 93.7788 34.9734 94.1295 34.4479C94.3749 34.5255 94.6199 34.6489 94.8303 34.7621C94.9353 34.1851 94.7857 33.51 94.2334 33.1593L93.2703 34.2393Z" fill="white"></path><path fill-rule="evenodd" clip-rule="evenodd" d="M95.4347 33.293C95.0932 34.3178 94.8397 35.5793 95.2512 36.6584C95.4882 36.4994 95.7324 36.3507 95.942 36.1329C95.8989 35.309 95.7847 34.4319 96.2751 33.7475C96.7036 33.8793 96.9939 34.2907 97.1586 34.6919C97.4497 34.3253 97.5451 33.8167 97.4316 33.3285C97.4497 32.9423 97.0116 33.0312 96.8012 32.8732C96.8705 32.5487 96.8609 32.1747 97.2036 31.9895L96.1536 32.0942C95.882 32.4804 95.5843 32.8545 95.4347 33.293Z" fill="white"></path><path fill-rule="evenodd" clip-rule="evenodd" d="M97.5989 36.3171C97.6431 36.3947 97.5989 36.5359 97.6881 36.5536C97.8181 35.8177 98.4135 35.3418 98.7393 34.6928C98.8954 34.4768 98.8881 34.1682 99.1416 34.0027C99.4823 34.0027 99.7285 34.2477 100.062 34.2739C100.167 34.3534 100.008 34.4235 99.9993 34.5105C99.93 35.1071 99.7023 35.5989 99.7454 36.2123H99.8062C100.27 35.7214 100.586 35.1931 100.928 34.633L100.988 34.1355C101.068 33.5398 100.42 33.1555 99.9973 32.9096L100.375 32.4271L99.8485 32.2438C99.2354 32.3046 98.6831 32.559 98.2543 33.0415C97.7208 34.0196 97.6335 35.1267 97.5989 36.3171Z" fill="white"></path><path fill-rule="evenodd" clip-rule="evenodd" d="M99.9561 31.1236C100.156 31.1834 100.341 31.0188 100.541 31.1049C101.348 31.4032 102.188 31.709 102.793 32.3822L103.512 34.2122L103.871 33.0817L103.635 32.4711C103.433 32.0334 102.881 32.069 102.504 32.0512C102.347 31.8754 102.512 31.6744 102.566 31.5088C102.749 30.887 101.987 30.9216 101.681 30.6682C101.699 30.2932 101.243 30.4223 100.988 30.3886L100.901 30.2839C100.849 30.2035 100.718 30.2035 100.647 30.2652C100.631 30.239 100.595 30.2212 100.613 30.1782L100.421 30.2212C100.148 30.4578 99.9645 30.7636 99.9561 31.1236Z" fill="white"></path><path fill-rule="evenodd" clip-rule="evenodd" d="M100.462 29.1103C100.49 29.2225 100.559 29.3367 100.646 29.4077C101.041 29.303 101.419 29.0299 101.873 29.1973C102.461 29.7135 103.073 30.2558 103.784 30.5354L104.039 30.4924C104.195 30.5438 104.37 30.5523 104.475 30.729C104.572 30.9656 104.327 31.104 104.249 31.2966C104.642 31.5865 104.486 32.1017 104.73 32.4514L105.36 31.6127C105.213 31.2442 105.369 30.6149 104.793 30.5794C104.598 30.483 104.468 30.2913 104.475 30.0725C104.1 29.7312 103.636 29.5826 103.26 29.2319C102.95 28.9878 102.768 28.612 102.375 28.524C102.102 28.3744 101.805 28.2959 101.49 28.2276C100.902 28.1378 100.849 28.8382 100.462 29.1103Z" fill="white"></path><path fill-rule="evenodd" clip-rule="evenodd" d="M101.305 27.386L101.41 27.5543C101.848 27.5272 102.241 27.3355 102.671 27.343C102.959 27.5179 103.336 27.5085 103.634 27.6581C103.871 27.9826 104.125 28.3482 104.473 28.567C105.184 28.6717 105.577 29.4357 105.822 29.994V29.7237C105.927 29.3469 105.813 28.9083 105.675 28.567C105.5 28.3922 105.244 28.279 105.061 28.1229C105.026 28.0088 105.052 27.9546 105.088 27.8508C104.815 27.5618 104.413 27.4038 104.08 27.1756C103.615 26.5014 102.723 26.6875 102.013 26.5014L101.305 27.386Z" fill="white"></path><path fill-rule="evenodd" clip-rule="evenodd" d="M101.29 20.9666C101.368 21.2388 101.462 21.5791 101.515 21.869C101.76 21.3266 102.243 21.0807 102.672 20.6356C102.426 20.4692 102.12 20.3897 101.85 20.3383V20.3205C101.656 20.5113 101.359 20.7048 101.29 20.9666Z" fill="white"></path><path fill-rule="evenodd" clip-rule="evenodd" d="M102.881 23.8467L103.274 23.4446C103.669 23.0407 103.995 22.5759 104.054 22.0607C103.774 21.8952 103.406 22.0093 103.136 22.1056C103.04 22.6723 102.89 23.2324 102.881 23.8467Z" fill="white"></path><path fill-rule="evenodd" clip-rule="evenodd" d="M103.17 25.0811C103.774 25.1147 104.362 25.2372 104.852 24.8959L105.344 23.3212C105.185 23.3119 105.026 23.2408 104.879 23.2951C104.555 24.0113 103.907 24.7211 103.17 25.0811Z" fill="white"></path><path fill-rule="evenodd" clip-rule="evenodd" d="M103.347 19.4976C103.742 20.0746 104.399 20.7207 105.072 20.9059C104.995 20.17 104.364 19.6622 104.039 19.0338L104.021 18.8234C103.768 18.5785 103.461 18.4111 103.198 18.2811C103.156 18.7009 103.27 19.1021 103.347 19.4976Z" fill="white"></path><path fill-rule="evenodd" clip-rule="evenodd" d="M105.483 25.1502C105.947 25.2288 106.447 25.1502 106.875 25.0184C107.497 24.8688 107.839 24.1871 108.049 23.6541H107.269L106.43 24.476C106.098 24.65 105.782 24.9127 105.483 25.1502Z" fill="white"></path><path fill-rule="evenodd" clip-rule="evenodd" d="M105.388 18.7009C105.52 19.3845 105.81 20.0054 106.204 20.5917L106.308 19.2872L105.388 18.7009Z" fill="white"></path><path fill-rule="evenodd" clip-rule="evenodd" d="M108.26 22.1046C108.313 21.667 108.13 21.1583 108.078 20.7142C107.816 20.5384 107.449 20.5552 107.176 20.3822C107.194 21.0714 107.735 21.6586 108.26 22.1046Z" fill="white"></path><path fill-rule="evenodd" clip-rule="evenodd" d="M107.463 26.5501C108.015 26.3752 108.549 26.1826 109.058 25.903C109.382 25.4383 109.871 25.0194 109.942 24.477C109.537 24.5901 109.189 24.4583 108.812 24.6435C108.585 25.054 108.443 25.5196 108.006 25.8161C107.936 26.1115 107.612 26.3135 107.463 26.5501Z" fill="white"></path><path fill-rule="evenodd" clip-rule="evenodd" d="M108.321 27.6264L108.978 28.4839C109.329 28.597 109.767 28.5633 110.073 28.3623L109.838 27.5843C109.373 27.7573 108.821 27.7068 108.321 27.6264Z" fill="white"></path><path fill-rule="evenodd" clip-rule="evenodd" d="M109.416 21.4314L109.67 22.5853C110.283 22.0878 110.409 21.3613 110.391 20.5917C110.041 20.9938 109.838 21.2388 109.416 21.4314Z" fill="white"></path><path fill-rule="evenodd" clip-rule="evenodd" d="M111.143 23.4689C111.152 23.6363 111.195 23.7934 111.29 23.9243C111.973 24.1702 112.043 24.9997 112.675 25.3148C113.085 25.4999 113.56 25.2718 113.917 25.1044C113.647 24.7986 113.34 24.5882 113.078 24.2656C112.894 24.1871 112.708 24.073 112.718 23.8458L111.143 23.4689Z" fill="white"></path><path fill-rule="evenodd" clip-rule="evenodd" d="M111.686 27.6011C111.983 27.9405 112.385 28.1172 112.805 28.2117C112.736 28.1163 112.85 28.2117 112.867 28.1519L112.341 26.9961C112.078 27.0054 111.806 27.0587 111.562 27.041C111.581 27.2336 111.623 27.4253 111.686 27.6011Z" fill="white"></path><path fill-rule="evenodd" clip-rule="evenodd" d="M112.614 22.2103C112.368 21.6418 112.267 20.9489 112.195 20.3205C111.934 20.6356 111.661 20.8376 111.416 21.1593C111.301 21.8063 112.229 21.9644 112.614 22.2103Z" fill="white"></path><path fill-rule="evenodd" clip-rule="evenodd" d="M113.682 21.6137C113.999 22.027 114.69 21.8868 115.075 21.7634C114.891 21.4482 114.298 21.2631 114.193 20.9246C114.133 20.3205 114.009 19.7324 113.816 19.1835C113.51 19.9259 113.139 20.8105 113.682 21.6137Z" fill="white"></path><path fill-rule="evenodd" clip-rule="evenodd" d="M114.234 23.469C115.11 24.1076 115.97 24.852 117.194 24.5799C117.282 24.52 117.432 24.5265 117.449 24.4144C117.089 24.1871 116.705 24.0104 116.336 23.8009L115.917 23.1894H115.724C115.251 23.3455 114.743 23.4091 114.234 23.469Z" fill="white"></path><path fill-rule="evenodd" clip-rule="evenodd" d="M114.252 30.5663H114.315C114.84 30.1464 115.462 30.0052 116.083 29.8313C116.25 29.893 116.145 30.0772 116.295 30.1464C116.671 29.9903 117.127 30.0239 117.512 29.893C117.976 29.9098 118.353 29.9183 118.729 30.1193C119.029 30.5139 119.588 30.469 119.974 30.7327L119.912 30.1193C119.098 29.1655 117.828 29.0963 116.654 29.1141L116.628 28.9916C116.348 28.9916 116.032 29.0514 115.769 29.1749C115.394 29.1927 115.034 29.3759 114.674 29.4891C114.507 29.822 114.375 30.2268 114.252 30.5663Z" fill="white"></path><path fill-rule="evenodd" clip-rule="evenodd" d="M114.956 19.8118C115.297 20.2588 115.805 20.6011 116.383 20.487C116.086 20.1962 115.743 19.8904 115.726 19.4799C115.814 18.7009 114.956 18.6383 114.535 18.2362C114.676 18.7617 114.657 19.3481 114.956 19.8118Z" fill="white"></path><path fill-rule="evenodd" clip-rule="evenodd" d="M114.866 32.1148H114.971C115.434 31.8267 116.109 32.0465 116.565 31.7398C116.819 31.6079 116.837 31.9586 117.012 32.0549C117.441 32.3158 117.495 33.1041 118.099 32.9208C118.824 33.2967 118.641 34.1804 118.667 34.8275L119.342 34.4086C119.281 34.0672 119.474 33.6558 119.254 33.3584C119.088 32.9825 118.632 32.9479 118.413 32.6422C118.677 32.1952 118.08 31.9839 117.957 31.6603L117.994 31.6173L118.922 31.7398C119.238 31.9315 119.352 32.2821 119.448 32.6066C120.174 32.7291 120.349 33.5511 120.603 34.0756C120.753 33.7175 120.814 33.3313 120.963 32.9816C120.972 32.6926 120.587 32.6927 120.394 32.5617C120.342 32.1148 120.14 31.6959 119.746 31.4256C118.94 31.2217 118.231 30.7776 117.347 30.7776L116.611 31.0039C116.207 31.1011 115.778 30.9786 115.471 31.2573C115.014 31.2928 114.98 31.7922 114.866 32.1148Z" fill="white"></path><path fill-rule="evenodd" clip-rule="evenodd" d="M115.329 28.51L115.497 28.5895C115.856 28.4231 116.215 28.2304 116.592 28.0902C117.177 27.9247 117.633 28.5895 118.125 28.1687C118.308 28.0387 118.467 28.2304 118.606 28.3361C118.819 28.7204 119.308 28.6942 119.676 28.7981C119.492 28.3006 119.264 27.6179 118.624 27.5385C118.371 27.4253 118.072 27.4347 117.828 27.2851C117.153 26.5417 116.716 27.8985 115.977 27.5665C115.716 27.8536 115.391 28.1266 115.329 28.51Z" fill="white"></path><path fill-rule="evenodd" clip-rule="evenodd" d="M115.497 32.7721C115.776 33.0087 116.066 33.4118 116.505 33.3584C117.046 33.6118 116.819 34.33 117.116 34.7068L117.431 34.4263L117.405 34.4076L117.449 34.3646L117.468 34.3889C117.555 34.128 117.432 33.6642 117.282 33.3566C117.082 33.2173 116.846 33.3659 116.653 33.2341C116.626 32.9526 116.451 32.8142 116.25 32.6403C116.11 32.5337 115.925 32.6739 115.767 32.6646L115.497 32.7721Z" fill="white"></path><path fill-rule="evenodd" clip-rule="evenodd" d="M116.592 22.1047C116.88 22.5853 117.441 22.8836 117.888 23.2156C118.257 23.382 118.737 23.426 119.132 23.3371C118.755 23.0314 118.412 22.6807 118.099 22.3141C117.975 22.1383 117.949 21.9186 117.783 21.7625C117.372 21.8419 116.907 21.8326 116.592 22.1047Z" fill="white"></path><path fill-rule="evenodd" clip-rule="evenodd" d="M117.075 18.973C117.478 19.4714 118.1 19.2704 118.669 19.2881V19.2265L117.793 18.4915C117.548 18.5691 117.286 18.7879 117.075 18.973Z" fill="white"></path><path fill-rule="evenodd" clip-rule="evenodd" d="M100.948 10.7199L101.455 12.2955C101.446 11.4025 101.86 10.6573 101.772 9.74836L102.147 9.18732L101.35 9.43324C101.14 9.83532 100.965 10.2384 100.948 10.7199Z" fill="white"></path><path fill-rule="evenodd" clip-rule="evenodd" d="M101.29 7.98952L101.982 7.58745V6.56256C101.69 6.73745 101.534 7.03668 101.307 7.27045L101.29 7.98952Z" fill="white"></path><path fill-rule="evenodd" clip-rule="evenodd" d="M115.499 9.58196C115.332 9.79981 115.078 9.85404 114.868 9.89616C115.237 9.22381 115.412 8.28685 115.123 7.52473C115.314 7.45554 115.525 7.42004 115.708 7.31531L115.691 7.29658L116.173 6.87673C116.812 6.43912 116.566 5.60877 116.803 4.98693C116.488 4.49789 116.392 3.90223 115.936 3.49078L115.962 3.47301C115.603 3.01762 114.955 3.07092 114.465 2.84369C113.815 2.62488 113.316 3.07092 112.851 3.36828C112.649 3.40381 112.773 3.66564 112.554 3.65629C112.431 3.97981 112.282 4.3305 112.193 4.68958C111.327 4.56708 110.39 4.66339 109.698 5.15335C109.328 4.88127 108.883 4.82981 108.454 4.70731C108.138 4.64469 107.78 4.75877 107.552 4.58389C107.22 4.20893 107.148 3.52538 106.578 3.42999C106.377 3.35893 106.335 3.14012 106.335 2.94749C105.957 2.88484 105.623 2.71091 105.257 2.63236C104.697 2.37802 104.25 2.78198 103.83 3.05222C103.644 3.12983 103.435 3.15695 103.26 3.26168C102.945 3.7526 102.648 4.251 102.444 4.79335C102.507 5.23939 102.699 5.63212 102.927 6.00993C103.128 6.57843 103.759 7.02543 104.293 7.25358C104.039 8.11946 104.039 9.15089 104.293 10.0261C104.293 10.0261 104.279 10.0383 104.279 10.0355C104.279 10.0383 104.251 10.0617 104.251 10.0617C104.168 10.0617 104.077 10.0775 104.008 10.0355H103.997C104.123 10.8714 104.516 11.6045 105.152 12.232C105.381 12.3105 105.327 12.5827 105.423 12.7566C105.485 12.836 105.494 13.0016 105.468 13.0717C104.1 13.0287 102.882 13.37 101.787 13.9909C101.507 14.1312 101.63 14.5155 101.603 14.7876C102.375 14.2789 103.206 13.9039 104.126 13.7365C104.52 13.7122 104.966 13.614 105.344 13.7188L105.387 14.4734C104.346 15.0167 103.206 15.3309 102.314 16.2239C102.331 16.4941 102.278 16.8083 102.357 17.0365L103.156 16.3894C103.926 15.8022 104.732 15.3038 105.616 14.9802C105.853 15.2598 106.098 15.559 106.414 15.733C106.948 15.3907 107.527 15.1373 108.14 14.9802C108.464 14.7876 108.982 14.9625 109.192 14.5781L109.339 13.7814C109.315 13.7637 109.296 13.7281 109.252 13.7365C108.842 13.5 108.569 13.0895 108.605 12.6088C108.464 12.678 108.308 12.7229 108.14 12.7295C108.002 12.6958 107.869 12.6603 107.808 12.5191C107.8 12.3451 107.711 12.0824 107.888 11.9524C108.456 11.6017 109.192 11.584 109.91 11.6363C110.444 11.7074 111.215 11.6803 111.401 12.3105C111.374 12.4947 111.391 12.6967 111.207 12.8183C111.014 12.923 110.796 12.8089 110.62 12.7295C110.48 13.1596 110.243 13.6402 109.762 13.7805L109.822 14.2873C109.882 14.5155 109.901 14.8914 110.26 14.8119C111.093 15.0148 111.829 15.4431 112.556 15.906C112.802 15.6619 112.994 15.3814 113.168 15.127C114.466 15.5665 115.586 16.5372 116.657 17.4395L116.699 16.7036C115.682 15.8012 114.553 15.1635 113.378 14.6651C113.423 14.4285 113.476 14.2003 113.485 13.946C114.877 14.0255 116.2 14.4547 117.347 15.127L117.329 14.4977C116.12 13.8497 114.798 13.4214 113.353 13.4046C113.299 13.326 113.282 13.212 113.292 13.1334C113.993 13.0203 114.491 12.2947 114.658 11.6625C115.018 11.252 115.535 10.805 115.413 10.1935C115.428 10.1421 115.445 10.0888 115.464 10.0355C115.51 9.88493 115.549 9.72408 115.499 9.58196Z" fill="white"></path><path fill-rule="evenodd" clip-rule="evenodd" d="M116.716 11.8318L117.434 11.6036L117.514 11.2025C117.715 10.6152 117.286 10.1776 117.075 9.71381L116.716 11.8318Z" fill="white"></path><path fill-rule="evenodd" clip-rule="evenodd" d="M118.529 14.6043C118.87 14.9812 119.204 15.5843 119.808 15.401C119.764 15.1467 119.623 14.9363 119.537 14.709C119.38 14.5258 119.325 14.0002 119.011 14.1845C118.774 14.0274 118.714 13.7646 118.564 13.5542C118.495 13.8787 118.539 14.2808 118.529 14.6043Z" fill="white"></path><path fill-rule="evenodd" clip-rule="evenodd" d="M118.652 17.1683C118.784 17.3516 118.82 17.5891 118.949 17.7556C119.186 17.9117 119.537 17.8855 119.827 17.8603C120.088 17.7986 120.255 18.0866 120.5 17.9211C120.194 17.7285 120.01 17.3787 119.722 17.1234C119.38 16.8541 119.012 17.0907 118.652 17.1683Z" fill="white"></path><path fill-rule="evenodd" clip-rule="evenodd" d="M119.117 21.2388C119.721 21.5969 120.488 21.9476 121.295 21.8251C121.382 21.7821 121.532 21.7905 121.549 21.6857C121.049 21.51 120.525 21.0115 120.001 20.9068C119.712 20.4608 119.334 21.0209 118.967 20.9853C118.975 21.0891 119.08 21.1677 119.117 21.2388Z" fill="white"></path><path fill-rule="evenodd" clip-rule="evenodd" d="M120.935 28.9654L121.068 29.245C121.2 30.1557 121.776 30.9945 121.461 31.9923C121.725 32.1774 121.803 32.4832 121.971 32.7282H122.013C122.215 31.9679 122.075 31.1797 121.971 30.4176C122.049 29.7265 121.347 29.3245 120.935 28.9654Z" fill="white"></path><path fill-rule="evenodd" clip-rule="evenodd" d="M121.087 20.0044C121.542 20.3551 122.269 20.3887 122.794 20.2148C122.462 20.0316 122.094 19.8286 121.822 19.5846L121.087 20.0044Z" fill="white"></path><path fill-rule="evenodd" clip-rule="evenodd" d="M123.25 22.69C123.207 23.0584 123.451 23.3642 123.714 23.5494C123.81 23.3315 123.967 23.1454 123.984 22.9013C123.906 22.5254 123.695 22.1832 123.354 21.9288C123.294 22.1738 123.222 22.4104 123.25 22.69Z" fill="white"></path><path fill-rule="evenodd" clip-rule="evenodd" d="M123.276 26.6819C123.213 27.0924 123.669 27.1457 123.861 27.373C124.019 27.5656 123.756 27.6974 123.756 27.8807C124.089 28.309 124.283 28.7971 124.283 29.3675C124.413 28.8345 124.614 28.3267 124.685 27.776C124.65 27.3898 124.038 27.4702 124.133 27.041C124.309 26.6034 124.099 26.1751 123.984 25.7796C123.951 25.7197 123.87 25.5963 123.802 25.6328C123.643 25.99 123.25 26.2443 123.276 26.6819Z" fill="white"></path><path fill-rule="evenodd" clip-rule="evenodd" d="M124.476 24.5985L124.931 25.4822C125.132 25.456 125.263 25.2634 125.42 25.1231C125.543 24.7556 125.218 24.519 125.124 24.2207C125.044 24.0104 125.124 23.7317 124.974 23.5484C124.86 23.4774 124.73 23.3632 124.599 23.3988L124.476 24.5985Z" fill="white"></path><path fill-rule="evenodd" clip-rule="evenodd" d="M125.061 22.2701C125.421 22.4889 125.832 22.8031 126.026 23.1893C126.332 24.0824 126.823 24.8856 127.181 25.7524C127.313 26.3565 127.418 26.896 127.583 27.4898C127.647 27.6478 127.611 27.9536 127.857 27.9274C127.925 27.2626 128.057 26.623 128.067 25.9319C127.848 25.643 127.559 25.5214 127.287 25.3466V25.2849C127.322 25.1371 127.446 24.9604 127.628 24.9884C127.706 24.9006 127.944 24.8136 127.839 24.6556C127.383 24.2011 127.41 23.4184 126.684 23.2773C126.43 23.1725 126.368 22.9088 126.342 22.6657C126 22.3749 125.492 22.2795 125.061 22.2701Z" fill="white"></path><path fill-rule="evenodd" clip-rule="evenodd" d="M125.484 27.0139C125.93 27.4244 125.773 28.0201 125.738 28.5717C125.669 28.9046 126.088 28.7101 126.22 28.8869C126.492 29.289 126.334 29.8762 126.239 30.3129C126.475 29.9529 126.745 29.6387 126.929 29.2441C126.922 29.0963 127.114 29.0253 127.105 28.8411C127.183 28.5877 126.886 28.7017 126.762 28.6756C126.658 28.6494 126.544 28.5792 126.58 28.439C126.805 28.0014 126.597 27.4767 126.509 27.0391C126.404 26.6801 126.554 26.1985 126.385 25.8834C126.105 26.2705 125.272 26.3575 125.484 27.0139Z" fill="white"></path><path fill-rule="evenodd" clip-rule="evenodd" d="M126.297 20.8012C127.078 21.5894 127.647 22.3805 128.487 23.1426C128.505 22.8004 128.461 22.4862 128.444 22.1533C128.322 21.9168 128.094 21.7428 127.9 21.5661C127.278 21.5062 126.954 20.6693 126.297 20.8012Z" fill="white"></path><path fill-rule="evenodd" clip-rule="evenodd" d="M128.337 24.9707C128.356 25.0511 128.392 25.1203 128.427 25.1979C128.768 25.759 129.092 26.3369 129.329 26.94C129.258 26.292 129.696 25.4878 129.117 24.9884C129.039 24.7771 128.778 24.8482 128.61 24.865L128.337 24.9707Z" fill="white"></path><path fill-rule="evenodd" clip-rule="evenodd" d="M130.441 31.363C130.686 31.477 131.001 31.276 131.238 31.1357C131.457 31.0834 131.641 31.2068 131.808 31.32C131.877 31.4593 131.808 31.5911 131.834 31.723C132.36 31.8707 132.875 32.0643 133.34 32.3701L133.488 32.2214C133.523 31.8455 133.226 31.5734 132.945 31.363C132.762 31.2582 132.489 31.32 132.358 31.1535C132.446 31.0133 132.446 30.8028 132.437 30.6458C132.148 30.6458 131.963 30.5569 131.728 30.4185C131.579 30.3746 131.447 30.2511 131.324 30.4185C130.887 30.715 130.861 31.1535 130.441 31.363Z" fill="white"></path><path fill-rule="evenodd" clip-rule="evenodd" d="M131.056 20.3514C131.273 20.2887 131.502 20.2279 131.685 20.0699C132.273 19.536 133.122 19.895 133.806 19.8866C133.674 19.65 133.489 19.4135 133.323 19.2124C133.077 19.1161 132.85 19.003 132.57 19.003C131.973 18.6523 131.572 19.2395 131.115 19.5275C130.992 19.7641 130.932 20.1138 131.056 20.3514Z" fill="white"></path><path fill-rule="evenodd" clip-rule="evenodd" d="M131.07 22.1533C131.07 22.1262 131.07 22.0991 131.097 22.0925C131.177 22.1617 131.089 22.33 131.22 22.3637C131.448 22.2496 131.659 22.0925 131.868 21.9438C132.455 21.9438 132.806 21.3744 133.383 21.3744C134.348 21.5502 135.303 21.7437 136.142 22.2141C136.082 21.6474 135.59 21.1294 135.092 20.876C134.811 20.7797 134.591 20.9283 134.391 21.0864C133.805 21.4548 134.111 20.5524 133.7 20.5347C133.165 20.7002 132.612 20.8853 132.017 20.8311C131.667 20.9639 131.421 21.2865 131.027 21.2509C131.011 21.5417 130.968 21.8924 131.07 22.1533Z" fill="white"></path><path fill-rule="evenodd" clip-rule="evenodd" d="M131.475 24.1039C131.658 24.2984 131.965 24.2628 132.228 24.2984L132.99 23.9991C132.999 23.8617 132.763 23.8243 132.815 23.6672C133.026 23.4306 133.313 23.598 133.577 23.5017C133.944 23.4484 134.321 23.0827 134.69 23.352C134.678 23.3969 134.705 23.4568 134.671 23.5017C134.557 23.7729 134.749 23.9393 134.96 24.044C135.39 24.1225 135.791 24.5172 136.221 24.3404C136.178 23.9814 136.082 23.6513 135.994 23.3081C135.635 23.2473 135.38 22.95 135.048 22.8265C134.9 22.9668 134.705 23.0715 134.522 23.0537C133.847 22.8957 133.04 22.4759 132.358 22.9051C132.112 23.2034 131.674 23.1155 131.341 23.2464C131.361 23.5437 131.395 23.8336 131.475 24.1039Z" fill="white"></path><path fill-rule="evenodd" clip-rule="evenodd" d="M131.764 29.3068C131.712 29.4554 131.563 29.6995 131.835 29.7706C132.395 29.7874 133.114 29.4984 133.552 29.9361C133.7 30.0501 133.629 30.2867 133.62 30.4354L134.355 31.0479C134.426 30.6785 134.559 30.3466 134.568 29.9529C134.506 29.6724 134.366 29.4021 134.121 29.2188C133.638 29.2188 133.359 28.655 132.84 28.7242C132.57 28.6643 132.333 28.9046 132.061 28.9046C131.94 29.0262 131.869 29.1758 131.764 29.3068Z" fill="white"></path><path fill-rule="evenodd" clip-rule="evenodd" d="M131.974 25.1801C132.087 25.4167 132.22 25.802 132.438 25.8273C132.955 25.6019 133.709 25.4607 134.287 25.7066C134.479 25.7403 134.479 25.9591 134.437 26.0993C134.734 26.2742 135.093 26.4145 135.409 26.6062L135.32 26.0806C135.303 25.5121 134.585 25.4607 134.541 24.8996C133.954 24.7079 133.297 24.6453 132.675 24.7949C132.474 24.9782 132.184 24.9539 131.94 25.0053C131.922 25.0754 131.965 25.1203 131.974 25.1801Z" fill="white"></path><path fill-rule="evenodd" clip-rule="evenodd" d="M132.123 28.0163C132.464 27.919 132.684 27.5441 133.052 27.5085C133.612 27.5179 134.111 27.746 134.462 28.2286C134.672 28.366 134.628 28.7251 134.9 28.7251C134.82 28.2968 134.96 27.9041 134.942 27.4646C134.577 26.853 133.665 27.3262 133.323 26.6071L132.676 26.6511C132.211 26.7661 132.334 27.3084 132.273 27.6768C132.22 27.7891 132.115 27.877 132.123 28.0163Z" fill="white"></path><path fill-rule="evenodd" clip-rule="evenodd" d="M135.339 31.8446C135.61 32.3869 136.207 32.7984 136.267 33.4193C136.406 33.2538 136.504 33.0611 136.599 32.8769C136.589 32.7021 136.388 32.7021 136.311 32.5618C136.23 32.3346 136.353 32.1335 136.388 31.9315C136.274 31.608 136.002 31.3022 135.697 31.1086L135.339 31.8446Z" fill="white"></path><path fill-rule="evenodd" clip-rule="evenodd" d="M136.417 30.4616L137.047 31.32C137.317 30.8917 137.317 30.2605 137.212 29.7444C137.152 29.6471 137.037 29.49 136.881 29.5611C136.644 29.8051 136.608 30.182 136.417 30.4616Z" fill="white"></path><path fill-rule="evenodd" clip-rule="evenodd" d="M133.849 6.50831C134.076 6.62238 134.295 6.72711 134.568 6.74488C134.751 6.64857 134.989 6.5775 135.216 6.64015C135.54 6.85054 135.934 6.59619 136.311 6.61396C135.978 6.29884 135.6 6.10527 135.216 5.922C134.725 6.0258 134.332 6.37646 133.849 6.50831Z" fill="white"></path><path fill-rule="evenodd" clip-rule="evenodd" d="M137.274 7.32929C137.738 7.37325 138.072 7.78467 138.386 8.12598C138.78 8.18583 139.077 8.46729 139.313 8.75533L139.166 8.29244C139.062 7.82771 138.77 7.46864 138.474 7.10114C138.054 7.12825 137.641 7.16471 137.274 7.32929Z" fill="white"></path><path fill-rule="evenodd" clip-rule="evenodd" d="M104.583 3.49173L104.838 3.51885C105.519 3.86017 106.623 4.03501 106.687 5.0234C105.993 5.29551 105.327 5.66209 104.775 6.22221C104.356 5.79394 103.506 6.02955 103.364 5.27775C103.497 4.56709 103.75 3.67407 104.583 3.49173Z" fill="#00084D"></path><path fill-rule="evenodd" clip-rule="evenodd" d="M105.241 7.92964C106.039 7.85857 106.809 7.97172 107.633 7.90253C107.833 7.98949 108.043 8.16341 108.14 8.36537C108.113 9.31076 107.825 10.2131 107.782 11.1838C107.422 11.3315 107.071 11.6307 106.983 12.0234C106.659 12.1198 106.369 12.3114 106.054 12.4601C105.916 12.1637 105.94 11.7168 106.186 11.4708C106.528 10.9902 107.414 11.1024 107.343 10.3412C107.571 9.97468 107.353 9.50153 107.36 9.11718C107.272 8.82733 107.185 9.21353 107.045 9.20414C106.765 9.26399 106.477 9.28176 106.231 9.14153C106.046 8.94887 105.821 8.79083 105.766 8.52995C105.52 8.40745 105.233 8.21576 105.109 7.96141L105.241 7.92964Z" fill="#00084D"></path><path fill-rule="evenodd" clip-rule="evenodd" d="M106.205 13.6328C106.579 13.687 106.975 13.5187 107.299 13.7038C107.23 13.8273 107.045 13.8787 106.896 13.9142L106.309 14.1844C106.09 14.133 106.213 13.7824 106.205 13.6328Z" fill="#00084D"></path><path fill-rule="evenodd" clip-rule="evenodd" d="M107.736 6.32688C108.112 6.20438 108.516 5.95192 108.918 6.07253C108.63 6.36242 108.403 6.73742 108.184 7.08807L106.984 7.06188C107.116 6.7458 107.448 6.48492 107.736 6.32688Z" fill="#00084D"></path><path fill-rule="evenodd" clip-rule="evenodd" d="M111.25 6.03889C111.748 5.95193 111.721 6.599 112.177 6.62331C112.258 6.72804 112.372 6.82439 112.327 6.98239C112.063 7.08712 111.678 7.03666 111.381 7.10489C110.986 6.88608 111.241 6.20347 110.619 6.24743C110.584 6.19412 110.515 6.08939 110.601 6.05481C110.794 5.98558 111.05 6.01177 111.25 6.03889Z" fill="#00084D"></path><path fill-rule="evenodd" clip-rule="evenodd" d="M110.935 8.38223C111.153 8.0755 111.487 8.05027 111.802 7.9895L114.071 8.03158C114.168 8.12039 113.983 8.19896 113.983 8.30369C113.844 8.43554 113.642 8.47108 113.519 8.59262C113.221 8.60104 113.248 8.95169 113.038 9.10131C112.713 9.42485 112.239 9.27523 111.863 9.22381C111.732 9.12658 111.583 8.99566 111.52 8.84696L111.416 8.95169C111.548 9.44262 111.513 9.98496 111.61 10.4834L112.153 10.8425C112.162 11.6466 113.108 11.4278 113.519 11.8748C113.423 12.1647 113.23 12.4087 113.02 12.6537C112.688 12.3302 112.31 12.1207 111.908 11.9795C111.872 11.5092 111.356 11.2277 111.068 10.9921C110.988 10.1337 110.971 9.25843 110.832 8.42712L110.935 8.38223Z" fill="#00084D"></path><path fill-rule="evenodd" clip-rule="evenodd" d="M111.758 13.7824H112.81L112.678 14.3331L111.625 13.8871C111.601 13.8001 111.697 13.774 111.758 13.7824Z" fill="#00084D"></path><path fill-rule="evenodd" clip-rule="evenodd" d="M113.65 3.86854L114.43 3.62357C114.877 3.83303 115.297 4.09485 115.709 4.39316C116.032 4.98785 115.981 5.79297 115.831 6.45781C115.594 6.71966 115.078 6.45781 114.886 6.8777H114.849C114.561 6.05573 113.737 5.31889 112.975 4.94485C113.098 4.52404 113.23 4.11262 113.65 3.86854Z" fill="#00084D"></path></g></g><defs><clipPath id="clip0_11079_10166"><rect width="150" height="38.0769" fill="white"></rect></clipPath></defs></svg> 