<?xml version="1.0" encoding="UTF-8"?> <svg xmlns="http://www.w3.org/2000/svg" width="150" height="51" viewBox="0 0 150 51" fill="none"><g clip-path="url(#clip0_11079_10024)"><mask id="mask0_11079_10024" style="mask-type:luminance" maskUnits="userSpaceOnUse" x="0" y="0" width="150" height="51"><path d="M149.783 0H0V50.8503H149.783V0Z" fill="white"></path></mask><g mask="url(#mask0_11079_10024)"><path d="M4.40026 26.1165C4.27547 26.5408 4.0758 26.5158 3.97597 26.1165L3.7763 25.3927C3.7763 25.3927 3.50176 24.3444 3.02755 23.0965C2.90276 22.6972 2.72805 22.2978 2.47846 21.9484C2.07913 21.5241 1.48013 21.3744 0.931042 21.5491C0.431874 21.7238 0.0574978 22.198 0.00758095 22.7221C-0.0173774 23.1714 0.0325393 23.6456 0.132373 24.0948C0.506749 26.7903 1.10575 29.4609 1.92938 32.0815C2.4535 33.2546 3.80126 33.7787 4.9743 33.2795C4.99926 33.2546 5.04918 33.2546 5.07414 33.2296C6.12239 32.4559 6.87114 31.3577 7.1956 30.1098C7.76964 28.7121 10.7147 20.6007 10.7147 20.6007C11.0142 19.802 11.2389 19.827 11.2139 20.7005C11.2139 20.7005 11.0642 28.6373 11.0392 32.2562C10.9893 33.9534 11.164 35.6506 11.5134 37.3228C11.738 38.1963 12.2372 38.9701 12.936 39.5441C13.6349 40.0682 14.5084 40.3178 15.382 40.218C15.8062 40.1431 16.2305 40.0183 16.6049 39.7937C17.154 39.4692 17.6282 39.0699 18.0026 38.5458C18.8512 37.3977 19.575 36.1747 20.174 34.9018C21.5966 32.1065 25.2655 23.4709 25.2655 23.4709C25.5899 22.6722 25.8395 22.7471 25.8146 23.5957C25.8146 23.5957 25.3653 38.1215 25.3404 43.6622C25.3404 45.0349 25.5899 46.4077 26.0891 47.7055C26.5384 48.9285 27.4369 49.9268 28.6099 50.4759C29.9077 51.0499 31.3803 50.9501 32.6033 50.2512C33.5267 49.6772 34.2755 48.9035 34.7996 47.9551C35.5483 46.6822 36.1723 45.3344 36.6715 43.9617C37.7696 41.1165 38.6931 38.1714 39.5916 35.2512C40.4901 32.3311 48.2522 4.60233 48.7513 2.23128C48.8262 1.95674 48.8512 1.68219 48.8262 1.43261C48.7513 0.883524 48.4269 0.409315 47.9277 0.159731C47.0791 -0.239604 46.0558 0.134772 45.6315 0.983358C45.2072 1.8569 34.5999 27.5641 34.5999 27.5641C34.2755 28.3627 34.0009 28.3128 34.0009 27.4393C34.0009 27.4393 34.0259 18.5042 34.0758 11.0915C34.1008 7.07321 32.129 4.82695 29.3587 4.3777C28.0858 4.17804 26.763 4.47754 25.6898 5.20133C24.5666 6 23.6681 7.04825 23.0691 8.29617C22.2206 9.91847 17.0292 25.0932 17.0292 25.0932C16.7547 25.8918 16.5051 25.8669 16.4801 25.0183C16.4801 25.0183 16.3304 18.5042 16.1806 16.9567C15.956 14.6106 15.4069 10.7171 12.362 10.5175C9.49177 10.3428 8.21889 13.8619 7.47014 16.0582C6.99593 17.5058 4.57497 25.3677 4.57497 25.3677L4.40026 26.1165Z" fill="#00084D"></path><path d="M57.2622 28.812C58.011 29.386 58.9344 29.7354 59.8828 29.7604C61.2805 29.7604 61.7797 28.9617 61.7797 27.0898V18.6539H64.6V27.4143C64.6 30.8336 63.0026 32.3311 60.1324 32.3311C59.1341 32.3311 58.1358 32.0566 57.2622 31.5574V28.812Z" fill="#00084D"></path><path d="M76.0308 18.629L78.3519 27.6889L80.5732 18.629H83.3436L79.8494 32.0815H77.2538L74.8827 23.1964L72.5117 32.0815H69.941L66.4468 18.629H69.2671L71.4634 27.6889L73.8345 18.629H76.0308Z" fill="#00084D"></path><path d="M90.4069 20.1514H87.1872V25.1681H90.4069C91.8045 25.3178 93.0275 24.3195 93.2022 22.9468C93.3519 21.5491 92.3536 20.3261 90.9809 20.1514C90.7812 20.1265 90.5816 20.1265 90.4069 20.1514ZM87.1872 26.6905V32.0815H85.4651V18.629H90.4318C93.1523 18.629 94.9243 20.0017 94.9243 22.6722C94.9243 25.3428 93.1523 26.7155 90.4318 26.7155L87.1872 26.6905Z" fill="#00084D"></path><path d="M97.3953 18.629H99.1174V30.5341H105.981V32.0815H97.3953V18.629Z" fill="#00084D"></path><path d="M108.751 26.5158H113.144L110.948 20.7754L108.751 26.5158ZM111.771 18.629L117.037 32.0815H115.29L113.743 28.0383H108.202L106.68 32.0815H104.933L110.199 18.629H111.771Z" fill="#00084D"></path><path d="M125.573 18.629H127.42L122.504 26.5408V32.0815H120.806V26.5408L115.939 18.629H117.836L121.705 24.9934L125.573 18.629Z" fill="#00084D"></path><path d="M137.379 18.6289V20.1514H130.515V24.3943H136.73V25.9168H130.515V30.4842H137.379V32.0316H128.818V18.579H137.379" fill="#00084D"></path><path d="M141.547 24.9185H144.716C146.488 24.9185 147.512 24.02 147.512 22.5225C147.512 21.025 146.488 20.1265 144.716 20.1265H141.547V24.9185ZM141.547 26.391V32.0815H139.824V18.629H144.766C147.487 18.629 149.234 19.9767 149.234 22.5225C149.359 24.4942 147.836 26.1914 145.864 26.3162H145.79L149.783 32.0815H147.811L143.943 26.391H141.547Z" fill="#00084D"></path></g></g><defs><clipPath id="clip0_11079_10024"><rect width="150" height="50.9151" fill="white"></rect></clipPath></defs></svg> 