<?xml version="1.0" encoding="UTF-8"?> <svg xmlns="http://www.w3.org/2000/svg" width="100" height="78" viewBox="0 0 100 78" fill="none"><g clip-path="url(#clip0_11079_10074)"><path d="M36.7808 15.6343V8.03887L34.286 9.03681C34.286 9.03681 33.6762 10.3119 33.7871 12.1969C33.8425 13.6938 34.7295 15.4125 35.3949 16.1886L36.7808 15.6343ZM43.4891 0C44.0436 0.0554405 44.9861 0.332644 45.6514 0.887048C46.372 1.55233 46.5384 2.6057 46.3166 3.54819C46.0949 4.3798 45.8177 4.82332 44.9306 5.43317C44.0436 6.04302 43.3783 6.09845 43.3783 6.09845V9.7575L45.0969 11.0881L43.3783 12.6405V17.6301C43.3783 17.6301 44.8197 16.4658 45.9285 14.1928C45.9285 14.1928 45.9839 14.0819 46.0949 13.8047C46.2057 14.4145 46.1502 15.6896 45.4296 17.242C44.8752 18.4617 43.9327 19.5705 42.6576 20.2357C40.4953 21.4 38.8321 21.5109 37.1135 21.1782C35.0622 20.7902 33.1772 19.6814 31.9576 17.7409C31.0704 16.3549 30.6824 14.8026 30.6824 13.084C30.7378 9.70213 33.3435 6.81919 36.3373 5.71037C36.7254 5.59949 36.8363 5.48861 37.3352 5.43317C37.1135 5.59949 36.8363 5.76582 36.5037 5.98757C35.5612 6.59742 34.7295 7.81711 34.3414 8.7596L40.1073 6.26478V14.0819L35.5057 16.3549C36.0602 17.0756 37.6679 18.1291 39.0539 18.2954C41.3824 18.5726 42.9348 17.6856 42.9348 17.6856V12.585L41.2161 11.0881L42.9348 9.7575V6.09845C41.9368 5.98757 40.5508 5.54405 39.8855 5.37773C38.8321 5.15596 35.3949 4.21348 34.8404 4.10259C34.286 4.04716 33.6207 4.04716 33.2327 4.3798C32.8446 4.71244 32.5674 5.37773 32.7337 5.93213C32.8446 6.26478 33.0664 6.4311 33.2327 6.59742C33.2327 6.59742 33.0109 6.59742 32.6782 6.37566C32.0129 5.98757 31.514 5.26684 31.4586 4.32436C31.4262 3.74419 31.5414 3.16527 31.7935 2.64172C32.0456 2.11817 32.4263 1.66706 32.9 1.33057C33.7871 0.776167 34.785 0.443524 35.9492 0.609845C37.6679 0.831607 39.941 1.77409 41.9923 2.27307C42.7684 2.43938 43.3783 2.49482 43.9327 2.21762C44.2099 2.0513 44.6534 1.55233 44.2653 0.942491C43.8218 0.221762 42.9902 0.221762 42.2694 0.110881C42.9348 -1.10379e-07 43.0456 0 43.4891 0Z" fill="#00084D"></path><path d="M66.0516 13.6387L63.3905 15.5236V9.31432L66.0516 13.6387ZM65.9408 7.65106L63.0025 9.36969L60.2304 10.8112V18.0184L59.177 18.8501L59.3434 19.0164L60.3967 18.1848L63.6677 21.0122L69.3226 16.6878L69.2117 16.5215L66.0516 18.9055L63.3905 16.6325V15.7453L68.5464 12.0863L65.9408 7.65106Z" fill="#00084D"></path><path d="M51.0836 23.8396C51.8043 24.0059 53.1348 24.1168 54.7426 23.3406C56.5167 22.509 57.182 20.6795 57.182 18.8499L57.2374 16.2442V10.4784L58.3462 9.64678L58.2354 9.48048L57.1265 10.3121L54.7426 7.54006L51.0836 10.2567V1.05353L47.369 4.10276C47.5353 4.21364 48.367 4.32452 48.367 5.10069V18.0184L46.4265 19.238L46.5374 19.4044L47.369 18.7945L49.6975 20.9012L53.3566 18.0737L53.2457 17.9074L52.3586 18.5727L51.139 17.7411V10.5338L52.5804 9.64678L54.5763 11.6981V17.9074C54.5763 19.5707 54.1328 21.511 53.2457 22.509C52.3586 23.507 52.0261 23.5623 51.0836 23.8396Z" fill="#00084D"></path><path d="M67.8804 69.4551L64.9421 71.3401V65.1308L67.8804 69.4551ZM67.8251 63.4675L64.8313 65.1862L62.1147 66.6276V73.8349L60.9504 74.6665L61.1167 74.8329L62.1701 74.0012L65.4411 76.8287L71.096 72.5044L70.9852 72.338L67.8251 74.722L65.2193 72.3935V71.5064L70.3753 67.8473L67.8251 63.4675Z" fill="#00084D"></path><path d="M58.4192 76.8267L61.857 73.7788L61.6911 73.613L60.8618 74.3344L59.4207 73.0033V66.2396L60.8057 65.2962L60.6959 65.1304L59.4207 66.0738L57.0922 63.5234L53.7663 66.0738L51.3818 63.6354L48.168 66.0738L45.7834 63.6354L42.3456 66.5382L42.4556 66.7041L43.5648 65.8167L45.1199 67.5377V73.5258L44.3444 74.1893L46.8389 76.8848L49.3893 74.4465L48.3359 73.3931V66.1857L48.9455 65.6881L50.5524 67.6849V73.615L50.0548 74.2785L52.3833 76.7729L54.8777 74.3884L53.8825 73.445V66.2376L54.604 65.684L56.6775 67.6247V73.5548L55.8481 74.1085L58.4192 76.8267ZM37.7965 74.1666L36.8012 74.9959L36.9111 75.1618L37.9643 74.2743L40.2369 76.8247L43.5089 73.9965L43.399 73.8306L42.4037 74.66L41.0725 73.1629V66.4594L42.2337 65.516L42.0678 65.3501L40.9585 66.2935L38.574 63.598L35.0491 66.3703L35.4928 66.4802L36.3803 65.7586L37.8213 67.3655L37.7965 74.1666ZM40.7118 60.6392L38.2174 62.8018L36.2206 60.6952L38.7212 58.4766L40.7118 60.6392Z" fill="#00084D"></path><path d="M25.1366 71.4505V63.8552L22.808 64.8531C22.808 64.8531 22.1982 66.1282 22.3091 68.0132C22.3645 69.5102 23.2516 71.2288 23.9168 72.005L25.1366 71.4505ZM31.7894 55.8163C32.3992 55.8717 33.2863 56.149 33.9516 56.7034C34.6723 57.3687 34.8386 58.422 34.6168 59.3645C34.3951 60.1961 34.1179 60.6396 33.2308 61.2495C32.3438 61.8593 31.6785 61.8039 31.6785 61.8039V65.463L33.3417 66.9044L31.6785 68.3459V73.2801C31.6785 73.2801 33.0645 72.2821 34.2288 70.0091C34.2288 70.0091 34.2842 69.8982 34.3951 69.621C34.506 70.2308 34.4505 71.506 33.7298 73.0583C33.1754 74.278 32.2329 75.3868 30.9578 76.0521C28.7956 77.2164 27.1324 77.3272 25.4138 76.9946C23.3625 76.6066 21.4775 75.4977 20.2578 73.5573C19.3707 72.1713 18.9827 70.619 18.9827 68.9003C19.038 65.5184 21.6438 62.6355 24.6376 61.5267C24.9702 61.4158 25.1366 61.3049 25.6355 61.2495C25.4138 61.4158 25.1366 61.5821 24.8039 61.8039C23.8614 62.4138 23.0298 63.6334 22.6417 64.5759L28.3521 62.192V70.0091L23.806 72.1713C24.3604 72.892 25.9681 73.9454 27.3541 74.1117C29.6827 74.3889 31.1795 73.391 31.1795 73.391V68.2905L29.5164 66.849L31.1795 65.4075V61.7484C30.1816 61.6376 28.9065 61.3049 28.1858 61.1386C27.1324 60.9168 23.6951 59.9743 23.1407 59.8635C22.5863 59.808 21.921 59.808 21.5329 60.1407C21.1448 60.4733 20.8676 61.1386 21.034 61.693C21.1448 62.0256 21.3666 62.192 21.5329 62.3583C21.5329 62.3583 21.3112 62.3583 20.9785 62.1366C20.3132 61.7484 19.8142 61.0278 19.7588 60.0853C19.7265 59.5051 19.8416 58.9262 20.0938 58.4026C20.3458 57.8791 20.7266 57.428 21.2003 57.0915C22.0873 56.537 23.0853 56.2044 24.2495 56.3707C25.9681 56.5925 28.2412 57.535 30.2925 58.034C31.0687 58.2003 31.6785 58.2557 32.2329 57.9785C32.5102 57.8122 32.9537 57.3132 32.5655 56.7034C32.122 55.9827 31.2904 55.9827 30.5697 55.8717C31.1795 55.8163 31.3459 55.8163 31.7894 55.8163Z" fill="#00084D"></path><path d="M74.9206 64.9089V68.5125L76.4729 69.5658C76.4729 69.5658 79.134 67.4592 80.132 65.5742C80.132 65.5742 78.9122 67.182 77.3045 66.683C75.9184 66.2949 75.2532 64.9643 75.2532 64.9643M72.204 74.3892C72.204 74.3892 73.3682 72.5043 75.4195 72.8923C77.3599 73.2804 78.247 75.2762 78.247 75.2762V70.7301L76.6392 69.6213C75.1977 71.0628 72.5366 73.1141 72.204 74.3892ZM74.1444 77.8265C73.7563 77.9374 72.1485 77.5494 71.7604 75.8861C71.3723 74.2784 72.5366 73.2249 74.2552 71.5063L72.204 69.6768V66.2395C72.204 66.2395 73.7008 65.5187 74.8651 64.798L77.2491 63.3011C77.2491 63.3011 78.1361 64.3545 79.134 64.299C80.6863 64.1882 80.6309 62.9684 80.5755 62.6912C80.8527 63.1347 81.5734 64.5208 78.8014 67.57L81.019 69.2887V73.7794C81.019 73.7794 78.4687 75.0545 75.9739 76.8286C75.9739 76.8286 74.5879 75.1654 73.4236 75.9416C72.6475 76.5514 73.0356 77.4384 74.1444 77.8265Z" fill="#00084D"></path><path d="M4.03424 48.5758C2.59279 48.4094 1.98294 47.5779 1.98294 46.8571C1.98294 46.4136 2.42647 45.582 3.31352 45.4711C4.20056 45.3603 5.08761 45.7483 5.86378 46.6354L9.24565 43.0317L9.07932 42.8654L8.19228 43.8633C7.24979 42.8654 6.14098 42.2002 4.81041 42.0338V31.0012L13.4037 46.4691C13.4037 46.4691 13.6255 46.6354 14.0135 46.6354C14.3462 46.6354 14.2353 46.4136 14.2353 46.4136V30.8348C14.956 30.8348 15.8985 30.4467 16.4529 29.8923C18.1161 28.2292 17.4508 26.3996 17.2845 26.1779C17.1736 26.954 16.5638 27.7856 15.5105 27.7856C14.1244 27.7856 13.2928 26.7877 13.2928 26.7877L9.80009 30.5577L9.96639 30.724L10.9089 29.6705C12.0731 30.724 12.7384 30.8348 13.6255 30.8903V39.9271L7.36067 28.4509C6.75082 27.5084 5.86378 26.6768 4.47777 26.6768C2.86999 26.6768 1.70574 28.0628 1.53942 29.227C1.37309 30.5577 1.53942 30.8903 1.53942 30.8903C1.53942 30.8903 1.76118 29.3934 2.70367 29.3934C3.53528 29.3934 3.81248 29.8369 4.20056 30.3913V34.0504C3.31352 34.1058 1.20678 34.2167 1.04045 36.5452C1.04045 37.4322 1.59486 38.3193 2.09382 38.5965C2.70367 38.9846 3.20263 38.9846 3.20263 38.9846C3.20263 38.9846 2.48191 38.5965 2.70367 37.8204C2.92543 37.1551 4.20056 37.0442 4.256 37.3214V41.9784C3.53528 41.9784 1.48398 42.0338 0.430608 43.9188C-0.179238 45.0276 -0.123798 46.3028 0.486048 47.1898C1.04045 47.9659 2.14926 48.9084 4.03424 48.5758Z" fill="#00084D"></path><path d="M22.661 39.0404L19.7781 40.9253V34.7159L22.661 39.0404ZM22.5501 33.0528L19.5563 34.7714L16.9506 36.2129V43.4201L15.8972 44.2518L16.0636 44.4181L17.1169 43.5865L20.1662 46.4139L25.8211 42.0896L25.7102 41.9233L22.5501 44.3071L19.9999 41.9787V41.0917L25.1558 37.4326L22.5501 33.0528Z" fill="#00084D"></path><path d="M30.5342 46.58L27.7623 44.3624L26.5426 45.1941L26.4317 45.0277L27.6514 44.1407V37.8759C27.7068 35.3257 25.212 35.9355 25.3783 33.2189C25.4338 31.9992 26.6534 31.1121 27.2633 30.8349C27.9286 30.5023 28.5939 30.5023 28.5939 30.5023C28.5939 30.5023 27.4296 31.1676 27.7068 32.1656C28.1504 33.7179 30.8115 33.8287 30.8669 35.88V42.9764L32.5856 44.5287L33.0845 44.1407V36.4345L32.3084 35.381L35.0805 32.9971L37.6306 35.1593L36.4665 36.1572V42.9764L39.0167 44.8614L39.4602 44.5842V36.4345L38.4068 35.4365L41.1789 32.9971L43.7845 35.0484L44.838 34.1614L44.9488 34.3277L42.6204 36.3235V42.9764L36.6882 46.5246L33.639 44.2516L30.5342 46.58Z" fill="#00084D"></path><path d="M69.1206 42.3111L72.0034 44.8059V37.1552L69.1206 34.6049V42.3111ZM75.2745 36.0464L76.2724 35.1594L76.4387 35.3257L75.219 36.2127V43.3645L72.3361 45.0278L69.6749 46.5801L66.2931 43.8081L65.406 44.5842L65.2397 44.4179L66.404 43.6418V35.8801H66.2377L69.176 34.4386L71.7262 32.9971L75.2745 36.0464Z" fill="#00084D"></path><path d="M81.983 35.3259L84.1452 33.1636C84.1452 33.1636 84.4224 33.4409 84.6996 33.5518C84.8659 33.6071 85.5312 33.9398 86.0856 33.6071C86.4182 33.4409 86.4737 33.3854 86.8064 33.0528C86.8617 34.7159 86.0302 35.8802 85.0322 36.3792C84.5887 36.6009 83.1473 36.9336 81.8166 35.4367V43.143L83.4244 44.3071L84.5887 43.4201L84.6996 43.5865L81.1514 46.4694L78.4348 44.0854L77.4369 44.9725L77.2705 44.8061L78.4903 43.531V36.9336L77.6032 35.4921L76.6053 36.3237L76.439 36.1574L79.8763 33.1636L81.983 35.3259Z" fill="#00084D"></path><path d="M91.074 38.541L95.0656 32.9416C95.0656 32.9416 95.6203 33.5514 96.5073 33.7732C97.7268 34.1058 98.836 32.9416 98.836 32.9416C98.6138 34.4384 97.8379 36.1571 96.2295 36.4343C94.7888 36.656 93.4582 35.6027 93.4582 35.6027L93.1805 35.9908L98.7249 44.0851L99.8332 43.1426L99.9999 43.3089L96.1749 46.5245L91.074 38.541Z" fill="#00084D"></path><path d="M87.9695 31.0012C87.9695 29.7815 87.2488 29.0607 86.5835 29.1162L90.7415 26.1779V42.9208L92.0721 44.0851L92.9592 43.3643L93.1258 43.5307L89.6327 46.4691L87.2488 44.3068L86.3063 45.1385L86.1399 44.9721L88.0249 43.5862V31.0012H87.9695Z" fill="#00084D"></path><path d="M59.8058 35.7132C59.8058 35.7132 59.3068 36.2677 58.5862 36.2677C57.81 36.2677 57.4773 35.7132 57.4773 35.7132V37.9863C57.4773 37.9863 57.81 37.4319 58.5862 37.4319C59.3623 37.4319 59.8058 37.9308 59.8058 37.9308V35.7132ZM59.695 30.8344L58.309 29.393L57.4773 30.0028V35.3805C57.4773 35.3805 57.9763 35.9904 58.7525 35.9904C59.5286 35.9904 59.695 35.3805 59.695 35.3805V30.8344ZM57.4773 46.0252C57.4773 46.0252 58.4753 46.3024 59.2515 45.6925C60.083 45.0272 59.695 44.1402 59.695 44.1402V38.3743C59.695 38.3743 59.4732 37.7645 58.7525 37.7645C57.9763 37.7645 57.4773 38.3743 57.4773 38.3743V46.0252ZM51.3789 30.7236C51.3789 29.6148 50.8799 28.9495 50.1591 28.9495C49.0504 28.9495 48.7731 30.4464 48.7731 30.4464C48.7731 30.4464 48.5514 29.2821 49.6048 28.2288C50.1591 27.6189 51.2126 26.7873 52.8757 27.1753C54.5944 27.5635 55.2597 28.8386 55.2597 30.0028V45.5816C55.5523 45.6527 55.8483 45.7082 56.1467 45.7479C56.6457 45.8589 56.9229 45.9697 56.9229 45.9697V27.2308H57.4773V29.7811L60.8592 27.0645L63.4094 29.2821L64.6291 28.2842L64.7401 28.4505L63.5204 29.5039V43.9739C63.4649 44.9164 63.2986 45.8589 62.3561 46.4132C60.3048 47.5775 57.81 46.2469 55.5924 45.9142C53.9291 45.6925 51.3789 45.3599 50.7136 46.8567C50.4918 47.3557 50.4918 48.0765 51.268 48.5754C52.7649 49.5179 59.4178 46.9677 61.6908 47.9655C63.7421 48.908 63.7421 50.405 63.4649 51.4028C62.9105 53.2878 60.4157 53.6759 60.4157 53.6759C60.4157 53.6759 61.6354 53.0106 61.3028 51.8464C61.1364 51.292 60.7483 51.1257 59.4178 51.2366C56.5903 51.5692 53.1529 52.8998 50.8799 51.9573C49.7156 51.4583 48.8841 50.0723 48.9395 48.6309C48.995 46.635 51.4343 45.8034 51.4343 45.8034V38.319C51.3789 38.0417 50.1038 38.0972 49.7711 38.6516C49.3276 39.4832 50.3255 39.8713 50.3255 39.8713C50.3255 39.8713 49.5493 39.9821 48.8841 39.2615C48.5514 38.9288 47.8861 37.6537 48.7731 36.434C49.4939 35.436 50.3809 35.2697 51.4898 35.1588L51.3789 30.7236Z" fill="#00084D"></path></g><defs><clipPath id="clip0_11079_10074"><rect width="100" height="77.8704" fill="white"></rect></clipPath></defs></svg> 