<?xml version="1.0" encoding="UTF-8"?> <svg xmlns="http://www.w3.org/2000/svg" width="150" height="60" viewBox="0 0 150 60" fill="none"><mask id="mask0_11079_10038" style="mask-type:luminance" maskUnits="userSpaceOnUse" x="0" y="0" width="150" height="59"><path d="M150 0H0V58.9286H150V0Z" fill="white"></path></mask><g mask="url(#mask0_11079_10038)"><path fill-rule="evenodd" clip-rule="evenodd" d="M7.55814 15.1506C7.55814 9.75311 9.78751 6.93707 12.9556 6.93707C16.4757 6.93707 18.353 9.40111 18.353 15.1506C18.353 20.9 16.3583 23.4813 13.0729 23.4813C9.55284 23.4813 7.55814 21.0173 7.55814 15.1506ZM1.33936 15.3852C1.33936 23.2467 5.4461 28.5268 12.8382 28.5268C19.7611 28.5268 24.5718 23.4813 24.5718 15.1506C24.5718 7.75842 20.6998 2.00897 13.0729 2.00897C5.79811 2.00897 1.33936 7.52374 1.33936 15.3852ZM40.2947 28.0575H43.6975C44.5189 28.0575 44.7534 27.7054 44.7534 27.0016V16.3239C44.7534 12.3345 42.9936 9.75312 39.0041 9.75312C36.8921 9.75312 34.78 10.5745 33.1373 11.8652L33.02 11.0438C32.9027 10.3398 32.5507 10.2225 31.964 10.2225H28.9133C28.0919 10.2225 27.8572 10.5745 27.8572 11.2785V27.1188C27.8572 27.7054 28.3265 28.0575 28.9133 28.0575H32.3159C33.02 28.0575 33.3721 27.7054 33.3721 27.0016V16.0893C34.428 15.2679 35.9533 14.6813 37.1266 14.6813C38.8868 14.6813 39.2387 15.7371 39.2387 17.2627V27.0016C39.2387 27.7054 39.4734 28.0575 40.2947 28.0575ZM57.1912 13.8599C55.3137 13.8599 54.1404 15.3852 53.9058 17.0279H60.0072C60.0072 15.5025 59.0684 13.8599 57.1912 13.8599ZM64.114 20.5481H53.7884C54.2578 22.8948 56.2525 24.1854 58.4819 24.1854C60.1246 24.1854 61.65 23.8334 63.0579 23.2467C63.1752 23.1293 63.2926 23.1293 63.5272 23.1293C63.8793 23.1293 63.9966 23.3641 64.114 23.5988C64.1586 23.822 64.2712 24.215 64.3936 24.6423C64.5927 25.3378 64.818 26.1241 64.818 26.4148C64.818 26.8035 64.5764 26.9509 64.2934 27.1234C64.2347 27.1591 64.1744 27.1959 64.114 27.2361C62.1193 28.1749 59.6552 28.5268 57.4258 28.5268C51.5591 28.5268 47.9216 24.8895 47.9216 19.0225C47.9216 13.2732 51.7937 9.63578 57.4258 9.63578C59.7725 9.63578 61.7672 10.5745 63.1752 11.9825C65.0526 13.9772 65.4046 16.4413 65.4046 19.0225V19.492C65.4046 20.4307 65.0526 20.5481 64.114 20.5481ZM123.368 28.0575H126.654C127.475 28.0575 127.827 27.7054 127.71 27.0016V11.1612C127.71 10.4571 127.358 10.2225 126.654 10.2225H123.368C122.664 10.2225 122.195 10.4571 122.195 11.1612V27.0016C122.195 27.8228 122.547 28.0575 123.368 28.0575ZM122.078 5.29436C122.078 7.0544 123.603 7.99308 125.011 7.99308C126.419 7.99308 127.945 7.0544 127.945 5.29436C127.945 3.53433 126.537 2.47831 125.011 2.47831C123.603 2.47831 122.078 3.53433 122.078 5.29436ZM95.9119 28.0575H92.2744C91.3358 28.0575 91.1011 27.5881 91.1011 26.5321L90.7491 13.9773H90.6318L85.1171 27.2361C84.765 27.94 84.2957 28.0575 83.8264 28.0575H82.4182C81.7143 28.0575 81.3622 27.94 80.8929 27.2361L74.5568 13.9773H74.4394L74.2048 26.8842C74.2048 27.94 73.7354 28.0575 72.9141 28.0575H69.8633C69.0421 28.0575 68.5727 27.7054 68.5727 27.0016V26.8842L69.5114 3.769C69.5114 2.83032 69.9807 2.59565 70.6847 2.59565H73.3834C74.2048 2.59565 74.5568 2.94765 74.9089 3.53433L83.005 20.0786H83.1223L90.6318 3.53433C90.9837 2.94765 91.3358 2.59565 92.1571 2.59565H94.7386C95.4425 2.59565 95.6772 2.83032 95.7947 3.53433L96.968 27.0016C96.968 27.7054 96.6158 28.0575 95.9119 28.0575ZM111.987 15.5025C111.283 14.9159 110.109 14.2118 109.053 14.2118C107.293 14.2118 105.533 15.7371 105.533 19.14C105.533 21.3695 106.12 24.1854 108.936 24.1854C110.227 24.1854 111.635 23.2467 111.987 22.66V15.5025ZM118.206 28.0575H116.211C114.099 28.0575 113.16 27.4709 112.691 26.4148H112.574C111.635 27.5881 109.171 28.5268 107.411 28.5268C102.131 28.5268 99.6666 24.3027 99.6666 19.492C99.6666 13.0385 103.656 9.63578 107.763 9.63578C109.875 9.63578 111.518 10.5745 112.222 11.7478L112.339 10.9265C112.339 10.5745 112.691 10.2225 113.16 10.2225H116.446C116.915 10.2225 117.384 10.4571 117.384 11.0438V23.7161C117.384 24.0681 117.502 24.3027 117.971 24.3027H118.323C118.792 24.3027 119.144 24.5374 119.144 25.0068V27.1188C119.027 27.7054 118.675 28.0575 118.206 28.0575ZM148.127 28.0575H144.724C143.903 28.0575 143.668 27.7054 143.668 27.0016V17.2627C143.668 15.7373 143.315 14.6813 141.556 14.6813C140.382 14.6813 138.857 15.2679 137.801 16.0893V27.0016C137.801 27.7054 137.566 28.0575 136.745 28.0575H133.342C132.755 28.0575 132.286 27.7054 132.286 27.1188V11.2785C132.286 10.5745 132.521 10.2225 133.342 10.2225H136.393C136.98 10.2225 137.332 10.3398 137.448 11.0438L137.566 11.8652C139.208 10.5745 141.32 9.75312 143.432 9.75312C147.422 9.75312 149.182 12.3345 149.182 16.3239V27.0016C149.182 27.7054 148.947 28.0575 148.127 28.0575ZM130.174 58.5648H131.817C132.169 58.5648 132.403 58.33 132.286 57.8607V35.2149C132.286 34.7456 132.169 34.6282 131.817 34.6282H131.699L130.057 34.8629C129.705 34.9803 129.587 35.0977 129.587 35.567V57.8607C129.587 58.33 129.822 58.5648 130.174 58.5648ZM24.1025 37.2096C24.1025 37.6789 23.7504 37.7963 23.1639 37.7963H14.2464V45.1885H22.2251C22.6944 45.1885 22.9291 45.4231 22.9291 45.7752V46.9485C22.9291 47.4178 22.8118 47.5352 22.3425 47.5352H14.3636V57.7434C14.3636 58.33 14.2464 58.4474 13.6596 58.4474H11.8996C11.3129 58.4474 11.1956 58.33 11.1956 57.7434V36.0363C11.1956 35.567 11.3129 35.3323 11.7822 35.3323H23.6332C23.9851 35.3323 24.2198 35.4496 24.2198 35.8017V35.9191L24.1025 37.2096ZM28.9133 58.5648H27.3879C26.9184 58.5648 26.6839 58.33 26.6839 57.8609V42.9591C26.6839 42.4898 26.9184 42.255 27.3879 42.255H28.9133C29.3825 42.255 29.4998 42.4898 29.4998 42.9591V57.8609C29.4998 58.33 29.2652 58.5648 28.9133 58.5648ZM28.0919 39.9084C27.1532 39.9084 26.3319 39.3217 26.3319 38.2657C26.3319 37.327 27.1532 36.6229 28.0919 36.6229C29.0305 36.6229 29.8519 37.2096 29.8519 38.2657C29.8519 39.3217 28.9133 39.9084 28.0919 39.9084ZM45.6922 58.5648H47.335C47.8043 58.5648 48.0389 58.33 47.9216 57.7434V47.8871C47.9216 44.2498 46.3962 41.9031 42.5241 41.9031C40.5296 41.9031 38.5348 42.6071 37.0094 43.8978V42.8418C37.0094 42.3725 36.7747 42.255 36.4228 42.255H34.8973C34.428 42.255 34.3107 42.4898 34.3107 42.9591V57.9781C34.3107 58.4474 34.5454 58.6821 34.8973 58.6821H36.5401C36.8921 58.6821 37.1266 58.4474 37.1266 57.9781V46.3618C38.3001 45.3059 40.2947 44.3671 41.8203 44.3671C44.5189 44.3671 45.1057 46.1271 45.1057 48.4739V57.8609C45.1057 58.33 45.2229 58.5648 45.6922 58.5648ZM63.0579 46.5964C62.2365 45.0711 60.5939 44.1324 58.9511 44.1324C56.3698 44.1324 54.3751 46.4792 54.3751 50.4686C54.3751 54.2234 56.1351 56.4527 58.4819 56.4527C60.5939 56.4527 62.3539 54.6927 62.9407 53.0499V46.5964H63.0579ZM66.93 58.5648H65.5219C63.9966 58.5648 63.2926 57.3914 63.2926 56.1007H63.1752C62.3539 57.626 60.1246 58.9167 58.1298 58.9167C53.4364 58.9167 51.4416 54.9274 51.4416 50.7032C51.4416 45.0711 54.7271 41.9031 58.5991 41.9031C60.2418 41.9031 62.1193 42.6071 63.0579 44.0152V42.9591C63.0579 42.6071 63.2926 42.3725 63.6447 42.3725H65.17C65.5219 42.3725 65.7566 42.6071 65.7566 42.9591V54.81C65.7566 55.6314 65.7566 56.1007 65.874 56.3353C65.9914 56.57 66.2259 56.6873 66.4607 56.6873H66.6952C67.0473 56.6873 67.1647 56.8048 67.1647 57.1567V58.33C67.3994 58.4474 67.2821 58.5648 66.93 58.5648ZM82.1836 58.5648H83.709C84.1783 58.5648 84.2957 58.33 84.413 57.7434V47.8871C84.413 44.2498 82.8876 41.9031 79.0155 41.9031C77.0209 41.9031 75.0262 42.6071 73.5008 43.8978V42.8418C73.5008 42.3725 73.2661 42.255 72.9141 42.255H71.3889C70.9194 42.255 70.8021 42.4898 70.8021 42.9591V57.9781C70.8021 58.4474 71.0368 58.6821 71.3889 58.6821H73.0315C73.3834 58.6821 73.6182 58.4474 73.6182 57.9781V46.3618C74.7915 45.3059 76.7861 44.3671 78.3116 44.3671C81.0103 44.3671 81.5971 46.1271 81.5971 48.4739V57.8609C81.5971 58.33 81.7143 58.5648 82.1836 58.5648ZM100.253 57.9781C98.8453 58.682 97.2026 58.9167 95.6772 58.9167C90.3972 58.9167 87.8157 55.5139 87.8157 50.4686C87.8157 45.5404 90.8665 41.9031 95.9119 41.9031C97.32 41.9031 99.08 42.255 100.253 42.8418C100.488 42.9591 100.605 43.0764 100.605 43.311C100.605 43.361 100.605 43.3896 100.596 43.4152C100.584 43.4496 100.556 43.4784 100.488 43.5459L100.253 44.6018C100.232 44.6449 100.214 44.6839 100.198 44.7192C100.128 44.8756 100.093 44.9538 99.9012 44.9538C99.784 44.9538 99.6666 44.9538 99.5493 44.8366C98.4933 44.3671 97.32 44.0152 96.0293 44.0152C92.8612 44.0152 90.7491 46.3618 90.7491 50.2339C90.7491 53.6367 92.2744 56.6873 95.7947 56.6873C97.2026 56.6873 98.4933 56.3353 99.5493 55.866C99.6666 55.866 99.784 55.7488 99.784 55.7488C99.9012 55.7488 100.019 55.866 100.136 56.1007L100.488 57.0395C100.488 57.0981 100.517 57.1567 100.547 57.2154C100.576 57.2739 100.605 57.3327 100.605 57.3914C100.605 57.7434 100.605 57.7434 100.253 57.9781ZM104.477 58.5648H106.003C106.355 58.5648 106.589 58.33 106.589 57.8609V42.9591C106.589 42.4898 106.472 42.255 106.003 42.255H104.477C104.008 42.255 103.773 42.4898 103.773 42.9591V57.8609C103.773 58.33 104.008 58.5648 104.477 58.5648ZM103.421 38.2657C103.421 39.3217 104.243 39.9084 105.181 39.9084C106.003 39.9084 106.942 39.3217 106.942 38.2657C106.942 37.2096 106.12 36.6229 105.181 36.6229C104.243 36.6229 103.421 37.327 103.421 38.2657ZM121.961 46.5964C121.139 45.0711 119.496 44.1324 117.854 44.1324C115.272 44.1324 113.278 46.4792 113.278 50.4686C113.278 54.2234 115.038 56.4527 117.384 56.4527C119.496 56.4527 121.257 54.6927 121.843 53.0499V46.5964H121.961ZM125.832 58.5648H124.425C122.899 58.5648 122.195 57.3914 122.195 56.1007H122.078C121.257 57.626 119.027 58.9167 117.032 58.9167C112.339 58.9167 110.344 54.9274 110.344 50.7032C110.344 45.0711 113.63 41.9031 117.502 41.9031C119.144 41.9031 121.022 42.6071 121.961 44.0152V42.9591C121.961 42.6071 122.195 42.3725 122.547 42.3725H124.072C124.425 42.3725 124.659 42.6071 124.659 42.9591V54.81C124.659 55.6314 124.659 56.1007 124.777 56.3353C124.894 56.57 125.128 56.6873 125.363 56.6873H125.598C125.95 56.6873 126.067 56.8048 126.067 57.1567V58.33C126.302 58.4474 126.185 58.5648 125.832 58.5648ZM136.745 55.3967H136.98C137.332 55.3967 137.566 55.5139 137.448 55.7488C137.448 56.1007 137.214 56.2181 136.98 56.2181H136.745V55.3967ZM137.684 57.3914H138.035L137.448 56.4527C137.684 56.3353 137.918 56.1007 137.918 55.7488C137.918 55.162 137.448 55.0446 136.98 55.0446H136.509C136.452 55.0446 136.422 55.0446 136.408 55.0595C136.393 55.0741 136.393 55.1034 136.393 55.162V57.2741C136.393 57.3327 136.393 57.3621 136.408 57.3768C136.422 57.3914 136.452 57.3914 136.509 57.3914H136.745C136.862 57.3914 136.862 57.2741 136.862 57.2741V56.4527H137.096L137.566 57.2741C137.566 57.3327 137.566 57.3621 137.581 57.3768C137.596 57.3914 137.625 57.3914 137.684 57.3914ZM135.22 56.2181C135.22 55.162 136.041 54.2232 137.214 54.2232C138.271 54.2232 139.208 55.162 139.208 56.2181C139.208 57.2741 138.387 58.2128 137.214 58.2128C136.041 58.2128 135.22 57.2741 135.22 56.2181ZM134.75 56.2181C134.75 57.626 135.806 58.6821 137.214 58.6821C138.505 58.6821 139.56 57.626 139.678 56.2181C139.678 54.81 138.622 53.7541 137.214 53.7541C135.806 53.7541 134.75 54.81 134.75 56.2181Z" fill="#00084D"></path></g></svg> 