<?xml version="1.0" encoding="UTF-8"?> <svg xmlns="http://www.w3.org/2000/svg" width="150" height="45" viewBox="0 0 150 45" fill="none"><g clip-path="url(#clip0_11079_10050)"><mask id="mask0_11079_10050" style="mask-type:luminance" maskUnits="userSpaceOnUse" x="0" y="0" width="150" height="45"><path d="M150 0H0V44.64H150V0Z" fill="white"></path></mask><g mask="url(#mask0_11079_10050)"><path d="M120.633 37.4104H30L37.2289 44.6393L120.633 37.4104ZM135.181 32.8019V18.3442C135.181 15.6333 137.078 13.3742 139.789 13.3742C142.5 13.3742 144.397 15.6333 144.397 18.3442V32.8019H150V18.3442C150 12.3803 145.933 7.59111 139.969 7.59111C137.259 7.59111 135.181 9.12725 135.181 9.12725V8.13328H129.578V32.7115H135.181V32.8019ZM116.657 7.50075C110.151 7.50075 105.542 13.1935 105.542 20.4225C105.542 28.0128 111.325 33.3442 117.199 33.3442C120.181 33.3442 123.886 32.3501 127.048 27.8321L122.078 24.9406C118.283 30.5429 111.868 27.7417 111.145 22.0489H127.229C128.675 13.3742 122.982 7.50075 116.657 7.50075ZM121.536 17.2597H111.506C112.681 11.567 120.452 11.2056 121.536 17.2597Z" fill="#00084D"></path><path d="M103.735 26.9285C103.193 27.29 102.56 27.561 101.837 27.561C100.934 27.561 99.217 26.8382 99.217 24.579V14.0068H104.006V8.13331H99.217V1.98872H93.6145V8.13331H90.6325V14.0068H93.6145V24.579C93.6145 30.0911 97.7711 33.3442 101.928 33.3442C103.464 33.3442 105.633 32.8019 107.349 31.8081L103.735 26.9285ZM83.1325 8.13331V22.5911C83.1325 25.3019 81.235 27.561 78.5242 27.561C75.8132 27.561 73.9157 25.3019 73.9157 22.5911V8.13331H68.3132V22.5911C68.3132 28.555 72.3796 33.3442 78.3434 33.3442C81.0542 33.3442 83.1325 31.8081 83.1325 31.8081V32.7117H88.735V8.13331H83.1325Z" fill="#00084D"></path><path d="M57.8315 19.6996L67.4098 8.13328H59.6387L52.8616 16.7176V0.000746012H47.1688V32.8019H52.8616V22.6815L61.1748 32.8019H68.9459L57.8315 19.6996ZM38.4037 8.13328V9.21761C36.6869 8.13328 35.2411 7.50075 33.1627 7.50075C26.8375 7.50075 21.958 13.2839 21.958 20.4225C21.958 27.561 26.7472 33.3442 33.1627 33.3442C35.2411 33.3442 36.7772 32.7115 38.4037 31.6272V32.7115H44.0062V8.13328H38.4037ZM33.0725 27.4706C29.9098 27.4706 27.6508 24.3983 27.6508 20.5128C27.6508 16.6272 29.9098 13.555 33.0725 13.555C36.2351 13.555 38.4037 16.6272 38.4037 20.5128C38.4941 24.3983 36.2351 27.4706 33.0725 27.4706Z" fill="#00084D"></path><path d="M5.8735 32.8019V23.2236H9.93976L17.0783 32.7117H24.3976L15.7229 21.2357C18.4338 19.3382 20.1506 16.1754 20.1506 12.561C20.1506 6.68753 15.3614 1.98872 9.57832 1.98872H0V32.7117H5.8735V32.8019ZM5.8735 7.86222H9.66868C12.2892 7.86222 14.4578 10.0309 14.4578 12.6514C14.4578 15.2718 12.2892 17.4406 9.66868 17.4406H5.8735V7.86222Z" fill="#00084D"></path></g></g><defs><clipPath id="clip0_11079_10050"><rect width="150" height="44.7222" fill="white"></rect></clipPath></defs></svg> 