<?xml version="1.0" encoding="UTF-8"?> <svg xmlns="http://www.w3.org/2000/svg" width="150" height="40" viewBox="0 0 150 40" fill="none"><g clip-path="url(#clip0_11079_10131)"><path d="M30.5702 11.5006C31.7646 11.5006 32.7327 10.5324 32.7327 9.33811C32.7327 8.14379 31.7646 7.1756 30.5702 7.1756C29.3759 7.1756 28.4077 8.14379 28.4077 9.33811C28.4077 10.5324 29.3759 11.5006 30.5702 11.5006Z" fill="#00084D"></path><path d="M23.4928 11.5006C24.6872 11.5006 25.6554 10.5324 25.6554 9.33811C25.6554 8.14379 24.6872 7.1756 23.4928 7.1756C22.2985 7.1756 21.3303 8.14379 21.3303 9.33811C21.3303 10.5324 22.2985 11.5006 23.4928 11.5006Z" fill="#00084D"></path><path d="M16.4154 11.5006C17.6098 11.5006 18.578 10.5324 18.578 9.33811C18.578 8.14379 17.6098 7.1756 16.4154 7.1756C15.2211 7.1756 14.2529 8.14379 14.2529 9.33811C14.2529 10.5324 15.2211 11.5006 16.4154 11.5006Z" fill="#00084D"></path><path d="M9.23991 11.5006C10.4342 11.5006 11.4024 10.5324 11.4024 9.33811C11.4024 8.14379 10.4342 7.1756 9.23991 7.1756C8.04558 7.1756 7.07739 8.14379 7.07739 9.33811C7.07739 10.5324 8.04558 11.5006 9.23991 11.5006Z" fill="#00084D"></path><path d="M2.16252 11.5006C3.35684 11.5006 4.32503 10.5324 4.32503 9.33811C4.32503 8.14379 3.35684 7.1756 2.16252 7.1756C0.968192 7.1756 0 8.14379 0 9.33811C0 10.5324 0.968192 11.5006 2.16252 11.5006Z" fill="#00084D"></path><path d="M9.23991 25.557C10.4342 25.557 11.4024 24.5888 11.4024 23.3945C11.4024 22.2002 10.4342 21.232 9.23991 21.232C8.04558 21.232 7.07739 22.2002 7.07739 23.3945C7.07739 24.5888 8.04558 25.557 9.23991 25.557Z" fill="#00084D"></path><path d="M2.16252 18.578C3.35684 18.578 4.32503 17.6098 4.32503 16.4154C4.32503 15.2211 3.35684 14.2529 2.16252 14.2529C0.968192 14.2529 0 15.2211 0 16.4154C0 17.6098 0.968192 18.578 2.16252 18.578Z" fill="#00084D"></path><path d="M23.4928 4.32503C24.6872 4.32503 25.6554 3.35684 25.6554 2.16252C25.6554 0.968192 24.6872 0 23.4928 0C22.2985 0 21.3303 0.968192 21.3303 2.16252C21.3303 3.35684 22.2985 4.32503 23.4928 4.32503Z" fill="#00084D"></path><path d="M16.4154 4.32503C17.6098 4.32503 18.578 3.35684 18.578 2.16252C18.578 0.968192 17.6098 0 16.4154 0C15.2211 0 14.2529 0.968192 14.2529 2.16252C14.2529 3.35684 15.2211 4.32503 16.4154 4.32503Z" fill="#00084D"></path><path d="M9.23991 4.32503C10.4342 4.32503 11.4024 3.35684 11.4024 2.16252C11.4024 0.968192 10.4342 0 9.23991 0C8.04558 0 7.07739 0.968192 7.07739 2.16252C7.07739 3.35684 8.04558 4.32503 9.23991 4.32503Z" fill="#00084D"></path><path d="M2.16252 32.4378C3.35684 32.4378 4.32503 31.4696 4.32503 30.2752C4.32503 29.0809 3.35684 28.1127 2.16252 28.1127C0.968192 28.1127 0 29.0809 0 30.2752C0 31.4696 0.968192 32.4378 2.16252 32.4378Z" fill="#00084D"></path><path d="M9.23991 32.4378C10.4342 32.4378 11.4024 31.4696 11.4024 30.2752C11.4024 29.0809 10.4342 28.1127 9.23991 28.1127C8.04558 28.1127 7.07739 29.0809 7.07739 30.2752C7.07739 31.4696 8.04558 32.4378 9.23991 32.4378Z" fill="#00084D"></path><path d="M16.4154 32.4378C17.6098 32.4378 18.578 31.4696 18.578 30.2752C18.578 29.0809 17.6098 28.1127 16.4154 28.1127C15.2211 28.1127 14.2529 29.0809 14.2529 30.2752C14.2529 31.4696 15.2211 32.4378 16.4154 32.4378Z" fill="#00084D"></path><path d="M23.4928 32.4378C24.6872 32.4378 25.6554 31.4696 25.6554 30.2752C25.6554 29.0809 24.6872 28.1127 23.4928 28.1127C22.2985 28.1127 21.3303 29.0809 21.3303 30.2752C21.3303 31.4696 22.2985 32.4378 23.4928 32.4378Z" fill="#00084D"></path><path d="M30.5702 32.4378C31.7646 32.4378 32.7327 31.4696 32.7327 30.2752C32.7327 29.0809 31.7646 28.1127 30.5702 28.1127C29.3759 28.1127 28.4077 29.0809 28.4077 30.2752C28.4077 31.4696 29.3759 32.4378 30.5702 32.4378Z" fill="#00084D"></path><path d="M9.23991 18.578C10.4342 18.578 11.4024 17.6098 11.4024 16.4154C11.4024 15.2211 10.4342 14.2529 9.23991 14.2529C8.04558 14.2529 7.07739 15.2211 7.07739 16.4154C7.07739 17.6098 8.04558 18.578 9.23991 18.578Z" fill="#00084D"></path><path d="M23.4928 25.557C24.6872 25.557 25.6554 24.5888 25.6554 23.3945C25.6554 22.2002 24.6872 21.232 23.4928 21.232C22.2985 21.232 21.3303 22.2002 21.3303 23.3945C21.3303 24.5888 22.2985 25.557 23.4928 25.557Z" fill="#00084D"></path><path d="M23.4928 18.578C24.6872 18.578 25.6554 17.6098 25.6554 16.4154C25.6554 15.2211 24.6872 14.2529 23.4928 14.2529C22.2985 14.2529 21.3303 15.2211 21.3303 16.4154C21.3303 17.6098 22.2985 18.578 23.4928 18.578Z" fill="#00084D"></path><path d="M30.5702 25.557C31.7646 25.557 32.7327 24.5888 32.7327 23.3945C32.7327 22.2002 31.7646 21.232 30.5702 21.232C29.3759 21.232 28.4077 22.2002 28.4077 23.3945C28.4077 24.5888 29.3759 25.557 30.5702 25.557Z" fill="#00084D"></path><path d="M9.23991 39.5151C10.4342 39.5151 11.4024 38.5469 11.4024 37.3526C11.4024 36.1583 10.4342 35.1901 9.23991 35.1901C8.04558 35.1901 7.07739 36.1583 7.07739 37.3526C7.07739 38.5469 8.04558 39.5151 9.23991 39.5151Z" fill="#00084D"></path><path d="M16.4154 39.5151C17.6098 39.5151 18.578 38.5469 18.578 37.3526C18.578 36.1583 17.6098 35.1901 16.4154 35.1901C15.2211 35.1901 14.2529 36.1583 14.2529 37.3526C14.2529 38.5469 15.2211 39.5151 16.4154 39.5151Z" fill="#00084D"></path><path d="M23.4928 39.5151C24.6872 39.5151 25.6554 38.5469 25.6554 37.3526C25.6554 36.1583 24.6872 35.1901 23.4928 35.1901C22.2985 35.1901 21.3303 36.1583 21.3303 37.3526C21.3303 38.5469 22.2985 39.5151 23.4928 39.5151Z" fill="#00084D"></path><path d="M66.1534 18.578L58.9778 17.4967C55.734 17.0053 54.6528 15.2359 54.6528 12.9751C54.6528 9.73134 56.8153 7.56882 61.9267 7.56882C67.333 7.56882 69.7904 10.2228 70.1836 14.1547H73.624C73.2308 8.45349 69.4955 4.61993 61.9267 4.61993C54.3579 4.61993 50.9175 8.25689 50.9175 12.9751C50.9175 17.3001 53.1783 19.7575 58.2897 20.5439L65.0722 21.6252C68.7091 22.215 70.2819 23.7877 70.2819 26.7366C70.2819 30.0787 68.5126 32.1429 62.5165 32.1429C55.8323 32.1429 53.5715 28.8991 53.4732 24.3775H49.9346C49.9346 30.0786 53.1783 34.8952 62.5165 34.8952C70.5768 34.8952 73.9188 31.7497 73.9188 26.2451C74.0171 21.6252 71.2648 19.3644 66.1534 18.578Z" fill="#00084D"></path><path d="M88.1719 5.40631L77.261 34.3054H80.898L83.6502 27.0315H93.9713C95.6424 27.0315 96.9202 25.7536 96.9202 24.0826L100.852 34.3054H104.489L93.4799 5.40631H88.1719ZM84.7315 23.9843L90.8259 8.06031L96.9202 23.9843H84.7315Z" fill="#00084D"></path><path d="M113.532 5.40631H109.994V34.3054H128.67V31.3565H113.532V5.40631Z" fill="#00084D"></path><path d="M125.819 5.40631V8.3552H136.14H139.679H150V5.40631H125.819Z" fill="#00084D"></path><path d="M139.679 34.3054V11.8938C139.679 9.9279 138.106 8.35516 136.14 8.35516V34.3054H139.679Z" fill="#00084D"></path></g><defs><clipPath id="clip0_11079_10131"><rect width="150" height="39.5151" fill="white"></rect></clipPath></defs></svg> 