<?xml version="1.0" encoding="UTF-8"?> <svg xmlns="http://www.w3.org/2000/svg" width="150" height="41" viewBox="0 0 150 41" fill="none"><g clip-path="url(#clip0_11079_10062)"><mask id="mask0_11079_10062" style="mask-type:luminance" maskUnits="userSpaceOnUse" x="0" y="0" width="150" height="41"><path d="M150 0H0V40.0068H150V0Z" fill="white"></path></mask><g mask="url(#mask0_11079_10062)"><path d="M0 0C0.127104 0.00423681 0.252796 0.0112982 0.3799 0.0112982C8.08242 0.0112982 15.7835 0.0112982 23.4861 0.0112982C23.6118 0.0112982 23.7374 0.0112982 23.8886 0.0112982V5.68015C23.7671 5.68015 23.6442 5.68015 23.5214 5.68015C20.8069 5.68015 18.094 5.68015 15.3796 5.68015C15.1254 5.68015 14.9978 5.80772 14.9969 6.06288C14.9969 14.1269 14.9969 22.191 14.9969 30.2565C14.9969 30.3907 14.9969 30.5249 14.9969 30.6788C14.8585 30.6858 14.754 30.6943 14.6481 30.6943C12.8517 30.6943 11.0553 30.6886 9.26025 30.7014C8.96368 30.7042 8.88458 30.6251 8.886 30.3271C8.89447 22.2729 8.89307 14.2174 8.89165 6.16314C8.89165 5.60671 8.92978 5.68015 8.40442 5.67874C5.60247 5.67592 2.80053 5.67592 0 5.6745V0Z" fill="#00084D"></path><path d="M128.507 9.10349H134.02V11.5961C134.156 11.4521 134.232 11.3758 134.305 11.2939C136.127 9.25318 138.422 8.43831 141.125 8.6459C142.794 8.77442 144.342 9.24613 145.719 10.2079C147.458 11.421 148.594 13.0875 149.224 15.0831C150.312 18.5417 150.303 22.0074 148.933 25.3856C147.642 28.5758 145.279 30.5643 141.829 31.0925C139.469 31.454 137.233 31.1124 135.311 29.5546C135.003 29.3046 134.725 29.0193 134.392 28.7114V40.0068H128.509V9.10349H128.507ZM144.124 19.5161C144.075 19.1235 144.024 18.3736 143.885 17.6393C143.66 16.4572 143.189 15.3825 142.257 14.5746C139.821 12.4604 135.889 13.442 134.76 16.4939C133.944 18.7026 133.964 20.9722 134.736 23.1965C135.346 24.9519 136.585 26.0338 138.477 26.2499C140.55 26.4857 142.451 25.7244 143.422 23.5793C143.955 22.4 144.092 21.1474 144.124 19.5175V19.5161Z" fill="#00084D"></path><path d="M50.0253 28.5025V30.659H44.502V0.0268555H50.3657V11.3293C50.4857 11.2177 50.5479 11.1683 50.5988 11.1089C52.2765 9.16565 54.4472 8.48071 56.9426 8.63182C58.28 8.71372 59.5638 9.01878 60.7586 9.643C62.9674 10.7968 64.3656 12.6356 65.1875 14.9404C65.9163 16.9854 66.0758 19.101 65.9176 21.2504C65.7863 23.0369 65.3867 24.7557 64.5378 26.3444C63.0422 29.1408 60.7133 30.7508 57.5556 31.1307C56.1475 31.3001 54.7522 31.2381 53.3922 30.7875C52.1664 30.3808 51.1481 29.6704 50.3036 28.7015C50.2358 28.6239 50.1679 28.5463 50.1001 28.47C50.0763 28.4813 50.0508 28.4925 50.0268 28.5039L50.0253 28.5025ZM60.1697 19.8565C60.092 19.1701 60.0496 18.4782 59.931 17.8003C59.7361 16.7001 59.3068 15.7044 58.5526 14.85C56.8636 12.9322 52.2115 12.6568 50.8007 16.436C49.9561 18.6971 49.9618 21.0047 50.7879 23.27C51.4122 24.9817 52.6438 26.0338 54.4951 26.2471C56.5472 26.4843 58.4467 25.7189 59.4197 23.5919C59.9621 22.4071 60.1189 21.1488 60.1711 19.8565H60.1697Z" fill="#00084D"></path><path d="M35.9691 27.9389C35.5382 28.4135 35.1725 28.8696 34.7531 29.2679C33.6035 30.3623 32.2025 30.9372 30.6404 31.1222C29.0249 31.3143 27.4234 31.2408 25.8713 30.7126C23.6186 29.9486 22.342 28.3711 22.0327 26.0182C21.876 24.8235 21.917 23.6428 22.4141 22.5186C23.0496 21.0837 24.202 20.1898 25.5803 19.5401C27.0039 18.8693 28.5249 18.5304 30.0643 18.2705C31.8424 17.9697 33.6218 17.6817 35.3984 17.378C35.4917 17.3625 35.6442 17.241 35.6413 17.176C35.606 16.5067 35.6103 15.8244 35.4732 15.1748C35.2403 14.069 34.496 13.4053 33.3973 13.1609C32.4609 12.9533 31.5189 12.9449 30.5882 13.2005C29.2818 13.5578 28.5207 14.4419 28.3498 15.7835C28.3442 15.8301 28.3357 15.8782 28.3273 15.9417H22.5086C22.472 15.3542 22.575 14.7921 22.7177 14.2398C23.2642 12.1314 24.6214 10.7078 26.5421 9.77432C28.1224 9.00604 29.8129 8.69817 31.5514 8.62755C33.1063 8.56542 34.6499 8.66286 36.1653 9.06394C38.8768 9.78137 40.4727 11.5524 41.1181 14.2398C41.4232 15.5096 41.5093 16.8004 41.5121 18.0982C41.5178 22.174 41.5121 26.2512 41.5206 30.3271C41.5206 30.6011 41.4585 30.6957 41.1675 30.6943C39.5477 30.6815 37.9264 30.6829 36.3066 30.6943C36.0382 30.6957 35.9577 30.6167 35.9647 30.3483C35.9817 29.5603 35.9704 28.7722 35.9704 27.9404L35.9691 27.9389ZM35.6117 21.1092C35.5467 21.1121 35.4789 21.1092 35.4125 21.119C33.9311 21.3619 32.4482 21.5922 30.971 21.8548C30.1829 21.9947 29.4104 22.2037 28.7339 22.6669C27.9163 23.2276 27.7171 24.0382 27.8371 24.9562C27.9543 25.8544 28.5207 26.3657 29.3723 26.593C30.1871 26.8105 31.0189 26.8472 31.8381 26.6876C35.0623 26.0564 35.9322 23.7643 35.6103 21.1105L35.6117 21.1092Z" fill="#00084D"></path><path d="M111.41 19.4696C111.39 21.8802 111.072 23.8193 110.183 25.6327C108.895 28.2609 106.824 29.9811 104.009 30.7564C101.473 31.4555 98.9282 31.4102 96.437 30.5262C93.731 29.5673 91.7849 27.7384 90.7328 25.0833C89.3177 21.5116 89.3092 17.8907 90.8924 14.3671C92.2425 11.3603 94.6575 9.58929 97.8675 8.90011C100.117 8.41853 102.354 8.49479 104.536 9.23623C107.848 10.3618 109.903 12.6949 110.886 16.0109C111.233 17.1816 111.41 18.5769 111.408 19.4696H111.41ZM105.514 19.2605C105.451 18.8496 105.387 18.0997 105.217 17.3723C104.697 15.1423 103.388 13.8374 101.291 13.5521C99.099 13.2541 97.1078 14.0761 96.211 16.3851C95.3254 18.6646 95.3396 21.0047 96.1842 23.2982C96.8097 24.9972 98.0497 26.0239 99.8857 26.2441C101.987 26.4971 103.847 25.6891 104.805 23.5919C105.385 22.3223 105.512 20.9708 105.512 19.2605H105.514Z" fill="#00084D"></path><path d="M88.5832 22.7233C88.3375 24.1767 87.8785 25.5126 87.1087 26.73C85.5962 29.1196 83.3932 30.4908 80.6435 30.9979C78.446 31.4032 76.2668 31.2972 74.1597 30.5064C71.1487 29.3765 69.2464 27.1932 68.2635 24.1696C67.789 22.7093 67.6139 21.2024 67.635 19.6743C67.6633 17.6632 68.0219 15.72 68.9654 13.9207C70.3889 11.2035 72.6287 9.54411 75.6157 8.89871C77.9558 8.39311 80.279 8.49479 82.5273 9.33368C85.623 10.4889 87.5014 12.7514 88.3375 15.9135C88.3869 16.1013 88.4236 16.2933 88.4632 16.4826C88.473 16.5292 88.473 16.5772 88.4815 16.6563C88.3714 16.6563 88.2754 16.6563 88.1807 16.6563C86.3942 16.6563 84.6076 16.6507 82.8211 16.6633C82.5797 16.6647 82.4907 16.5829 82.4087 16.3696C81.8354 14.8768 80.8369 13.8374 79.2029 13.5719C76.6382 13.1553 74.678 14.336 73.9294 16.8201C73.2446 19.0939 73.2446 21.3945 74.1893 23.6018C75.3347 26.2781 78.7255 27.1622 80.988 25.4293C81.81 24.7995 82.283 23.9352 82.5642 22.9593C82.6164 22.7771 82.6841 22.6895 82.8989 22.691C84.7051 22.7008 86.5114 22.6965 88.3162 22.6979C88.3925 22.6979 88.4689 22.7093 88.5818 22.7192L88.5832 22.7233Z" fill="#00084D"></path><path d="M119.511 30.6689H113.631V9.11056H119.146V12.1441C119.169 12.1526 119.19 12.1625 119.213 12.1709C119.263 12.089 119.317 12.0099 119.365 11.9266C120.087 10.6598 121.056 9.66557 122.457 9.16139C123.601 8.74902 124.773 8.77162 125.951 8.97074C126.023 8.98345 126.13 9.10067 126.131 9.16987C126.14 10.8957 126.136 12.6215 126.133 14.3472C126.133 14.374 126.113 14.401 126.1 14.4349C125.606 14.3896 125.113 14.3401 124.619 14.3021C123.855 14.2442 123.095 14.2794 122.363 14.5308C121.005 14.9969 120.263 16.0208 119.864 17.3385C119.607 18.1844 119.515 19.0557 119.512 19.9356C119.505 23.3774 119.509 26.819 119.508 30.2621C119.508 30.3864 119.508 30.5121 119.508 30.6703L119.511 30.6689Z" fill="#00084D"></path></g></g><defs><clipPath id="clip0_11079_10062"><rect width="150" height="40.1389" fill="white"></rect></clipPath></defs></svg> 