<?xml version="1.0" encoding="UTF-8"?> <svg xmlns="http://www.w3.org/2000/svg" width="125" height="56" viewBox="0 0 125 56" fill="none"><g clip-path="url(#clip0_11079_10090)"><mask id="mask0_11079_10090" style="mask-type:luminance" maskUnits="userSpaceOnUse" x="0" y="0" width="125" height="56"><path d="M125 0H0V55.0821H125V0Z" fill="white"></path></mask><g mask="url(#mask0_11079_10090)"><path d="M7.78475 23.6964C7.3553 24.9332 6.95351 26.0909 6.55227 27.2491C6.31586 27.9307 6.07565 28.6105 5.84737 29.2949C5.79097 29.4646 5.71453 29.5367 5.52311 29.5329C4.87299 29.5193 4.22231 29.5242 3.57219 29.5308C3.41874 29.5324 3.32764 29.5009 3.27343 29.3371C2.19656 26.0745 1.11428 22.8137 0.0336181 19.5527C0.0200624 19.5115 0.0157245 19.467 0 19.3905C0.0992274 19.3836 0.183815 19.3721 0.26786 19.3715C1.06276 19.3699 1.85766 19.3792 2.65203 19.365C2.85862 19.3612 2.92802 19.4415 2.9817 19.6227C3.50061 21.3686 4.02766 23.1118 4.55308 24.8562C4.58073 24.949 4.61435 25.0395 4.66803 25.1972C4.72225 25.0611 4.75696 24.9869 4.78244 24.9094C5.37184 23.1378 5.9634 21.3675 6.54413 19.5934C6.60541 19.4062 6.68944 19.3444 6.88411 19.3483C7.50713 19.3608 8.13068 19.3618 8.7537 19.3483C8.95921 19.344 9.0465 19.4052 9.11212 19.6058C9.67928 21.3464 10.26 23.0825 10.8375 24.8199C10.8738 24.93 10.915 25.0378 10.9801 25.2206C11.0777 24.9066 11.1552 24.6632 11.229 24.4186C11.7072 22.8299 12.1892 21.2422 12.6561 19.6502C12.7222 19.4248 12.8242 19.3624 13.0498 19.3662C13.8885 19.3797 14.728 19.3715 15.6112 19.3715C15.5793 19.4806 15.5581 19.5625 15.5315 19.6421C14.4677 22.8516 13.4016 26.061 12.3427 29.2721C12.2793 29.4652 12.1931 29.5395 11.9822 29.5345C11.3412 29.5193 10.6998 29.5231 10.0583 29.5329C9.88316 29.5356 9.81104 29.4755 9.75411 29.3106C9.14953 27.5635 8.53573 25.8198 7.9241 24.0749C7.88885 23.9745 7.84981 23.8753 7.78366 23.6975L7.78475 23.6964Z" fill="#00084D"></path><path d="M55.1828 37.4482C55.9788 38.6119 56.7558 39.7485 57.5567 40.9201C57.4384 40.9304 57.3631 40.9429 57.2877 40.9429C56.4028 40.9441 55.518 40.9381 54.633 40.9484C54.4361 40.9506 54.324 40.8811 54.2192 40.7206C53.6418 39.8362 53.0508 38.9611 52.4711 38.0783C52.3833 37.9444 52.2901 37.8794 52.123 37.8859C51.7993 37.8994 51.4746 37.8897 51.1183 37.8897V40.9191H48.341C48.3351 40.8155 48.3232 40.7109 48.3232 40.6062C48.322 37.4716 48.3248 34.3376 48.3171 31.203C48.3166 30.9518 48.3681 30.8607 48.6409 30.8635C50.1303 30.8771 51.621 30.8484 53.1099 30.8809C53.6993 30.8938 54.3044 30.9617 54.8705 31.1194C56.4684 31.5646 57.3035 32.7749 57.253 34.4303C57.2118 35.7794 56.5845 36.7391 55.3873 37.3399C55.3314 37.368 55.2772 37.3984 55.1833 37.4482H55.1828ZM51.1189 33.329V35.7598C51.9338 35.7241 52.7379 35.7408 53.5269 35.6378C54.1548 35.5559 54.4839 35.0679 54.4747 34.4687C54.4649 33.8647 54.1249 33.4028 53.4829 33.3452C52.7075 33.2759 51.9207 33.329 51.1189 33.329Z" fill="#00084D"></path><path d="M25.7166 29.5123V19.4719C25.7914 19.4638 25.8522 19.4507 25.9128 19.4513C27.6198 19.4557 29.3273 19.4361 31.0331 19.4763C32.0172 19.4995 32.938 19.7782 33.6824 20.4799C34.5288 21.278 34.7219 22.2904 34.6021 23.3857C34.4735 24.559 33.8245 25.3784 32.7818 25.9016C32.7184 25.9331 32.6566 25.9673 32.5611 26.0176C33.355 27.1796 34.14 28.3286 34.9501 29.5139C34.8216 29.5205 34.7447 29.528 34.6671 29.528C33.7822 29.5286 32.8968 29.5232 32.0118 29.5329C31.8274 29.5351 31.7179 29.4765 31.6171 29.3226C31.0396 28.4382 30.4476 27.563 29.87 26.6786C29.7648 26.517 29.6527 26.4346 29.4552 26.4526C29.2763 26.4688 29.0941 26.4536 28.9135 26.4564C28.445 26.4633 28.4733 26.3793 28.4727 26.8847C28.4711 27.671 28.4652 28.4572 28.4771 29.2428C28.4803 29.4652 28.4179 29.5383 28.1891 29.534C27.449 29.5199 26.7083 29.5292 25.9676 29.528C25.8884 29.528 25.8093 29.5188 25.7171 29.5134L25.7166 29.5123ZM28.4896 24.2468C29.2829 24.2468 30.0435 24.2993 30.7934 24.2316C31.4913 24.1682 31.8519 23.6932 31.8427 23.0457C31.8335 22.4011 31.4794 21.9618 30.7848 21.8988C30.0425 21.8322 29.291 21.8647 28.5432 21.8556C28.5296 21.8556 28.5155 21.875 28.4896 21.8946V24.2468Z" fill="#00084D"></path><path d="M54.9963 24.8546C54.9937 21.8279 56.9804 19.6031 59.6426 19.2989C61.5996 19.0756 63.3092 19.5896 64.6154 21.1067C67.19 24.0965 65.534 28.802 61.6473 29.5898C60.4403 29.8344 59.2484 29.7693 58.1206 29.2558C56.09 28.3308 55.0771 26.7145 54.9963 24.854V24.8546ZM63.0066 24.4614C63.0018 24.373 62.9985 24.2554 62.9893 24.1383C62.8364 22.2621 60.7889 21.1522 59.1573 22.0605C58.1402 22.6266 57.6224 23.922 57.9195 25.1566C58.2074 26.3528 59.1552 27.1758 60.2955 27.2186C61.8506 27.2772 63.0143 26.1066 63.0066 24.462V24.4614Z" fill="#00084D"></path><path d="M63.325 41.1891C60.866 41.1452 58.8072 39.6839 58.1332 37.4652C57.1908 34.3641 59.2464 31.1687 62.4623 30.741C64.1979 30.5099 65.7835 30.869 67.0875 32.0775C68.5976 33.4771 69.0873 35.241 68.584 37.2135C68.0739 39.2127 66.7183 40.443 64.7375 40.9706C64.2799 41.0926 63.7968 41.1192 63.325 41.1891ZM65.9168 35.9263C65.9168 35.8358 65.9212 35.7457 65.9163 35.6552C65.8166 33.7287 63.7148 32.5531 62.0595 33.4971C61.0889 34.0507 60.5933 35.2307 60.8102 36.4712C61.0818 38.0264 62.5751 38.9714 64.0896 38.5463C65.1875 38.2378 65.9244 37.1859 65.9174 35.9263H65.9168Z" fill="#00084D"></path><path d="M47.0659 32.1345C46.5154 32.7961 45.9857 33.4331 45.4484 34.0795C45.2819 33.9608 45.1312 33.8474 44.975 33.7422C44.2577 33.258 43.4666 33.0481 42.6103 33.1788C41.7243 33.3139 41.0954 33.8285 40.7055 34.6233C40.0842 35.8895 40.4366 37.502 41.527 38.2535C42.4944 38.9205 43.5365 38.9211 44.5873 38.4493C44.68 38.4075 44.7701 38.2546 44.7777 38.1472C44.802 37.8083 44.7868 37.4662 44.7868 37.0899H43.5435C43.0508 37.0899 42.8047 36.8389 42.805 36.3368C42.805 35.9572 42.8078 35.5782 42.8104 35.1986C42.8104 35.1726 42.8218 35.1465 42.8332 35.0994H47.4074C47.4123 35.1927 47.4204 35.2805 47.4204 35.3678C47.4216 36.6957 47.4177 38.0236 47.4248 39.3515C47.4258 39.5316 47.376 39.6487 47.2263 39.755C45.1702 41.2141 42.9504 41.6116 40.5971 40.6382C38.3669 39.7159 37.3513 37.5237 37.604 35.2735C37.8935 32.6995 40.044 30.7561 42.7654 30.6792C44.2702 30.6369 45.6435 30.9871 46.8359 31.9393C46.9059 31.9951 46.9726 32.0553 47.0659 32.1345Z" fill="#00084D"></path><path d="M86.9784 18.0811H84.2017V8.0369H86.9709C86.9709 8.14642 86.9709 8.24294 86.9709 8.34C86.9709 9.39679 86.9763 10.4541 86.9665 11.5109C86.9644 11.7257 87.0127 11.8118 87.2474 11.8092C88.2679 11.7972 89.2883 11.8043 90.3088 11.8033C90.388 11.8033 90.4676 11.7924 90.5686 11.7853V8.04394H93.329V18.0767H90.5799V14.2692H86.9779V18.0811H86.9784Z" fill="#00084D"></path><path d="M51.3253 19.4616H54.0723V29.5068H51.3465V25.7091H47.7196V29.5048H44.9553V19.4676H47.6914C47.6969 19.5858 47.7056 19.691 47.7056 19.7962C47.7066 20.8535 47.7072 21.9103 47.7056 22.9676C47.7056 23.1162 47.7082 23.2257 47.9138 23.2247C49.0062 23.2166 50.0994 23.2203 51.192 23.2186C51.2267 23.2186 51.2609 23.2063 51.3253 23.1943V19.4626V19.4616Z" fill="#00084D"></path><path d="M97.1859 15.7257H102.589V18.0805H94.4656V8.0412H102.522V10.3581C102.416 10.3646 102.303 10.3766 102.19 10.3766C100.627 10.3777 99.0648 10.382 97.5026 10.3722C97.2607 10.3706 97.1631 10.4281 97.1805 10.6862C97.2027 11.0099 97.1983 11.3369 97.1815 11.6611C97.1702 11.8824 97.2548 11.9323 97.4619 11.9311C98.8885 11.9236 100.316 11.9268 101.742 11.9268C101.831 11.9268 101.92 11.9268 102.026 11.9268V14.0811C101.922 14.0881 101.818 14.1006 101.713 14.1006C100.305 14.1017 98.8961 14.1066 97.4873 14.0967C97.2516 14.0951 97.1702 14.1591 97.1805 14.4015C97.1989 14.832 97.1859 15.2636 97.1859 15.7241V15.7257Z" fill="#00084D"></path><path d="M94.3235 23.3618V25.5329C94.2091 25.5329 94.1049 25.5329 94.0003 25.5329C92.5916 25.5329 91.1829 25.5373 89.7737 25.5286C89.5556 25.5274 89.4695 25.5801 89.4787 25.8132C89.496 26.2524 89.4835 26.6933 89.4835 27.1612H94.8869V29.5145C94.7942 29.5187 94.6993 29.527 94.6044 29.527C92.0847 29.5274 89.5649 29.5248 87.0457 29.5324C86.818 29.5329 86.7345 29.4878 86.7356 29.2374C86.7443 26.0751 86.7409 22.9128 86.7409 19.7512C86.7409 19.6627 86.7486 19.5749 86.7534 19.4686H94.8235V21.7948C94.7084 21.7948 94.6027 21.7948 94.4975 21.7948C92.9261 21.7948 91.3548 21.7996 89.7834 21.7899C89.5465 21.7883 89.4635 21.8507 89.4781 22.093C89.4982 22.4259 89.4971 22.7621 89.4781 23.095C89.4657 23.3206 89.5556 23.3667 89.7601 23.3656C91.1688 23.3586 92.5775 23.3618 93.9868 23.3618C94.093 23.3618 94.1993 23.3618 94.3224 23.3618H94.3235Z" fill="#00084D"></path><path d="M43.9409 19.4648V21.7948C43.8292 21.7948 43.7251 21.7948 43.621 21.7948C42.0496 21.7948 40.4777 21.7996 38.9063 21.7899C38.6694 21.7883 38.5837 21.8517 38.5994 22.0935C38.6183 22.3907 38.6038 22.6895 38.6038 22.9877C38.6038 23.2368 38.7245 23.3614 38.9659 23.3618C40.3481 23.3618 41.7297 23.3618 43.1119 23.3618C43.2175 23.3618 43.3238 23.3618 43.4447 23.3618V25.5329C43.3352 25.5329 43.2306 25.5329 43.1259 25.5329C41.7259 25.5329 40.3259 25.5399 38.9259 25.5269C38.6591 25.5242 38.5858 25.6082 38.5983 25.8647C38.6179 26.286 38.6038 26.7095 38.6038 27.1623H44.0049C44.0152 27.2697 44.0288 27.3477 44.0288 27.4258C44.0304 28.0315 44.0211 28.6366 44.0342 29.2418C44.0391 29.4651 43.9718 29.5334 43.7446 29.5318C42.3538 29.5221 40.963 29.527 39.5716 29.527C38.4513 29.527 37.3317 29.527 36.2114 29.527H35.8915C35.8834 29.4092 35.8715 29.3143 35.8715 29.219C35.8704 26.0654 35.8737 22.9118 35.865 19.7582C35.8644 19.5044 35.9436 19.4432 36.1859 19.4442C38.6699 19.4524 41.1533 19.4491 43.6372 19.4496C43.7337 19.4496 43.8303 19.4589 43.9398 19.4643L43.9409 19.4648Z" fill="#00084D"></path><path d="M79.0664 30.8906V31.1834C79.0664 32.9001 79.0805 34.6173 79.0583 36.334C79.0508 36.8991 79.003 37.4755 78.8783 38.0252C78.5205 39.6009 77.5189 40.5764 75.953 40.9544C74.8652 41.2168 73.7694 41.2168 72.6828 40.9359C71.0274 40.5081 69.9853 39.3244 69.7667 37.6229C69.7173 37.239 69.688 36.8492 69.6864 36.462C69.6777 34.709 69.6876 32.956 69.6773 31.203C69.6757 30.9492 69.7342 30.8565 70.0047 30.8635C70.7178 30.8825 71.4319 30.8694 72.1455 30.87C72.3836 30.87 72.503 30.9855 72.5033 31.2165C72.5033 32.9153 72.5007 34.6141 72.5061 36.3128C72.5071 36.5915 72.5191 36.8746 72.5684 37.1473C72.7479 38.1375 73.4495 38.683 74.451 38.6337C75.5095 38.582 76.1265 37.9873 76.2181 36.9239C76.2382 36.6903 76.2496 36.455 76.2496 36.2207C76.2523 34.5582 76.2512 32.8952 76.2512 31.2327V30.8906H79.0659H79.0664Z" fill="#00084D"></path><path d="M66.7877 19.4644H69.584V19.7837C69.584 21.5096 69.5791 23.235 69.5888 24.9609C69.5905 25.2737 69.6181 25.5953 69.6951 25.8972C69.9234 26.7931 70.6332 27.2723 71.5826 27.2095C72.5532 27.1449 73.1708 26.5784 73.2863 25.6354C73.3156 25.3941 73.3313 25.1495 73.3319 24.9061C73.3357 23.2073 73.334 21.509 73.334 19.8102V19.4703H76.1331C76.1373 19.5625 76.145 19.6498 76.145 19.737C76.145 21.5351 76.1606 23.3331 76.1351 25.1311C76.1276 25.6674 76.0543 26.215 75.9232 26.7351C75.5609 28.1703 74.6321 29.0845 73.2099 29.4787C72.0832 29.7905 70.9412 29.7964 69.8079 29.521C68.1281 29.1127 67.0545 27.8829 66.842 26.1575C66.8078 25.8804 66.7785 25.6001 66.7774 25.3214C66.7709 23.4421 66.7721 21.5627 66.7721 19.6833C66.7721 19.6215 66.7812 19.5591 66.7888 19.4638L66.7877 19.4644Z" fill="#00084D"></path><path d="M24.9631 29.5269C24.0028 29.5269 23.0825 29.5318 22.163 29.5183C22.0827 29.5171 21.9689 29.4066 21.9309 29.3204C21.7314 28.8665 21.5448 28.4067 21.3686 27.9436C21.3046 27.7756 21.2206 27.7077 21.034 27.7094C19.8877 27.718 18.741 27.7164 17.5942 27.7105C17.4266 27.7094 17.3355 27.7582 17.2743 27.9236C17.098 28.3964 16.9094 28.8654 16.7082 29.3279C16.6713 29.4125 16.5547 29.5171 16.4734 29.5187C15.5977 29.5318 14.722 29.5264 13.8463 29.5247C13.8219 29.5247 13.7974 29.5118 13.7498 29.4977C13.7845 29.4006 13.8132 29.3084 13.8506 29.22C15.2008 26.0226 16.5536 22.8256 17.8984 19.6259C17.9792 19.4329 18.0697 19.3547 18.2893 19.3596C19.011 19.3765 19.7338 19.371 20.456 19.3624C20.622 19.3602 20.7082 19.403 20.7771 19.5662C22.144 22.8157 23.5179 26.0621 24.8898 29.3089C24.9136 29.3654 24.9294 29.425 24.9641 29.5264L24.9631 29.5269ZM18.1814 25.5421H20.4631C20.0862 24.5796 19.7208 23.647 19.3293 22.6477C18.9318 23.6497 18.5626 24.5818 18.1819 25.5421H18.1814Z" fill="#00084D"></path><path d="M76.7976 28.0347C77.3166 27.4149 77.8191 26.8137 78.3343 26.1983C78.4282 26.2633 78.5143 26.3219 78.5995 26.3821C79.5559 27.0576 80.6063 27.441 81.791 27.382C81.9776 27.3727 82.1679 27.3325 82.344 27.2707C82.5881 27.1851 82.7518 27.0148 82.7762 26.7361C82.8017 26.4455 82.6764 26.2226 82.4195 26.1282C81.9136 25.9428 81.3925 25.8002 80.879 25.6348C80.2109 25.4201 79.5245 25.2483 78.8804 24.976C76.648 24.0325 76.9933 21.2298 78.305 20.1828C78.8939 19.7126 79.557 19.4291 80.2971 19.3396C81.9217 19.1427 83.4638 19.3776 84.8632 20.2825C85.0064 20.3752 85.1409 20.4804 85.3057 20.5992C84.8404 21.257 84.385 21.9006 83.9621 22.498C83.3727 22.2379 82.8261 21.9596 82.2529 21.7546C81.7607 21.5785 81.2368 21.4987 80.7081 21.6132C80.3102 21.6993 80.1144 21.8826 80.0825 22.1879C80.0477 22.5166 80.1812 22.7513 80.5943 22.8852C81.2358 23.0934 81.9033 23.2219 82.5431 23.4351C83.1558 23.6395 83.7805 23.8477 84.3411 24.16C86.0897 25.1354 85.7655 27.4969 84.841 28.4778C84.1806 29.1788 83.3471 29.5188 82.4232 29.6288C80.5862 29.8473 78.8668 29.5004 77.3203 28.4425C77.1436 28.3215 76.982 28.1789 76.7976 28.0341V28.0347Z" fill="#00084D"></path><path d="M80.0786 40.9267V30.9025C80.1176 30.8922 80.16 30.8716 80.2016 30.8722C81.8268 30.8835 83.4523 30.8803 85.0769 30.9177C85.7123 30.9324 86.3212 31.1254 86.882 31.4371C87.9512 32.0325 88.4907 32.9603 88.5563 34.1678C88.6891 36.6024 87.0408 37.7758 85.1391 37.9916C84.4696 38.0676 83.788 38.0393 83.1118 38.0589C83.0402 38.061 82.9687 38.0654 82.8651 38.0708C82.857 38.1781 82.8418 38.2811 82.8418 38.3847C82.8396 39.1346 82.8304 39.8845 82.8461 40.6339C82.8515 40.8892 82.7643 40.9532 82.5219 40.9484C81.7997 40.9342 81.0769 40.9441 80.3545 40.9425C80.2668 40.9425 80.179 40.9326 80.0792 40.9267H80.0786ZM82.8396 35.9426C83.5428 35.8915 84.2055 35.9018 84.8437 35.781C85.4776 35.6611 85.8137 35.1352 85.7981 34.5132C85.7817 33.8697 85.4439 33.393 84.7938 33.2889C84.2033 33.1945 83.5933 33.2178 82.9915 33.2075C82.942 33.2065 82.8483 33.3474 82.8467 33.4239C82.8337 33.9737 82.8396 34.5235 82.8396 35.0739C82.8396 35.3337 82.8396 35.5934 82.8396 35.942V35.9426Z" fill="#00084D"></path><path d="M97.7814 47.1483C97.6962 48.1773 98.0015 49.0449 98.746 49.752C98.811 49.8138 98.8376 49.9466 98.8338 50.0448C98.7405 52.5238 97.0797 54.5241 94.6484 54.9871C91.6613 55.5565 89.0515 53.4841 88.6319 50.7719C88.4481 49.5823 88.6339 48.456 89.2321 47.4046C89.262 47.3521 89.2977 47.3028 89.353 47.2165C89.0158 49.4315 90.2455 51.3586 92.2984 51.8693C92.9284 52.026 93.5666 52.0359 94.194 51.8434C95.3755 51.4805 96.1005 50.2682 95.8412 49.0661C95.6916 48.3709 95.2486 47.9165 94.5681 47.7257C93.8931 47.5359 93.2717 47.6833 92.7674 48.1708C92.3536 48.5711 92.3201 49.0932 92.4172 49.6322C92.4269 49.6853 92.4437 49.7368 92.4562 49.7889C92.4578 49.7964 92.4523 49.8057 92.4501 49.8143C91.722 49.4429 91.3424 48.4176 91.6585 47.5696C92.0674 46.4709 92.9306 45.88 94.0145 45.5611C94.1007 45.5356 94.1924 45.5292 94.2775 45.5025C94.662 45.3822 94.933 45.4912 95.2155 45.8018C95.8386 46.4867 96.6389 46.895 97.5476 47.0826C97.6251 47.0988 97.7006 47.1249 97.7808 47.1477L97.7814 47.1483Z" fill="#00084D"></path><path d="M113.193 22.0464C113.075 22.2231 112.985 22.4053 112.849 22.5436C112.789 22.6043 112.621 22.6168 112.532 22.58C111.108 21.983 110.169 20.9381 109.782 19.4442C109.092 16.7781 110.808 14.17 113.539 13.6879C115.745 13.2986 118.086 14.742 118.646 16.8373C119.139 18.6797 117.866 20.622 115.984 20.9007C114.898 21.0611 113.994 20.391 113.861 19.3054C114.141 19.589 114.46 19.7582 114.841 19.8043C115.721 19.9117 116.384 18.9866 116.444 18.3857C116.561 17.2293 115.72 16.5845 114.848 16.4647C113.869 16.3302 113.127 16.7195 112.599 17.5405C111.742 18.8754 111.913 20.6675 113.007 21.8485C113.067 21.9135 113.127 21.978 113.192 22.0474L113.193 22.0464Z" fill="#00084D"></path><path d="M80.386 18.0816H77.6289V10.4606H74.6038V8.03851H83.3938V10.4433H80.3866V18.0811L80.386 18.0816Z" fill="#00084D"></path><path d="M102.275 36.4891C102.235 36.5146 102.208 36.5331 102.18 36.5499C101.193 37.1495 101.178 38.3495 102.149 38.9845C102.688 39.3369 103.414 39.306 103.922 38.909C104.793 38.2286 104.979 37.071 104.368 36.1242C103.217 34.3381 100.587 34.1429 99.1473 35.737C99.0936 35.7968 99.0409 35.858 98.9407 35.9729C99.1825 35.1693 99.5815 34.5447 100.144 34.0258C101.732 32.5623 104.15 32.4972 105.811 33.8784C105.912 33.9624 105.99 34.1256 106 34.2579C106.068 35.198 106.429 35.9778 107.172 36.5776C107.267 36.6545 107.345 36.8074 107.354 36.931C107.516 39.0431 106.05 41.0649 103.741 41.4505C101.582 41.8111 99.7237 39.8651 100.235 37.7655C100.475 36.7792 101.361 36.2164 102.275 36.4907L102.275 36.4891Z" fill="#00084D"></path><path d="M98.244 43.6606C98.5742 43.7392 98.9076 43.8846 99.2417 43.8846C99.8722 43.8846 100.455 43.2111 100.512 42.5523C100.63 41.1675 99.2259 40.5499 98.1475 40.893C97.2679 41.1729 96.8363 41.8533 96.6342 42.6889C96.2963 44.0862 96.7523 45.2352 97.8524 46.1217C98.0965 46.318 97.9924 46.4622 97.9251 46.6488C97.8498 46.8576 97.692 46.7702 97.5618 46.7383C95.7541 46.2974 94.4603 44.9261 94.2353 43.1048C93.9176 40.5341 95.7308 38.6054 97.8281 38.2865C98.4164 38.1971 98.9949 38.2275 99.5719 38.3582C99.7395 38.3962 99.8186 38.4661 99.8289 38.6646C99.9031 40.0927 100.934 41.3555 102.312 41.7031C102.548 41.7628 102.599 41.8685 102.592 42.0919C102.549 43.4496 101.288 44.7759 99.9368 44.8703C99.1375 44.9261 98.4012 44.3861 98.2446 43.6611L98.244 43.6606Z" fill="#00084D"></path><path d="M113.701 12.1491C112.991 10.7713 113.455 8.8963 114.846 7.93711C116.999 6.45304 119.889 7.72997 120.263 10.3348C120.42 11.4258 120.088 12.3758 119.339 13.1615C118.239 14.3148 116.287 14.0789 115.5 12.7206C115.087 12.0087 115.26 11.2263 115.924 10.8321C115.91 11.043 115.862 11.2539 115.889 11.4545C115.958 11.9648 116.386 12.3199 116.946 12.3714C117.496 12.4224 118.032 12.0836 118.223 11.563C118.56 10.6482 117.939 9.61259 116.933 9.4136C115.286 9.08717 113.782 10.2855 113.7 11.9887C113.698 12.0424 113.7 12.0959 113.7 12.1496L113.701 12.1491Z" fill="#00084D"></path><path d="M121.661 14.8553C121.213 14.8098 120.811 14.8781 120.57 15.3076C120.332 15.7257 120.368 16.2429 120.661 16.6051C120.977 16.9961 121.395 17.116 121.874 17.0053C122.715 16.8101 123.188 16.0505 123.082 15.1899C122.948 14.0844 122.159 13.2168 121.05 13.0237C120.741 12.97 120.414 13.0156 120.101 13.0156C121.074 12.2662 122.682 12.2993 123.729 13.117C124.813 13.9624 125.212 15.0945 124.895 16.411C124.578 17.7259 123.682 18.5285 122.353 18.7703C121.476 18.9296 120.645 18.7313 119.931 18.1673C118.822 17.2921 118.837 15.524 119.955 14.6802C120.533 14.2438 121.242 14.3142 121.661 14.8553Z" fill="#00084D"></path><path d="M116.686 24.1535C116.686 24.0054 116.698 23.8818 116.684 23.7609C116.623 23.198 116.192 22.8446 115.596 22.8603C115.026 22.8755 114.54 23.3402 114.508 23.9019C114.447 24.9419 115.315 25.6874 116.413 25.5389C117.653 25.3707 118.535 24.411 118.593 23.1596C118.6 23.0262 118.575 22.8917 118.564 22.7177C118.869 23.2122 118.992 23.7257 118.999 24.2581C119.017 25.6809 118.031 26.9514 116.656 27.3081C114.613 27.8384 112.666 26.2785 112.74 24.166C112.772 23.2718 113.102 22.5083 113.82 21.959C114.783 21.2222 116.236 21.463 116.914 22.4471C117.293 22.9958 117.248 23.6585 116.8 24.0721C116.77 24.1004 116.733 24.1204 116.685 24.1529L116.686 24.1535Z" fill="#00084D"></path><path d="M115.04 3.67032C115.95 4.47879 116.273 5.92057 115.8 6.97627C115.762 7.06194 115.666 7.14762 115.577 7.18015C114.762 7.48054 114.105 7.97994 113.64 8.71357C113.518 8.90607 113.337 8.90389 113.17 8.91311C111.637 8.99715 110.274 7.95391 109.988 6.43568C109.882 5.86905 109.942 5.3214 110.15 4.79057C110.648 3.51633 112.247 3.03809 113.353 3.82703C113.957 4.2581 114.101 4.91528 113.701 5.52799C113.677 5.4575 113.653 5.40545 113.641 5.35123C113.551 4.94402 113.328 4.65392 112.9 4.59482C112.438 4.53083 112.039 4.66693 111.768 5.06873C111.55 5.39081 111.53 5.73838 111.666 6.10112C111.953 6.86729 112.728 7.22353 113.571 6.9714C114.862 6.58479 115.56 5.252 115.144 3.96909C115.116 3.8845 115.086 3.80045 115.04 3.67032H115.04Z" fill="#00084D"></path><path d="M111.511 33.598C111.723 34.5485 111.522 35.3959 110.819 36.096C110.033 36.8785 108.837 37.0677 107.84 36.5818C106.842 36.0955 106.248 35.0322 106.363 33.939C106.472 32.9104 107.214 32.0228 108.138 31.8151C109.014 31.6183 109.997 32.2082 110.235 33.0726C110.377 33.5871 110.183 34.0165 109.684 34.2687C109.682 34.2427 109.674 34.2199 109.681 34.2031C109.829 33.856 109.821 33.5292 109.527 33.2602C109.229 32.9879 108.875 32.9132 108.497 33.0568C108.123 33.1988 107.93 33.4971 107.898 33.8864C107.829 34.7161 108.41 35.3212 109.299 35.364C110.388 35.4165 111.215 34.7486 111.511 33.598H111.511Z" fill="#00084D"></path><path d="M101.387 47.3856C101.326 46.5945 100.829 46.2193 100.18 46.4481C99.7382 46.6044 99.4774 47.0647 99.5691 47.5294C99.7366 48.3834 100.521 48.7922 101.46 48.5151C102.303 48.2663 102.891 47.4789 102.893 46.5929C102.893 46.4889 102.893 46.3842 102.918 46.279C103.34 46.9969 103.406 47.7463 103.099 48.519C102.661 49.6202 101.553 50.2682 100.367 50.1282C99.2377 49.9949 98.2856 49.0649 98.1332 47.9073C98.0415 47.2089 98.2081 46.5582 98.6494 45.9981C99.3413 45.1202 100.735 45.1067 101.45 45.9634C101.834 46.4243 101.818 46.9915 101.387 47.3852V47.3856Z" fill="#00084D"></path><path d="M105.134 30.1694C104.873 29.6581 104.599 29.4738 104.216 29.5405C103.743 29.6235 103.425 29.9374 103.356 30.3923C103.27 30.9573 103.87 31.6004 104.507 31.6247C105.307 31.6557 106.121 30.9611 106.305 30.1017C106.422 29.554 106.331 29.0459 106.053 28.5656C106.026 28.519 106.001 28.4717 105.976 28.4241C105.973 28.4186 105.979 28.4083 105.986 28.378C106.631 28.7797 107.015 29.3555 107.174 30.0783C107.442 31.2925 106.759 32.5634 105.608 33.0384C105.438 33.1083 105.294 33.111 105.122 33.0227C104.46 32.6822 103.748 32.5438 103.007 32.5396C102.918 32.539 102.808 32.5103 102.743 32.4538C102.07 31.8693 101.788 30.665 102.121 29.8398C102.498 28.9055 103.562 28.4463 104.496 28.8019C105.051 29.014 105.39 29.6072 105.133 30.1694H105.134Z" fill="#00084D"></path><path d="M109.709 1.98185C109.467 2.33213 109.43 2.66722 109.754 2.98171C110.104 3.32169 110.642 3.28753 110.943 2.90254C111.268 2.48774 111.23 1.91082 110.853 1.52149C110.169 0.8166 108.944 0.909862 108.325 1.71506C108.276 1.77851 108.23 1.8452 108.179 1.91623C108.135 1.5768 108.353 1.06331 108.693 0.693514C109.382 -0.0574691 110.538 -0.220136 111.414 0.311245C112.283 0.838831 112.671 1.92166 112.336 2.87706C112.287 3.01967 112.232 3.12324 112.04 3.12431C111.29 3.1292 110.68 3.44585 110.216 4.02549C110.078 4.19738 109.973 4.2104 109.792 4.10791C109.25 3.80156 108.943 3.22842 109.014 2.61842C109.055 2.26217 109.343 1.98944 109.709 1.9813L109.709 1.98185Z" fill="#00084D"></path><path d="M120.619 21.4141C120.948 21.2715 121.139 21.0726 121.095 20.7325C121.055 20.4316 120.898 20.1991 120.603 20.1112C120.271 20.0125 119.974 20.1166 119.751 20.3801C119.557 20.6089 119.461 20.8714 119.53 21.1821C119.735 22.0898 120.698 22.6006 121.573 22.2605C121.648 22.2313 121.721 22.1961 121.795 22.164C121.573 22.5907 121 22.8999 120.363 22.9373C119.3 22.9991 118.352 22.1343 118.337 21.0861C118.319 19.9372 119.195 19.017 120.295 19.049C121.577 19.0863 121.973 20.2316 121.611 21.0215C121.421 21.4353 121.042 21.5926 120.619 21.4147V21.4141Z" fill="#00084D"></path><path d="M91.2779 32.0006C91.2735 32.6485 90.7508 33.1707 90.1094 33.1685C89.4722 33.1659 88.9469 32.6295 88.9522 31.9865C88.9576 31.345 89.4918 30.8147 90.1273 30.8201C90.7768 30.8262 91.2822 31.3444 91.2779 32.0006ZM91.1733 31.9909C91.1727 31.3993 90.7221 30.9405 90.1364 30.9346C89.5406 30.9292 89.0705 31.3895 89.0612 31.9876C89.0525 32.5743 89.5362 33.0693 90.1158 33.0671C90.7015 33.0649 91.1737 32.5846 91.1733 31.9909Z" fill="#00084D"></path><path d="M90.6965 32.5374C90.2839 32.7553 90.2688 32.2272 89.9684 32.1725C89.9467 32.3146 89.9293 32.4257 89.9093 32.5553H89.6208V31.3521C89.8497 31.3521 90.0856 31.3201 90.3057 31.364C90.4412 31.3911 90.624 31.5147 90.6565 31.6314C90.6933 31.762 90.5881 31.9344 90.5361 32.0856C90.5274 32.1106 90.4737 32.1193 90.445 32.1339C90.5442 32.2928 90.6196 32.4132 90.6965 32.5368V32.5374ZM89.945 31.9431C90.1191 31.9149 90.3235 32.0347 90.3512 31.781C90.356 31.7365 90.1924 31.6346 90.1007 31.627C89.8725 31.6074 89.9467 31.7794 89.945 31.9431Z" fill="#00084D"></path></g></g><defs><clipPath id="clip0_11079_10090"><rect width="125" height="55.0926" fill="white"></rect></clipPath></defs></svg> 