<?xml version="1.0" encoding="UTF-8"?> <svg xmlns="http://www.w3.org/2000/svg" width="189" height="16" viewBox="0 0 189 16" fill="none"><g clip-path="url(#clip0_11079_10127)"><path fill-rule="evenodd" clip-rule="evenodd" d="M176.345 1.18154L170.092 3.2V8.98462L176.32 6.96615C176.812 6.81846 177.329 6.81846 177.822 6.99077L180.111 7.77846C180.603 7.95077 181.12 7.95077 181.612 7.80308L188.972 5.78462V0L181.612 2.01846C181.12 2.16615 180.603 2.16615 180.111 1.99385L177.822 1.20615C177.354 1.05846 176.837 1.03385 176.345 1.18154ZM176.345 8.19692L170.092 10.2154V16L176.32 13.9815C176.812 13.8338 177.329 13.8338 177.822 14.0062L180.111 14.7938C180.603 14.9662 181.12 14.9662 181.612 14.8185L188.972 12.8V7.01538L181.612 9.03385C181.12 9.18154 180.603 9.18154 180.111 9.00923L177.822 8.22154C177.354 8.07385 176.837 8.04923 176.345 8.19692ZM153.772 14.2523C154.806 14.8677 156.037 15.1631 157.415 15.1631C158.597 15.1631 159.655 14.9415 160.566 14.4738C161.452 14.0308 162.215 13.3662 162.757 12.5538C163.298 11.7169 163.618 10.7815 163.717 9.72308H160.32C160.246 10.2154 160.074 10.6585 159.803 11.0769C159.557 11.4462 159.188 11.7415 158.794 11.9385C158.375 12.1354 157.908 12.2338 157.391 12.2338C156.677 12.2338 156.086 12.0615 155.569 11.7169C155.052 11.3723 154.683 10.88 154.412 10.24C154.142 9.6 154.018 8.86154 154.018 8C154.018 7.21231 154.142 6.49846 154.412 5.85846C154.683 5.21846 155.077 4.70154 155.594 4.33231C156.111 3.96308 156.702 3.76615 157.391 3.76615C157.908 3.76615 158.375 3.86462 158.769 4.06154C159.163 4.25846 159.508 4.55385 159.754 4.89846C160.025 5.29231 160.197 5.73538 160.295 6.20308H163.692C163.545 5.12 163.175 4.18462 162.609 3.37231C162.043 2.56 161.305 1.92 160.418 1.50154C159.532 1.05846 158.498 0.836923 157.366 0.836923C155.988 0.836923 154.782 1.13231 153.748 1.74769C152.714 2.36308 151.902 3.24923 151.36 4.30769C150.794 5.39077 150.523 6.62154 150.523 8C150.523 9.37846 150.794 10.6092 151.36 11.6923C151.902 12.7754 152.738 13.6615 153.772 14.2523ZM12.5538 1.10769V14.9662H15.9754V9.74769H17.0585L19.84 14.9415H23.6308L20.5046 9.40308C21.0462 9.23077 21.5385 8.93538 21.9323 8.54154C22.3262 8.14769 22.6215 7.68 22.8185 7.16308C23.0154 6.62154 23.1138 6.05538 23.1138 5.41538C23.1138 4.52923 22.9169 3.76615 22.5477 3.12615C22.1785 2.46154 21.6369 1.96923 20.9231 1.62462C20.2585 1.28 19.4215 1.10769 18.4615 1.10769H12.5538ZM19.2 6.79385C18.8308 7.06462 18.3877 7.21231 17.8462 7.21231H15.9754V3.76615H17.8215C18.1662 3.76615 18.4862 3.81538 18.7815 3.93846C19.0769 4.03692 19.2985 4.23385 19.4708 4.48C19.6677 4.72615 19.7415 5.07077 19.7415 5.48923C19.7415 6.08 19.5446 6.52308 19.2 6.79385ZM53.6861 1.10769V14.9662H62.9169V12.1108H57.0585V9.18154H62.08V6.67077H57.0585V3.93846H62.9169V1.10769H53.6861ZM24.5169 14.9415L29.2923 1.10769H33.5015L38.2769 14.9662H34.6092L33.7969 12.2585H28.9723L28.16 14.9662L24.5169 14.9415ZM29.7108 9.72308H33.0831L31.9754 6.15385C31.7785 5.48923 31.6061 4.84923 31.4338 4.18462H31.36C31.1877 4.84923 30.9908 5.48923 30.7938 6.15385L29.7108 9.72308ZM39.8769 1.10769V14.9662H44.7508C46.2523 14.9662 47.5323 14.6708 48.5908 14.08C49.6492 13.4892 50.4615 12.6769 51.0031 11.6431C51.5446 10.6092 51.8154 9.40308 51.8154 8.04923C51.8154 6.69538 51.5446 5.48923 51.0031 4.43077C50.4615 3.37231 49.6492 2.56 48.5908 1.99385C47.5323 1.40308 46.2523 1.10769 44.7508 1.10769H39.8769ZM46.6708 11.6923C46.1292 12.0369 45.4646 12.2092 44.7015 12.2092H43.1754V3.84H44.6769C45.44 3.84 46.08 4.01231 46.6461 4.35692C47.2123 4.70154 47.6308 5.19385 47.9261 5.83385C48.2215 6.47385 48.3692 7.21231 48.3692 8.04923C48.3692 8.88615 48.2215 9.62462 47.9261 10.24C47.68 10.8554 47.2369 11.3477 46.6708 11.6923ZM70.2031 14.9415V1.10769H76.1108C77.0954 1.10769 77.9323 1.28 78.6215 1.64923C79.3354 1.99385 79.8769 2.51077 80.2461 3.15077C80.6154 3.79077 80.8123 4.55385 80.8123 5.44C80.8123 6.05538 80.7138 6.64615 80.5169 7.18769C80.32 7.70462 80.0246 8.17231 79.6308 8.56615C79.2123 8.96 78.7446 9.25538 78.2031 9.42769L81.3046 14.9662H77.5138L74.7323 9.77231H73.6492V14.9662L70.2031 14.9415ZM75.52 7.23692C76.0615 7.23692 76.5046 7.08923 76.8738 6.81846C77.2431 6.52308 77.4154 6.10462 77.4154 5.51385C77.4154 5.09538 77.3169 4.75077 77.1446 4.50462C76.9723 4.25846 76.7261 4.06154 76.4554 3.96308C76.16 3.84 75.8154 3.79077 75.4954 3.79077H73.6492V7.26154C73.6246 7.23692 75.52 7.23692 75.52 7.23692ZM83.3231 1.10769V14.9415H92.5538V12.1108H86.6954V9.18154H91.7169V6.67077H86.6954V3.93846H92.5538V1.10769H83.3231ZM94.9415 14.9415V1.10769H100.603C101.686 1.10769 102.597 1.28 103.36 1.64923C104.123 2.01846 104.689 2.51077 105.083 3.17538C105.477 3.84 105.674 4.62769 105.674 5.51385C105.674 6.4 105.477 7.18769 105.083 7.87692C104.689 8.54154 104.123 9.08308 103.36 9.45231C102.597 9.82154 101.686 9.99385 100.603 9.99385H98.3384V14.9415H94.9415ZM100.283 7.36C100.702 7.36 101.071 7.28615 101.366 7.16308C101.662 7.01538 101.908 6.81846 102.08 6.54769C102.252 6.27692 102.351 5.93231 102.351 5.53846C102.351 5.12 102.277 4.8 102.105 4.52923C101.932 4.25846 101.686 4.06154 101.391 3.93846C101.095 3.81538 100.726 3.74154 100.308 3.74154H98.3631V7.36H100.283ZM109.809 14.5231C110.671 14.9662 111.729 15.1877 112.96 15.1877C114.215 15.1877 115.274 14.9662 116.111 14.5231C116.972 14.08 117.588 13.4646 118.031 12.6769C118.449 11.8646 118.671 10.9292 118.671 9.84615V1.10769H115.249V9.6C115.249 10.5108 115.052 11.2 114.683 11.6431C114.314 12.0862 113.723 12.3077 112.96 12.3077C112.172 12.3077 111.582 12.0862 111.212 11.6431C110.843 11.2 110.646 10.5108 110.646 9.6V1.10769H107.225V9.82154C107.225 10.9046 107.446 11.8646 107.865 12.6523C108.308 13.4646 108.948 14.08 109.809 14.5231ZM121.231 14.9415V1.10769H127.508C128.32 1.10769 129.034 1.25538 129.625 1.57538C130.24 1.87077 130.708 2.31385 131.028 2.83077C131.348 3.37231 131.52 3.98769 131.52 4.62769C131.52 5.07077 131.446 5.46462 131.298 5.83385C131.151 6.20308 130.929 6.52308 130.658 6.79385C130.388 7.06462 130.068 7.31077 129.698 7.45846V7.48308C130.191 7.63077 130.658 7.90154 131.028 8.24615C131.397 8.59077 131.692 8.98462 131.865 9.42769C132.062 9.89538 132.16 10.3877 132.16 10.9046C132.16 11.6677 131.988 12.3323 131.643 12.9477C131.298 13.5631 130.806 14.0554 130.191 14.4C129.551 14.7446 128.812 14.9169 127.951 14.9169L121.231 14.9415ZM126.868 12.3815C127.237 12.3815 127.582 12.3077 127.852 12.1846C128.148 12.0615 128.369 11.84 128.517 11.5938C128.665 11.3231 128.763 11.0031 128.763 10.6338C128.763 10.2646 128.689 9.96923 128.517 9.72308C128.369 9.47692 128.123 9.28 127.852 9.15692C127.532 9.00923 127.212 8.96 126.868 8.96H124.628V12.4062L126.868 12.3815ZM126.548 6.69538C126.892 6.69538 127.212 6.64615 127.458 6.52308C127.705 6.4 127.902 6.22769 128.049 6.00615C128.197 5.78462 128.271 5.48923 128.271 5.16923C128.271 4.84923 128.197 4.57846 128.049 4.33231C127.902 4.11077 127.705 3.91385 127.434 3.81538C127.163 3.69231 126.843 3.64308 126.548 3.64308H124.603V6.69538C124.628 6.69538 126.548 6.69538 126.548 6.69538ZM134.548 1.10769V14.9662H143.385V12.0862H137.969V1.10769H134.548ZM145.132 14.9662V1.10769H148.554V14.9662H145.132ZM3.76615 14.9415V3.96308H0V1.10769H10.9046V3.96308H7.13846V14.9662L3.76615 14.9415Z" fill="#00084D"></path></g><defs><clipPath id="clip0_11079_10127"><rect width="188.997" height="16" fill="white"></rect></clipPath></defs></svg> 