<?xml version="1.0" encoding="UTF-8"?> <svg xmlns="http://www.w3.org/2000/svg" width="75" height="75" viewBox="0 0 75 75" fill="none"><g clip-path="url(#clip0_11079_10129)"><path fill-rule="evenodd" clip-rule="evenodd" d="M0 75C23.8538 64.294 51.1463 64.294 75 75V0H0V75ZM31.8144 37.4942V32.188H30.0613C30.0613 32.188 29.734 35.7643 26.6835 35.7643H24.9303V30.201H25.5498C26.2743 30.196 26.8657 30.7796 26.8704 31.5042V31.5217V32.1762H28.6003V26.461H26.8704V27.1273C26.8753 27.8518 26.2918 28.4432 25.5672 28.4479H25.5497H24.9302V22.8845H26.6833C29.7339 22.8845 30.0612 26.4609 30.0612 26.4609H31.8143V21.1547H17.988V22.8962H18.3853C19.1072 22.895 19.6932 23.4792 19.6944 24.2008V24.2052V34.4437C19.6956 35.1654 19.1114 35.7515 18.3897 35.7527H18.3853H17.988V37.4824L31.8144 37.4942ZM5.08449 26.461C5.2234 24.4557 6.88459 22.8965 8.89465 22.8847L10.4841 22.8728C9.81792 25.3975 6.95444 28.5999 6.95444 28.5999C2.30267 33.4737 2.7936 37.4942 2.7936 37.4942H16.211V32.1881H14.4579C14.4579 32.1881 14.1424 35.7644 11.0919 35.7644H8.96472C9.05826 33.8827 12.7516 29.5933 12.7516 29.5933C16.6319 25.2572 16.5267 21.1664 16.5267 21.1664H3.40135V26.461H5.08449ZM42.3207 35.7528V37.4825L33.6134 37.4828V35.7529H34.0108H34.0217C34.7449 35.7532 35.3313 35.1672 35.3315 34.4439V24.2054V24.1946C35.3253 23.4713 34.734 22.8902 34.0108 22.8964H33.6134V21.1666H42.3207V22.8963H41.9233H41.919C41.1973 22.8975 40.6131 23.4835 40.6143 24.2053V34.4438V34.4481C40.6155 35.1698 41.2015 35.754 41.9233 35.7528H42.3207ZM55.2592 26.461C55.1333 24.4542 53.4715 22.8897 51.4608 22.8847L49.8594 22.8728C50.4086 25.5377 53.389 28.5999 53.389 28.5999C59.081 35.0165 56.7785 37.4942 56.7785 37.4942H44.1323V32.1881H45.8972C45.8972 32.1881 46.2245 35.7644 49.275 35.7644H51.3905C51.2971 33.8827 47.6154 29.5933 47.6154 29.5933C42.4262 23.761 44.4131 21.1664 44.4131 21.1664H56.9539V26.461H55.2592ZM66.1297 22.8847C68.1382 22.8952 69.7965 24.4568 69.9285 26.461H71.6111V21.1664H59.082C59.082 21.1664 57.0951 23.761 62.2844 29.5933C62.2844 29.5933 65.9661 33.8827 66.0595 35.7644H63.944C60.8935 35.7644 60.5662 32.1881 60.5662 32.1881H58.8131V37.4942H71.459C71.459 37.4942 73.75 35.0165 68.0697 28.5999C68.0697 28.5999 65.0892 25.5377 64.5516 22.8728L66.1297 22.8847Z" fill="#00084D"></path></g><defs><clipPath id="clip0_11079_10129"><rect width="75" height="75" fill="white"></rect></clipPath></defs></svg> 