<svg width="69" height="69" viewBox="0 0 69 69" fill="none" xmlns="http://www.w3.org/2000/svg">
<circle cx="34.5" cy="34.5" r="34.5" fill="#C1C1C1"/>
<path fill-rule="evenodd" clip-rule="evenodd" d="M69 34.5C69 44.656 64.6116 53.7871 57.6276 60.1004C57.4758 59.5685 57.3116 59.0413 57.135 58.5195C55.9038 54.8797 54.0992 51.5726 51.8241 48.7868C49.5491 46.001 46.8482 43.7913 43.8757 42.2836C40.9033 40.776 37.7174 40 34.5 40C31.2826 40 28.0967 40.776 25.1243 42.2836C22.1518 43.7913 19.4509 46.001 17.1759 48.7868C14.9008 51.5726 13.0962 54.8797 11.865 58.5195C11.6884 59.0413 11.5242 59.5685 11.3724 60.1004C4.38837 53.7871 0 44.656 0 34.5C0 15.4462 15.4462 0 34.5 0C53.5538 0 69 15.4462 69 34.5ZM35 37C41.6274 37 47 31.6274 47 25C47 18.3726 41.6274 13 35 13C28.3726 13 23 18.3726 23 25C23 31.6274 28.3726 37 35 37Z" fill="white"/>
</svg>
