<svg width="545" height="166" viewBox="0 0 545 166" fill="none" xmlns="http://www.w3.org/2000/svg">
<rect width="545" height="166" fill="white"/>
<circle cx="272" cy="83" r="17" fill="#D9D9D9"/>
<path fill-rule="evenodd" clip-rule="evenodd" d="M287.241 83.1206C287.241 87.5719 285.318 91.574 282.257 94.341C282.19 94.1078 282.118 93.8766 282.041 93.6478C281.501 92.0526 280.71 90.6031 279.713 89.3822C278.716 88.1613 277.532 87.1928 276.229 86.532C274.927 85.8712 273.53 85.5311 272.12 85.5311C270.71 85.5311 269.314 85.8712 268.011 86.532C266.708 87.1928 265.525 88.1613 264.527 89.3822C263.53 90.6031 262.739 92.0526 262.2 93.6478C262.122 93.8764 262.05 94.1074 261.984 94.3404C258.923 91.5734 257 87.5716 257 83.1206C257 74.7697 263.77 68 272.121 68C280.471 68 287.241 74.7697 287.241 83.1206ZM272.341 84.2163C275.245 84.2163 277.6 81.8616 277.6 78.957C277.6 76.0523 275.245 73.6976 272.341 73.6976C269.436 73.6976 267.081 76.0523 267.081 78.957C267.081 81.8616 269.436 84.2163 272.341 84.2163Z" fill="white"/>
</svg>
