<svg width="29" height="29" viewBox="0 0 29 29" fill="none" xmlns="http://www.w3.org/2000/svg">
<circle cx="14.5" cy="14.5" r="14.25" fill="#6C1CFF" stroke="#5F08FF" stroke-width="0.5"/>
<path d="M12.5989 12.9556L12.3015 13.4361C12.2351 13.5432 12.2 13.6668 12.2 13.7928C12.2 13.9685 12.2682 14.1373 12.3903 14.2636L16 18L16.2094 18.2094C16.6816 18.6816 17.4028 18.7986 18 18.5C18.9083 17.8944 20.0917 17.8944 21 18.5L21.7979 19.0319C22.2365 19.3243 22.5 19.8167 22.5 20.3439C22.5 20.4477 22.4897 20.5513 22.4694 20.6531L22.3959 21.0207C22.1679 22.1607 21.1448 22.9658 19.9831 22.9193C19.6643 22.9066 19.3514 22.8294 19.0633 22.6925L15.9464 21.2121C15.6508 21.0716 15.3801 20.8838 15.1452 20.6559L12.2 17.8L9.74002 14.7934C9.58064 14.5986 9.44641 14.3845 9.34049 14.1562L8.22633 11.7545C8.07724 11.4332 8 11.0831 8 10.7288C8 10.4669 8.04223 10.2066 8.12507 9.95812L8.13053 9.94174C8.34497 9.29844 8.81643 8.77278 9.43271 8.4899L9.84614 8.30013C10.2595 8.11038 10.7367 8.11833 11.1435 8.32175C11.3771 8.43856 11.5762 8.61431 11.7211 8.83164L12.5504 10.0756C13.1289 10.9433 13.1479 12.0689 12.5989 12.9556Z" fill="white" stroke="#5F08FF" stroke-width="0.5"/>
</svg>
