<svg width="19" height="19" viewBox="0 0 19 19" fill="none" xmlns="http://www.w3.org/2000/svg">
<path d="M16 1H3C1.89543 1 1 1.89543 1 3V16C1 17.1046 1.89543 18 3 18H16C17.1046 18 18 17.1046 18 16V3C18 1.89543 17.1046 1 16 1Z" fill="url(#paint0_linear_0_1)" stroke="url(#paint1_radial_0_1)"/>
<path d="M12.2402 5.57722L12.0742 5.74316C11.8646 5.95282 11.5361 5.98534 11.2894 5.82088C11.1164 5.70552 11.0124 5.51132 11.0124 5.30335V5C11.0124 4.44772 10.5647 4 10.0124 4H9.84368H9.60993H9.4412C8.88891 4 8.4412 4.44772 8.4412 5V5.30335C8.4412 5.51132 8.33726 5.70552 8.16423 5.82088C7.91753 5.98534 7.58905 5.95282 7.3794 5.74316L7.21345 5.57722C6.85876 5.22253 6.28368 5.22253 5.92899 5.57722L5.56788 5.93833C5.20757 6.29863 5.17581 6.87224 5.49412 7.27013L5.74541 7.58424C5.82605 7.68504 5.86998 7.81028 5.86998 7.93936C5.86998 8.22606 5.6565 8.46788 5.37202 8.50344L4.87597 8.56545C4.37554 8.628 4 9.0534 4 9.55773V9.60993V10.0774V10.1296C4 10.634 4.37554 11.0594 4.87597 11.1219L5.37202 11.1839C5.6565 11.2195 5.86998 11.4613 5.86998 11.748C5.86998 11.8771 5.82605 12.0023 5.74541 12.1031L5.49412 12.4172C5.17581 12.8151 5.20757 13.3887 5.56788 13.749L5.92899 14.1101C6.28368 14.4648 6.85876 14.4648 7.21345 14.1101L7.3794 13.9442C7.58905 13.7345 7.91753 13.702 8.16423 13.8665C8.33726 13.9818 8.4412 14.176 8.4412 14.384V14.6874C8.4412 15.2396 8.88891 15.6874 9.4412 15.6874H9.60993H9.84368H10.0124C10.5647 15.6874 11.0124 15.2396 11.0124 14.6874V14.384C11.0124 14.176 11.1164 13.9818 11.2894 13.8665C11.5361 13.702 11.8646 13.7345 12.0742 13.9442L12.2402 14.1101C12.5949 14.4648 13.1699 14.4648 13.5246 14.1101L13.8857 13.749C14.246 13.3887 14.2778 12.8151 13.9595 12.4172L13.7082 12.1031C13.6276 12.0023 13.5836 11.8771 13.5836 11.748C13.5836 11.4613 13.7971 11.2195 14.0816 11.1839L14.5776 11.1219C15.0781 11.0594 15.4536 10.634 15.4536 10.1296V10.0774V9.60993V9.55773C15.4536 9.0534 15.0781 8.628 14.5776 8.56545L14.0816 8.50344C13.7971 8.46788 13.5836 8.22606 13.5836 7.93936C13.5836 7.81028 13.6276 7.68504 13.7082 7.58424L13.9595 7.27013C14.2778 6.87224 14.246 6.29863 13.8857 5.93833L13.5246 5.57722C13.1699 5.22253 12.5949 5.22253 12.2402 5.57722Z" fill="#F55D08"/>
<path d="M15.4536 10.0774V9.55773C15.4536 9.0534 15.0781 8.628 14.5776 8.56545L14.0816 8.50344C13.7971 8.46788 13.5836 8.22606 13.5836 7.93936C13.5836 7.81028 13.6276 7.68504 13.7082 7.58424L13.9595 7.27013C14.2778 6.87224 14.246 6.29863 13.8857 5.93833L13.5246 5.57722C13.1699 5.22253 12.5949 5.22253 12.2402 5.57722L12.0742 5.74316C11.8646 5.95282 11.5361 5.98534 11.2894 5.82088C11.1164 5.70552 11.0124 5.51132 11.0124 5.30335V5C11.0124 4.44772 10.5647 4 10.0124 4H9.60993M15.4536 9.60993V10.1296C15.4536 10.634 15.0781 11.0594 14.5776 11.1219L14.0816 11.1839C13.7971 11.2195 13.5836 11.4613 13.5836 11.748C13.5836 11.8771 13.6276 12.0023 13.7082 12.1031L13.9595 12.4172C14.2778 12.8151 14.246 13.3887 13.8857 13.749L13.5246 14.1101C13.1699 14.4648 12.5949 14.4648 12.2402 14.1101L12.0742 13.9442C11.8646 13.7345 11.5361 13.702 11.2894 13.8665C11.1164 13.9818 11.0124 14.176 11.0124 14.384V14.6874C11.0124 15.2396 10.5647 15.6874 10.0124 15.6874H9.60993M4 10.0774V9.55773C4 9.0534 4.37554 8.628 4.87597 8.56545L5.37202 8.50344C5.6565 8.46788 5.86998 8.22606 5.86998 7.93936C5.86998 7.81028 5.82605 7.68504 5.74541 7.58424L5.49412 7.27013C5.17581 6.87224 5.20757 6.29863 5.56788 5.93833L5.92899 5.57722C6.28368 5.22253 6.85876 5.22253 7.21345 5.57722L7.3794 5.74316C7.58905 5.95282 7.91753 5.98534 8.16423 5.82088C8.33726 5.70552 8.4412 5.51132 8.4412 5.30335V5C8.4412 4.44772 8.88891 4 9.4412 4H9.84368M4 9.60993V10.1296C4 10.634 4.37554 11.0594 4.87597 11.1219L5.37202 11.1839C5.6565 11.2195 5.86998 11.4613 5.86998 11.748C5.86998 11.8771 5.82605 12.0023 5.74541 12.1031L5.49412 12.4172C5.17581 12.8151 5.20757 13.3887 5.56788 13.749L5.92899 14.1101C6.28368 14.4648 6.85876 14.4648 7.21345 14.1101L7.3794 13.9442C7.58905 13.7345 7.91753 13.702 8.16423 13.8665C8.33726 13.9818 8.4412 14.176 8.4412 14.384V14.6874C8.4412 15.2396 8.88891 15.6874 9.4412 15.6874H9.84368" stroke="white" stroke-width="0.5"/>
<circle cx="9.84368" cy="9.84368" r="2.32122" fill="#F55D08" stroke="white" stroke-width="0.5"/>
<defs>
<linearGradient id="paint0_linear_0_1" x1="14.5" y1="10.5" x2="2.5" y2="17" gradientUnits="userSpaceOnUse">
<stop stop-color="#F55D08"/>
<stop offset="1" stop-color="#FE9B00"/>
</linearGradient>
<radialGradient id="paint1_radial_0_1" cx="0" cy="0" r="1" gradientUnits="userSpaceOnUse" gradientTransform="translate(9.5 9.5) rotate(90) scale(8.5)">
<stop stop-color="#FE9B00"/>
<stop offset="1" stop-color="#F55D08"/>
</radialGradient>
</defs>
</svg>
