<svg width="47" height="47" viewBox="0 0 47 47" fill="none" xmlns="http://www.w3.org/2000/svg">
<path d="M46.999 23.4999C46.999 36.4786 36.4777 46.9999 23.499 46.9999C10.5203 46.9999 -0.000976562 36.4786 -0.000976562 23.4999C-0.000976562 10.5212 10.5203 -6.10352e-05 23.499 -6.10352e-05C36.4777 -6.10352e-05 46.999 10.5212 46.999 23.4999Z" fill="#00FF1A"/>
<path d="M16.3495 20.0309L12.999 23.3814L21.3753 31.7577L35.7825 17.3505L32.432 13.9999L21.3753 25.0566L16.3495 20.0309Z" fill="white"/>
<path d="M46.999 23.4999C46.999 36.4786 36.4777 46.9999 23.499 46.9999C10.5203 46.9999 -0.000976562 36.4786 -0.000976562 23.4999C-0.000976562 10.5212 10.5203 -6.10352e-05 23.499 -6.10352e-05C36.4777 -6.10352e-05 46.999 10.5212 46.999 23.4999Z" stroke="white"/>
<path d="M16.3495 20.0309L12.999 23.3814L21.3753 31.7577L35.7825 17.3505L32.432 13.9999L21.3753 25.0566L16.3495 20.0309Z" stroke="white"/>
</svg>
