<svg width="20" height="24" viewBox="0 0 20 24" fill="none" xmlns="http://www.w3.org/2000/svg">
<path d="M15.9955 22.6525C14.7739 23.8722 13.4325 23.6872 12.1394 23.1186C10.7711 22.5376 9.51828 22.5182 8.08069 23.1385C6.2807 23.9395 5.32752 23.7142 4.24524 22.7102C-1.8995 16.3139 -1.04564 6.52307 5.89255 6.13124C7.58414 6.21237 8.76588 7.06257 9.75589 7.13437C11.2326 6.82048 12.6438 5.93198 14.2227 6.03921C16.1151 6.18323 17.5469 6.94277 18.4932 8.31797C14.5965 10.7263 15.5493 15.9727 19.1393 17.4243C18.4346 19.3442 17.517 21.2524 15.9831 22.6653L15.9955 22.6525ZM9.62522 6.03625C9.42332 3.18812 11.6792 0.826193 14.2836 0.583423C14.6631 3.87785 11.3806 6.34703 9.62522 6.03625Z" fill="black"/>
</svg>
