<svg width="11" height="12" viewBox="0 0 11 12" fill="none" xmlns="http://www.w3.org/2000/svg">
<path d="M5.3875 9.14286C5.03029 9.14286 4.6877 9.02245 4.43512 8.80812C4.18253 8.59379 4.04062 8.30311 4.04062 8C4.04062 7.36571 4.63998 6.85714 5.3875 6.85714C5.74471 6.85714 6.0873 6.97755 6.33988 7.19188C6.59247 7.40621 6.73437 7.6969 6.73437 8C6.73437 8.30311 6.59247 8.59379 6.33988 8.80812C6.0873 9.02245 5.74471 9.14286 5.3875 9.14286ZM9.42812 10.8571V5.14286H1.34687V10.8571H9.42812ZM9.42812 4C9.78534 4 10.1279 4.12041 10.3805 4.33474C10.6331 4.54906 10.775 4.83975 10.775 5.14286V10.8571C10.775 11.1602 10.6331 11.4509 10.3805 11.6653C10.1279 11.8796 9.78534 12 9.42812 12H1.34687C0.989661 12 0.647079 11.8796 0.39449 11.6653C0.141902 11.4509 0 11.1602 0 10.8571V5.14286C0 4.50857 0.599359 4 1.34687 4H2.02031V2.85714C2.02031 2.09938 2.37507 1.37266 3.00654 0.836838C3.63801 0.30102 4.49447 0 5.3875 0C5.82969 0 6.26754 0.0739022 6.67607 0.217487C7.08459 0.361072 7.45579 0.571528 7.76846 0.836838C8.08113 1.10215 8.32916 1.41712 8.49838 1.76376C8.66759 2.11041 8.75469 2.48194 8.75469 2.85714V4H9.42812ZM5.3875 1.14286C4.85168 1.14286 4.33781 1.32347 3.95892 1.64496C3.58004 1.96645 3.36719 2.40249 3.36719 2.85714V4H7.40781V2.85714C7.40781 2.40249 7.19496 1.96645 6.81608 1.64496C6.43719 1.32347 5.92332 1.14286 5.3875 1.14286Z" fill="#7D7E7E"/>
</svg>
