<svg width="507" height="842" viewBox="0 0 507 842" fill="none" xmlns="http://www.w3.org/2000/svg">
<g clip-path="url(#clip0_56_179)">
<path d="M0 20C0 8.95432 8.95431 0 20 0H507V842H20C8.9543 842 0 833.046 0 822V20Z" fill="#2250AE"/>
<path opacity="0.1" d="M430.056 -19.1798C439.417 -19.0826 448.532 -17.3426 457.311 -12.8083C464.792 -8.95414 471.321 -2.31515 476.148 6.34512C477.551 8.81215 479.279 10.948 480.589 13.4915C485.102 22.1638 488.086 32.1249 489.31 42.6055C489.982 47.469 490.121 52.44 489.72 57.357C489.013 64.3082 487.088 70.4592 483.012 75.0597C480.303 78.0725 476.987 79.9061 473.496 80.3207C466.078 81.4023 459.003 79.5204 452.142 75.7587C450.424 74.8247 448.638 74.077 446.956 73.0667C442.832 70.5406 438.638 70.6639 434.411 72.2601C431.618 73.3185 428.882 74.6731 426.083 75.723C419.63 78.1473 413.38 76.9314 407.251 73.616C394.528 66.7498 387.675 53.3646 384.4 35.9645C382.975 28.8236 382.72 21.3475 383.654 14.062C385.327 1.85151 390.587 -6.27379 399.012 -11.0066C405.018 -14.3215 411.326 -16.525 417.767 -17.558C421.853 -18.2058 425.958 -18.6335 430.056 -19.1798Z" fill="#000D29" fill-opacity="0.4"/>
<path opacity="0.1" d="M187.399 81.6484C188.869 78.9313 188.397 74.8362 184.586 72.7482C181.96 71.4188 178.299 72.0121 176.007 73.572C172.736 75.7975 172.729 80.0396 174.439 83.5374C177.516 89.6386 184.743 86.7067 187.399 81.6484Z" fill="#000D29" fill-opacity="0.4"/>
<path opacity="0.1" d="M357.18 59.1373C354.389 59.4101 348.5 55.8294 352.58 67.0122C353.206 70.2076 355.805 73.2057 358.27 74.375C361.787 76.0435 364.782 73.5235 366.23 69.8755C368.7 63.4262 362.328 58.5563 357.18 59.1373Z" fill="#000D29" fill-opacity="0.4"/>
<path opacity="0.1" d="M208 122.483C211.047 120.936 214.069 112.372 203.499 111.09C200.738 110.184 196.277 113.062 194.195 114.966C191.223 117.683 191.729 121.886 193.844 125.082C197.627 130.644 204 125.901 208 122.483Z" fill="#000D29" fill-opacity="0.4"/>
<path opacity="0.1" d="M74.198 -32.0032C67.9613 -42.8897 59.9345 -52.8721 49.6572 -58.6167C39.3799 -64.3613 26.6525 -65.2746 16.7147 -58.8271C7.56252 -52.905 2.03586 -41.9021 -2.81116 -31.2668C-18.1819 2.48759 -30.9752 37.6871 -41.0497 73.9422C-45.889 91.3724 -49.979 110.957 -42.9284 127.397C-35.8778 143.837 -19.2136 152.408 -3.24849 152.841C25.1155 153.621 72.7273 136.536 83.8569 103.393C98.0964 60.799 96.3074 6.56049 74.198 -32.0032Z" fill="#000D29" fill-opacity="0.4"/>
<path opacity="0.1" d="M-95.768 793.5C-109.587 798.196 -122.127 804.073 -129.019 811.307C-135.911 818.541 -136.371 827.243 -127.405 833.741C-119.168 839.727 -104.523 843.034 -90.3957 845.894C-45.5584 854.961 1.01321 862.215 48.8035 867.574C71.7792 870.147 97.5171 872.122 118.522 866.642C139.527 861.162 149.734 849.464 149.383 838.577C148.772 819.236 123.795 787.531 79.9978 781.325C23.7135 773.393 -46.8157 776.854 -95.768 793.5Z" fill="#000D29" fill-opacity="0.4"/>
<path opacity="0.1" d="M361.655 860.322C363.423 876.339 367.702 892.654 376.68 906.036C385.658 919.417 399.861 929.372 414.513 929.505C427.998 929.644 439.835 921.803 450.707 913.875C485.197 888.704 517.437 860.173 547.072 828.597C561.314 813.413 575.765 795.402 575.823 772.885C575.88 750.367 560.952 729.464 542.782 717.736C518.204 701.863 478.709 726.679 441.398 726.846C423.395 726.926 402.868 735.435 395.214 752.945C377.791 792.804 356.668 815.257 361.655 860.322Z" fill="#000D29" fill-opacity="0.4"/>
<path opacity="0.1" d="M63.1888 450.505C70.6694 461.987 69.4928 477.071 60.8724 487.723C39.5524 514.069 37.1101 522.364 8.5 522.364C-25.7417 522.364 -91 481.398 -91 451.193C-91 423.714 -48.5729 389.651 -15.1326 383.729C-8.92927 382.63 -2.71125 384.85 2.41633 388.51C41.9171 416.705 38.1517 412.078 63.1888 450.505Z" fill="#000D29" fill-opacity="0.4"/>
<path opacity="0.1" d="M515.374 549.82C505.29 563.648 490.493 571.627 474.691 577.707C474.024 578.014 473.314 578.182 472.595 578.205C469.868 578.137 465.97 579.172 464.66 577.542C462.055 574.299 466.1 571.934 467.546 569.489C475.947 555.348 478.264 540.247 472.376 524.571C466.75 509.629 460.262 495.083 453.752 480.581C449.771 471.714 450.355 470.481 459.058 468.794C465.393 467.633 471.592 465.654 477.535 462.895C484.694 459.47 487.827 452.1 487.003 443.596C486.362 436.858 484.821 430.271 482.435 424.063C478.758 414.652 473.956 405.821 469.739 396.675C467.739 392.656 466.017 388.467 464.587 384.145C462.676 377.704 465.135 374.081 470.969 373.982C483.963 373.767 493.53 365.185 495.099 350.59C496.016 342.491 495.578 334.27 493.808 326.359C491.013 314.64 486.656 303.369 482.547 292.103C480.84 287.434 478.387 282.664 481.639 278.413C485.136 273.825 490.392 275.543 494.283 277.809C499.16 280.637 503.629 284.296 507.536 288.659C517.214 299.617 525.25 312.306 531.326 326.222C558.219 386.912 559.742 448.924 538.415 511.944C533.612 526.108 525.983 538.241 515.374 549.82Z" fill="#000D29" fill-opacity="0.4"/>
<g clip-path="url(#clip1_56_179)">
<path d="M245.559 308.888C243.811 305.735 241.872 302.692 239.753 299.777C238.268 297.731 236.699 295.754 235.045 293.845H235.041C232.05 290.389 228.796 287.169 225.31 284.213C224.596 283.607 223.873 283.013 223.14 282.432C216.525 277.169 209.189 272.883 201.357 269.704L201.426 281.149L202.176 411.621H137.215L133.562 281.395L133.834 270.133C101.986 283.527 79.6241 315.02 79.6241 351.738C79.6182 359.317 80.5851 366.865 82.5011 374.198C83.3104 377.297 84.2902 380.35 85.436 383.342C85.8497 384.428 86.2861 385.504 86.7452 386.57C86.9666 387.089 87.192 387.604 87.4257 388.117C87.7256 388.788 88.0379 389.456 88.3585 390.115C88.6067 390.635 88.8618 391.15 89.1238 391.662C89.4609 392.335 89.8091 393.001 90.1683 393.662C90.4454 394.182 90.7308 394.697 91.0204 395.21C95.6919 403.473 101.657 410.934 108.69 417.309C110.694 419.127 112.779 420.851 114.946 422.48C130.278 434.001 148.938 440.23 168.116 440.23C187.294 440.23 205.953 434.001 221.285 422.48C222.464 421.595 223.619 420.68 224.75 419.735C225.5 419.111 226.239 418.474 226.965 417.826C227.157 417.655 227.349 417.483 227.54 417.309C234.023 411.432 239.603 404.629 244.098 397.121C245.749 394.368 247.246 391.526 248.582 388.608C248.936 387.838 249.279 387.062 249.61 386.279C251.137 382.688 252.42 378.999 253.453 375.236C253.612 374.655 253.766 374.072 253.914 373.486V373.484C253.939 373.383 253.966 373.28 253.991 373.178C254.144 372.562 254.291 371.941 254.431 371.321V371.319C254.887 369.319 255.271 367.295 255.584 365.246C255.623 364.984 255.662 364.721 255.699 364.458C255.714 364.363 255.728 364.268 255.739 364.173V364.171C255.962 362.589 256.143 360.995 256.283 359.389C256.498 356.868 256.606 354.317 256.607 351.738C256.631 336.747 252.828 321.998 245.559 308.888Z" fill="#F2F2F2"/>
<path d="M236.868 405.156C242.106 398.079 244.12 388.11 240.046 380.305C236.225 389.084 229.422 396.229 220.84 400.475C217.524 402.1 213.667 403.563 212.133 406.922C211.178 409.011 211.36 411.479 212.127 413.644C212.895 415.81 214.201 417.737 215.493 419.637L215.561 420.207C223.694 416.834 231.63 412.233 236.868 405.156Z" fill="#E6E6E6"/>
<path d="M239.872 380.367C239.637 387.651 237.114 394.676 232.659 400.444C231.722 401.703 230.593 402.806 229.312 403.713C228.037 404.556 226.558 405.042 225.031 405.121C223.608 405.223 222.141 405.162 220.768 405.608C220.069 405.847 219.428 406.231 218.887 406.735C218.347 407.239 217.918 407.851 217.631 408.532C216.871 410.21 216.759 412.061 216.712 413.875C216.661 415.889 216.639 417.982 215.689 419.813C215.574 420.034 215.925 420.2 216.04 419.979C217.693 416.793 216.619 413.068 217.604 409.72C218.064 408.157 218.997 406.724 220.557 406.097C221.921 405.55 223.434 405.611 224.875 405.52C226.366 405.465 227.821 405.046 229.113 404.299C230.435 403.461 231.605 402.403 232.573 401.171C234.796 398.434 236.574 395.364 237.843 392.074C239.312 388.327 240.129 384.356 240.259 380.334C240.267 380.085 239.88 380.12 239.872 380.367Z" fill="white"/>
<path d="M234.203 398.671C235.272 399.287 236.525 399.503 237.739 399.28C238.953 399.058 240.048 398.411 240.828 397.455C240.986 397.261 240.692 397.008 240.534 397.202C239.809 398.093 238.789 398.695 237.658 398.901C236.528 399.106 235.361 398.9 234.369 398.321C234.153 398.195 233.988 398.546 234.203 398.671ZM225.759 405.164C225.082 402.734 225.346 400.139 226.498 397.895C226.612 397.673 226.261 397.507 226.147 397.729C224.953 400.066 224.684 402.768 225.394 405.295C225.462 405.536 225.827 405.404 225.759 405.164ZM238.797 388.345C238.334 388.193 237.916 387.928 237.58 387.574C237.244 387.22 237.002 386.789 236.874 386.318C236.809 386.076 236.444 386.209 236.509 386.449C236.652 386.968 236.921 387.444 237.291 387.836C237.661 388.228 238.121 388.523 238.631 388.696C238.678 388.716 238.731 388.718 238.779 388.7C238.827 388.683 238.866 388.649 238.89 388.603C238.911 388.557 238.914 388.503 238.897 388.455C238.879 388.407 238.844 388.367 238.797 388.345Z" fill="white"/>
<path d="M210.89 374.094C210.926 374.245 210.962 374.397 210.996 374.552C211.471 376.598 211.78 378.679 211.918 380.775C211.931 380.936 211.942 381.101 211.951 381.263C212.23 386.315 211.569 391.376 210.001 396.187C209.375 398.101 208.604 399.965 207.696 401.762C206.441 404.243 204.883 406.834 204.532 409.507C204.492 409.785 204.469 410.066 204.464 410.347L214.861 420.245C214.895 420.256 214.928 420.269 214.963 420.28L215.36 420.694C215.414 420.605 215.467 420.511 215.52 420.421C215.551 420.37 215.58 420.316 215.611 420.264C215.631 420.229 215.651 420.193 215.672 420.163C215.678 420.151 215.685 420.139 215.689 420.13C215.709 420.099 215.725 420.069 215.743 420.041C216.042 419.517 216.339 418.99 216.633 418.46C216.635 418.457 216.635 418.457 216.635 418.453C218.861 414.409 220.77 410.144 221.97 405.725C222.006 405.592 222.045 405.456 222.076 405.319C222.606 403.324 222.972 401.289 223.171 399.234C223.276 398.109 223.324 396.979 223.314 395.849C223.285 392.928 222.797 390.031 221.867 387.262C220.012 381.743 216.414 376.879 211.284 374.288C211.152 374.221 211.023 374.157 210.89 374.094Z" fill="#E6E6E6"/>
<path d="M210.788 374.248C214.986 380.205 217.2 387.333 217.116 394.62C217.126 396.19 216.888 397.75 216.412 399.245C215.901 400.687 215.013 401.965 213.841 402.947C212.767 403.885 211.559 404.72 210.731 405.903C210.316 406.515 210.036 407.207 209.907 407.935C209.779 408.663 209.806 409.41 209.986 410.126C210.39 411.924 211.415 413.469 212.47 414.945C213.641 416.585 214.884 418.269 215.227 420.302C215.269 420.549 215.649 420.47 215.607 420.224C215.009 416.685 211.91 414.357 210.68 411.091C210.106 409.566 209.988 407.86 210.857 406.421C211.616 405.162 212.861 404.3 213.957 403.36C215.115 402.418 216.024 401.208 216.606 399.834C217.157 398.368 217.454 396.819 217.485 395.253C217.611 391.729 217.183 388.207 216.215 384.816C215.132 380.94 213.394 377.278 211.076 373.988C210.932 373.785 210.645 374.046 210.788 374.248Z" fill="white"/>
<path d="M217.281 392.276C218.506 392.124 219.636 391.542 220.471 390.633C221.306 389.724 221.791 388.549 221.839 387.316C221.848 387.066 221.46 387.041 221.451 387.29C221.409 388.439 220.957 389.534 220.178 390.378C219.399 391.223 218.343 391.761 217.202 391.896C216.954 391.925 217.034 392.305 217.281 392.276ZM214.448 402.544C212.445 401.011 211.093 398.78 210.662 396.294C210.619 396.048 210.239 396.127 210.282 396.373C210.735 398.958 212.147 401.278 214.235 402.868C214.434 403.019 214.646 402.694 214.448 402.544ZM214.732 381.264C214.271 381.422 213.777 381.462 213.296 381.382C212.815 381.301 212.362 381.103 211.976 380.804C211.779 380.65 211.567 380.975 211.763 381.128C212.19 381.457 212.692 381.675 213.223 381.765C213.754 381.855 214.299 381.814 214.811 381.644C214.86 381.632 214.904 381.602 214.932 381.559C214.96 381.517 214.97 381.465 214.962 381.415C214.951 381.365 214.921 381.321 214.878 381.292C214.835 381.264 214.783 381.254 214.732 381.264Z" fill="white"/>
<path d="M74.0755 365.519C69.4302 358.039 68.2326 347.94 72.9278 340.492C76.0227 349.552 82.2228 357.226 90.4311 362.156C93.6036 364.045 97.3289 365.817 98.5855 369.289C99.3675 371.449 98.9857 373.894 98.0446 375.99C97.1035 378.086 95.6455 379.9 94.2035 381.689L94.0894 382.251C86.2572 378.229 78.7207 372.998 74.0755 365.519Z" fill="#E6E6E6"/>
<path d="M73.0959 340.568C72.7379 347.847 74.6824 355.054 78.6534 361.164C79.4849 362.495 80.5209 363.686 81.7234 364.694C82.9265 365.639 84.3604 366.243 85.8763 366.446C87.2859 366.663 88.7529 366.722 90.0851 367.278C90.7628 367.573 91.3706 368.008 91.8685 368.554C92.3665 369.1 92.7433 369.745 92.9744 370.447C93.5957 372.181 93.5568 374.035 93.4558 375.847C93.3437 377.858 93.1953 379.946 93.9933 381.848C94.09 382.079 93.7268 382.215 93.6303 381.985C92.2418 378.676 93.6142 375.05 92.9046 371.633C92.5735 370.038 91.7598 368.534 90.2559 367.783C88.9409 367.126 87.4281 367.064 85.999 366.857C84.5173 366.681 83.1013 366.145 81.8745 365.295C80.6246 364.352 79.5444 363.202 78.6801 361.896C76.6874 358.987 75.1646 355.783 74.1673 352.4C73.0078 348.547 72.516 344.523 72.7133 340.503C72.7256 340.254 73.1081 340.321 73.0959 340.568Z" fill="white"/>
<path d="M77.2589 359.272C76.1432 359.799 74.8765 359.912 73.685 359.592C72.4935 359.271 71.4547 358.537 70.7543 357.521C70.6133 357.315 70.9268 357.086 71.068 357.293C71.7185 358.24 72.6862 358.923 73.7963 359.22C74.9065 359.516 76.086 359.406 77.122 358.909C77.3473 358.801 77.4829 359.165 77.2589 359.272ZM85.1471 366.43C86.0192 364.063 85.9671 361.454 85.0013 359.124C84.9054 358.893 85.2686 358.757 85.3644 358.987C86.3649 361.414 86.4136 364.129 85.5006 366.59C85.4135 366.824 85.0604 366.663 85.1471 366.43ZM73.5188 348.606C73.993 348.492 74.4315 348.262 74.7948 347.937C75.1581 347.612 75.435 347.201 75.6005 346.743C75.6847 346.507 76.0377 346.668 75.9541 346.902C75.7688 347.408 75.4625 347.861 75.0619 348.222C74.6612 348.582 74.1785 348.839 73.6557 348.969C73.6075 348.986 73.5548 348.983 73.5084 348.962C73.4619 348.941 73.4252 348.903 73.4057 348.856C73.3878 348.808 73.3897 348.755 73.4109 348.708C73.432 348.661 73.4708 348.625 73.5188 348.606Z" fill="white"/>
<path d="M102.492 336.67C102.444 336.819 102.395 336.967 102.349 337.118C101.709 339.119 101.233 341.168 100.925 343.246C100.898 343.406 100.874 343.569 100.852 343.729C100.163 348.743 100.411 353.84 101.583 358.763C102.051 360.721 102.668 362.641 103.427 364.506C104.476 367.082 105.818 369.791 105.951 372.483C105.968 372.764 105.968 373.045 105.95 373.326L94.784 382.347C94.7483 382.354 94.7146 382.365 94.6788 382.373L94.2494 382.753C94.2036 382.66 94.158 382.562 94.1121 382.468C94.0852 382.414 94.0609 382.358 94.034 382.304C94.0169 382.267 93.9999 382.231 93.9824 382.198C93.9767 382.186 93.971 382.174 93.9674 382.164C93.9498 382.132 93.9369 382.1 93.9215 382.071C93.6652 381.524 93.4123 380.975 93.1627 380.423C93.1607 380.42 93.1607 380.42 93.1611 380.416C91.2707 376.204 89.7152 371.798 88.8779 367.296C88.8528 367.161 88.8255 367.023 88.8054 366.883C88.4393 364.852 88.2398 362.794 88.209 360.73C88.1957 359.6 88.2397 358.469 88.3407 357.344C88.6073 354.435 89.3297 351.587 90.4815 348.903C92.7782 343.553 96.7604 338.998 102.084 336.832C102.22 336.776 102.354 336.723 102.492 336.67Z" fill="#E6E6E6"/>
<path d="M102.582 336.832C97.9134 342.428 95.1271 349.353 94.6186 356.623C94.4813 358.186 94.5913 359.761 94.9445 361.29C95.3366 362.768 96.1175 364.114 97.2059 365.189C98.2006 366.211 99.3364 367.141 100.065 368.387C100.429 369.031 100.653 369.744 100.721 370.479C100.79 371.215 100.702 371.957 100.464 372.657C99.9163 374.416 98.7691 375.873 97.5976 377.258C96.297 378.797 94.9216 380.374 94.4137 382.374C94.3521 382.616 93.9799 382.506 94.0413 382.264C94.925 378.786 98.2036 376.718 99.6946 373.562C100.39 372.089 100.647 370.398 99.8979 368.893C99.2432 367.577 98.0727 366.617 97.0566 365.59C95.9795 364.558 95.1716 363.277 94.7034 361.861C94.2735 360.355 94.103 358.787 94.1993 357.224C94.3598 353.701 95.0732 350.226 96.3133 346.925C97.7077 343.149 99.7376 339.641 102.315 336.55C102.475 336.359 102.74 336.642 102.582 336.832Z" fill="white"/>
<path d="M94.6445 354.273C93.4364 354.022 92.3568 353.349 91.5985 352.376C90.8402 351.403 90.4526 350.191 90.5049 348.959C90.5075 348.908 90.5295 348.861 90.5663 348.827C90.6031 348.792 90.6518 348.774 90.7021 348.774C90.7524 348.775 90.8004 348.796 90.836 348.831C90.8717 348.867 90.8921 348.915 90.893 348.965C90.8422 350.113 91.2033 351.241 91.9113 352.146C92.6193 353.051 93.6274 353.673 94.7538 353.9C94.9985 353.95 94.8878 354.322 94.6445 354.273ZM96.6333 364.737C98.7546 363.372 100.284 361.258 100.915 358.816C100.978 358.574 101.35 358.684 101.288 358.925C100.625 361.465 99.0299 363.662 96.8193 365.077C96.6085 365.212 96.4236 364.871 96.6333 364.737ZM98.0798 343.505C98.527 343.699 99.0155 343.78 99.5015 343.739C99.9875 343.698 100.456 343.537 100.864 343.27C101.073 343.133 101.258 343.474 101.05 343.611C100.597 343.903 100.08 344.08 99.5434 344.127C99.0066 344.173 98.4665 344.088 97.9705 343.877C97.9221 343.861 97.8815 343.827 97.8571 343.783C97.8326 343.738 97.8262 343.686 97.8389 343.636C97.8537 343.587 97.8872 343.546 97.9323 343.521C97.9774 343.496 98.0304 343.491 98.0798 343.505Z" fill="white"/>
<path d="M160.306 289.171C167.096 289.171 172.601 283.666 172.601 276.877C172.601 270.087 167.096 264.582 160.306 264.582C153.517 264.582 148.012 270.087 148.012 276.877C148.012 283.666 153.517 289.171 160.306 289.171Z" fill="#FF6584"/>
<path d="M197.949 276.235C196.841 275.065 195.672 273.955 194.445 272.909C192.05 270.878 189.399 269.151 186.443 268.063C185.33 267.652 184.18 267.35 183.01 267.16C182.869 267.137 182.73 267.114 182.59 267.095C182.579 267.094 182.569 267.094 182.559 267.095C182.537 267.089 182.515 267.085 182.493 267.083C182.205 267.046 181.918 267.017 181.628 266.996C180.069 266.892 178.503 267.033 176.987 267.414C176.107 267.636 175.249 267.935 174.422 268.307C173.594 268.713 172.79 269.168 172.017 269.67C171.601 269.923 171.173 270.154 170.734 270.363C169.453 270.97 168.097 271.404 166.701 271.654C165.759 271.823 164.804 271.917 163.847 271.935C163.015 271.952 162.232 271.981 161.444 272.281C160.603 272.597 159.847 273.105 159.238 273.765C158.628 274.425 158.182 275.219 157.934 276.082C157.914 276.159 157.92 276.24 157.949 276.313C157.979 276.386 158.032 276.448 158.099 276.49C158.312 276.643 158.519 276.816 158.744 276.953C158.943 277.044 159.156 277.102 159.373 277.125C159.729 277.199 160.085 277.271 160.443 277.342C161.756 277.602 163.075 277.833 164.399 278.035C167.063 278.438 169.742 278.722 172.437 278.887C172.453 278.889 172.47 278.89 172.486 278.891C175.53 279.075 178.581 279.104 181.628 278.98C182.089 278.961 182.548 278.938 183.01 278.912C184.931 278.804 186.848 278.634 188.759 278.403C190.528 278.188 192.289 277.921 194.044 277.602C195.297 277.375 196.546 277.121 197.79 276.841C197.85 276.823 197.905 276.79 197.949 276.745C197.992 276.7 198.024 276.644 198.04 276.583C198.056 276.522 198.056 276.458 198.04 276.397C198.024 276.336 197.993 276.28 197.949 276.235ZM172.395 292.628C170.615 290.724 168.654 288.998 166.54 287.474C165.839 286.982 165.117 286.519 164.374 286.095C163.464 285.569 162.519 285.107 161.545 284.711C161.328 284.622 161.109 284.537 160.889 284.457C159.644 283.995 158.352 283.671 157.036 283.489C157.026 283.487 157.015 283.489 157.005 283.487C156.984 283.482 156.962 283.478 156.941 283.474C156.303 283.391 155.661 283.352 155.017 283.356C154.556 283.356 154.093 283.381 153.634 283.427C152.892 283.5 152.156 283.627 151.433 283.807C151.075 283.896 150.72 284 150.37 284.117C149.86 284.285 149.36 284.48 148.87 284.701C148.862 284.705 148.856 284.707 148.848 284.711C148.027 285.113 147.231 285.564 146.465 286.064C146.449 286.074 146.43 286.084 146.413 286.095C145.544 286.615 144.623 287.046 143.667 287.381C142.846 287.668 142.003 287.891 141.148 288.047C140.205 288.217 139.251 288.31 138.293 288.326C137.462 288.343 136.678 288.372 135.892 288.674C135.051 288.99 134.295 289.498 133.685 290.158C133.075 290.818 132.628 291.612 132.38 292.475C132.361 292.552 132.367 292.633 132.396 292.706C132.426 292.779 132.478 292.841 132.546 292.883C132.759 293.036 132.967 293.208 133.191 293.344C133.39 293.436 133.602 293.494 133.82 293.516C134.175 293.59 134.531 293.665 134.889 293.735C136.202 293.996 137.522 294.226 138.848 294.426C140.666 294.701 142.491 294.921 144.324 295.086C145.193 295.166 146.062 295.232 146.933 295.284C149.164 295.419 151.398 295.471 153.634 295.441C154.095 295.435 154.556 295.425 155.017 295.41C157.756 295.33 160.486 295.124 163.208 294.794C166.242 294.427 169.255 293.906 172.236 293.232C172.296 293.215 172.351 293.182 172.395 293.137C172.439 293.092 172.47 293.036 172.486 292.975C172.502 292.915 172.502 292.851 172.486 292.79C172.47 292.729 172.439 292.673 172.395 292.628Z" fill="#E6E6E6"/>
<path d="M141.751 259.633L152.582 409.306L130.92 411.229V261.537C133.501 259.521 137.206 259.206 141.751 259.633ZM195.214 259.633L184.383 409.306L206.045 411.229V261.537C203.464 259.521 199.759 259.206 195.214 259.633Z" fill="#CCCCCC"/>
<path d="M206.555 261.603C205.883 259.955 204.453 258.817 202.801 258.817H133.933C131.635 258.817 129.768 261.022 129.768 263.734V412.497C129.748 413.873 130.262 415.204 131.203 416.208C131.695 416.725 132.319 417.099 133.007 417.29C133.308 417.374 133.62 417.415 133.933 417.415H202.801C203.114 417.415 203.426 417.374 203.727 417.29C205.581 416.792 206.966 414.834 206.966 412.497V263.734C206.968 263.004 206.829 262.28 206.555 261.603ZM205.585 412.497C205.585 414.309 204.336 415.784 202.801 415.784H133.933C132.661 415.784 131.584 414.77 131.255 413.391C131.184 413.098 131.149 412.798 131.149 412.497V263.734C131.149 261.923 132.399 260.45 133.933 260.45H202.801C203.083 260.45 203.364 260.501 203.628 260.599C204.76 261.014 205.585 262.262 205.585 263.734V412.497Z" fill="#CCCCCC"/>
<path d="M130.459 304.036H206.276V305.418H130.459V304.036ZM130.459 275.493H206.276V276.876H130.459V275.493ZM130.459 327.08H206.276V328.463H130.459V327.08Z" fill="#CCCCCC"/>
<path d="M153.679 259.438H155.062V346.668H153.679V259.438ZM181.672 259.438H183.055V346.668H181.672V259.438ZM214.917 408.773H124.121C122.472 408.775 120.891 409.431 119.724 410.598C118.558 411.764 117.902 413.345 117.9 414.995C117.899 415.788 118.051 416.574 118.349 417.309C118.811 418.463 119.607 419.451 120.636 420.148C121.665 420.845 122.879 421.218 124.121 421.218H214.917C216.003 421.218 217.07 420.933 218.012 420.393C218.954 419.852 219.738 419.074 220.286 418.137C220.442 417.872 220.578 417.595 220.692 417.309C220.989 416.574 221.141 415.788 221.14 414.995C221.138 413.345 220.481 411.764 219.315 410.598C218.148 409.431 216.567 408.775 214.917 408.773Z" fill="#CCCCCC"/>
<path d="M130.92 343.442H206.276V348.051H130.92V343.442Z" fill="#CCCCCC"/>
<path d="M167.906 342.059H169.289C169.961 342.059 170.606 342.326 171.081 342.802C171.557 343.277 171.824 343.922 171.824 344.594H165.371C165.371 344.261 165.437 343.932 165.564 343.624C165.692 343.317 165.878 343.037 166.114 342.802C166.349 342.566 166.629 342.38 166.936 342.252C167.244 342.125 167.573 342.059 167.906 342.059Z" fill="#CCCCCC"/>
<path d="M169.927 356.44C177.814 356.44 184.208 350.046 184.208 342.159C184.208 334.272 177.814 327.878 169.927 327.878C162.04 327.878 155.646 334.272 155.646 342.159C155.646 350.046 162.04 356.44 169.927 356.44Z" fill="#FFB8B8"/>
<path d="M153.996 328.421C154.104 326.781 155.189 325.103 158.634 324.226C158.634 324.226 164.548 316.664 172.584 320.629C172.584 320.629 176.479 319.959 179.368 324.001C179.368 324.001 182.232 322.312 183.44 325.306C183.44 325.306 186.8 331.413 185.563 337.642C184.326 343.872 183.693 344.649 183.693 344.649C183.693 344.649 185.27 331.764 176.191 332.657C167.111 333.551 159.802 330.358 157.746 337.349C156.039 343.153 156.254 346.168 156.254 346.168C156.254 346.168 150.545 340.377 152.486 335.818C153.479 333.485 153.83 330.95 153.996 328.421Z" fill="#2F2E41"/>
<path d="M131.091 420.205H210.084C209.556 414.179 209.211 391.146 209.211 389.63C209.211 382.944 203.74 375.647 203.74 375.647L201.781 374.565L185.427 369.463L181.195 363.965C180.752 363.388 180.181 362.921 179.526 362.602C178.872 362.282 178.153 362.119 177.425 362.125L164.056 362.225C162.88 362.234 161.749 362.682 160.886 363.481L152.607 371.161L140.464 376.96L140.444 376.939L140.317 377.034L138.515 378.331L137.356 379.169C137.356 379.169 134.315 382.817 131.885 393.759C131.519 395.405 131.262 416.71 131.091 420.205Z" fill="#E92B8C"/>
<path d="M228.367 417.309C228.177 417.483 227.984 417.654 227.792 417.826C227.064 418.474 226.326 419.11 225.577 419.735C224.445 420.678 223.291 421.593 222.112 422.48H115.774C113.608 420.854 111.523 419.131 109.517 417.309H228.367Z" fill="#CCCCCC"/>
<path d="M189.388 418.55H150.298L151.125 414.62H188.561L189.388 418.55Z" fill="#2F2E41"/>
<path d="M224.754 401.59H214.582C214.352 401.589 214.125 401.639 213.917 401.736C213.709 401.832 213.524 401.973 213.376 402.149C213.234 402.121 213.09 402.107 212.946 402.107C212.629 402.107 212.315 402.169 212.022 402.29C211.729 402.411 211.463 402.589 211.238 402.813C211.014 403.037 210.836 403.303 210.715 403.596C210.593 403.889 210.531 404.203 210.531 404.52C210.531 404.837 210.593 405.151 210.715 405.444C210.836 405.737 211.014 406.003 211.238 406.227C211.463 406.451 211.729 406.628 212.022 406.75C212.315 406.871 212.629 406.933 212.946 406.932C213.31 406.932 213.67 406.849 213.997 406.688L214.166 408.773L214.84 417.013C214.872 417.116 214.915 417.215 214.969 417.309C215.105 417.559 215.306 417.768 215.551 417.914C215.796 418.059 216.076 418.136 216.361 418.136H222.975C223.26 418.136 223.54 418.059 223.785 417.914C224.03 417.768 224.232 417.559 224.369 417.309C224.421 417.215 224.463 417.116 224.495 417.013L226.274 403.648C226.347 403.41 226.363 403.158 226.321 402.913C226.28 402.668 226.181 402.436 226.033 402.236C225.885 402.035 225.692 401.873 225.47 401.761C225.248 401.649 225.003 401.59 224.754 401.59ZM212.946 406.244C212.489 406.243 212.051 406.061 211.728 405.738C211.405 405.415 211.224 404.977 211.224 404.52C211.224 404.063 211.405 403.625 211.728 403.302C212.051 402.978 212.489 402.796 212.946 402.796C212.977 402.796 213.006 402.804 213.037 402.806C212.969 403.084 212.977 403.375 213.062 403.648L213.79 406.014C213.533 406.163 213.242 406.242 212.946 406.244ZM201.779 357.86H137.389C136.836 357.861 136.306 358.081 135.915 358.473C135.523 358.864 135.303 359.394 135.302 359.947V403.398C135.303 403.951 135.523 404.482 135.914 404.873C136.305 405.264 136.836 405.484 137.389 405.485H201.779C202.332 405.484 202.863 405.264 203.254 404.873C203.645 404.482 203.866 403.951 203.866 403.398V359.947C203.865 359.394 203.645 358.864 203.254 358.473C202.863 358.081 202.332 357.861 201.779 357.86Z" fill="#3F3D56"/>
<path d="M176.836 392.676H161.772C161.559 392.676 161.355 392.761 161.204 392.912C161.054 393.063 160.97 393.267 160.97 393.48V417.276H177.64V393.48C177.64 393.375 177.619 393.27 177.579 393.172C177.539 393.075 177.479 392.986 177.405 392.911C177.33 392.837 177.241 392.777 177.144 392.737C177.046 392.696 176.941 392.676 176.836 392.676ZM169.355 406.196C168.884 406.194 168.432 406.006 168.099 405.673C167.766 405.34 167.578 404.889 167.576 404.417V401.673C167.576 401.201 167.764 400.75 168.098 400.416C168.431 400.083 168.883 399.896 169.355 399.896C169.826 399.896 170.278 400.083 170.612 400.416C170.945 400.75 171.133 401.201 171.133 401.673V404.417C171.131 404.889 170.943 405.34 170.61 405.673C170.277 406.006 169.826 406.194 169.355 406.196Z" fill="#2F2E41"/>
<path d="M160.918 416.515V418.811C160.918 418.93 160.966 419.044 161.05 419.128C161.134 419.212 161.248 419.259 161.367 419.26H177.243C177.362 419.259 177.476 419.211 177.56 419.127C177.644 419.043 177.691 418.93 177.692 418.811V416.515H160.918Z" fill="#3F3D56"/>
<path d="M200.41 402.944C200.971 402.944 201.426 402.489 201.426 401.927C201.426 401.366 200.971 400.911 200.41 400.911C199.849 400.911 199.393 401.366 199.393 401.927C199.393 402.489 199.849 402.944 200.41 402.944Z" fill="#2F2E41"/>
<path d="M145.518 400.453C145.471 400.453 145.425 400.462 145.381 400.48C145.338 400.498 145.299 400.524 145.266 400.557C145.233 400.59 145.207 400.629 145.189 400.672C145.171 400.715 145.162 400.762 145.162 400.808V402.639C145.162 402.733 145.2 402.823 145.266 402.89C145.333 402.956 145.423 402.994 145.518 402.994C145.612 402.994 145.702 402.956 145.769 402.89C145.836 402.823 145.873 402.733 145.873 402.639V400.808C145.873 400.762 145.864 400.715 145.846 400.672C145.828 400.629 145.802 400.59 145.769 400.557C145.736 400.524 145.697 400.498 145.654 400.48C145.611 400.462 145.564 400.453 145.518 400.453ZM147.449 400.453C147.403 400.453 147.356 400.462 147.313 400.48C147.27 400.498 147.231 400.524 147.198 400.557C147.165 400.59 147.139 400.629 147.121 400.672C147.103 400.715 147.094 400.762 147.094 400.808V402.639C147.094 402.733 147.131 402.824 147.198 402.89C147.265 402.957 147.355 402.995 147.449 402.995C147.544 402.995 147.634 402.957 147.701 402.89C147.768 402.824 147.805 402.733 147.805 402.639V400.808C147.805 400.762 147.796 400.715 147.778 400.672C147.76 400.629 147.734 400.59 147.701 400.557C147.668 400.524 147.629 400.498 147.586 400.48C147.542 400.462 147.496 400.453 147.449 400.453ZM149.381 400.453C149.334 400.453 149.288 400.462 149.245 400.48C149.202 400.498 149.163 400.524 149.13 400.557C149.097 400.59 149.07 400.629 149.053 400.672C149.035 400.715 149.025 400.762 149.025 400.808V402.639C149.026 402.733 149.063 402.823 149.13 402.89C149.197 402.956 149.287 402.994 149.381 402.994C149.475 402.994 149.566 402.956 149.632 402.89C149.699 402.823 149.737 402.733 149.737 402.639V400.808C149.737 400.762 149.728 400.715 149.71 400.672C149.692 400.629 149.666 400.59 149.633 400.557C149.6 400.524 149.561 400.498 149.517 400.48C149.474 400.462 149.428 400.453 149.381 400.453ZM151.313 400.453C151.266 400.453 151.22 400.462 151.177 400.48C151.134 400.498 151.094 400.524 151.061 400.557C151.028 400.59 151.002 400.629 150.984 400.672C150.966 400.715 150.957 400.762 150.957 400.808V402.639C150.957 402.733 150.995 402.823 151.062 402.89C151.128 402.956 151.219 402.994 151.313 402.994C151.407 402.994 151.498 402.956 151.564 402.89C151.631 402.823 151.668 402.733 151.669 402.639V400.808C151.669 400.762 151.66 400.715 151.642 400.672C151.624 400.629 151.598 400.59 151.565 400.557C151.531 400.524 151.492 400.498 151.449 400.48C151.406 400.462 151.36 400.453 151.313 400.453Z" fill="#2F2E41"/>
<path d="M152.854 417.516C155.824 417.516 158.232 415.108 158.232 412.138C158.232 409.168 155.824 406.761 152.854 406.761C149.884 406.761 147.477 409.168 147.477 412.138C147.477 415.108 149.884 417.516 152.854 417.516Z" fill="#FFB8B8"/>
<path d="M190.422 418.55C193.392 418.55 195.8 416.142 195.8 413.172C195.8 410.203 193.392 407.795 190.422 407.795C187.452 407.795 185.045 410.203 185.045 413.172C185.045 416.142 187.452 418.55 190.422 418.55Z" fill="#FFB8B8"/>
<path d="M245.928 348.264C245.397 347.385 244.767 346.447 243.781 346.16C242.639 345.827 241.466 346.488 240.471 347.139C237.495 349.087 234.629 351.199 231.886 353.464L231.889 353.498C234.025 353.351 235.797 359.028 237.932 358.881C239.475 358.775 241.434 352.829 242.797 352.099C243.314 351.822 243.818 351.452 244.405 351.426C245.133 351.394 245.768 351.903 246.267 352.434C249.219 355.578 250.074 360.386 253.386 363.148C251.297 357.997 248.804 353.02 245.928 348.264Z" fill="#3F3D56"/>
<path d="M251.61 355.9C253.168 358.712 254.82 361.469 256.566 364.171V364.173C256.556 364.268 256.541 364.363 256.527 364.458C256.316 364.135 256.107 363.811 255.9 363.486C254.332 361.027 252.842 358.521 251.43 355.968C250.76 354.754 250.107 353.53 249.47 352.297C248.977 351.341 248.496 350.38 248.024 349.413C247.89 349.136 247.759 348.859 247.629 348.58C247.323 347.926 247.021 347.269 246.698 346.623C246.33 345.887 245.881 345.118 245.205 344.623C244.897 344.389 244.529 344.247 244.144 344.214C243.601 344.217 243.069 344.369 242.607 344.654C239.108 346.493 235.843 348.745 232.88 351.362C229.914 353.968 227.262 356.912 224.979 360.133C224.909 360.233 224.743 360.137 224.814 360.036C225.093 359.643 225.374 359.256 225.664 358.872C229.252 354.099 233.653 349.996 238.663 346.747C239.505 346.201 240.363 345.681 241.238 345.186C241.678 344.936 242.121 344.689 242.572 344.458C243.004 344.205 243.488 344.055 243.987 344.019C245.703 343.992 246.593 345.937 247.203 347.244C247.393 347.655 247.587 348.066 247.784 348.476C248.527 350.028 249.298 351.566 250.098 353.093C250.591 354.034 251.095 354.97 251.61 355.9ZM232.711 350.402C232.611 350.29 232.512 350.179 232.412 350.068C231.621 349.193 230.771 348.328 229.684 347.826C229.166 347.579 228.601 347.448 228.027 347.442C227.434 347.458 226.851 347.585 226.305 347.817C226.046 347.92 225.793 348.038 225.543 348.163C225.258 348.307 224.978 348.46 224.699 348.614C224.176 348.904 223.659 349.206 223.149 349.521C222.135 350.148 221.152 350.823 220.201 351.545C219.708 351.92 219.225 352.307 218.753 352.707C218.313 353.078 217.883 353.458 217.461 353.849C217.371 353.933 217.236 353.798 217.326 353.715C217.437 353.611 217.55 353.508 217.662 353.407C217.98 353.119 218.303 352.838 218.63 352.562C219.228 352.057 219.841 351.573 220.47 351.107C221.447 350.383 222.459 349.708 223.503 349.082C224.026 348.77 224.555 348.47 225.091 348.184C225.253 348.098 225.417 348.013 225.583 347.933C225.959 347.743 226.35 347.584 226.752 347.457C227.321 347.273 227.923 347.214 228.517 347.284C229.091 347.367 229.643 347.559 230.146 347.847C231.213 348.444 232.04 349.366 232.846 350.266C232.927 350.358 232.793 350.493 232.711 350.402Z" fill="#3F3D56"/>
<path d="M224.902 354.613C224.631 354.626 224.363 354.55 224.14 354.395C223.549 353.947 223.565 352.873 224.187 351.109C224.357 350.632 224.622 350.194 224.968 349.823C225.313 349.451 225.731 349.155 226.195 348.952C226.63 348.757 227.1 348.655 227.577 348.652C228.053 348.65 228.525 348.746 228.963 348.935C229.039 348.968 229.114 349.004 229.188 349.042C229.695 349.325 230.169 349.662 230.604 350.046C230.973 350.367 231.367 350.658 231.782 350.917L231.921 350.998L231.79 351.091C228.439 353.449 226.168 354.613 224.902 354.613ZM237.786 340.576C236.684 340.576 235.617 340.193 234.766 339.494C233.914 338.794 233.332 337.821 233.119 336.74C232.198 336.927 231.352 337.382 230.69 338.048C230.027 338.715 229.576 339.562 229.395 340.485C229.214 341.407 229.31 342.362 229.671 343.23C230.032 344.098 230.642 344.839 231.424 345.36C232.206 345.882 233.125 346.16 234.064 346.16C235.004 346.159 235.923 345.881 236.705 345.359C237.486 344.837 238.096 344.095 238.456 343.227C238.817 342.359 238.912 341.404 238.73 340.482C238.419 340.544 238.103 340.576 237.786 340.576Z" fill="#3F3D56"/>
<path opacity="0.74" d="M110.446 348.228C114.367 348.228 117.545 345.05 117.545 341.129C117.545 337.209 114.367 334.031 110.446 334.031C106.526 334.031 103.347 337.209 103.347 341.129C103.347 345.05 106.526 348.228 110.446 348.228Z" fill="#3F3D56"/>
<path opacity="0.74" d="M117.545 348.228C121.466 348.228 124.644 345.05 124.644 341.129C124.644 337.209 121.466 334.031 117.545 334.031C113.625 334.031 110.446 337.209 110.446 341.129C110.446 345.05 113.625 348.228 117.545 348.228Z" fill="#E92B8C"/>
<path opacity="0.74" d="M114.056 342.571C117.976 342.571 121.155 339.392 121.155 335.472C121.155 331.551 117.976 328.373 114.056 328.373C110.135 328.373 106.957 331.551 106.957 335.472C106.957 339.392 110.135 342.571 114.056 342.571Z" fill="#FF6584"/>
<path d="M114.384 339.166L132.619 333.438L132.743 333.832L114.508 339.561L114.384 339.166Z" fill="#3F3D56"/>
<path d="M132.735 334.396C133.192 334.396 133.562 334.025 133.562 333.569C133.562 333.112 133.192 332.741 132.735 332.741C132.278 332.741 131.907 333.112 131.907 333.569C131.907 334.025 132.278 334.396 132.735 334.396Z" fill="#3F3D56"/>
<path d="M251.11 370.795C252.322 371.65 253.486 372.52 254.818 373.178C254.793 373.279 254.767 373.383 254.742 373.484C254.578 373.408 254.419 373.327 254.26 373.244C252.909 372.537 251.747 371.575 250.479 370.739C249.85 370.305 249.164 369.961 248.44 369.718C247.685 369.491 246.896 369.398 246.109 369.445C242.826 369.606 240.013 371.565 236.963 372.551C235.469 373.035 233.881 373.294 232.324 372.99C230.766 372.686 229.382 371.858 228.007 371.11C226.65 370.369 225.171 369.625 223.587 369.625C222.297 369.627 220.94 370.144 220.249 371.285C220.227 371.32 220.194 371.344 220.154 371.354C220.115 371.363 220.074 371.357 220.039 371.336C220.004 371.316 219.979 371.283 219.968 371.244C219.958 371.205 219.963 371.164 219.982 371.128C220.137 370.868 220.327 370.631 220.547 370.423C221.449 369.569 222.774 369.232 223.993 369.331C225.569 369.459 227.006 370.204 228.369 370.953C229.815 371.747 231.296 372.601 232.967 372.775C234.617 372.948 236.251 372.516 237.782 371.935C240.746 370.808 243.67 368.93 246.967 369.139C248.522 369.238 249.854 369.912 251.11 370.795Z" fill="#3F3D56"/>
<path d="M121.379 310.979V311.398C121.24 311.371 121.098 311.357 120.957 311.357H118.793V316.002C118.793 316.69 118.52 317.35 118.033 317.836C117.547 318.322 116.887 318.596 116.2 318.596H113.002V319.312C113.002 319.599 113.059 319.883 113.17 320.147H112.727C112.635 319.878 112.588 319.596 112.588 319.312V318.596H110.83V318.182H112.588V313.537C112.589 312.849 112.862 312.19 113.349 311.703C113.835 311.217 114.494 310.944 115.182 310.943H118.38V310.219H118.793V310.943H120.957C121.098 310.944 121.239 310.955 121.379 310.979Z" fill="#E92B8C"/>
<path d="M116.2 307.634H110.425C109.737 307.634 109.078 307.908 108.592 308.394C108.105 308.88 107.832 309.54 107.831 310.228V316.002C107.832 316.69 108.105 317.35 108.592 317.836C109.078 318.322 109.737 318.596 110.425 318.596H116.2C116.887 318.596 117.547 318.322 118.033 317.836C118.52 317.35 118.793 316.69 118.793 316.002V310.219C118.791 309.533 118.517 308.876 118.03 308.391C117.544 307.907 116.886 307.634 116.2 307.634ZM118.38 316.002C118.379 316.58 118.149 317.134 117.74 317.543C117.332 317.952 116.778 318.182 116.2 318.182H110.425C109.847 318.182 109.293 317.952 108.884 317.543C108.476 317.134 108.246 316.58 108.245 316.002V310.228C108.246 309.65 108.476 309.096 108.884 308.687C109.293 308.278 109.847 308.048 110.425 308.048H116.2C116.776 308.048 117.329 308.277 117.738 308.684C118.146 309.091 118.377 309.643 118.38 310.219V316.002Z" fill="#3F3D56"/>
<path d="M112.588 318.182V318.596H113.002V318.182H112.588ZM112.588 318.182V318.596H113.002V318.182H112.588ZM121.379 310.979C121.239 310.955 121.098 310.944 120.957 310.943H115.182C114.494 310.944 113.835 311.217 113.349 311.703C112.862 312.19 112.589 312.849 112.588 313.537V319.312C112.588 319.596 112.635 319.878 112.727 320.147C112.902 320.66 113.232 321.105 113.672 321.42C114.113 321.735 114.641 321.905 115.182 321.905H120.957C121.645 321.905 122.304 321.631 122.79 321.145C123.277 320.659 123.55 319.999 123.55 319.312V313.537C123.55 312.922 123.332 312.328 122.934 311.859C122.536 311.391 121.985 311.079 121.379 310.979ZM123.137 319.312C123.136 319.89 122.906 320.444 122.497 320.852C122.089 321.261 121.535 321.491 120.957 321.492H115.182C114.604 321.491 114.05 321.261 113.642 320.852C113.233 320.444 113.003 319.89 113.002 319.312V313.537C113.003 312.959 113.233 312.405 113.641 311.996C114.05 311.588 114.604 311.358 115.182 311.357H120.957C121.535 311.357 122.089 311.587 122.498 311.996C122.907 312.405 123.137 312.959 123.137 313.537V319.312ZM112.588 318.182V318.596H113.002V318.182H112.588Z" fill="#3F3D56"/>
<path d="M108.504 372.101H83.9738C83.803 372.101 83.6392 372.168 83.5183 372.289C83.3974 372.41 83.3291 372.573 83.3284 372.744V374.198C84.1377 377.297 85.1175 380.35 86.2633 383.342H108.504C108.588 383.342 108.672 383.325 108.75 383.293C108.828 383.261 108.899 383.213 108.959 383.154C109.018 383.094 109.066 383.023 109.098 382.945C109.13 382.867 109.147 382.783 109.147 382.698V372.744C109.147 372.573 109.079 372.41 108.958 372.289C108.838 372.169 108.674 372.101 108.504 372.101Z" fill="#E92B8C"/>
<path d="M106.166 386.57H87.5726C87.7939 387.089 88.0193 387.604 88.253 388.117H106.166C107.176 388.132 107.165 386.556 106.166 386.57ZM106.166 390.115H89.1858C89.434 390.634 89.6891 391.15 89.9511 391.662H106.166C107.176 391.677 107.165 390.103 106.166 390.115ZM106.166 393.662H90.9956C91.2727 394.181 91.5582 394.696 91.8477 395.209H106.166C107.176 395.224 107.165 393.648 106.166 393.662Z" fill="#E4E4E4"/>
<path d="M233.335 298.322H233.217C233.584 298.322 233.946 298.407 234.274 298.571H233.738C233.16 298.572 232.606 298.802 232.197 299.211C231.789 299.619 231.559 300.173 231.558 300.751V306.526C231.559 307.104 231.789 307.658 232.197 308.067C232.606 308.476 233.16 308.705 233.738 308.706H234.08C233.805 308.814 233.513 308.869 233.217 308.87H233.335C233.968 308.869 234.575 308.617 235.022 308.17C235.47 307.722 235.721 307.116 235.722 306.483V300.708C235.721 300.075 235.47 299.469 235.022 299.021C234.575 298.574 233.968 298.322 233.335 298.322Z" fill="#3F3D56"/>
<path opacity="0.21" d="M233.335 298.322H233.217C233.584 298.322 233.946 298.407 234.274 298.571H233.738C233.16 298.572 232.606 298.802 232.197 299.211C231.789 299.619 231.559 300.173 231.558 300.751V306.526C231.559 307.104 231.789 307.658 232.197 308.067C232.606 308.476 233.16 308.705 233.738 308.706H234.08C233.805 308.814 233.513 308.869 233.217 308.87H233.335C233.968 308.869 234.575 308.617 235.022 308.17C235.47 307.722 235.721 307.116 235.722 306.483V300.708C235.721 300.075 235.47 299.469 235.022 299.021C234.575 298.574 233.968 298.322 233.335 298.322Z" fill="black"/>
<path d="M218.03 298.322H217.912C218.279 298.322 218.641 298.407 218.969 298.571H218.433C217.855 298.572 217.301 298.802 216.892 299.211C216.483 299.619 216.253 300.173 216.253 300.751V306.526C216.253 307.104 216.483 307.658 216.892 308.067C217.301 308.476 217.855 308.705 218.433 308.706H218.774C218.5 308.814 218.207 308.869 217.912 308.87H218.03C218.663 308.869 219.269 308.617 219.717 308.17C220.164 307.722 220.416 307.116 220.417 306.483V300.708C220.416 300.075 220.164 299.469 219.717 299.021C219.269 298.574 218.663 298.322 218.03 298.322Z" fill="#E92B8C"/>
<path opacity="0.21" d="M218.03 298.322H217.912C218.279 298.322 218.641 298.407 218.969 298.571H218.433C217.855 298.572 217.301 298.802 216.892 299.211C216.483 299.619 216.253 300.173 216.253 300.751V306.526C216.253 307.104 216.483 307.658 216.892 308.067C217.301 308.476 217.855 308.705 218.433 308.706H218.774C218.5 308.814 218.207 308.869 217.912 308.87H218.03C218.663 308.869 219.269 308.617 219.717 308.17C220.164 307.722 220.416 307.116 220.417 306.483V300.708C220.416 300.075 220.164 299.469 219.717 299.021C219.269 298.574 218.663 298.322 218.03 298.322Z" fill="black"/>
<path d="M218.456 308.724C217.878 308.723 217.324 308.494 216.915 308.085C216.506 307.676 216.276 307.122 216.276 306.544V300.769C216.276 300.191 216.506 299.637 216.915 299.229C217.324 298.82 217.878 298.59 218.456 298.59H218.992C218.664 298.425 218.302 298.34 217.935 298.34H212.16C211.528 298.34 210.921 298.592 210.474 299.039C210.026 299.487 209.774 300.094 209.774 300.726V306.501C209.774 307.134 210.026 307.741 210.474 308.188C210.921 308.635 211.528 308.887 212.16 308.888H217.935C218.23 308.887 218.523 308.832 218.798 308.724H218.456Z" fill="#E92B8C"/>
<path d="M233.761 308.724C233.183 308.723 232.629 308.494 232.22 308.085C231.812 307.676 231.582 307.122 231.581 306.544V300.769C231.582 300.191 231.812 299.637 232.22 299.229C232.629 298.82 233.183 298.59 233.761 298.59H234.297C233.969 298.425 233.607 298.34 233.241 298.34H227.466C226.833 298.34 226.226 298.592 225.779 299.039C225.331 299.487 225.08 300.094 225.079 300.726V306.501C225.08 307.134 225.331 307.741 225.779 308.188C226.226 308.635 226.833 308.887 227.466 308.888H233.241C233.536 308.887 233.828 308.832 234.103 308.724H233.761Z" fill="#3F3D56"/>
<path d="M240.58 299.777C242.699 302.692 244.638 305.735 246.386 308.887H242.77C242.138 308.886 241.531 308.635 241.084 308.187C240.636 307.74 240.385 307.133 240.384 306.501V300.726C240.383 300.399 240.45 300.076 240.58 299.777Z" fill="#FF6584"/>
<path d="M233.331 311.918L231.308 308.888L229.829 306.672C229.743 306.543 229.622 306.441 229.48 306.377C229.338 306.314 229.181 306.292 229.027 306.315C228.873 306.337 228.728 306.402 228.61 306.503C228.492 306.604 228.405 306.737 228.359 306.885L227.736 308.888L226.483 312.91C226.433 313.071 226.434 313.242 226.484 313.402C226.535 313.562 226.633 313.703 226.766 313.806C226.898 313.908 227.059 313.968 227.226 313.977C227.394 313.986 227.56 313.944 227.703 313.856L228.148 313.581C228.237 313.525 228.339 313.494 228.444 313.489C228.549 313.485 228.654 313.507 228.748 313.554C228.842 313.601 228.922 313.671 228.982 313.758C229.041 313.845 229.077 313.945 229.087 314.05L229.494 318.497C229.513 318.701 229.608 318.891 229.759 319.029C229.911 319.168 230.108 319.245 230.313 319.246C230.338 319.246 230.363 319.243 230.39 319.241L231.014 319.186C231.122 319.176 231.227 319.145 231.323 319.095C231.418 319.044 231.503 318.975 231.572 318.892C231.642 318.809 231.694 318.713 231.726 318.61C231.758 318.506 231.769 318.398 231.759 318.29L231.339 313.698C231.329 313.591 231.348 313.482 231.393 313.384C231.438 313.285 231.509 313.201 231.597 313.138C231.686 313.076 231.789 313.038 231.897 313.028C232.005 313.018 232.114 313.037 232.212 313.082L232.303 313.123C232.466 313.198 232.649 313.218 232.824 313.18C232.999 313.141 233.157 313.046 233.273 312.91C233.39 312.773 233.458 312.602 233.469 312.423C233.479 312.244 233.431 312.067 233.331 311.918Z" fill="#CCCCCC"/>
</g>
<g clip-path="url(#clip2_56_179)">
<path d="M204.036 528.221V483.874C204.036 483.24 204.287 482.633 204.735 482.185C205.183 481.737 205.79 481.486 206.424 481.486C207.057 481.486 207.664 481.737 208.112 482.185C208.56 482.633 208.812 483.24 208.812 483.874V528.221C208.812 528.855 208.56 529.462 208.112 529.91C207.664 530.358 207.057 530.609 206.424 530.609C205.79 530.609 205.183 530.358 204.735 529.91C204.287 529.462 204.036 528.855 204.036 528.221ZM198.322 528.221V483.874C198.322 483.24 198.573 482.633 199.021 482.185C199.469 481.737 200.076 481.486 200.71 481.486C201.343 481.486 201.95 481.737 202.398 482.185C202.846 482.633 203.098 483.24 203.098 483.874V528.221C203.098 528.855 202.846 529.462 202.398 529.91C201.95 530.358 201.343 530.609 200.71 530.609C200.076 530.609 199.469 530.358 199.021 529.91C198.573 529.462 198.322 528.855 198.322 528.221ZM192.608 528.221V483.874C192.608 483.24 192.859 482.633 193.307 482.185C193.755 481.737 194.362 481.486 194.996 481.486C195.629 481.486 196.236 481.737 196.684 482.185C197.132 482.633 197.384 483.24 197.384 483.874V528.221C197.384 528.855 197.132 529.462 196.684 529.91C196.236 530.358 195.629 530.609 194.996 530.609C194.362 530.609 193.755 530.358 193.307 529.91C192.859 529.462 192.608 528.855 192.608 528.221Z" fill="#F0F0F0"/>
<path d="M408.344 599.054C407.382 599.054 406.427 598.889 405.522 598.564L405.383 598.514L405.447 598.205C403.826 594.93 404.393 590.443 406.898 586.754C409.176 583.4 412.639 580.962 415.694 578.811C416.082 578.538 416.543 578.387 417.017 578.378C417.491 578.369 417.957 578.502 418.355 578.76C418.752 579.018 419.064 579.389 419.25 579.825C419.435 580.261 419.486 580.743 419.395 581.209L418.302 586.815C417.514 590.859 416.576 594.687 413.794 597.074C412.265 598.352 410.336 599.053 408.344 599.054ZM415.5 608.741C414.441 608.735 413.401 608.464 412.474 607.954C411.547 607.444 410.762 606.71 410.19 605.819L410.111 605.696L410.3 605.529C410.789 602.862 413.088 600.486 416.175 599.464C418.981 598.535 422.079 598.687 424.81 598.82C425.171 598.838 425.518 598.962 425.808 599.178C426.099 599.393 426.318 599.69 426.44 600.03C426.561 600.37 426.579 600.739 426.49 601.089C426.402 601.44 426.212 601.756 425.943 601.998L422.871 604.772C420.638 606.787 418.411 608.607 415.724 608.737C415.649 608.74 415.574 608.741 415.5 608.741Z" fill="#E6E6E6"/>
<path d="M405.963 611.706C405.509 608.327 405.043 604.905 405.361 601.489C405.644 598.456 406.549 595.494 408.392 593.065C409.365 591.782 410.556 590.679 411.909 589.806C412.261 589.579 412.584 590.149 412.234 590.375C409.888 591.898 408.084 594.124 407.079 596.734C405.957 599.652 405.776 602.834 405.97 605.934C406.087 607.808 406.335 609.671 406.584 611.531C406.604 611.614 406.593 611.702 406.551 611.777C406.509 611.852 406.441 611.909 406.359 611.936C406.318 611.947 406.275 611.95 406.233 611.944C406.191 611.939 406.15 611.925 406.113 611.903C406.077 611.882 406.044 611.854 406.018 611.82C405.993 611.786 405.974 611.747 405.963 611.706Z" fill="#F2F2F2"/>
<path d="M404.681 613.649C406.865 609.698 409.398 605.307 413.925 603.904C415.182 603.515 416.503 603.375 417.813 603.493C418.226 603.53 418.123 604.18 417.711 604.144C415.51 603.959 413.314 604.553 411.506 605.822C409.756 607.039 408.394 608.732 407.241 610.527C406.535 611.626 405.902 612.772 405.269 613.917C405.067 614.283 404.476 614.019 404.681 613.649Z" fill="#F2F2F2"/>
<path d="M403.698 613.591L405.903 613.641L392.606 542.604L390.4 543.019L393.873 561.447H382.685L386.158 543.019L383.953 542.604L370.766 613.641L372.86 613.591L379.793 576.798H396.765L403.698 613.591ZM380.307 574.069L382.171 564.176H394.387L396.251 574.069H380.307Z" fill="#CACACA"/>
<path d="M307.4 529.353V506.024C307.4 505.332 308.471 504.768 309.788 504.768C311.105 504.768 312.176 505.332 312.176 506.024V529.353C312.176 530.046 311.105 530.609 309.788 530.609C308.471 530.609 307.4 530.046 307.4 529.353ZM301.686 529.353V506.024C301.686 505.332 302.757 504.768 304.074 504.768C305.391 504.768 306.462 505.332 306.462 506.024V529.353C306.462 530.046 305.391 530.609 304.074 530.609C302.757 530.609 301.686 530.046 301.686 529.353ZM295.972 529.353V506.024C295.972 505.332 297.043 504.768 298.36 504.768C299.677 504.768 300.748 505.332 300.748 506.024V529.353C300.748 530.046 299.677 530.609 298.36 530.609C297.043 530.609 295.972 530.046 295.972 529.353Z" fill="#F0F0F0"/>
<path d="M344.043 512.197C344.032 512.126 344.007 512.058 343.968 511.998C343.93 511.938 343.879 511.886 343.819 511.846L325.816 499.962C326.087 499.848 326.314 499.65 326.462 499.396C326.642 499.082 326.691 498.71 326.597 498.361C326.504 498.011 326.276 497.713 325.963 497.532L324.486 496.679C324.172 496.499 323.8 496.45 323.451 496.544C323.102 496.638 322.804 496.866 322.622 497.178C322.524 497.35 322.465 497.541 322.449 497.739L309.454 489.16C309.017 488.103 308.356 487.154 307.515 486.378C306.674 485.603 305.675 485.021 304.586 484.672V480.889H299.81V484.672C298.225 485.178 296.843 486.175 295.862 487.519C294.881 488.862 294.352 490.483 294.352 492.146V493.17H299.127C299.127 493.984 299.451 494.765 300.027 495.341C300.602 495.917 301.383 496.24 302.198 496.24C303.012 496.24 303.793 495.917 304.369 495.341C304.944 494.765 305.268 493.984 305.268 493.17H310.044V492.146C310.043 491.656 309.997 491.166 309.906 490.684L342.781 512.387L329.125 528.991C329.019 528.99 328.913 528.989 328.806 528.989C327.717 528.989 326.661 529.015 325.655 529.059C325.716 528.891 325.742 528.712 325.733 528.533C325.713 528.172 325.551 527.833 325.283 527.591C325.014 527.349 324.661 527.223 324.299 527.241L322.596 527.33C322.235 527.35 321.897 527.511 321.654 527.78C321.412 528.049 321.287 528.402 321.304 528.763C321.317 528.977 321.38 529.184 321.489 529.368C318.477 529.688 316.525 530.129 316.525 530.354C316.525 530.721 321.766 530.371 328.326 530.354C328.356 530.44 328.408 530.516 328.477 530.574C328.546 530.632 328.63 530.671 328.719 530.687C328.808 530.703 328.9 530.694 328.984 530.663C329.069 530.631 329.144 530.578 329.201 530.508L329.328 530.355C335.868 530.373 341.087 530.721 341.087 530.354C341.087 530.008 336.447 529.147 330.435 529.009L343.932 512.598C343.978 512.543 344.011 512.479 344.03 512.41C344.049 512.34 344.054 512.268 344.043 512.197Z" fill="#CCCCCC"/>
<path d="M344.535 613.761H302.502C301.652 613.76 300.838 613.423 300.237 612.822C299.637 612.221 299.299 611.407 299.298 610.557V541.574C299.297 540.815 298.995 540.088 298.459 539.551C297.922 539.014 297.194 538.712 296.435 538.711H198.114C197.355 538.712 196.628 539.014 196.091 539.551C195.554 540.088 195.252 540.815 195.252 541.574V610.557C195.251 611.407 194.913 612.221 194.312 612.822C193.711 613.423 192.897 613.76 192.048 613.761H190.609C189.76 613.76 188.946 613.423 188.345 612.822C187.744 612.221 187.406 611.407 187.405 610.557V537.859C187.408 535.824 188.217 533.873 189.656 532.434C191.095 530.995 193.046 530.185 195.081 530.183H340.064C342.099 530.185 344.05 530.995 345.489 532.434C346.928 533.873 347.737 535.824 347.739 537.859V610.557C347.738 611.407 347.4 612.221 346.8 612.822C346.199 613.423 345.385 613.76 344.535 613.761Z" fill="#E4E4E4"/>
<path d="M299.469 548.093H347.569V550.14H299.469V548.093ZM299.469 575.725H347.569V577.772H299.469V575.725Z" fill="white"/>
<path d="M259.652 529.846L258.27 529.264L257.322 522.334H244.693L243.665 529.236L242.428 529.854C242.369 529.884 242.321 529.933 242.293 529.992C242.265 530.052 242.258 530.12 242.274 530.184C242.289 530.249 242.325 530.306 242.377 530.347C242.429 530.388 242.493 530.411 242.559 530.411H259.539C259.606 530.411 259.672 530.387 259.725 530.344C259.777 530.301 259.813 530.242 259.826 530.175C259.84 530.109 259.83 530.04 259.798 529.98C259.766 529.92 259.715 529.873 259.652 529.846Z" fill="#E6E6E6"/>
<path d="M282.095 523.256H220.058C219.733 523.255 219.421 523.125 219.191 522.895C218.961 522.665 218.832 522.352 218.832 522.027V513.279H283.321V522.027C283.321 522.352 283.192 522.665 282.962 522.895C282.732 523.125 282.42 523.255 282.095 523.256Z" fill="#CCCCCC"/>
<path d="M283.386 517.413H218.775V479.983C218.776 479.59 218.932 479.213 219.21 478.935C219.487 478.658 219.864 478.501 220.257 478.501H281.904C282.297 478.501 282.674 478.658 282.952 478.935C283.229 479.213 283.386 479.59 283.386 479.983V517.413Z" fill="#3F3D56"/>
<path d="M279.527 514.697H222.634C222.331 514.696 222.041 514.576 221.827 514.362C221.613 514.148 221.492 513.857 221.492 513.554V482.36C221.492 482.057 221.613 481.767 221.827 481.552C222.041 481.338 222.331 481.218 222.634 481.218H279.527C279.83 481.218 280.12 481.338 280.334 481.552C280.549 481.767 280.669 482.057 280.669 482.36V513.554C280.669 513.857 280.549 514.148 280.334 514.362C280.12 514.576 279.83 514.696 279.527 514.697Z" fill="white"/>
<path d="M343.305 484.799C343.849 484.72 344.404 484.762 344.93 484.921C345.457 485.081 345.942 485.353 346.351 485.72C346.761 486.087 347.085 486.539 347.301 487.045C347.517 487.551 347.619 488.098 347.601 488.647L360.074 493.448L354.423 497.486L343.444 492.308C342.523 492.216 341.668 491.789 341.04 491.108C340.412 490.428 340.056 489.541 340.039 488.615C340.022 487.689 340.345 486.79 340.947 486.086C341.549 485.383 342.388 484.925 343.305 484.799Z" fill="#9E616A"/>
<path d="M390.668 482.442L392.778 486.278C392.268 488.712 390.95 490.901 389.038 492.491C385.807 495.216 368.914 505.364 368.914 505.364L347.587 494.657L351.318 489.7L368.062 495.311C374.273 489.446 381.768 485.113 389.95 482.657L390.668 482.442Z" fill="#E4E4E4"/>
<path d="M386.744 545.929C395.936 545.929 403.388 543.501 403.388 540.505C403.388 537.51 395.936 535.082 386.744 535.082C377.551 535.082 370.1 537.51 370.1 540.505C370.1 543.501 377.551 545.929 386.744 545.929Z" fill="#CACACA"/>
<path d="M349.404 608.995L344.984 607.773L347.593 590.144L354.116 591.948L349.404 608.995Z" fill="#9E616A"/>
<path d="M349.347 613.591L335.096 609.651L335.145 609.471C335.552 608 336.526 606.751 337.854 605.998C339.182 605.245 340.754 605.051 342.225 605.457L342.226 605.457L350.93 607.863L349.347 613.591Z" fill="#2F2E41"/>
<path d="M336.589 609.052L332.394 607.2L337.543 590.139L343.734 592.872L336.589 609.052Z" fill="#9E616A"/>
<path d="M335.864 613.591L322.338 607.618L322.414 607.447C323.03 606.051 324.176 604.957 325.599 604.406C327.023 603.854 328.606 603.891 330.003 604.507L330.003 604.507L338.264 608.155L335.864 613.591ZM399.697 527.246C399.697 527.246 401.921 534.134 388.279 542.846L370.71 560.353L352.455 604.02L341.617 599.161L343.743 593.487L345.169 589.68L345.899 587.732L346.681 585.644L358.284 554.674L368.03 537.609L368.313 528.349L370.71 521.822L388.102 515.651L399.697 527.246Z" fill="#2F2E41"/>
<path d="M390.828 527.587C390.828 527.587 393.051 534.475 379.409 543.187L361.841 560.694L343.586 604.361L332.748 599.502L334.873 593.829L336.3 590.021L337.029 588.073L337.812 585.986L349.414 555.015L352.678 549.301C356.983 541.763 362.214 534.794 368.249 528.555L371.448 525.248L371.789 520.131L379.233 515.992L390.828 527.587Z" fill="#2F2E41"/>
<path d="M380.318 493.864L385.776 482.265L395.301 480.966C395.301 480.966 402.739 490.441 400.786 503.756C400.054 508.75 399.457 513.721 399.421 518.084C399.412 519.245 400.428 519.764 400.445 520.813C400.462 521.844 398.52 523.524 399.08 524.225C399.882 525.19 400.359 526.384 400.445 527.636C399.769 529.245 379.309 520.529 370.71 521.822L380.318 493.864Z" fill="#E4E4E4"/>
<path d="M393.848 475.127C396.279 471.037 394.935 465.75 390.845 463.319C386.755 460.888 381.468 462.232 379.037 466.322C376.606 470.412 377.95 475.699 382.04 478.13C386.13 480.561 391.417 479.217 393.848 475.127Z" fill="#9E616A"/>
<path d="M391.949 467.631C391.933 467.857 391.91 468.158 391.883 468.497C391.857 469.427 392.119 470.342 392.634 471.117C393.116 471.932 392.54 476.855 392.54 476.855C406.653 467.018 395.502 457.135 391.14 458.014C391.231 456.763 387.674 457.259 387.674 457.259C386.318 455.148 383.347 457.95 383.347 457.95L383.921 456.985C381.614 457.572 379.335 464.7 379.335 464.7C380.117 467.775 392.04 466.38 391.949 467.631Z" fill="#2F2E41"/>
<path d="M337.203 498.426C342.053 491.976 345.887 484.821 348.571 477.211C348.727 476.755 348.716 476.26 348.54 475.812C348.364 475.364 348.035 474.993 347.612 474.765L331.017 465.873C330.749 465.728 330.451 465.647 330.146 465.634C329.841 465.622 329.537 465.679 329.258 465.802C328.974 465.926 328.721 466.112 328.52 466.348C328.318 466.584 328.173 466.863 328.096 467.164C326.164 474.497 322.534 481.273 317.498 486.943C317.29 487.174 317.138 487.449 317.054 487.748C316.969 488.046 316.953 488.36 317.007 488.665C317.06 488.966 317.18 489.25 317.36 489.497C317.539 489.744 317.772 489.947 318.041 490.09L334.636 498.982C335.06 499.208 335.551 499.277 336.022 499.175C336.492 499.073 336.911 498.808 337.203 498.426Z" fill="#CCCCCC"/>
<path d="M336.071 497.575C335.982 497.687 335.856 497.763 335.717 497.792C335.577 497.821 335.431 497.8 335.305 497.733L318.71 488.841C318.63 488.799 318.56 488.739 318.507 488.666C318.453 488.592 318.417 488.507 318.402 488.418C318.385 488.323 318.39 488.226 318.416 488.133C318.443 488.041 318.491 487.956 318.556 487.885C323.74 482.048 327.478 475.072 329.466 467.523C329.489 467.429 329.533 467.343 329.596 467.269C329.658 467.196 329.736 467.138 329.824 467.1C329.907 467.063 329.998 467.046 330.089 467.049C330.18 467.053 330.269 467.078 330.348 467.122L346.943 476.014C347.069 476.081 347.167 476.191 347.22 476.324C347.273 476.456 347.279 476.603 347.235 476.739C344.599 484.213 340.834 491.24 336.071 497.575Z" fill="white"/>
<path d="M330.265 475.57L341.711 482.279C342.85 482.946 343.881 481.178 342.744 480.511L331.298 473.803C330.16 473.135 329.128 474.903 330.265 475.57ZM328.218 479.322L339.664 486.031C340.803 486.699 341.834 484.93 340.697 484.264L329.252 477.555C328.113 476.888 327.081 478.656 328.218 479.322ZM325.831 483.416L337.276 490.125C338.415 490.792 339.446 489.024 338.309 488.358L326.864 481.649C325.725 480.981 324.694 482.75 325.831 483.416ZM323.443 486.827L334.888 493.536C336.027 494.204 337.059 492.435 335.922 491.769L324.476 485.06C323.337 484.393 322.306 486.161 323.443 486.827ZM375.621 526.289L379.918 535.952C380.022 536.184 380.066 536.437 380.047 536.69C380.028 536.943 379.946 537.187 379.809 537.4C379.648 537.655 379.415 537.856 379.139 537.979C378.864 538.101 378.558 538.14 378.261 538.089C378.159 538.073 378.06 538.047 377.964 538.01C377.585 537.863 377.278 537.572 377.113 537.2L372.816 527.537C372.734 527.353 372.689 527.154 372.684 526.953C372.679 526.751 372.713 526.551 372.785 526.362C372.858 526.174 372.966 526.002 373.105 525.856C373.244 525.71 373.41 525.592 373.595 525.511C373.779 525.429 373.977 525.384 374.179 525.379C374.38 525.373 374.581 525.408 374.769 525.48C374.957 525.553 375.129 525.661 375.276 525.8C375.422 525.939 375.539 526.105 375.621 526.289Z" fill="#E92B8C"/>
<path d="M379.571 535.173L380.432 537.123L380.873 539.888C380.902 540.07 380.87 540.257 380.782 540.419C380.694 540.581 380.555 540.709 380.387 540.784C380.218 540.859 380.03 540.876 379.851 540.833C379.671 540.79 379.512 540.688 379.396 540.545L377.614 538.328L376.766 536.421L379.571 535.173ZM371.861 523.601L372.476 527.47C372.497 527.596 372.546 527.717 372.62 527.821C372.694 527.926 372.791 528.012 372.904 528.073C373.016 528.135 373.142 528.169 373.27 528.174C373.398 528.179 373.525 528.155 373.643 528.103L374.253 527.831L375.431 530.481C375.468 530.563 375.536 530.628 375.621 530.66C375.705 530.692 375.799 530.69 375.881 530.653C375.964 530.616 376.029 530.548 376.061 530.464C376.094 530.38 376.091 530.286 376.055 530.203L374.877 527.554L375.487 527.282C375.689 527.192 375.848 527.026 375.928 526.819C376.007 526.612 376.002 526.382 375.913 526.18C375.883 526.113 375.844 526.05 375.798 525.993L373.338 522.944C373.222 522.801 373.062 522.7 372.883 522.656C372.704 522.613 372.515 522.63 372.347 522.705C372.179 522.78 372.04 522.909 371.952 523.071C371.864 523.233 371.832 523.419 371.861 523.601Z" fill="#3F3D56"/>
<path d="M373.643 530.584C373.74 530.042 373.954 529.529 374.271 529.079C374.588 528.63 374.999 528.255 375.477 527.982C375.954 527.709 376.485 527.544 377.033 527.498C377.581 527.452 378.132 527.527 378.648 527.717L387.131 517.388L389.185 524.023L380.815 532.815C380.437 533.66 379.763 534.338 378.92 534.719C378.076 535.101 377.122 535.159 376.238 534.884C375.354 534.609 374.602 534.02 374.123 533.227C373.645 532.434 373.474 531.494 373.643 530.584Z" fill="#9E616A"/>
<path d="M384.322 529.912L380.586 524.516L391.195 510.371L385.73 498.659L386.128 484.729L390.644 483.895L390.7 483.923C392.896 485.187 394.593 487.164 395.51 489.525C396.637 492.342 399.152 502.915 400.551 508.967C400.826 510.139 400.795 511.363 400.463 512.521C400.131 513.679 399.508 514.732 398.654 515.581L384.322 529.912Z" fill="#E4E4E4"/>
<path d="M279.129 503.836C279.098 504.098 279.087 504.363 279.098 504.626L259.969 518.543L254.714 516.217L250.168 523.689L259.071 528.71C259.79 529.116 260.621 529.277 261.44 529.17C262.259 529.063 263.021 528.693 263.612 528.116L282.864 509.312C283.849 509.562 284.888 509.507 285.841 509.152C286.794 508.798 287.616 508.162 288.199 507.329C288.782 506.496 289.098 505.505 289.104 504.489C289.11 503.472 288.806 502.478 288.233 501.638C287.66 500.798 286.845 500.152 285.896 499.787C284.947 499.421 283.91 499.353 282.921 499.592C281.933 499.831 281.041 500.365 280.363 501.123C279.686 501.881 279.255 502.828 279.129 503.836Z" fill="#FFB6B6"/>
<path d="M259.351 519.051L253.772 528.347C253.614 528.611 253.4 528.838 253.145 529.013C252.891 529.187 252.602 529.304 252.298 529.357C251.994 529.41 251.682 529.396 251.384 529.317C251.086 529.239 250.808 529.097 250.57 528.901L242.218 522.042C240.87 521.222 239.901 519.901 239.526 518.368C239.15 516.836 239.397 515.217 240.213 513.866C241.029 512.515 242.347 511.543 243.878 511.163C245.41 510.783 247.029 511.025 248.382 511.837L258.333 515.965C258.618 516.083 258.874 516.261 259.084 516.487C259.294 516.713 259.452 516.982 259.549 517.275C259.645 517.568 259.678 517.878 259.643 518.185C259.609 518.491 259.509 518.787 259.351 519.051Z" fill="#E92B8C"/>
<path d="M246.384 599.845H235.45V581.725H246.384V599.845Z" fill="#CACACA"/>
<path d="M244.433 593.381L245.836 591.313L272.078 609.12L270.675 611.188L244.433 593.381ZM209.755 609.12L235.998 591.313L237.401 593.381L211.159 611.188L209.755 609.12Z" fill="#CACACA"/>
<path d="M271.377 613.591C273.274 613.591 274.813 612.052 274.813 610.154C274.813 608.256 273.274 606.718 271.377 606.718C269.479 606.718 267.94 608.256 267.94 610.154C267.94 612.052 269.479 613.591 271.377 613.591Z" fill="#CACACA"/>
<path d="M240.761 613.591C242.659 613.591 244.197 612.052 244.197 610.154C244.197 608.256 242.659 606.718 240.761 606.718C238.863 606.718 237.324 608.256 237.324 610.154C237.324 612.052 238.863 613.591 240.761 613.591Z" fill="#CACACA"/>
<path d="M210.457 613.591C212.355 613.591 213.894 612.052 213.894 610.154C213.894 608.256 212.355 606.718 210.457 606.718C208.559 606.718 207.021 608.256 207.021 610.154C207.021 612.052 208.559 613.591 210.457 613.591Z" fill="#CACACA"/>
<path d="M239.511 592.347H242.01V610.154H239.511V592.347ZM243.26 589.848H238.574V565.792H243.26V589.848Z" fill="#CACACA"/>
<path d="M227.483 569.541V563.918C227.485 562.883 227.896 561.89 228.628 561.158C229.361 560.426 230.353 560.014 231.388 560.013H252.32C253.355 560.014 254.348 560.426 255.08 561.158C255.812 561.89 256.224 562.883 256.225 563.918V569.541C256.224 570.577 255.812 571.569 255.08 572.301C254.348 573.033 253.355 573.445 252.32 573.446H231.388C230.353 573.445 229.361 573.033 228.628 572.301C227.896 571.569 227.485 570.577 227.483 569.541Z" fill="#3F3D56"/>
<path d="M265.288 607.98L271.076 607.979L273.831 592.966L265.287 592.966L265.288 607.98Z" fill="#FFB8B8"/>
<path d="M263.812 613.591L282.477 613.59V613.354C282.477 612.4 282.289 611.455 281.924 610.574C281.559 609.693 281.024 608.892 280.349 608.217C279.674 607.542 278.874 607.007 277.992 606.642C277.111 606.277 276.166 606.089 275.212 606.089H275.211L263.811 606.09L263.812 613.591ZM273.946 598.669L285.486 572.791C286.45 570.609 286.556 568.145 285.785 565.889C285.013 563.633 283.42 561.75 281.322 560.616L256.291 547.193L244.868 546.222L234.332 545.264L234.256 545.393C234.159 545.557 231.893 549.47 233.425 553.76C234.586 557.015 237.608 559.557 242.405 561.316C253.602 565.422 266.537 568.931 271.579 570.249C271.802 570.306 272.01 570.409 272.19 570.552C272.37 570.695 272.517 570.875 272.623 571.08C272.729 571.281 272.792 571.503 272.808 571.731C272.824 571.958 272.792 572.186 272.716 572.401L261.994 596.489C261.882 596.794 261.842 597.121 261.876 597.445C261.911 597.769 262.019 598.08 262.193 598.355C262.367 598.63 262.601 598.861 262.879 599.032C263.156 599.202 263.469 599.306 263.793 599.336L271.804 599.919C271.872 599.925 271.94 599.929 272.007 599.929C272.417 599.929 272.819 599.81 273.163 599.586C273.507 599.363 273.779 599.044 273.946 598.669Z" fill="#2F2E41"/>
<path d="M261.511 607.98L267.299 607.979L270.053 592.966L261.51 592.966L261.511 607.98Z" fill="#FFB8B8"/>
<path d="M260.034 613.591L278.699 613.59V613.354C278.699 612.4 278.512 611.455 278.146 610.574C277.781 609.693 277.246 608.892 276.572 608.217C275.897 607.542 275.096 607.007 274.215 606.642C273.333 606.277 272.389 606.089 271.435 606.089H271.434L260.034 606.09L260.034 613.591ZM269.696 600.086L281.237 574.207C282.2 572.026 282.307 569.562 281.535 567.306C280.764 565.05 279.17 563.167 277.073 562.033L252.041 548.61L240.619 547.638L232.366 546.922L232.367 546.809C232.27 546.973 230.005 550.886 231.536 555.177C232.698 558.431 233.358 560.973 238.155 562.733C249.353 566.838 262.288 570.347 267.329 571.665C267.552 571.722 267.76 571.826 267.94 571.969C268.12 572.112 268.268 572.292 268.373 572.496C268.479 572.698 268.542 572.92 268.558 573.147C268.574 573.375 268.543 573.603 268.466 573.818L257.745 597.905C257.633 598.211 257.592 598.538 257.627 598.862C257.661 599.185 257.77 599.496 257.943 599.771C258.117 600.047 258.352 600.278 258.629 600.448C258.907 600.618 259.219 600.722 259.543 600.752L267.554 601.336C267.622 601.342 267.69 601.345 267.758 601.345C268.168 601.345 268.569 601.226 268.913 601.003C269.257 600.779 269.529 600.461 269.696 600.086Z" fill="#2F2E41"/>
<path d="M262.457 488.619C263.939 482.388 260.089 476.136 253.858 474.654C247.627 473.172 241.374 477.022 239.892 483.253C238.41 489.484 242.26 495.737 248.491 497.219C254.723 498.701 260.975 494.85 262.457 488.619Z" fill="#FFB8B8"/>
<path d="M291.15 530.493C296 524.042 299.833 516.888 302.518 509.277C302.673 508.822 302.662 508.326 302.487 507.879C302.311 507.431 301.982 507.06 301.558 506.832L284.964 497.94C284.695 497.795 284.397 497.713 284.093 497.701C283.788 497.688 283.484 497.746 283.205 497.869C282.92 497.992 282.668 498.179 282.466 498.415C282.265 498.651 282.12 498.93 282.043 499.23C280.111 506.564 276.48 513.34 271.444 519.01C271.237 519.241 271.085 519.516 271 519.814C270.915 520.113 270.899 520.426 270.954 520.732C271.007 521.032 271.127 521.317 271.306 521.564C271.485 521.811 271.718 522.014 271.988 522.157L288.583 531.049C289.007 531.275 289.498 531.343 289.968 531.242C290.438 531.14 290.857 530.875 291.15 530.493Z" fill="#CCCCCC"/>
<path d="M290.018 529.642C289.928 529.753 289.803 529.83 289.663 529.859C289.523 529.888 289.378 529.867 289.252 529.8L272.657 520.908C272.576 520.866 272.507 520.806 272.453 520.733C272.4 520.659 272.364 520.574 272.349 520.485C272.332 520.39 272.336 520.293 272.363 520.2C272.39 520.108 272.437 520.023 272.502 519.952C277.687 514.115 281.424 507.139 283.413 499.59C283.436 499.496 283.48 499.41 283.542 499.336C283.604 499.263 283.683 499.205 283.771 499.167C283.854 499.13 283.944 499.112 284.035 499.116C284.126 499.12 284.215 499.145 284.295 499.189L300.889 508.08C301.015 508.148 301.113 508.258 301.167 508.391C301.22 508.523 301.225 508.67 301.182 508.806C298.545 516.28 294.78 523.307 290.018 529.642Z" fill="white"/>
<path d="M284.212 507.637L295.658 514.346C296.797 515.013 297.828 513.245 296.691 512.578L285.245 505.869C284.106 505.202 283.075 506.97 284.212 507.637ZM282.165 511.389L293.611 518.098C294.75 518.766 295.781 516.997 294.644 516.331L283.198 509.622C282.059 508.954 281.028 510.723 282.165 511.389ZM280.557 515.127L290.966 521.307C292.002 521.922 293.11 520.65 292.076 520.037L281.666 513.857C280.631 513.242 279.523 514.513 280.557 515.127ZM277.389 518.894L288.835 525.603C289.974 526.271 291.005 524.502 289.868 523.836L278.422 517.127C277.283 516.459 276.252 518.228 277.389 518.894Z" fill="#CCCCCC"/>
<path d="M257.862 548.132L234.912 547.995L234.906 547.832C234.468 536.317 235.876 525.887 239.208 515.944C239.255 515.572 239.306 515.174 239.356 514.784C239.925 510.336 240.377 506.804 244.607 505.489C244.255 505.02 244.047 504.459 244.01 503.874C243.983 503.485 244.034 503.095 244.159 502.726C244.285 502.357 244.483 502.017 244.741 501.725C244.989 501.443 245.289 501.213 245.626 501.049C245.963 500.885 246.329 500.789 246.704 500.767L254.872 500.489C255.302 500.486 255.719 500.628 256.058 500.891C256.68 501.353 257.117 502.022 257.291 502.777C257.465 503.532 257.365 504.324 257.008 505.011C256.912 505.203 256.875 505.29 256.861 505.328C257.151 506.85 258.013 508.657 258.925 510.569C260.23 513.308 261.71 516.411 262.09 519.732C262.296 521.525 262.211 523.339 261.838 525.104C261.667 526.056 261.628 527.026 261.721 527.988C261.796 529.415 261.866 530.761 261.06 532.064C260.854 532.417 260.619 532.794 260.343 533.211L259.209 535.922L257.862 548.132Z" fill="#E92B8C"/>
<path d="M223.422 564.246V517.353C223.424 515.825 224.032 514.36 225.112 513.28C226.193 512.199 227.658 511.592 229.186 511.59H230.78C232.308 511.592 233.773 512.199 234.853 513.28C235.934 514.36 236.541 515.825 236.543 517.353V564.246C236.541 565.775 235.934 567.239 234.853 568.32C233.773 569.4 232.308 570.008 230.78 570.01H229.186C227.658 570.008 226.193 569.4 225.112 568.32C224.032 567.239 223.424 565.775 223.422 564.246Z" fill="#3F3D56"/>
<path d="M284.964 522.034C284.8 522.24 284.651 522.459 284.521 522.688L260.929 524.411L257.693 519.662L249.888 523.608L254.799 532.572C255.195 533.297 255.816 533.873 256.568 534.214C257.32 534.555 258.163 534.643 258.969 534.465L285.247 528.656C285.951 529.389 286.863 529.89 287.859 530.092C288.855 530.294 289.89 530.188 290.825 529.788C291.759 529.389 292.55 528.713 293.092 527.853C293.634 526.993 293.901 525.988 293.858 524.972C293.814 523.956 293.463 522.978 292.85 522.166C292.237 521.355 291.391 520.75 290.426 520.431C289.461 520.112 288.421 520.094 287.445 520.381C286.47 520.667 285.604 521.244 284.964 522.034Z" fill="#FFB6B6"/>
<path d="M260.135 524.516L250.491 529.467C250.216 529.608 249.915 529.688 249.607 529.701C249.298 529.715 248.991 529.662 248.705 529.547C248.419 529.431 248.162 529.255 247.95 529.031C247.738 528.806 247.577 528.539 247.478 528.247L244.005 518.012C243.293 516.607 243.166 514.978 243.653 513.479C244.139 511.981 245.199 510.737 246.6 510.018C242.325 512.212 251.229 505.979 254.627 512.599L260.9 521.358C261.08 521.608 261.203 521.895 261.262 522.198C261.321 522.501 261.314 522.812 261.241 523.112C261.168 523.412 261.032 523.693 260.841 523.935C260.65 524.177 260.409 524.376 260.135 524.516Z" fill="#E92B8C"/>
<path d="M245.936 497.216C245.238 497.216 244.468 496.88 243.6 496.198C241.044 494.192 239.218 491.402 238.4 488.258C237.583 485.114 237.82 481.788 239.074 478.791C239.706 477.283 240.886 475.233 242.926 474.032C244.393 473.169 246.116 472.857 247.615 472.633C248.914 472.438 250.228 472.283 251.522 472.173C253.069 472.041 254.855 471.951 256.485 472.57C257.678 473.024 258.694 473.825 259.677 474.6C260.019 474.87 260.374 475.149 260.728 475.408C261.588 476.078 262.579 476.56 263.637 476.821C263.861 476.867 264.072 476.961 264.256 477.096C264.44 477.23 264.592 477.403 264.704 477.602C264.818 477.804 264.887 478.029 264.906 478.26C264.926 478.491 264.896 478.724 264.818 478.942C264.665 479.372 264.526 479.759 264.806 480.179C264.91 480.327 265.048 480.447 265.209 480.529C265.37 480.611 265.549 480.653 265.729 480.65C265.825 480.648 265.919 480.67 266.003 480.714C266.088 480.759 266.16 480.823 266.213 480.902C266.267 480.98 266.301 481.071 266.312 481.165C266.323 481.26 266.311 481.356 266.276 481.444L266.231 481.56C266.352 481.571 266.467 481.611 266.568 481.677C266.669 481.743 266.753 481.832 266.812 481.937C266.899 482.087 266.933 482.263 266.908 482.434C266.882 482.606 266.799 482.764 266.671 482.882C265.637 483.867 264.346 484.542 262.947 484.831C261.99 485.019 261.004 485.016 260.048 484.824L259.894 484.794L259.913 484.624C256.043 483.243 252.55 485.586 250.558 488.264L250.271 488.082C250.32 487.982 250.349 487.873 250.355 487.762C250.361 487.651 250.345 487.54 250.307 487.435C250.267 487.309 250.203 487.193 250.117 487.092C250.032 486.991 249.928 486.908 249.811 486.848C249.573 486.75 249.313 486.725 249.061 486.775C248.809 486.825 248.578 486.949 248.397 487.13C248.212 487.324 248.07 487.554 247.979 487.806C247.888 488.057 247.85 488.325 247.868 488.592C247.921 489.158 248.065 489.712 248.295 490.232C248.389 490.48 248.486 490.737 248.564 490.997C249.005 492.469 248.888 494.052 248.234 495.443C247.933 496.078 247.388 496.887 246.503 497.138C246.318 497.19 246.128 497.216 245.936 497.216Z" fill="#2F2E41"/>
<path d="M434.438 614.273H159.041C158.933 614.273 158.83 614.23 158.754 614.154C158.679 614.078 158.636 613.974 158.636 613.867C158.636 613.759 158.679 613.656 158.754 613.58C158.83 613.504 158.933 613.461 159.041 613.461H434.438C434.546 613.461 434.649 613.503 434.725 613.58C434.801 613.656 434.844 613.759 434.844 613.867C434.844 613.975 434.801 614.078 434.725 614.154C434.649 614.23 434.546 614.273 434.438 614.273Z" fill="#CACACA"/>
</g>
<path d="M152.229 219.987C154.231 218.679 156.381 217.528 157.945 215.625C159.508 213.722 160.368 210.77 159.24 208.506C158.846 207.762 158.324 207.112 157.705 206.593C156.256 205.331 154.552 204.482 152.741 204.119C150.931 203.756 149.067 203.89 147.312 204.51C144.427 205.56 142.063 207.863 139.892 210.227C137.859 212.439 135.894 214.793 134.458 217.532C133.022 220.272 132.128 223.446 132.378 226.603C132.54 228.68 133.279 230.812 134.806 232.008C135.517 232.527 136.337 232.833 137.185 232.898C138.034 232.962 138.884 232.783 139.653 232.377C140.831 231.728 141.475 230.247 142.31 229.169C145.145 225.526 148.496 222.425 152.229 219.987V219.987Z" fill="#FFC0A7"/>
<path d="M88.1758 471.287C87.6611 471.814 87.0464 472.166 86.4338 472.523C85.6815 472.964 84.8903 473.318 84.1225 473.722C83.6672 473.961 83.227 474.24 82.7942 474.525C82.47 474.736 82.1528 474.992 81.8443 475.237C81.3856 475.59 80.9606 475.994 80.5759 476.443C80.3917 476.665 80.1651 476.842 79.9701 477.052C79.6237 477.421 79.2868 477.802 78.9464 478.179L78.8908 478.23C78.4822 478.652 78.0677 479.065 77.6686 479.498C77.3155 479.902 76.937 480.278 76.536 480.621C76.0197 481.04 75.5081 481.465 74.9482 481.822C74.523 482.099 74.0849 482.35 73.6358 482.575C72.5697 483.127 71.4128 483.428 70.2374 483.46C69.7714 483.461 69.3062 483.417 68.8469 483.329C68.5511 483.278 68.2787 483.152 67.9881 483.101C67.8819 483.081 67.8244 482.949 67.7343 482.942C67.3984 482.914 67.1715 482.62 66.8651 482.522C66.8286 482.515 66.7949 482.495 66.7684 482.467C66.6342 482.325 66.4803 482.209 66.3126 482.123C65.6965 481.664 65.165 481.077 64.7467 480.395C64.4871 479.997 64.2697 479.568 64.0988 479.115C63.9226 478.586 63.7991 478.037 63.7306 477.478C63.6024 476.577 63.6703 475.654 63.9286 474.788C64.1321 474.065 64.4248 473.377 64.7982 472.744C65.1138 472.215 65.4633 471.712 65.844 471.239C66.0082 471.036 66.1847 470.843 66.3655 470.647C66.8231 470.126 67.3062 469.634 67.8126 469.173C68.1361 468.874 68.4597 468.575 68.7746 468.267C69.112 467.928 69.4386 467.575 69.7511 467.203C69.9264 466.992 70.1103 466.79 70.2883 466.579C70.8003 465.966 71.2714 465.313 71.6979 464.623C72.2336 463.766 72.7223 462.874 73.1615 461.951C73.4537 461.332 73.7373 460.704 74.0204 460.083C74.4366 459.162 74.9547 458.303 75.5627 457.526C75.6478 457.425 75.7382 457.331 75.8335 457.243C75.956 457.128 76.0706 457.003 76.1763 456.869C76.2556 456.763 76.3489 456.67 76.4531 456.594C76.9534 456.176 77.4895 455.813 78.0534 455.511C78.3381 455.379 78.6222 455.253 78.9151 455.148C79.5389 454.925 80.1829 454.78 80.8354 454.713C81.4708 454.65 82.1099 454.643 82.7464 454.692C83.3741 454.738 83.9947 454.867 84.5947 455.078C84.9065 455.174 85.2046 455.292 85.5093 455.394C85.8511 455.502 86.1875 455.629 86.517 455.777C86.9411 455.965 87.3432 456.209 87.7146 456.504C88.0803 456.807 88.3827 457.191 88.718 457.527C88.9886 457.787 89.2188 458.089 89.4837 458.354C89.8842 458.745 90.2082 459.223 90.4355 459.76C90.6801 460.314 90.8714 460.895 91.0062 461.494C91.0964 461.964 91.1563 462.441 91.1854 462.92C91.2432 463.605 91.2451 464.294 91.191 464.979C91.1268 465.718 90.967 466.444 90.7164 467.133C90.5569 467.549 90.4135 467.977 90.2201 468.373C89.885 469.107 89.476 469.796 89.0011 470.427C88.7423 470.732 88.4667 471.02 88.1758 471.287V471.287Z" fill="#DC8C73"/>
<path fill-rule="evenodd" clip-rule="evenodd" d="M390.639 238.614C393.731 238.841 396.69 239.941 398.831 242.134C400.924 244.278 401.964 247.183 401.898 250.147C401.834 253.046 400.447 255.648 398.484 257.821C396.362 260.172 393.845 262.642 390.639 262.618C387.446 262.593 385.278 259.804 382.914 257.703C380.356 255.43 376.962 253.51 376.605 250.147C376.227 246.595 378.325 243.133 381.121 240.836C383.717 238.703 387.258 238.367 390.639 238.614Z" fill="#ECC889"/>
<path fill-rule="evenodd" clip-rule="evenodd" d="M170.597 543.665C173.242 546.994 168.243 551.386 168.082 555.619C167.974 558.484 171.083 561.141 169.836 563.716C168.495 566.484 165.113 567.518 162.073 568.031C158.866 568.571 155.433 568.492 152.783 566.59C150.051 564.628 147.928 561.396 148.18 558.056C148.41 555 152.046 553.767 153.93 551.357C155.803 548.962 156.247 545.48 159.011 544.204C162.652 542.524 168.09 540.511 170.597 543.665Z" fill="#DC8C73"/>
<path d="M449.085 670.922C449.278 677.923 445.449 683.488 439.255 681.643C431.22 679.772 425.233 677.544 430.757 666.928C432.701 662.559 435.205 658.565 438.183 655.083C440.279 651.85 443.169 652.168 444.644 655.86C446.788 660.42 448.818 665.747 449.085 670.922Z" fill="#BCA28E"/>
<path d="M358.211 353.65C357.44 356.776 356.902 360.297 357.169 363.57C357.709 369.347 361.656 373.824 366.714 374.29L366.6 374.246C368.247 374.427 370.059 374.296 371.258 374.427C374.598 374.738 377.821 374.141 380.993 373.229C382.435 372.802 386.936 371.074 386.144 368.753C385.351 366.431 372.535 365.361 368.314 366.691C369.306 364.463 371.046 362.566 372.1 360.396C373.155 358.227 375.012 355.184 374.624 352.678C373.794 347.473 363.357 359.494 363.241 359.621C363.951 356.684 364.197 354.122 364.274 351.112C364.285 349.317 364.561 342.141 361.204 345.167C359.23 346.934 358.802 351.095 358.211 353.65Z" fill="#BCA28E"/>
</g>
<defs>
<clipPath id="clip0_56_179">
<path d="M0 20C0 8.95432 8.95431 0 20 0H507V842H20C8.9543 842 0 833.046 0 822V20Z" fill="white"/>
</clipPath>
<clipPath id="clip1_56_179">
<rect width="186.663" height="181.413" fill="white" transform="translate(69.9443 258.817)"/>
</clipPath>
<clipPath id="clip2_56_179">
<rect width="276.209" height="157.802" fill="white" transform="translate(158.635 456.471)"/>
</clipPath>
</defs>
</svg>
