<svg width="13" height="13" viewBox="0 0 13 13" fill="none" xmlns="http://www.w3.org/2000/svg">
<path d="M6.28542 13H9.42812V11.7H6.28542C3.55755 11.7 1.25708 9.321 1.25708 6.5C1.25708 3.679 3.55755 1.3 6.28542 1.3C9.01329 1.3 11.3137 3.679 11.3137 6.5V7.4295C11.3137 7.943 10.8675 8.45 10.3709 8.45C9.87439 8.45 9.42812 7.943 9.42812 7.4295V6.5C9.42812 4.706 8.02019 3.25 6.28542 3.25C4.55064 3.25 3.14271 4.706 3.14271 6.5C3.14271 8.294 4.55064 9.75 6.28542 9.75C7.1528 9.75 7.94477 9.386 8.51045 8.7945C8.91901 9.373 9.62297 9.75 10.3709 9.75C11.6092 9.75 12.5708 8.71 12.5708 7.4295V6.5C12.5708 2.912 9.75497 0 6.28542 0C2.81587 0 0 2.912 0 6.5C0 10.088 2.81587 13 6.28542 13ZM6.28542 8.45C5.24204 8.45 4.39979 7.579 4.39979 6.5C4.39979 5.421 5.24204 4.55 6.28542 4.55C7.3288 4.55 8.17104 5.421 8.17104 6.5C8.17104 7.579 7.3288 8.45 6.28542 8.45Z" fill="#7D7E7E"/>
</svg>
