<svg width="29" height="29" viewBox="0 0 29 29" fill="none" xmlns="http://www.w3.org/2000/svg">
<circle cx="14.5" cy="14.5" r="14.25" fill="#6C1CFF" stroke="#5F08FF" stroke-width="0.5"/>
<path d="M21 8H8C7.44772 8 7 8.44772 7 9V20C7 20.5523 7.44772 21 8 21H21C21.5523 21 22 20.5523 22 20V9C22 8.44772 21.5523 8 21 8Z" fill="white"/>
<path d="M7 8L13.7937 14.3408C14.1877 14.7085 14.8021 14.6979 15.1831 14.3169L21.5 8M8 8H21C21.5523 8 22 8.44772 22 9V20C22 20.5523 21.5523 21 21 21H8C7.44772 21 7 20.5523 7 20V9C7 8.44772 7.44772 8 8 8Z" stroke="#5F08FF" stroke-width="1.5"/>
</svg>
