<svg width="90" height="80" viewBox="0 0 90 80" fill="none" xmlns="http://www.w3.org/2000/svg">
<path fill-rule="evenodd" clip-rule="evenodd" d="M2.09396 46.5899L2.84278 46.7397C3.39984 46.8511 3.96654 46.9072 4.53463 46.9072H5.51069C6.07532 46.9072 6.63781 46.838 7.18557 46.701L8.17165 46.4545C8.74066 46.3122 9.26032 46.018 9.67505 45.6033L9.94981 45.3285C10.0138 45.2646 10.067 45.1907 10.1075 45.1098L10.5903 44.1442C10.6483 44.0282 10.5639 43.8917 10.4343 43.8917C10.3998 43.8917 10.3662 43.8815 10.3375 43.8624L9.624 43.3868C9.45926 43.2769 9.30577 43.1511 9.16577 43.0111L8.91436 42.7597C8.77575 42.6211 8.64716 42.4728 8.52954 42.316L8.28827 41.9943C7.90709 41.4861 7.70103 40.8636 7.70103 40.2283C7.70103 39.9921 7.73 39.7552 7.78729 39.5261L7.85625 39.2503C7.97258 38.7849 8.24555 38.3738 8.62927 38.086C9.10461 37.7295 9.70929 37.5924 10.2919 37.7089L10.3751 37.7255C10.8162 37.8137 11.2213 38.0305 11.5393 38.3486L11.6163 38.4256C11.9059 38.7152 12.1241 39.0682 12.2536 39.4568L12.3918 39.8711L12.483 40.2362C12.6449 40.8838 12.7268 41.5489 12.7268 42.2165C12.7268 42.4015 12.8768 42.5515 13.0619 42.5515H13.3969H13.9704C14.2563 42.5515 14.5403 42.5054 14.8115 42.415C15.2033 42.2845 15.5592 42.0645 15.8512 41.7725L16.1804 41.4433C16.3347 41.289 16.4733 41.1199 16.5944 40.9383L16.9706 40.374C17.0439 40.264 17.1447 40.1751 17.2629 40.116L17.2962 40.0993C17.5688 39.963 17.8979 40.0164 18.1133 40.2319C18.3029 40.4215 18.3691 40.7019 18.2843 40.9562L18.1222 41.4427C18.0992 41.5117 18.0713 41.579 18.0388 41.6441L18.0169 41.6878C17.8437 42.0343 17.5831 42.3295 17.2608 42.5443L16.7474 42.8866L16.4142 43.1087C15.9695 43.4052 15.4773 43.6229 14.9588 43.7525C14.5891 43.845 14.2093 43.8917 13.8281 43.8917H13.732H12.3918L12.1837 44.9321C12.0998 45.3513 11.9347 45.75 11.6976 46.1057C11.4918 46.4144 11.2349 46.6859 10.9381 46.9085L10.6984 47.0883C10.2665 47.4122 9.78532 47.6643 9.27322 47.835L8.03608 48.2474L7.79253 48.2961C6.84039 48.4865 5.87176 48.5825 4.90076 48.5825H4.09872C3.82032 48.5825 3.5424 48.5595 3.2678 48.5137L2.07785 48.3154C1.81266 48.2712 1.56791 48.1452 1.37781 47.9551L1.20817 47.7855C1.07488 47.6522 1 47.4714 1 47.2829C1 46.8904 1.31821 46.5721 1.71075 46.5721H1.91459C1.97482 46.5721 2.0349 46.5781 2.09396 46.5899ZM9.37629 40.556C9.37629 40.7648 9.43811 40.969 9.55396 41.1428L9.6706 41.3177C9.91241 41.6804 10.2807 41.94 10.7036 42.0457L11.3866 42.2165V41.9482C11.3866 41.4601 11.3079 40.9753 11.1536 40.5123L11.0833 40.3013C11.0621 40.238 11.0366 40.1762 11.0067 40.1165L10.8797 39.8625C10.7761 39.6553 10.5871 39.5037 10.3624 39.4475V39.4475C9.8615 39.3223 9.37629 39.7012 9.37629 40.2175V40.556Z" fill="#8AE3FF"/>
<path d="M12.7268 42.2165V42.2165C12.7268 41.5489 12.6449 40.8838 12.483 40.2362V40.2362M12.7268 42.2165V42.2165C12.7268 42.4015 12.8768 42.5515 13.0619 42.5515V42.5515M12.7268 42.2165C12.7268 42.4015 12.8768 42.5515 13.0619 42.5515M12.7268 42.2165C12.7268 41.5489 12.6449 40.8838 12.483 40.2362M2.84278 46.7397L2.09396 46.5899M2.84278 46.7397C3.39984 46.8511 3.96654 46.9072 4.53463 46.9072M2.84278 46.7397V46.7397C3.39984 46.8511 3.96654 46.9072 4.53463 46.9072V46.9072M2.09396 46.5899C2.0349 46.5781 1.97482 46.5721 1.91459 46.5721M2.09396 46.5899V46.5899C2.0349 46.5781 1.97482 46.5721 1.91459 46.5721V46.5721M1.91459 46.5721H1.71075M1.71075 46.5721C1.31821 46.5721 1 46.8904 1 47.2829M1.71075 46.5721V46.5721C1.31821 46.5721 1 46.8904 1 47.2829V47.2829M1 47.2829C1 47.4714 1.07488 47.6522 1.20817 47.7855M1 47.2829V47.2829C1 47.4714 1.07488 47.6522 1.20817 47.7855V47.7855M1.20817 47.7855L1.37781 47.9551M1.37781 47.9551C1.56791 48.1452 1.81266 48.2712 2.07785 48.3154M1.37781 47.9551V47.9551C1.56791 48.1452 1.81266 48.2712 2.07785 48.3154V48.3154M2.07785 48.3154L3.2678 48.5137M3.2678 48.5137C3.5424 48.5595 3.82032 48.5825 4.09872 48.5825M3.2678 48.5137V48.5137C3.5424 48.5595 3.82032 48.5825 4.09872 48.5825V48.5825M4.09872 48.5825H4.90076M4.90076 48.5825C5.87176 48.5825 6.84039 48.4865 7.79253 48.2961M4.90076 48.5825V48.5825C5.87176 48.5825 6.84039 48.4865 7.79253 48.2961V48.2961M7.79253 48.2961L8.03608 48.2474L9.27322 47.835M9.27322 47.835C9.78532 47.6643 10.2665 47.4122 10.6984 47.0883M9.27322 47.835V47.835C9.78532 47.6643 10.2665 47.4122 10.6984 47.0883V47.0883M10.6984 47.0883L10.9381 46.9085M10.9381 46.9085C11.2349 46.6859 11.4918 46.4144 11.6976 46.1057M10.9381 46.9085V46.9085C11.2349 46.6859 11.4918 46.4144 11.6976 46.1057V46.1057M11.6976 46.1057C11.9347 45.75 12.0998 45.3513 12.1837 44.9321M11.6976 46.1057V46.1057C11.9347 45.75 12.0998 45.3513 12.1837 44.9321V44.9321M12.1837 44.9321L12.3918 43.8917H13.732H13.8281M13.8281 43.8917C14.2093 43.8917 14.5891 43.845 14.9588 43.7525M13.8281 43.8917V43.8917C14.2093 43.8917 14.5891 43.845 14.9588 43.7525V43.7525M14.9588 43.7525C15.4773 43.6229 15.9695 43.4052 16.4142 43.1087M14.9588 43.7525V43.7525C15.4773 43.6229 15.9695 43.4052 16.4142 43.1087V43.1087M16.4142 43.1087L16.7474 42.8866L17.2608 42.5443M17.2608 42.5443C17.5831 42.3295 17.8437 42.0343 18.0169 41.6878M17.2608 42.5443V42.5443C17.5831 42.3295 17.8437 42.0343 18.0169 41.6878V41.6878M18.0169 41.6878L18.0388 41.6441M18.0388 41.6441C18.0713 41.579 18.0992 41.5117 18.1222 41.4427M18.0388 41.6441V41.6441C18.0713 41.579 18.0992 41.5117 18.1222 41.4427V41.4427M18.1222 41.4427L18.2843 40.9562M18.2843 40.9562C18.3691 40.7019 18.3029 40.4215 18.1133 40.2319M18.2843 40.9562V40.9562C18.3691 40.7019 18.3029 40.4215 18.1133 40.2319V40.2319M18.1133 40.2319C17.8979 40.0164 17.5688 39.963 17.2962 40.0993M18.1133 40.2319V40.2319C17.8979 40.0164 17.5688 39.963 17.2962 40.0993V40.0993M17.2962 40.0993L17.2629 40.116M17.2629 40.116C17.1447 40.1751 17.0439 40.264 16.9706 40.374M17.2629 40.116V40.116C17.1447 40.1751 17.0439 40.264 16.9706 40.374V40.374M16.9706 40.374L16.5944 40.9383M16.5944 40.9383C16.4733 41.1199 16.3347 41.289 16.1804 41.4433M16.5944 40.9383V40.9383C16.4733 41.1199 16.3347 41.289 16.1804 41.4433V41.4433M16.1804 41.4433L15.8512 41.7725M15.8512 41.7725C15.5592 42.0645 15.2033 42.2845 14.8115 42.415M15.8512 41.7725V41.7725C15.5592 42.0645 15.2033 42.2845 14.8115 42.415V42.415M14.8115 42.415C14.5403 42.5054 14.2563 42.5515 13.9704 42.5515M14.8115 42.415V42.415C14.5403 42.5054 14.2563 42.5515 13.9704 42.5515V42.5515M13.9704 42.5515H13.3969H13.0619M12.483 40.2362L12.3918 39.8711L12.2536 39.4568M12.2536 39.4568C12.1241 39.0682 11.9059 38.7152 11.6163 38.4256M12.2536 39.4568V39.4568C12.1241 39.0682 11.9059 38.7152 11.6163 38.4256V38.4256M11.6163 38.4256L11.5393 38.3486M11.5393 38.3486C11.2213 38.0305 10.8162 37.8137 10.3751 37.7255M11.5393 38.3486V38.3486C11.2213 38.0305 10.8162 37.8137 10.3751 37.7255V37.7255M10.3751 37.7255L10.2919 37.7089M10.2919 37.7089C9.70929 37.5924 9.10461 37.7295 8.62927 38.086M10.2919 37.7089V37.7089C9.70929 37.5924 9.10461 37.7295 8.62927 38.086V38.086M8.62927 38.086C8.24555 38.3738 7.97258 38.7849 7.85625 39.2503M8.62927 38.086V38.086C8.24555 38.3738 7.97258 38.7849 7.85625 39.2503V39.2503M7.85625 39.2503L7.78729 39.5261M7.78729 39.5261C7.73 39.7552 7.70103 39.9921 7.70103 40.2283M7.78729 39.5261V39.5261C7.73 39.7552 7.70103 39.9921 7.70103 40.2283V40.2283M7.70103 40.2283C7.70103 40.8636 7.90709 41.4861 8.28827 41.9943M7.70103 40.2283V40.2283C7.70103 40.8636 7.90709 41.4861 8.28827 41.9943V41.9943M8.28827 41.9943L8.52954 42.316M8.52954 42.316C8.64716 42.4728 8.77575 42.6211 8.91436 42.7597M8.52954 42.316V42.316C8.64716 42.4728 8.77575 42.6211 8.91436 42.7597V42.7597M8.91436 42.7597L9.16577 43.0111M9.16577 43.0111C9.30577 43.1511 9.45926 43.2769 9.624 43.3868M9.16577 43.0111V43.0111C9.30577 43.1511 9.45926 43.2769 9.624 43.3868V43.3868M9.624 43.3868L10.3375 43.8624M10.3375 43.8624C10.3662 43.8815 10.3998 43.8917 10.4343 43.8917M10.3375 43.8624V43.8624C10.3662 43.8815 10.3998 43.8917 10.4343 43.8917V43.8917M10.4343 43.8917C10.5639 43.8917 10.6483 44.0282 10.5903 44.1442M10.4343 43.8917V43.8917C10.5639 43.8917 10.6483 44.0282 10.5903 44.1442V44.1442M10.5903 44.1442L10.1075 45.1098M10.1075 45.1098C10.067 45.1907 10.0138 45.2646 9.94981 45.3285M10.1075 45.1098V45.1098C10.067 45.1907 10.0138 45.2646 9.94981 45.3285V45.3285M9.94981 45.3285L9.67505 45.6033M9.67505 45.6033C9.26032 46.018 8.74066 46.3122 8.17165 46.4545M9.67505 45.6033V45.6033C9.26032 46.018 8.74066 46.3122 8.17165 46.4545V46.4545M8.17165 46.4545L7.18557 46.701M7.18557 46.701C6.63781 46.838 6.07532 46.9072 5.51069 46.9072M7.18557 46.701V46.701C6.63781 46.838 6.07532 46.9072 5.51069 46.9072V46.9072M5.51069 46.9072H4.53463M11.3866 42.2165L10.7036 42.0457C10.2807 41.94 9.91241 41.6804 9.6706 41.3177L9.55396 41.1428C9.43811 40.969 9.37629 40.7648 9.37629 40.556V40.2175C9.37629 39.7012 9.8615 39.3223 10.3624 39.4475V39.4475C10.5871 39.5037 10.7761 39.6553 10.8797 39.8625L11.0067 40.1165C11.0366 40.1762 11.0621 40.238 11.0833 40.3013L11.1536 40.5123C11.3079 40.9753 11.3866 41.4601 11.3866 41.9482V42.2165Z" stroke="#00C2FF" stroke-width="0.5"/>
<path d="M61.5944 53.6022L59.5736 52.1325C59.3953 52.0028 59.1805 51.933 58.9601 51.933H58.6852C58.1462 51.933 57.7507 52.4395 57.8814 52.9624C57.9314 53.1624 58.0541 53.3365 58.2256 53.4509L60.3482 54.8659C61.4081 55.5725 62.2145 56.5993 62.6498 57.7964L63.2179 59.3587C63.2842 59.5409 63.4069 59.6972 63.5682 59.8047L63.6731 59.8746C64.0332 60.1147 64.5197 60.0174 64.7597 59.6573C64.9066 59.437 64.9323 59.1574 64.828 58.914L63.6621 56.1936C63.2188 55.1594 62.5045 54.264 61.5944 53.6022Z" fill="#FFB23A" stroke="#CA994D" stroke-width="0.5"/>
<circle cx="68.0104" cy="30.4897" r="2.09536" fill="#00FFFF" stroke="#00C2FF" stroke-width="0.5"/>
<circle cx="21.1032" cy="55.9536" r="2.09536" fill="#6FBE3D" stroke="#45B300" stroke-width="0.5"/>
<circle cx="16.4127" cy="23.7887" r="2.09536" fill="#F55D08" stroke="#D94E00" stroke-width="0.5"/>
<circle cx="35.5105" cy="2.68041" r="2.43041" fill="#B22DFF"/>
<circle cx="35.5105" cy="2.68041" r="2.43041" stroke="#7800BC" stroke-width="0.5"/>
<circle cx="35.5105" cy="2.68041" r="2.43041" stroke="#7800BC" stroke-width="0.5"/>
<circle cx="48.5778" cy="62.6546" r="2.09536" fill="#FF3D00" stroke="#B32B00" stroke-width="0.5"/>
<circle cx="42.8812" cy="60.3093" r="1.09021" fill="#FF00F5" stroke="#C400BC" stroke-width="0.5"/>
<circle cx="42.2113" cy="6.03094" r="1.09021" fill="#FFB138" stroke="#F09300" stroke-width="0.5"/>
<path d="M63.8995 12.3969H62.7918C62.4937 12.3969 62.2153 12.5459 62.05 12.7939C61.8142 13.1475 61.8608 13.6184 62.1614 13.9189L62.2815 14.039C62.5145 14.2721 62.8399 14.3882 63.1678 14.3554L64.65 14.2072C65.5282 14.1194 66.3572 13.7598 67.0214 13.1786L67.6004 12.672C68.3123 12.0491 68.8831 11.2813 69.2746 10.4201L70.0186 8.78314C70.2429 8.28988 70.4151 7.77463 70.5327 7.2457L70.9124 5.5367C70.9866 5.20301 71.1544 4.8974 71.3961 4.65569C71.5934 4.45839 71.8339 4.30974 72.0986 4.2215L72.4367 4.10881C72.6107 4.05082 72.7687 3.95311 72.8984 3.82344L73 3.72187C73.2304 3.49148 73.323 3.15712 73.244 2.84104C73.1267 2.3719 72.6686 2.07159 72.1916 2.15109L71.544 2.25903C71.2071 2.31518 70.8961 2.4752 70.6546 2.71671L70.2931 3.07825C69.8951 3.47623 69.6079 3.97119 69.4598 4.5142L68.8996 6.5681C68.7538 7.10269 68.5676 7.62541 68.3426 8.13177L67.8158 9.31699C67.5028 10.0212 67.0368 10.6468 66.4517 11.1484L65.8268 11.684C65.2901 12.144 64.6065 12.3969 63.8995 12.3969Z" fill="#FF1E5D" stroke="#A3002D" stroke-width="0.5"/>
</svg>
