<svg width="709" height="210" viewBox="0 0 709 210" fill="none" xmlns="http://www.w3.org/2000/svg">
<path d="M30.5 1.5V1.5C30.5 7.4302 29.221 13.2906 26.7501 18.6816L25 22.5L24.1724 24.3208C19.8096 33.9189 18.1923 44.5383 19.5 55V55L22.6644 69.3838C24.2169 76.4405 25 83.6446 25 90.87V101L24.0157 110.252C23.0104 119.703 20.6631 128.961 17.0446 137.749L15.5 141.5L5 162.5L1 168.5M13 207.5L49.911 124.225C52.6301 118.091 54.7301 111.674 56.1688 105.12V105.12C57.7146 98.0778 58.5 90.8634 58.5 83.6535V57.7312C58.5 55.9142 58.6665 54.1011 58.9973 52.3145L59.4442 49.9011C60.4482 44.4797 63.3574 39.5959 67.6467 36.1315V36.1315C71.7576 32.8111 76.8824 31 82.1669 31H84.3298C88.7202 31 93.0541 30.011 97.0099 28.1064L114.925 19.4804C116.97 18.4958 118.914 17.3143 120.73 15.9525V15.9525C125.497 12.377 129.271 7.64124 131.691 2.19566L132 1.5M54 1.5L55.1496 3.79919C57.2693 8.03854 61.1865 11.097 65.8133 12.1252V12.1252C66.9344 12.3743 68.0794 12.5 69.2278 12.5H81.1538C87.6346 12.5 94.0322 11.04 99.8715 8.22855V8.22855C102.946 6.74808 105.835 4.90804 108.476 2.747L110 1.5M149.5 1.5V1.5C149.5 7.35486 147.68 13.0649 144.291 17.8396L142.531 20.3204C139.866 24.0752 137.91 28.2854 136.76 32.7436L135.585 37.2944C134.864 40.0914 133.869 42.8107 132.616 45.4134V45.4134C129.582 51.7142 125.095 57.2041 119.523 61.4306L113.5 66L111.121 67.9651C105.07 72.9636 99.7511 78.7868 95.3192 85.2642V85.2642C91.125 91.3942 87.7637 98.0543 85.3236 105.07L81 117.5L71.5 144.5L70.492 148.154C68.5088 155.343 65.4487 162.191 61.4159 168.464V168.464C59.4745 171.484 57.3157 174.358 54.9566 177.065L41.5 192.5L30.5 207.5M162 1.5L160.708 8.28213C158.912 17.7116 155.768 26.8333 151.372 35.3666L149.5 39L143 55V55C141.677 57.977 139.842 60.699 137.58 63.0426L127 74L121.718 78.8906C116.295 83.9118 111.942 89.9762 108.919 96.7202V96.7202C107.642 99.5682 106.61 102.52 105.835 105.543L102 120.5L98.5 141.5L94.5 159L91 171L79 207.5M108.5 209V188.611C108.5 183.896 109.198 179.208 110.57 174.697V174.697C111.521 171.574 112.149 168.361 112.445 165.11L113.5 153.5L118 133L120.944 123.367C122.641 117.811 125.03 112.479 128.045 107.513V107.513C130.671 103.189 133.764 99.1558 137.261 95.4999V95.4999C141.074 91.5141 144.399 87.0898 147.169 82.3199L152 74L157.388 64.808C159.426 61.3323 160.5 57.3761 160.5 53.3472V53.3472C160.5 50.1519 161.176 46.9927 162.483 44.0769L167 34L175 18L177.92 10.2135C178.965 7.42721 179.5 4.47574 179.5 1.5V1.5M191.5 1.5L190.287 9.50694C189.431 15.1586 188.091 20.7264 186.284 26.1492L182.206 38.3816C180.405 43.784 178.146 49.0227 175.454 54.0406L168.5 67L159.635 79.8051C156.561 84.2458 154.133 89.101 152.425 94.2249L149.796 102.113C149.6 102.7 149.5 103.316 149.5 103.935V103.935C149.5 106.61 151.34 108.933 153.943 109.546L155.389 109.886C157.079 110.283 158.854 110.093 160.422 109.347L165.974 106.703C167.653 105.903 169.238 104.92 170.7 103.772L182.5 94.5L220.82 61.8567C231.028 53.1614 243.654 47.802 257 46.5V46.5L293.548 48.0891C299.835 48.3624 306.083 49.2286 312.207 50.6762L319.155 52.3185C326.693 54.1001 334.412 55 342.158 55H359L409.5 48.5L443.5 46.5V46.5C449.306 46.5 454.297 42.3826 455.4 36.6822L456.058 33.2838C456.351 31.7689 456.858 30.3033 457.563 28.9307L466 12.5L470.5 1.5M209 1.5L207 14.5L203.66 28.2772C203.234 30.0354 203.444 31.8877 204.253 33.5059V33.5059C205.858 36.716 209.477 38.3807 212.959 37.5102L215.377 36.9057C216.453 36.6368 217.48 36.2035 218.423 35.621L222.316 33.2164C229.891 28.5381 238.803 26.5056 247.657 27.4376L281.5 31L309.912 36.5438C318.27 38.1746 326.802 38.7311 335.301 38.2L370.5 36L409.5 34H429.108C433.582 34 437.935 32.5489 441.514 29.8646V29.8646C444.452 27.6613 446.75 24.7155 448.171 21.3298L456.5 1.5M443.5 1.5L442.386 3.43064C438.257 10.587 431.77 16.0862 424.034 18.9872V18.9872C421.355 19.9921 418.563 20.6704 415.721 21.0076L390.5 24L359 26.5H344.566C337.872 26.5 331.195 25.8279 324.636 24.4937L305 20.5L275.5 17L254 14.5H228.623C227.877 14.5 227.134 14.4085 226.41 14.2276L222.899 13.3499C220.902 12.8504 219.5 11.0553 219.5 8.99596V8.99596C219.5 8.02492 219.815 7.08007 220.398 6.30323L224 1.5M340.5 1.5L344.922 2.67052C353.272 4.88086 361.873 6 370.511 6H371.694C378.547 6 385.381 5.29565 392.089 3.89804L394 3.5L401 1.5M489.5 1.5L483 17V17C480.375 25.2047 479 33.8855 479 42.5V42.5L477.853 52.8232C477.62 54.9164 476.939 56.9349 475.856 58.7408V58.7408C474.016 61.8072 471.118 64.0945 467.708 65.1713L466.247 65.6326C464.426 66.2075 462.529 66.5 460.619 66.5H454.391C451.136 66.5 447.886 66.2311 444.676 65.6959L434.5 64L416.718 63.2379C405.323 62.7496 393.929 64.2142 383.028 67.5683L373.5 70.5L359 74.5L358.715 74.5634C349.952 76.5106 340.952 77.1631 332 76.5V76.5L313 74.5L295.5 70.5L282.068 68.3218C278.694 67.7747 275.365 66.9797 272.108 65.9434L270.946 65.5737C267.656 64.5268 264.276 63.7845 260.85 63.3562L258.552 63.069C255.529 62.6911 252.47 62.6836 249.445 63.0466V63.0466C244.207 63.6751 239.162 65.4029 234.638 68.1169L231.062 70.2628C228.027 72.0836 225.169 74.1833 222.524 76.5345L217.416 81.0746C214.477 83.6868 211.765 86.5435 209.309 89.6138L208.323 90.8459C204.793 95.2589 200.644 99.139 196.005 102.366L195.48 102.731C192.832 104.573 190.019 106.164 187.076 107.483L182.995 109.313C179.042 111.084 175.508 113.668 172.62 116.896V116.896C169.9 119.935 167.81 123.483 166.47 127.335L166.331 127.737C165.119 131.221 164.5 134.884 164.5 138.573V145V149.788C164.5 152.209 163.784 154.575 162.441 156.588V156.588C161.172 158.491 159.396 160.002 157.314 160.948L149.5 164.5L142.502 167.999C139.843 169.328 137.353 170.97 135.085 172.89L134.532 173.357C132.849 174.782 131.324 176.383 129.985 178.135V178.135C127.037 181.99 125.047 186.49 124.179 191.264L124.045 192.005C123.682 193.998 123.5 196.019 123.5 198.044V209M136 209L138.056 205.476C141.314 199.89 145.73 195.066 151.007 191.328V191.328C153.661 189.448 156.51 187.859 159.504 186.589L171.5 181.5L178.368 179.003C181.078 178.017 183.491 176.356 185.379 174.178V174.178C187.732 171.463 189.161 168.071 189.459 164.491L190 158V145L189.609 141.091C189.217 137.17 190.289 133.242 192.62 130.064V130.064C193.861 128.371 195.424 126.94 197.219 125.852L205.976 120.545C209.319 118.519 212.479 116.205 215.422 113.631L219 110.5L235.614 94.3121C237.524 92.4515 239.741 90.9358 242.168 89.8325V89.8325C246.916 87.6747 252.254 87.1885 257.313 88.4532L261.5 89.5L261.79 89.5581C268.248 90.8495 274.817 91.5 281.402 91.5H318.5H322.853C327.943 91.5 333.027 91.8887 338.058 92.6628L350 94.5L359.605 96.8051C361.528 97.2668 363.499 97.5 365.478 97.5V97.5C370.696 97.5 375.786 95.8775 380.042 92.8571L383.978 90.0642C387.298 87.7078 391.02 85.9763 394.961 84.9545V84.9545C399.921 83.6686 405.11 83.5373 410.128 84.5704L419.5 86.5L432.436 88.6561C435.806 89.2177 439.217 89.5 442.633 89.5V89.5C445.873 89.5 449.107 89.2462 452.307 88.741L454.891 88.333C462.564 87.1215 469.946 84.4991 476.664 80.5984L477.378 80.1836C480.452 78.3988 483.344 76.3175 486.012 73.9694L491.704 68.9606C493.548 67.3375 495.04 65.353 496.086 63.1299V63.1299C497.657 59.7913 498.161 56.0495 497.529 52.4143L496.5 46.5L495.743 42.527C494.961 38.4216 496.172 34.1886 499.007 31.1177V31.1177C499.995 30.0466 500.8 28.8191 501.387 27.4849L504.362 20.7229C505.452 18.2444 506.358 15.6884 507.07 13.076L507.816 10.3414C508.602 7.46001 509 4.48667 509 1.5V1.5M528 1.5L530.5 66.5V66.5C530.5 73.0602 528.842 79.514 525.681 85.2622L525 86.5V86.5C519.79 93.6643 512.528 99.0785 504.174 102.027L497.84 104.262C493.624 105.75 489.267 106.802 484.837 107.4L480.913 107.931C475.666 108.64 470.551 110.113 465.73 112.304V112.304C459.63 115.077 453.068 116.696 446.377 117.078L439 117.5L424 116.5V116.5C415.721 116.5 407.496 117.835 399.641 120.453L390.5 123.5L388.589 123.898C381.881 125.296 375.047 126 368.194 126H359.685C348.312 126 337.022 124.06 326.301 120.263L318.5 117.5L307.775 114.2C301.958 112.41 295.905 111.5 289.819 111.5V111.5C282.662 111.5 275.561 112.758 268.84 115.217L258.5 119L244.667 125.288C239.259 127.746 234.293 131.077 229.968 135.148V135.148C223.108 141.604 218.052 149.738 215.3 158.747L214 163L211.931 175.759C211.317 179.548 209.952 183.177 207.917 186.432V186.432C205.031 191.05 200.898 194.756 195.994 197.124L194.575 197.808C190.906 199.58 186.884 200.5 182.809 200.5V200.5C178.98 200.5 175.194 201.312 171.703 202.884L171.163 203.127C168.404 204.368 165.85 206.023 163.588 208.033L162.5 209M213 209V209C216.936 204.736 219.727 199.545 221.112 193.91L224.429 180.424C225.804 174.829 227.863 169.425 230.559 164.333L233.542 158.698C234.84 156.246 236.497 154.003 238.459 152.041V152.041C241.766 148.734 245.854 146.313 250.344 145.004L255.5 143.5L272 136.5L284.798 133.066C289.884 131.702 295.187 131.336 300.413 131.989V131.989C305.751 132.656 310.905 134.374 315.576 137.044L322.5 141L324.413 141.85C332.053 145.246 340.32 147 348.68 147V147C352.22 147 355.752 146.685 359.236 146.06L373.5 143.5L390.5 139V139C396.472 137.341 402.642 136.5 408.841 136.5H429H443.622C452.172 136.5 460.687 135.403 468.958 133.237L477.5 131L482.504 129.528C490.46 127.188 498.711 126 507.004 126H511.672C515.212 126 518.741 125.594 522.189 124.789L525.798 123.947C529.885 122.994 533.719 121.172 537.039 118.606V118.606C540.949 115.585 544.03 111.622 545.995 107.088L547.474 103.676C548.82 100.569 549.801 97.3164 550.396 93.983L551.461 88.0212C551.819 86.011 552 83.973 552 81.931V81.931C552 78.3323 552.561 74.7556 553.662 71.3295L556.5 62.5L558.422 53.5316C559.139 50.1866 559.5 46.7752 559.5 43.3542V39.5486C559.5 35.8832 558.801 32.2515 557.439 28.8482V28.8482C556.814 27.2857 556.327 25.6715 555.984 24.0241L554 14.5L552.358 5.46774C552.12 4.15857 552 2.83063 552 1.5V1.5M577 1.5L581.5 36.5L582.88 55.2709C583.622 65.3554 582.705 75.4934 580.168 85.2815L579.328 88.5207C577.783 94.4793 575.436 100.201 572.352 105.528V105.528C568.154 112.78 562.651 119.194 556.121 124.446L555.336 125.077C547.206 131.617 537.774 136.349 527.67 138.956L504.102 145.038C499.042 146.344 493.887 147.251 488.685 147.751L470.5 149.5L439 155L416.5 158L399.857 161.201C393.633 162.398 387.31 163 380.972 163H365.5H344.028C337.69 163 331.367 162.398 325.143 161.201L308.5 158L297.407 155.92C294.143 155.308 290.829 155 287.508 155H283.998C278.402 155 272.874 156.236 267.811 158.619L266.681 159.15C261.323 161.671 256.732 165.571 253.378 170.451V170.451C249.549 176.019 247.5 182.618 247.5 189.375V193.5V193.5C247.5 198.055 246.09 202.498 243.463 206.219L241.5 209M266 209V198.318C266 195.15 266.738 192.025 268.155 189.191V189.191C270.614 184.273 274.953 180.555 280.189 178.879L281.121 178.581C283.36 177.865 285.697 177.5 288.048 177.5H303L326 179L350 184V184C355.963 185.452 362.117 185.963 368.238 185.516L389 184L477.5 170L503.14 164.798C509.035 163.602 514.809 161.876 520.394 159.642L532 155L554 143.5L558.419 141.098C570.637 134.458 581.129 125.05 589.056 113.625V113.625C592.344 108.886 595.164 103.839 597.476 98.5543L599.806 93.2298C605.21 80.8769 608 67.5395 608 54.0561V54.0561C608 49.0262 607.612 44.0038 606.839 39.0337L605.79 32.2915C604.931 26.7735 603.612 21.3372 601.846 16.0394L597 1.5M618.5 1.5L623.601 22.2248C625.527 30.0463 626.5 38.0717 626.5 46.1267V58.8475C626.5 64.6042 625.978 70.3728 624.948 76.0365V76.0365C623.329 84.9421 620.445 93.6096 616.397 101.706V101.706C613.143 108.214 609.156 114.329 604.513 119.932L601.668 123.367C598.56 127.117 595.183 130.636 591.562 133.894L583.09 141.519C579.037 145.167 574.692 148.477 570.099 151.417L563.577 155.59C555.895 160.507 547.577 164.35 538.853 167.011L522.5 172L505.117 177.898C498.061 180.292 490.76 181.89 483.348 182.662L470.5 184L449.529 185.459C442.529 185.945 435.6 187.168 428.856 189.105L424 190.5L414.841 194.164C409.291 196.383 403.554 198.101 397.698 199.296L391.896 200.48C385.315 201.823 378.616 202.5 371.9 202.5H358.116C349.739 202.5 341.394 201.447 333.279 199.366L326 197.5L316.625 195.368C314.212 194.819 311.761 194.451 309.292 194.267L302.398 193.753C300.156 193.586 297.905 193.881 295.782 194.619V194.619C290.606 196.42 286.67 200.682 285.287 205.985L284.5 209M447.5 209L451.503 207.374C459.468 204.138 467.817 201.943 476.343 200.843L479 200.5L497.771 196.359C503.247 195.151 508.612 193.484 513.809 191.377L524.196 187.165C529.389 185.059 534.397 182.52 539.165 179.575L566 163L597 139L612.745 126.917C616.574 123.978 620.136 120.706 623.388 117.139V117.139C630.398 109.45 635.877 100.495 639.53 90.7523L640.408 88.4108C643.126 81.1642 644.945 73.6121 645.827 65.923L650 29.5V20.0669C650 16.5664 651.664 13.2742 654.482 11.1977V11.1977C657.595 8.90348 661.684 8.40998 665.254 9.89752L671.5 12.5L683.5 17L687.498 18.7493C690.138 19.904 692.987 20.5 695.868 20.5V20.5C698.919 20.5 701.933 21.1687 704.698 22.4589L708 24M708 51.5V51.5C703.124 51.5 698.373 53.0365 694.42 55.8912L693.55 56.5193C692.187 57.5042 690.92 58.6167 689.767 59.8416L687.375 62.383C684.797 65.1222 682.469 68.0864 680.419 71.2403L680.182 71.604C678.065 74.862 676.23 78.2957 674.7 81.8673L670.994 90.5143C669.005 95.1558 666.484 99.551 663.482 103.612V103.612C660.834 107.195 657.827 110.497 654.507 113.468L650 117.5L634 131V131C629.019 136.313 623.404 140.994 617.281 144.938L601.799 154.909C598.612 156.962 595.695 159.405 593.116 162.183L587.799 167.908C585.319 170.579 583.664 173.909 583.031 177.499L582.984 177.765C582.043 183.106 583.515 188.589 587.003 192.742V192.742C589.595 195.828 593.132 197.974 597.066 198.848L601.197 199.766C603.392 200.254 605.635 200.5 607.884 200.5H615.696C617.558 200.5 619.414 200.728 621.22 201.18V201.18C624.691 202.048 627.909 203.721 630.613 206.064L634 209M683.5 209L685.787 208.347C691.12 206.823 695.82 203.621 699.189 199.215V199.215C700.061 198.074 701.028 197.007 702.078 196.027L708 190.5M708 172L699.636 173.792C695.906 174.592 692.342 176.026 689.099 178.034L687.789 178.845C684.957 180.598 682.497 182.889 680.547 185.589V185.589C678.215 188.818 675.158 191.455 671.622 193.288L670.33 193.958C665.842 196.285 660.861 197.5 655.806 197.5V197.5C651.968 197.5 648.161 196.8 644.574 195.433L643.932 195.188C640.99 194.068 638.212 192.559 635.671 190.701L633.418 189.054C630.814 187.152 628.002 185.552 625.036 184.287L621.051 182.588C619.362 181.868 617.805 180.871 616.444 179.64L612.997 176.521C609.988 173.799 608.972 169.501 610.442 165.719V165.719C611.132 163.945 612.325 162.411 613.874 161.304L618.5 158L626.31 153.717C631.411 150.92 636.088 147.412 640.202 143.298V143.298C643.06 140.44 646.194 137.871 649.558 135.628L650.191 135.206C654.384 132.41 658.259 129.164 661.746 125.526L668 119L672.532 113.965C675.502 110.665 678.102 107.05 680.287 103.185L680.681 102.487C682.555 99.1717 684.069 95.666 685.198 92.0293L686.402 88.15C687.459 84.7431 689.106 81.5482 691.268 78.7108L694.745 74.1469C695.568 73.0664 696.651 72.2108 697.892 71.6591V71.6591C699.58 70.9091 701.473 70.7595 703.258 71.2354L708 72.5M708 89.5V89.5C706.369 87.8693 703.705 87.9394 702.162 89.6535L700.877 91.0806C700.626 91.3596 700.403 91.662 700.21 91.9838L694.193 102.011C692.406 104.99 691.025 108.195 690.089 111.541V111.541C688.71 116.465 686.374 121.07 683.214 125.091L681.04 127.858C678.356 131.275 675.287 134.371 671.893 137.085L659.5 147L650.694 154.415C650.233 154.804 649.733 155.146 649.203 155.435L646.863 156.711C645.406 157.506 644.5 159.032 644.5 160.691V160.691C644.5 162.142 645.194 163.505 646.367 164.358L649.316 166.503C649.772 166.834 650.25 167.132 650.748 167.394L658.208 171.32C659.068 171.773 659.96 172.162 660.877 172.486V172.486C665.468 174.106 670.493 174.003 675.014 172.195L678.015 170.994C679.668 170.333 681.256 169.519 682.758 168.563L686.42 166.233C689.801 164.081 693.005 161.662 696 159L699.738 155.677C700.245 155.226 700.716 154.736 701.146 154.211L703.1 151.822C704.303 150.352 706.101 149.5 708 149.5V149.5M506 209L517.993 203.226C518.995 202.743 520.046 202.372 521.129 202.117V202.117C525.489 201.091 530.08 202.025 533.692 204.674L535.5 206L539.5 209" stroke="white" stroke-width="1.2"/>
</svg>
