<svg width="26" height="27" viewBox="0 0 26 27" fill="none" xmlns="http://www.w3.org/2000/svg">
<path d="M13 26L8.99985 21.3956L4.05961 21.3956C3.36107 21.3956 2.87777 20.6977 3.12355 20.0438L4.30095 16.9115C4.463 16.4804 4.30964 15.9943 3.92951 15.7343L1.20645 13.8715C0.625952 13.4743 0.625941 12.6179 1.20643 12.2208L3.92928 10.358C4.3094 10.0979 4.46274 9.61188 4.3007 9.18077L3.12329 6.04844C2.87751 5.39457 3.36081 4.69659 4.05935 4.69659L8.53218 4.6966C8.82856 4.69661 9.10966 4.56514 9.29966 4.33768L12.1555 0.918794C12.5552 0.440232 13.2907 0.440232 13.6904 0.918794L16.5463 4.33768C16.7363 4.56514 17.0174 4.69661 17.3137 4.69661H21.9404C22.6389 4.69661 23.1222 5.39459 22.8764 6.04846L21.699 9.18077C21.537 9.61188 21.6904 10.0979 22.0705 10.358L24.7935 12.2208C25.374 12.6179 25.374 13.4744 24.7935 13.8715L22.0705 15.7343C21.6904 15.9943 21.537 16.4804 21.699 16.9115L22.8764 20.0438C23.1222 20.6977 22.6389 21.3956 21.9404 21.3956H17.3137C17.0174 21.3956 16.7363 21.5271 16.5463 21.7546L13 26Z" fill="#5784E9"/>
<path d="M8.99985 21.3956L13 26M8.99985 21.3956V21.3956C9.04431 21.3956 9.08653 21.4151 9.11539 21.4489L13 26M8.99985 21.3956L4.05961 21.3956C3.36107 21.3956 2.87777 20.6977 3.12355 20.0438L4.30095 16.9115C4.463 16.4804 4.30964 15.9943 3.92951 15.7343L1.20645 13.8715C0.625952 13.4743 0.625941 12.6179 1.20643 12.2208L3.92928 10.358C4.3094 10.0979 4.46274 9.61188 4.3007 9.18077L3.12329 6.04844C2.87751 5.39457 3.36081 4.69659 4.05935 4.69659L8.53218 4.6966C8.82856 4.69661 9.10966 4.56514 9.29966 4.33768L12.1555 0.918794C12.5552 0.440232 13.2907 0.440232 13.6904 0.918794L16.5463 4.33768C16.7363 4.56514 17.0174 4.69661 17.3137 4.69661H21.9404C22.6389 4.69661 23.1222 5.39459 22.8764 6.04846L21.699 9.18077C21.537 9.61188 21.6904 10.0979 22.0705 10.358L24.7935 12.2208C25.374 12.6179 25.374 13.4744 24.7935 13.8715L22.0705 15.7343C21.6904 15.9943 21.537 16.4804 21.699 16.9115L22.8764 20.0438C23.1222 20.6977 22.6389 21.3956 21.9404 21.3956H17.3137C17.0174 21.3956 16.7363 21.5271 16.5463 21.7546L13 26" stroke="#0754F8"/>
<path d="M8 11.5L11 15.5L18 8" stroke="white" stroke-width="2"/>
</svg>
